<mxfile host="65bd71144e">
    <diagram id="CSS5FL6_b1JioyjjIn_b" name="Page-1">
        <mxGraphModel dx="715" dy="543" grid="1" gridSize="5" guides="1" tooltips="1" connect="1" arrows="1" fold="1" page="1" pageScale="1" pageWidth="850" pageHeight="1100" background="none" math="1" shadow="0">
            <root>
                <mxCell id="0"/>
                <mxCell id="1" parent="0"/>
                <mxCell id="26" value="" style="shape=image;verticalLabelPosition=bottom;labelBackgroundColor=#ffffff;verticalAlign=top;aspect=fixed;imageAspect=0;image=data:image/png,iVBORw0KGgoAAAANSUhEUgAAA9YAAARkCAIAAAAYLhsVAAAMbWlDQ1BJQ0MgUHJvZmlsZQAASImVVwdYU8kWnluSkJDQAghICb0JIjWAlBBaAOlFsBGSQEKJMSGI2MuigmsXUazoqohiWwGxY1cWxd4XCyrKuqiLooC8CQnouq9873zf3PvnzJn/lDuTew8Amt1ciSQX1QIgT5wvjQ8LYoxNTWOQXgACUAck4A5IXJ5MwoqNjQJQBu9/l4+3AaK433BScP1z/r+KDl8g4wGAjIc4gy/j5UF8CgB8A08izQeAqNBbTs2XKPAciHWlMECIVytwlhLvUuAMJT42YJMYz4b4GgBqVC5XmgWAxkOoZxTwsiCPRi/ELmK+SAyA5giI/XlCLh9iRewj8vImK3A5xHbQXgIxjAcwM77jzPobf8YQP5ebNYSVeQ2IWrBIJsnlTvs/S/O/JS9XPujDBg6qUBoer8gf1vBuzuRIBaZC3CHOiI5R1BribhFfWXcAUIpQHp6ktEeNeTI2rB/Qh9iFzw2OhNgY4lBxbnSUSp+RKQrlQAx3C1ooyuckQmwA8SKBLCRBZbNFOjle5QutzZSyWSr9Ra50wK/C12N5ThJLxf9eKOCo+DGNImFiCsQUiK0KRMnREGtA7CzLSYhU2YwuErKjB22k8nhF/FYQxwvEYUFKfqwgUxoar7IvyZMN5ottEYo40Sp8MF+YGK6sD3aWxx2IH+aCXROIWUmDPALZ2KjBXPiC4BBl7tgrgTgpQcXTLckPileuxSmS3FiVPW4hyA1T6C0gdpcVJKjW4sn5cHMq+fFMSX5sojJOvCibGxGrjAdfDqIAGwQDBpDDkQEmg2wgau6o64C/lDOhgAukIAsIgJNKM7giZWBGDK8JoAj8AZEAyIbWBQ3MCkAB1PcNaZVXJ5A5MFswsCIHvIA4D0SCXPhbPrBKPOQtGTyHGtE/vHPh4MF4c+FQzP97/aD2m4YFNVEqjXzQI0Nz0JIYQgwmhhNDifa4Ee6P++JR8BoIhyvOxL0H8/hmT3hBaCE8JdwitBLuTRLNk/4Q5RjQCvlDVbXI+L4WuA3k9MCDcD/IDplxfdwIOOHu0A8LD4CePaCWrYpbURXGD9x/y+C7p6GyI7uQUfIwciDZ7seVGg4aHkMsilp/Xx9lrBlD9WYPzfzon/1d9fnwHvmjJbYIO4RdwE5jl7BjWB1gYCexeqwJO67AQ7vr+cDuGvQWPxBPDuQR/cPf4JNVVFLmUu3S7tKrnMsXFOYrDh57smSaVJQlzGew4NtBwOCIec4jGK4urq4AKN41yr+vD3ED7xBEv+mbbv7vAPid7O/vP/pNF3ESgANe8Pgf+aazYwKgrQ7AxSM8ubRAqcMVFwL8l9CEJ80QmAJLYAfzcQWewBcEghAQAWJAIkgFE2H0QrjPpWAqmAHmgmJQCpaDNWA92Ay2gV1gLzgI6sAxcBqcB1fANXALPIC7pw28AZ3gI+hBEISE0BA6YoiYIdaII+KKMBF/JASJQuKRVCQdyULEiByZgcxHSpGVyHpkK1KFHECOIKeRS0gLcg95grQj75EvKIZSUV3UBLVBR6JMlIVGoonoBDQLnYIWoQvQpWg5WonuQWvR0+gV9Bbair5BuzCAqWP6mDnmhDExNhaDpWGZmBSbhZVgZVglVoM1wOd8A2vFOrDPOBGn4wzcCe7gcDwJ5+FT8Fn4Enw9vguvxc/iN/AneCf+lUAjGBMcCT4EDmEsIYswlVBMKCPsIBwmnINnqY3wkUgk6hNtiV7wLKYSs4nTiUuIG4n7iKeILcRnxC4SiWRIciT5kWJIXFI+qZi0jrSHdJJ0ndRG6lZTVzNTc1ULVUtTE6vNUytT2612Qu262ku1HrIW2ZrsQ44h88nTyMvI28kN5KvkNnIPRZtiS/GjJFKyKXMp5ZQayjnKQ8oHdXV1C3Vv9Th1kfoc9XL1/eoX1Z+of6bqUB2obOp4qpy6lLqTeop6j/qBRqPZ0AJpabR82lJaFe0M7TGtW4Ou4azB0eBrzNao0KjVuK7xVpOsaa3J0pyoWaRZpnlI86pmhxZZy0aLrcXVmqVVoXVE645WlzZde5R2jHae9hLt3dqXtF/pkHRsdEJ0+DoLdLbpnNF5RsfolnQ2nUefT99OP0dv0yXq2upydLN1S3X36jbrdurp6LnrJesV6lXoHddr1cf0bfQ5+rn6y/QP6t/W/zLMZBhrmGDY4mE1w64P+2Qw3CDQQGBQYrDP4JbBF0OGYYhhjuEKwzrDR0a4kYNRnNFUo01G54w6husO9x3OG14y/ODw+8aosYNxvPF0423GTcZdJqYmYSYSk3UmZ0w6TPVNA02zTVebnjBtN6Ob+ZuJzFabnTR7zdBjsBi5jHLGWUanubF5uLncfKt5s3mPha1FksU8i30WjywplkzLTMvVlo2WnVZmVmOsZlhVW923JlszrYXWa60vWH+ysbVJsVloU2fzytbAlmNbZFtt+9COZhdgN8Wu0u6mPdGeaZ9jv9H+mgPq4OEgdKhwuOqIOno6ihw3OraMIIzwHiEeUTnijhPVieVU4FTt9MRZ3znKeZ5znfPbkVYj00auGHlh5FcXD5dcl+0uD0bpjIoYNW9Uw6j3rg6uPNcK15tuNLdQt9lu9W7v3B3dBe6b3O960D3GeCz0aPTo8/TylHrWeLZ7WXmle23wusPUZcYylzAvehO8g7xnex/z/uzj6ZPvc9DnT18n3xzf3b6vRtuOFozePvqZn4Uf12+rX6s/wz/df4t/a4B5ADegMuBpoGUgP3BH4EuWPSubtYf1NsglSBp0OOgT24c9k30qGAsOCy4Jbg7RCUkKWR/yONQiNCu0OrQzzCNsetipcEJ4ZPiK8DscEw6PU8XpjPCKmBlxNpIamRC5PvJplEOUNKphDDomYsyqMQ+jraPF0XUxIIYTsyrmUaxt7JTYo3HEuNi4irgX8aPiZ8RfSKAnTErYnfAxMShxWeKDJLskeVJjsmby+OSq5E8pwSkrU1rHjhw7c+yVVKNUUWp9GiktOW1HWte4kHFrxrWN9xhfPP72BNsJhRMuTTSamDvx+CTNSdxJh9IJ6Snpu9N7uTHcSm5XBidjQ0Ynj81by3vDD+Sv5rcL/AQrBS8z/TJXZr7K8staldUuDBCWCTtEbNF60bvs8OzN2Z9yYnJ25vTnpuTuy1PLS887ItYR54jPTjadXDi5ReIoKZa0TvGZsmZKpzRSukOGyCbI6vN14Ud9k9xO/pP8SYF/QUVB99TkqYcKtQvFhU3THKYtnvayKLTol+n4dN70xhnmM+bOeDKTNXPrLGRWxqzG2ZazF8xumxM2Z9dcytycub/Nc5m3ct5f81PmNywwWTBnwbOfwn6qLtYolhbfWei7cPMifJFoUfNit8XrFn8t4ZdcLnUpLSvtXcJbcvnnUT+X/9y/NHNp8zLPZZuWE5eLl99eEbBi10rtlUUrn60as6p2NWN1yeq/1kxac6nMvWzzWspa+drW8qjy+nVW65av610vXH+rIqhi3wbjDYs3fNrI33h9U+Cmms0mm0s3f9ki2nJ3a9jW2kqbyrJtxG0F215sT95+4RfmL1U7jHaU7ujbKd7Zuit+19kqr6qq3ca7l1Wj1fLq9j3j91zbG7y3vsapZus+/X2l+8F++f7XB9IP3D4YebDxEPNQza/Wv244TD9cUovUTqvtrBPWtdan1rcciTjS2ODbcPio89Gdx8yPVRzXO77sBOXEghP9J4tOdp2SnOo4nXX6WeOkxgdnxp65eTbubPO5yHMXz4eeP3OBdeHkRb+Lxy75XDpymXm57ornldomj6bDv3n8drjZs7n2qtfV+mve1xpaRrecuB5w/fSN4Bvnb3JuXrkVfavldtLtu3fG32m9y7/76l7uvXf3C+73PJjzkPCw5JHWo7LHxo8rf7f/fV+rZ+vxJ8FPmp4mPH3wjPfszXPZ8962BS9oL8pemr2seuX66lh7aPu11+Net72RvOnpKP5D+48Nb+3e/vpn4J9NnWM7295J3/W/X/LB8MPOv9z/auyK7Xr8Me9jz6eSbsPuXZ+Zny98SfnysmdqL6m3vM++r+Fr5NeH/Xn9/RKulDvwKYDBgWZmAvB+JwC0VADosG+jjFP2ggOCKPvXAQT+E1b2iwPiCUAN/H6P64BfN3cA2L8dtl+QXxP2qrE0ABK9AermNjRUIst0c1VyUWGfQnjc3/8B9mykVQD0Le/v76ns7+/bBoOFveMpsbIHVQgR9gxbQvoy8jLAvxFlf/pdjj/egSICd/Dj/V8eTJDX2WtJeAAAADhlWElmTU0AKgAAAAgAAYdpAAQAAAABAAAAGgAAAAAAAqACAAQAAAABAAAD1qADAAQAAAABAAAEZAAAAAAqJpOnAABAAElEQVR4AeydB3wcxfXHVa3qomK5yE0uuPduwBhjU43pYEoghN57r4GQQggk5E9C6C10QnHBGGNsXAA3jHvvtlwkS7K61f4/MfLTsHu3Wt3u6e6knz/6wNzs7Js3353dfTP75k34RzPnhx39t2vH9p+WLtm6eVNOdnZlZeXRbP6fBEiABEiABEiABEiABEig3gQiIiKSUlK6du8xeNjwjp27yPnhYoJ/8clHS75fJAeYIAESIAESIAESIAESIAEScIvA8NFjJp93gZIWof735sv/of3tFl/KIQESIAESIAESIAESIAEDARjbMLlVZrUJjvnvzRvWGwrxJwmQAAmQAAmQAAmQAAmQgIsEYHLD8IbACPh/c/7bRbIURQIkQAIkQAIkQAIkQALeCMDwhvkdmdau497du7wVYj4JkAAJkAAJkAAJkAAJkICLBCIiIyObt0wuLipyUShFkQAJkAAJkAAJkAAJkAAJeCNQWloS2bxFclVVlbcSzCcBEiABEiABEiABEiABEnCRQGlJSQTjf7sIlKJIgARIgARIgARIgARIwJoAzO+aoITW5XiUBEiABEiABEiABEiABEjALQI0wd0iSTkkQAIkQAIkQAIkQAIkYIsATXBbmFiIBEiABEiABEiABEiABNwiQBPcLZKUQwIkQAIkQAIkQAIkQAK2CNAEt4WJhUiABEiABEiABEiABEjALQI0wd0iSTkkQAIkQAIkQAIkQAIkYIsATXBbmFiIBEiABEiABEiABEiABNwiQBPcLZKUQwIkQAIkQAIkQAIkQAK2CNAEt4WJhUiABEiABEiABEiABEjALQI0wd0iSTkkQAIkQAIkQAIkQAIkYIsATXBbmFiIBEiABEiABEiABEiABNwiQBPcLZKUQwIkQAIkQAIkQAIkQAK2CNAEt4WJhUiABEiABEiABEiABEjALQI0wd0iSTkkQAIkQAIkQAIkQAIkYIsATXBbmFiIBEiABEiABEiABEiABNwiQBPcLZKUQwIkQAIkQAIkQAIkQAK2CNAEt4WJhUiABEiABEiABEiABEjALQI0wd0iSTkkQAIkQAIkQAIkQAIkYIsATXBbmFiIBEiABEiABEiABEiABNwiQBPcLZKUQwIkQAIkQAIkQAIkQAK2CNAEt4WJhUiABEiABEiABEiABEjALQI0wd0iSTkkQAIkQAIkQAIkQAIkYIsATXBbmFiIBEiABEiABEiABEiABNwiQBPcLZKUQwIkQAIkQAIkQAIkQAK2CNAEt4WJhUiABEiABEiABEiABEjALQI0wd0iSTkkQAIkQAIkQAIkQAIkYIsATXBbmFiIBEiABEiABEiABEiABNwiQBPcLZKUQwIkQAIkQAIkQAIkQAK2CNAEt4WJhUiABEiABEiABEiABEjALQI0wd0iSTkkQAIkQAIkQAIkQAIkYIsATXBbmFiIBEiABEiABEiABEiABNwiEOWWIOdyJrRKHNMivm98bMeY6JZRkRCYV16xq7RsTVHJosNFs3MLnFfhg4QJAyrH9Kzs26mqY2pVy/hqAXlFYbuywtfsDF+0IWL2ysCMYcKHRIf1iQrvEhWWFhGWEF6tVmFV2IHKqu3lYWvLq5aXVefwHwmQAAmQAAmQAAmQQFASCO/Vb1hgFUuMjLiqTfKU1i1b/WJ2e1Mmt7zi/YN5r+4/VFBR6a2Mi/mJsWFXTaiYcmxFqwQrqbmFYe8vjHx1dmRBiVUx147FhYefFhM+LiYs8Rez25vcgqqquaVVX5aGFVd5K8J8EiABEiABEiABEiCBQBEIsAl+XmrLu9NTrY1vHQ0M8Wf2ZH2Sladnup4+b1Tl3WeVWxvfeqUwxJ/5POqTH/w7Ix5+fLPwC+LqML51tWCIf1RcNf+Insc0CZAACZAACZAACZBAwAlEpqa1D5QSj3ZKu619amxEPSxXFB7fKjElOnJeXqGf1H70gvLbJlXENquHeBQe378yJbFq3tp6tKUeFYSFhV8WF35uXFgzy8lvg8Rm4eGDo8Oah4etLDcc4U8SIAESIAESIAESIIEAEgiYCf5MRrtzU1v61vL+CbEZsc1m+cE7/Jkrys8d5aOjS//OVRlpVbN+dt8KD78uPvz4GN9YhWdEhbWNCFtG73Df+PEsEiABEiABEiABEnCfQGBMcMx/+2x/KwbHxMW4PheO+W+f7e8ardpXuT4XXj3/7av9rbQK7xDJuXD3bx1KJAESIAESIAESIAFfCQTABIf/N/xPfFW49jzMhe8rK19XVFqb5SAF/2/4nzgQUHMq5sL35YSv210fjxHvtVb7f8P/xPG/6rnwQ5VhO11ooGNdKIAESIAESIAESIAEmjoB970mrIki/gnWX1qXsX8UoiDQfnlvJRH/BOsvvR2tbz5EQaAL/xD/BOsvXfpXLSrOnYGBSxpRDAmQAAmQAAmQAAk0UQIu2K/1Iof4g/bjn9QpGaIgsM5idRZA/EH78U/qlAZREFhnsToLIP5gPeKf1CkusTqgYZ2lWIAESIAESIAESIAESMDfBBraBEf8b3eb5IpAxP92WSs3BFbH/3b1n+sCXdWOwkiABEiABEiABEigqRBoUBMc+1+6OAWuLhEEQqyTy4X9L12cAq/RKiEMYp1oVb3/pfX+Oz5Ix0Q4xPIfCZAACZAACZAACZBAQAk0qAmO/ef90ViHYrH/vF+0cii2T5Q/tMK29n4RS6EkQAIkQAIkQAIkQAK2CTSoCd433pVVisbGORTbt5NfdnF3KDa8i19sZT+JNV4S/iYBEiABEiABEiABEvBOoEFN8I4xfvGCcCi2Y6pfTHCnYtP8c2n8JNZ7D+MREiABEiABEiABEiABAwH/2HmGSo7+bBkVeTTp5v8dim3pF++YMKdiE/wTQNBPYt28npRFAiRAAiRAAiRAAo2cQIOa4I2cJZtHAiRAAiRAAiRAAiRAAjYINKgJnlfucuw/1UCHYvOKbHCqfxGnYgv94h4T5iex9efDM0iABEiABEiABEigyRJoUBN8V2mZP0A7FLsryy8uH07FHvBLnJYwP4n1x3WlTBIgARIgARIgARJopAQa1ARfU1TiD4wOxa7Z6RcT3KHYqu3l/mDlJ7H+UJUySYAESIAESIAESKCxEmhQE3zRYb/4fDgUu2iDXyA4FbvWLyZ4mJ/ENtb7g+0iARIgARIgARIgAT8Q8Iv16U3P2bkFuW67g0MgxHqr0U7+7JURuYV2CtajDARCbD1OMBWtWl4WVuC2O3hBVbVY/iMBEiABEiABEiABEggoAUdmog+av38wz4ezLE5xReD7C12OluiKwKq5pRYN9+GQ6wJ90IGnkAAJkAAJkAAJkAAJNLQJ/ur+Qy5OhEMUBDq/iq/OjnRxIhyiINC5VlVflro5EY4pcAjkPxIgARIgARIgARIggUATaGgTvKCi8pk9WW61GqIg0Lm0gpKwZz53bUN4iIJAF/4VV1V9VOyCnF9EVIsqdtuzxS3lKIcESIAESIAESIAEmhKByNS09g3c3nVFpSnRkf0TYh3W+97B3BczXZgCV2qs2x2ekljVv7NTI/W9+REvznJhCrwGzs6KsObh4RlOhwdVc0qrpnEK3GGP4+kkQAIkQAIkQAIk4A6BAJjgUHxeXmFGbLNj4mJ8bsT0Q/kP7djv8+keT5y3NiIjreqY9r5b4dOXRTz0rlNz2ajbyvKwthHhHXw366t+PFL1umuz6Ub1+JsESIAESIAESIAESKCeBAJjgkPJWbkFPs+FY/7bdftbcZv1c4TPc+GY/3bf/lZqLSvzeS68ev6b9nc97woWJwESIAESIAESIAG/EgiYCY5WYS58X1n5kMS42Ai7LulYf/mHXQdd9D8xw8Vc+L6c8CFdK2ObmQ96zsH6yz98HOWm/4m5HsyFH6oM7xEV1sz2RkJYf/nfYvqfmFkyhwRIgARIgARIgAQCSyC8V79hgdUgMTLiqjbJU1q3bBVl5WsB4xvxBxH/xJX1l3U2OTE27KoJFVOOrWiVYFUWxjfiDyL+iTvrL62q+uVYXHj4aTHh42LCEi0NcRjfc0ur459w/WWdSFmABEiABEiABEiABBqcQOBNcGnyhFaJY1rE942P7RgT3fIXczyvvGJXaRn2n8f+lw7335Fa6puYMKByTM/Kvp2qOqZWtYyvPjuvKGxXVjj2n8f+lw7336mvMlI+fEh0WJ+o8C5RYWkRYQm/mOOFVWEHKqv3n19bzv13BBQTJEACJEACJEACJBCEBILIBA9COlSJBEiABEiABEiABEiABFwnYNcJ2/WKKZAESIAESIAESIAESIAEmiYBmuBN87qz1SRAAiRAAiRAAiRAAgEjQBM8YOhZMQmQAAmQAAmQAAmQQNMkQBO8aV53tpoESIAESIAESIAESCBgBGiCBww9KyYBEiABEiABEiABEmiaBGiCN83rzlaTAAmQAAmQAAmQAAkEjABN8IChZ8UkQAIkQAIkQAIkQAJNkwBN8KZ53dlqEiABEiABEiABEiCBgBGgCR4w9KyYBEiABEiABEiABEigaRKgCd40rztbTQIkQAIkQAIkQAIkEDACNMEDhp4VkwAJkAAJkAAJkAAJNE0CNMGb5nVnq0mABEiABEiABEiABAJGgCZ4wNCzYhIgARIgARIgARIggaZJgCZ407zubDUJkAAJkAAJkAAJkEDACNAEDxh6VkwCJEACJEACJEACJNA0CdAEb5rXna0mARIgARIgARIgARIIGAGa4AFDz4pJgARIgARIgARIgASaJgGa4E3zurPVJEACJEACJEACJEACASNAEzxg6FkxCZAACZAACZAACZBA0yRAE7xpXne2mgRIgARIgARIgARIIGAEaIIHDD0rJgESIAESIAESIAESaJoEaII3zevOVpMACZAACZAACZAACQSMAE3wgKFnxSRAAiRAAiRAAiRAAk2TAE3wpnnd2WoSIAESIAESIAESIIGAEaAJHjD0rJgESIAESIAESIAESKBpEqAJ3jSvO1tNAiRAAiRAAiRAAiQQMAI0wQOGnhWTAAmQAAmQAAmQAAk0TQI0wZvmdWerSYAESIAESIAESIAEAkaAJnjA0LNiEiABEiABEiABEiCBpkmAJnjTvO5sNQmQAAmQAAmQAAmQQMAI0AQPGHpWTAIkQAIkQAIkQAIk0DQJ0ARvmtedrSYBEiABEiABEiABEggYAZrgAUPPikmABEiABEiABEiABJomAZrgTfO6s9UkQAIkQAIkQAIkQAIBI0ATPGDoWTEJkAAJkAAJkAAJkEDTJEATvGled7Y6kATGjhufnJwSSA1Yd6AJ9B8wqGu37oHWIpD1t0/vMHzEqPDw8EAqwbqdEWA3dsaPZzd1ApGpae2bOgO2nwQakEDnLhmXXHr5sceP7dS5y+pVqyorKxqwclYVFASio6Nvvu3O4SNGDhw0eOuWzYWFBUGhVsMqcdU1140YOfq440/Izs4+sH9fw1bO2lwgEKhunJKaWlpSUlVV5UIbQk1EauvWRUVFAdQ64AoEsO3+qDrKH0IpkwT8QSA1tXVScvKB/fvz8nL9Ib9hZE4+6xxVUbfuPaqqKhumUrdqiY2NxdztgQP7D2VnV1aGmPJuQXAu58STJkZGRkJO67Q2MbExzgWGnISOnTq3bVc9+4Meld6hw6qVK/QmwLZr3TqtZatWG9ava7LdrFWrpNZpafv2ZeYfPqzDCZ50w3dj2H/X33hrYmIiesXML6d/N3dO8NDwtyZ4X1z+26tiYmLKyo58+P57hlvG37VDfsAVaIA2NnwVNMEbnjlr9JHAKaed0X/AQJyMZ9AjD97no5SAnpae3iG9Q0elwqKF88vLywOqTr0r79O334VTLlWn/e2vfzp44EC9RXg5ISY29rHfP+XlYNizf/1zVtZBb0dDKx/G99gTTlQ679+/b+eOHaGlvyvaTj77XCUHttQ3X8/SZY4ac+zZ55yvcp568rF6GaCDBg+R/qnLRLqkpPiJxx42ZAbtzz/86a9RUdVv5xU/LX//3beDUM+AdOOJJ58G+xs0IiIiTjn19AXfzW06I7QzJ58N+xttj45uNunMsxreBA+4AkF4FzhXKfRM8OjoWDQb04fl5Uect58SQpFARET1DGIo/tMtj69nzQzFJojOEeFuriSBRzBeqyLckIiLjzfkhO7PE8aNV9YVmvDFZ/8L3Yb4rDnmvzt27KRO/37RAoyodVFRkb6/lQDWWy+KjY3TawnytLjIR0QEqa98QLpxi5Yt5cJhDICvJaWlpZLTuBMJic2lgXHxAejMAVdAmt+YEl7feUHYyNjYhO7dhx1zzEj89ew5OioqOgiVpEok4I1AmzZt4Qiuji7+8fsjTebl4Q2Ing+/TnwT0P81yvktGIgnnjRBNTw7K2vL5k06hCaSPkubAp/11Zcutrq09IjehZBumh7DLiL1KCpQ3Xjh/Hmiz7atW5qO/Y1WY7AqbV++bKmkGywRcAUarKUNWZHv8w0NqSVmPdu0yUhOTtcrDXd1Ek6XHNJpTJ/cfOsdLVq2io+P//yzTxb/8H1IN6cxKS9T4DALvvpyemNqmvO2YH3Vww/co8vp13/AZZdfqec0gvSY447Hd2TVkKlffNoIWlTfJsC/OaNrN3XWsiWLcd3rK8GiPL7OGz7QXzjlkiFDh1ucwkM+EAhUN169auVzz/xl5Ogx27ZuXb3qZx80D91T5syehRH7kKHDVv68IiBD94ArELrXzkLzEDDBmzdPTU/vGeng66RF+xvlIfE2Tk5KbpQNDMVGYRU/lrMozZcvW1JcXByKraDOTghgeDxh4qlKQk5Ozvp1a51IC9FzJ59V4wWOgeiXM6aFaCuastqB7cZYPtE03bfQ5XZs34a/APa9gCsQwLb7qeqgNsGjo2NgfCckJPmp8RRLAg1GQLc8Zkyb2mD1sqLgIYAYfAgAovSZMe2L4FHMZ00wpQ1/IXjU2JSQlJTc45ieqvCKn5YVFRXaPJHFgodA4+vGwcOWmjQ1AsFrgsfGJnbtOkRWpeDCZGfvLikpSE/v1dQuEtsb6gQQX6xnr96qFfhQ3jTjQIf6RXSu/ymnna6E5OfnG/wlnAtvMAnwA0ZIwWOO6Tl4yLDklBSE9H72mb/YrP3MoxE5MQU+vVEMQmw2vDEVaxzduDFdEbYldAkErwleWlpUWVmORc+AW1ycv2fPeuS0aNE6+FljpfbIUWOw8UqLFi0whEBg1+3btm7etMnC8MIqvbS0Nqpp69auLijwsFVHp86d27Rpp8ps27Yl62BtjDZ4lyIalzqkD1o6dOyE/ed0YtgIZtnSJXqOx3T79ulDh4+AShGRkVg1uH37NrTAOnoatntUjhaiW7OYmB49junVqw+CeUdGRe3dsxtObHa+oyUkJGLnmvT0Dq2Skg4dykblmzas37t3j0dVPWZicg72AeKIt2zZsqKioqAgP3Pv3t27d+3cucNd31OPtZszzzjzLMmcNvVzSUsC8W4zMqodZFeuXAHgx/TsNWz4yOTkZOzbsnTJYnx7xSEQHjRkaPfuPTDvuG7tmoULvpPTzQnE+Bsz5rh27dMBH4vS9v/SCbdu3XI4L89c2JwDM2v0mOPQLaEYiO3YsR2abNyw3lzSkDN02Aici8w1q1d5nOPs0KEjtEKB7KyD0Mdwurs/fejGugKYr+3ZszeszGa//MNVQC/as6e6H6FT6SXtpOHEGR+foErOnOH1M4j5PoILU99+A3r16h0bF4e7HrXj0lsogM7TsmUrVLRr1459mZlm3XAUZZB/5Ejpzyt+MhdQOXiSoPnocklJSQmJiXAFxL+YGLCojowm/9LatI2Li7PjWIVwFghqqU5cs3plQX6+CLFOJDZvjhN79+6LSfSc3EP7MzMXLPjO/unWwq2POryPlHDwGTX62DZt26WkpIAiQnmiF+3auQMLCq1rtzgKFN17HCMFli1d7G35ckC6sSiGhA8vRHV6l4yuCA+vizKkc3IObd600ZBp/umbAnj9yep5JXPJ4h9UArfG8JGj8CjGKwavObyv8YqfaelVhacino14ieOU+IQE7KuAFyK6AR6qeD6bdVY5Q4cN9xb+a+XPP9VrNWpgFXB+H7nbjb0Bb/j84DXBEXZwz54NHTr0zszclJu7v+HR+FbjieMnnDTxFAk6BiFYewRrBrM+n3z0Pswpj2LHnzRRZkl3bB/x7xeeNxRDMFRsSaCMGxx6/rln9AIjR42eNPlsPUel8YzWH9PIxJvb2gTHk/03V1yJvaN1ab379MVPGCAvvfiCt625zj3/QlUX7INpX3x29rnnYxyiC8nI6HrscWNR+0cfvKvnG9KnnT4J+7fLQAJRRPDqRSb8p6X5hlP0n7C6zrvgIvGGl0MDBg5GGlcB76rpUz+3YzHIuQ4TMCCwslAJWbtmtUcj+MKLLsGYDWUwWkBQZGxKosqjIceNHffKS//GqwhIVSb+C9Rt27X75KMPJEcSQHfOeRcYtv4GfBgBKLNo4fw6PSmx6fQFF03RLS304XEnngQbdOniH6UicwKT/RdcdLHKx2vvh+8Xmsv89qprVWTfnTu2/+v//mEu4EqOz91Y1Y7eMmnyWS1atNSVURcIOQii9/Wsr+obk/i0MyYraRiZWNyDch/hSmHNLpZWY/seUQPde8DAQRNPOfWD9971thztsst/q64d9rV5/dWX5FxJYEAIIfiJp4E3ExyD2JtuuUPcZuRcj4l+/QeKdeKxgMo8Y5I2EP3Cw0DU47lYxDzm2OPlELo9HggnnHgS+Ez9/FPJdz3h/D6CSgjkjDjlGD/IAw2ZuIjYFRWJvNzcD957x4eBKMZpd9x9r6zrRch8PB7NBALYjUUZ316I6vSTTzkNG4GJKHMCI8y/P/u0OV/P8VmBKZdcZngPrl+/FlHqMdOEZeIYVkktsKq7dMmwMMEnnnKaHsMRJ1a/1355q+Jhgs9BPyzy8KhEsfMvvFjvOVIjEpjMwhZpeo5FOoAKOL+P/NGNLVg18KGgDkqYn5+9bt2CELK/L7r4Umwfo9vfcjnREXE7XXLZ5ZKjJ959503MSKkcjLzxStOPIn3xZVeIATp3zmzjlLDt0LEe7T+pC6+3u+59wPDc0Y62f+DhxySgr+QbEm3btrvjrnsN9reUwbB+2PAR8tOQgP2Bl6vHhw7CGvTt199Q3vAT6LDvt9n+lmKQjNnlR3//FCwMyfR34oxJk6VF3owGKXDFlVeL/a0Uw6HfXX2dbn+rfBjZhvEV8mH4Xn/jLXDWFIGG1sGaufX2uzAnYciXn7C/L/3NFbr9LYfw2tCn8yVfEuF6P9TTUiIs7FdltHwXkw67MUaAuE8N9reuHkyf08848+HHntAzrdOg2rx5TVjfr76cYV1YHcVXoHvuf1i3v+UsKIBrhHGR5NQr4a1viBDYPXfcdZ+1/f3jD4u++forDKcRocKO/Y1PW8ruRy0YG+Tm5kh1FonfXnm1bn9LSTQB43kJMST5biWc30fQBLP+9z7wMJ5a3oDjTr/2hpsvuOiSeqmNge7td92j29//ePav5q8iwdCNfX4h1guIRWFHCpgeVZgXhwvW1dfeoNvfqnZvnyDQka65/qaTJpzs0SrAubiOmHO578FHLVrh5FBgFXB+H/mjGzvh6fq5wTsL7npT/S1w4smnwvlBasFrZtPGDfiJ7ZcHDR6qnsIYz61bu/an5cagnvii9Pabr191zfXq9AunXLxh/dqysjL1E5Mo3Y5OBmDlEzbmlVpUYuuWLfPnfVuTGR5+/NhxKg1Lfcuvv9Pt3r2rppjpf/igdtMtt8uTAvPES5f8iOpgOqBd+ByPM/C8uOJ31/zh94+Yzq7NkLgf+DyH9zQcGGC6wSiEYaQKnXbGmR6/BmBmCMVEECbdf/ppeUH+4c6dM/r066+mTuWox8Sl2kAFEScWLfiuevvG8LB27du3a5eOj+/KqsjNzXVxW0ePmkgmQkPi6quf6A/4ciqHLBJLfvxhxYrl4yecrK47HmQojNnTObO/xlT0lVddq8Zjg4cMNXyHxRhG/3iKiVJE78K5eHMAr+qEGGJhgufN114xK9C8RQt9lIgaocm+ffswYunTp59cQfOJwZPjsBujm+GTizQHDljLly7BVYuLi09PT4cLDb6HKvj4oCHF6kycPqlmCrykpAQh4essjwJyHTHVN796F8AKXER8ylC141JitvvJx63uRDu1mMvg6/81190oViMeLIsWLgABeNHAlwYNUQpgDu+Zp/9kP7b96ZPOFJlffP4/c70ec9RwGs+ib7/5Gh59IDBy5GjZnwXWOcIa4mu+x3OdZDq8j1A17lkMY3RbDU9CTHjjMxcGV9269VBPVJTcuGGdfVXR9jvuvk9GyJj/hv0tbwqREwzd2MkLUTUEH4uys7OkUZLA+0jeU5JpTjhU4Lu5czCdBLGjjz1ebUuJ3jjx5FOkG+MVU1lRAT8xlDFfAqUPtpSXdzdysHBi06aN+/ftS2tT7eUi81ne/DPxIVFvKfTBLaAk2/xvYBVweB/5qRvbRNcwxWiCu8MZ7pUwmJQsTEi8+vKLeOCK6Hlzv73x5lvVcxMzNwgFAI8IOaoSsM+wF7Fy6UbJs8+9QDls4A686OLLVBmcBZ8Ew4n4Ca8y/Kl8PCDEBN+4fp3ZXjefrnLOPe9CmVlZt27NO2++LjMrs7/+Ct4dmD9GSdwVMJTrNCMwMfbpJx+puQEEMV2y+MfHn/yjMiUxH4a3uGHaAGqfdc55ohtOFy8LPIg/+/RjTBd1ObqvjRTTEykpqfJuNnygVNHfUMXoMceNG3/SG56+zuuiXEyfevok1KsEIky7Hcn/++RDFc0dlOTxDdPtb0//WS0ngM2hnt1wt9AF4nso3A1VDvCiE+rhYxd8N/f6m25VD3R8ysdcmnkmEn1AtD14YP8/n39ObKxZM2dMOPnUCRNP0WsMwrTDboyPLUIAhi98lqSNagElXsa4pjDE0b3lkHWiejlEUpIqM/vrmeZ73+L0r2fNxGSzKvDT8mU/LVt6w823KSMY9xHsYKwKsDjdh0PYhloIvPXGqzLSwHhswfx5O3duv/Hm2yEWXwnOv+Cid995y04VsEQlODf6pP0IKhAO6+TFf/1TQYPj7Lxvv7ntznvERRgOeP/59//Z0cF+Gef3EerCwlOxv+Fs8PorLxkcTjAjgOlPrE7x5gtkVhgubTDrlTmIo97sbxwKeDd2/kJEK+A0iD8zh+49esoNZT6qcpwrgNexEoVPWIo5Bufq1sC9gAu6a9dOfOyF1x+KlZZ6CG8P51LxL0UZPEzwSFEy1X/R02Ck4lH84fv/1fMl/fmnv3pl4PFeLxM8sAo4v4/80Y2FbZAkgtoRJUgY2VED/ify3sJto9vfOB0Tup9+8rGSg+eyPterC4fNLT7KcNhQDiG4w+WZCzcGm9Ooulg7aXgmyIJOPF/efuM1sb9xOt5/H3/4viwSlSk9b5LhpgkDWjey8RLS5/5lBkgkwJiQxWo5hw6J/a0KQNR//vVPTCFIeXNCzUaofMPcsMpEK6DYH598XK1uNEtwPQdU1bgFkrH0Sl9B660uaC67KeleQ7CnZTmvLETD+jxdDkxk+QnHRN3+Rj4+gHz6yYdSwLx4AAMw5Z6IMmD1f//8u9jf6qzZs2ZarwEV4YFKOO/Gei8S61NvDj5Y4QZ/5i9/1G8QvYA5PemsmnUacDZbtGC+uYC3HJi8Yn+rMnjr6xsEimuHNwk+5IsfF8ZgZgJYky1LPM3+ct6qO/nU0+XxWOdSBF0I6oKFrexvlY+1ay//519SRr4VSI7zhMP7CArgU4zuifd//3jOYH+jDIYTT//5D++/+7ZNhTHiuvPu2ml1C/sbAgPejV15Idok47GYPxRQfRizIX/6wxO4E/V6Pa7yxzyalEEQUoP9jUO4iFhehW6gvyvlFOeJwCrg/D7yRzd2TtVdCTTB3eEpK/0PH87zOEMMAxSmrapMHxnr1eOl/vqr/5Gc31zxO3yylHlN3POwIOWouwm4NIhAjBY8PhFkQ0e4c8gEj5wlCdgZHt+y+GwnZfBZX9IqMXBQTUQX/Jw3b47hKH7iNbx/v9XqE0SqkLMGDBpk4e4sxfydwHIiNWGJij7/zNbHd32Ru/5xs6SkWLSV/IhfbxAr/Qqs9M2E5URMo8KCUT/F2pajffpWL7pV/2AfeHypIJDD0SLB+H/n3VgP+4OvSWI4+txa+GVhNkid/u2c2R7vLI/C0ROwrNl8aKFmxItkczHfcjB3KCdu21btwmT+l5eXqzLRt/FNzFzAkKPbo5jSrtcAGMtJzcQwNMXwQHSw9lk3KGPnp8P7CFUMPup5iDQG1fVqskcN8byF/4lMUljb35AQ8G7sygvRIwqbmf5T4NWX/o0ZJYMa5igF+CQrU/W4lzGcNpzi758BV8D5feR6N/Y3cx/k0wT3AZrxFIzV5DUAt2zj4aO/Ec9MJfWx3dGDNf9HnxM7GzfwLbffpQ5UW+eveAhuYDjd558DfwkYok73tmnf5k0bRD4CbEnakKisNPrYqAKFBQWGkvpPfeU7/I/1QzbTmCQWKx9fyR957MmxJ5woHxBsCnGxGCaV4feiBGL4hC8hLgo3i8JHahkXIdiImOl6SVgzMjUOpyDdyxDF+vStXe0KJ379xFBJO+/GiJspjcVb/IGHHsNnaBlHySH7iTMnn6MKY/Dz3dyjCzZsnK9P/erF4T4kg3nDyl29mG/pioqaERpON9u+SqZuf4T/EoDSuq6JE08RgB4H5xanV1ZVejy6etUqyW/brr2knSec30fQYfDQYaIJvkdJ2rcEZhNgf8top077G7UEthu7+EL0jZj/FMASL33+G6ElsWIKfz98b3xgDh06XJTHty9vd5OUcT0RWAVcuY9c78auQ3YukL7gzhmGtU6tDa+Rn3/YW7QNuQn1qSZz9Zj6Qgw7Q0CG9999R9675lOc54hKMBRaJdXOhHmTjBWWiITq7ajH/MLCmo8AHo+K+QgF7H/iN4iCu7Ps/QH7Eg4z+MOEGbwtsaTMrwANmuDnSRMm1loev3bpMxd2noMg4iJEhiKSIwnEQZM0FvjroXVaHY2EiAL18tYVgQFPOO/GsC/xlpX5G8wkIfYI7lxEccYa4uXLltSrcyIMsKxh/W7et/U61wImRrNqQhTOCRbFfDgEZzP4wqmbUdaKGeTI1DuagxhthqOGn7gNxxw3VmXiE4pbSycRHVwqwhq1+j6L5Fxzwvl9BJlJrWpc/5HOdDb2jm7W7M677pPXgR37G5UGthu7+0I0X6M6c/ynwDezaxZmKB3Qn+Gi6VEf3QzQH7MeC/sjM7AKuHIfuduN/QHZuUya4M4ZhmEHGZGCj9eyGlIyDQnrqVm871996UVMe8hZeHX5ey89bBagqsMr8657HpCqvSVkOZS3AuZ8BHo3Z0qOzMjC004y65uApzJeUXDgEWmQgLBu1esITz4VK1bnfDPbWzTl+tZlXR5zzIjnrcrg+atPnFif6PPRFi1qB0553iO+6Usw8YzW3w3YfkVqP3So1sSRzOBPuNKN4fyAVae6IyOGUvA5xh8WZmDZNDyydG4WWCafXbPCGNYqYnpYlKzXoYLCQuXagm4WHR3t8YtHvQTqhbFoQX3Eh1M4mmyI1YCdlWTWGfeafqLHNKIyQ0l16Av3wngfzs2T6tq0bStp5wnn9xF0iIuvWaSB645/TrTCymn9dLwabF7uAHZjd1+IevNtpv2kAD606q4R1srIdACKHTx4wLqwP44GVgFX7iNgcbEb+wOyc5l0RHHOsPaB64KsX0T06NlTF4VQaIgWp+e4ntZtVlvCvUR9tnWuqZDucWtYAmgqW0cGpjCx4PKb2bOwptNQFMtbEccNoV0M+f74OW78BEHqLRa4u/XKZwSItRjG6IfwrVDXIToqWn7qzgaSGfwJYW5XVS/dGCGAVLhrWR6tBMIWxwQ53MMQnq/OKtDfYLCqYvAus2k51SkWBcqO1LqixsUbl1XYkWBRZt7cOeIDc90NN2PtuNyeWD9w3Y03y7mGcA2SLwkY3wjzr37CH9pgzUsxHxKlR3dRwLkScN0HOeZTnN9HkBl19FY6ol0pc112chDxBuuLpORNt95hPYMjJZEIVDeWEYiuTEOm/aRAkeWHXEMDxTcV+XV+LDKc68rPwCrgyn2kOLjSjV1B6g8hnAV3gap+g+FLbp1D3pLi2qV15urxnVffRg4F8OJHKGjDjpjmE53kYA2lmC/bbHiYuPjlF2rjlQ//E6VATOyvtr/2oVFwOPn6qy/xh3HL8OEj+w0YiO3oRA52tMFXXYytJcf1BK7XuBPHK7Fwg3GyDbV93fQAugbbWhfSvHntWE4iq6gCObk54lsM91OPyzF1UUGYdrEbw2REWB78ofMMHT4CjvKyuAomKbY8jImJ9bjmVbDIxjH4roXYgpLvPJFw9JsVbhw9bI5zyZAAQ/mF559T8SvRkxE0DX9YT4aN6cUWRzEV8t+6RizGkKdKfb3ArSW3bNlSChQVFknaecL5fQQdMNxShrJ9c9mb5hgM48mPTZqUKHiEYwSI8aHNyfWAdGN3X4jeyFjkB1wB6KYv0MSjQ+JZWajt7qHAKuDKfSRAnHdjERVsCZrgLlwRbPUiUvBmgvEnP+ubwEvuqmtvUK86vLnRj5XLB+wAbBOFzQLqK9BmedyuyrsUlSL8n82zXCwGS0JFKkS0FbfE4kE855uv8QeX2Ysv/Y3sJYmIvLAt0FK3KjLIOe74EyTCuosf3w21GH7qERt1A8VQTIxs5Ofl1c6u4eeBffu6HI283qplq/0lViEgDWKD5Kc/ujF8TvZ+/ik+ZcCr+6prbpA512OPH2thgsPPXmAiRJLDbzsGvImJNZ8v/LS8YffuXQirittE6tVNSYyWP/vfRx5315LySOAWO/GkCSoHSwtkHbBexud0S83Z+nB+Hf7o9arF+X2E6tAPFTFAwKPA4TclTOv88+9/g2uicunBHA0GSP/659/lY4WdBjZkN3bxhWinaeYyAVcAKunfLuDyh3vKrKdfcwKrgCv3kZmPb93YLCd4cuiI4sK1wBBNpHhbwyQFrBOI1iyTbdOnfY6goWIpYl8Ai1Aq1mLrPCoz93hn+NvpxaMyogBeM67HE8QMBLY0ktlojHCwtYpHNZxnAuBJR/evOZSdrXZIdS62Tgl4T8sr2eOu5koCdmUTUQd+HeRR92+WRYRSOCQS0ov80Y0Ro/qvf3lKPHlSUlKVSeSRjEyB46JINE+PJeubid4rXznQwep7up3y2FZQ2d94+CDYA24cLEdBT17w3TzsIfLE4w/XaX+jltHHHiebOLrui6V/18Jeg3YaZbOM8/sIFeUcqr0uWJJrs2qLYnC7l/2JUAxvGex6aFHe4lADdGMXX4gWDbE4FHAFoJveLeu1n45Fu+p1KLAKuHIfWbS3Xt3YQk7AD9EEd+ESYLZVPgdjqlWit9ZXNBY/HXs0egAGkQvnfwfJEtMKr96rr6mZILcpGRF5bZZcvnSplBx/0kRJN1hCj9k3atQYj/VKWC6PR+vMXL1qpZSRGXHJcSsxYtRomTKcNvUzt8TakSMxZxCvRjYK1U/E1wDxTkaPNcyh7t27WwpjI3RJ6wndj0XPN6d1X0A5CpsVywflp+sJf3djTGYjNIpSG/djh46dPDYB1rl0MARRMTiUezzFfmbffgPE9Md7yOJE3RlULyYWvJ6pp8eOO1H9nDN71icff4DNcf75j2exORT68/JlS+3M6APOxJNPU0IQn2f9+rW6fIdpjK8QM0qEeAuiKgXqm3B4H6E6XHSp9Kyzz5W0kwQ6HjYrFQnwy8dGsPKzXgl/d2O3Xoj1apReOOAKQBm9D+BxKi8FXU+/pgOugPP7yJqPzW5sLSTgR2mCu3MJsOe8EoTXwyWXXe5NqAQTMBeAaQKHb5WPmbM3X6952iKWmUSIS0pOxly4+Vw9B+fKd8/09A76IYv02jWrZLod0axhw3ksjAlyh3awR7HI3K1trINxCF7hhpIYGGR07WbINPw8/YwzxcQ0HMLPdu1r4wfrgUHMJZ3knHLqGep02LjmzQWdSK7z3LnfzpYy2BVI0pI4aeLJkl616mdJq0Tm3lp7rktGV3PAO2Rib3bDWfpPDEXlZ5s2xsjxcAu+5ba7ZGZUSnpLyBMcBVJSUrwV0/Odd2OMHM4+93yLTp7aujYCqR7hUVdDdh7FzThj2lT9kP00DOiBgwaby0/QLiK2NzcXKC6qWWqCx4X5KKbnMzK6mvMlB5dJ3KgwKSD59UpgxYUMALAvYL3O1QtPnHiq/lOlMb8ugxBMD8vjzlwSOeIpjiezzSkJh/cRKkUUVFx6pU9am7YILe9RN+xMjj+PhzxmYmnm/z6u3eAWo32E7vFYMuDd2PkL0WO77GcGXAFMA8uLG30PTxWPyuNe0z/peCzjW2bAFXB+H7nSjX2j12Bn0QR3BzWWW2EpmJKFCbAbbrrVMNWEOF8PPvL47Xfe4+1xfNHFl8lLC+7L+mqGN19/RbSER3idhnV2Vs1nULxBe/XuI+ciAae0YcNH6DkqjcU92H5c8m+94268ROUnEvHx8RdOueTBhx+HFYUHin7IlfSa1SsFIGZwr7nuRr0WtBp7XFtXhFAnKHbzbXdeceXVBhMKohApUvaKh5xtW7daS/PtKLYyldnfGdN9tzx8qx0bQAhDNPaMM8/S5QDgmGOPVzm43LNmztCPIg1TZsuWzSoTQ6A776ndDQSZXbt2u/b6m8xDI10IxIo9hL3T9VsAg7fb7rynXv4t2PZChJ804WSxupAJW8rjNL/Dbowqbr71TkxZPfToExhK6TWiUsxjXXb5leInhro8DuQQCwwzlEpzxBJ1sgzr4ksvP27sCcIc3fiqa66XYTxQL1u6WBBJQh4dWHas3/6wrbGKVPqAlDck4OqNpqlM+Gs98dSf77nvIWyNrv6uu/EWDMPgpmJtzp5yWs3dmp+f7ySgKqxM6Kw/CpAjux1ByelTPzfob/i5Y8d2ycEQXdJIoE96nJt0eB9BMpZjzp3zjdSF0PKwwPRW4Na45LIr7n/o0VvvuEtWrEp5iwTWFXzzdW1oaoTOBBBD+WDoxs5fiIZG6T8jTBM0+lGV9qsC5uo85nz04XuSP3jIMESz0b+Q4zLh8j3+5B+xvrZeD0aRWWcisAo4vI9c6cZ1Igp4gaBejtmqFUK+/mriMyIiUpD16DGisrLmVYHMXbvWFhbWLouUYg2TwDP3g/f+i4jUqjrYvg898nvExTt0KBsL4JKSkuU5O+WSy7Zs3qivVsYp/foPlE+rmFrTrWEcPXBgPyJei4/K7665DnH35DVpbuDsr2fCVlD5v/3dNXAYLS4uwps1OSVVLSY7ePCgOUAY7H5YkMrdHL0fFi1sOAT0wOx4auvWMieK5iDfdedO1PLVlzNkYx1slolnU9bBg3iFd+jYUWo3N1blwFaQMQMMoIcfexLGaFZWFsJIIZIDwsMJf5RH2xEj3JsoJ/mnHX3Hw/Ba8dNyJ6J8OBcMZ86YLl7IGHUgohw8fCqrqtq1ay8DPEie+sWniHFhruLz/3185z33q3wwf/CR3+N0lEQIDkzmmcubc7A7rNrXBgYHBmz4DoBLgNvYh/lU3FPoumqRLrzb//Cnv8K4xD2FyV2sSMMMEzyzzQo46cbo2Kr/w+rFUkL8wVcHFcH/G0HTwVCsYdSLu8xcO3L0kc9UTzvMezzLW+akM89GfKRf3DqrAAE3ppT8cvo0+XIlmUhgSznZaxa3PxZWwkUeDyFMDein66cY0lhTLpY6vlqkpMboBTCJPu7EkzDL+9EH78IvRT+k0oOHDJUb9kvHA1HEf4RAPANLS0qSklNkOSzqgh8OJobNCug5WAYKSsr8xeAKd0Tm3j0lpaWtW7fGEOWH7xd+9r+P9fJIO7+PIGTWVzMGDR4iHyJQ9chRY+AgUVFZmZiYIN8ZYJNhoPX2m68ZdLD4CeOyVVLy0GE1my/CHQVbNa1ZvUpOCYZu7PCFKG3xmJCYg3iveSyATOcKnHf+Reo+Uo8gyMQNiOGoqnHut98sWfyDt9pVPuKGYZCMt6r6CQ/+R3//B7ilFSP4QUKC/kDG7MYTjz1skAaz4ebb7tAz8S6Tnzfecru+ly123kU4UTmqEoFVwOF95Eo3NgAJwp/uT2e62MiIiCj4jup/4eG1CiOtH9Ktcxd1sC8KD8H/vv2mfH/E2xq3Ll57CGmi23/wXDRYz3hdwS6XijDnLUIkE5M94rmL8ggTJofMCTg96y4QUEPtsiFvr/O9xMb++7N/1dfk4RmBdSQwnuSFirrwAMFL3Vyp8xwMM3T3Nbz7YTrDnlO1g4nHOT9VL9aKwVFVB1t9evt08O/UuYvOf/fuXfpXBedqi4QBAwfL7DtMYclvyATiT3/6yUfSfzDJh8sHm0l/3GN14A+LFnrUCobOB++9I4dguOASwP9H7O86Y/Jg3kVqx+kYWGKWTuxvXF+Liyj1SuK1V/8j0nBDwfLGWAv/RQHYyjIhLeVVwuduDKN22dJaL15Ig4WEWwCVoi/p9jfevvo0pyiADtB/wED1E/cgTC455ENCWdioF5NkmPzWDWgogGvtUSbMSt1DBmYEjD/cR+p0LDL56IPayTmPEjDAxp7bHg9JJrTC/DT+JEcSMhDFI8ujjS4l60yohx7qgmscbmR5guFEtPHfL/zDjgTdyEafxMOwW7fuar9JzE16lODwPoJM9Nvnnn0ay1hFPlqBTzfotGJ/4xBGdz8tr3FilJJ1JjD42bxpoxTDhAtuUvkZJN3Y5xeiNMRjAhjFmU0++Hgs6VCB9I4d8ZDBH2oU+SoH/+3Zq5dkWiRwr+G9phfAZ1K8kfUHMm5z8/72OAW+qXj36X96z4EE/ZAe6kqvLrAKOLmPnHdjnUPQpiNT02odZINNy5iY+BYtUm1qlZOTWVZWYrOwn4rh9bZ65c/JuMNSfnXfojo8kXfu2I4lTQhkpluKOHTRxZfKdygc9fjyqz595w7xIYFBgHcbrGFvDYEzYkFhAUwHNf2jF8OynhnTp3qMpYCvCiqAWvv0dH3ArU7H22LWV1++8+Zrhkga6uiQocPRbqQx3Y4ZAr1GlcbrB2VUeuH8eR4/0OOheaSsDEajbm2g7djk+cUXnseiV7UlCnKwUMxQBfYtW7TgO+jQomUrj2v+MIH637ffwPJWTJAYznXl5++uvk49WHFd3n3nzXrJHDFylNrMbPeuXYCgzo2MikJkZZVGx5CNIeDLpHYEzMk5ZJ6JwVt/w7q1MLn0p7wSgm8a77/7jsHKNOiJmUX0tK5duxtOB3yMMPGqkG0jYQOaLyL2IoH+PXv1EYccJR+OiTDsEK8T+0zBAEJmXl7uksV12Hn4WLR+7Zpu3XvoH3CVQCzyW716VUFBvkF//PS5G+NEeJOvWvkz7i94XkVGGj8SouNhYumV//zbG8Ozzz0f5yqVXnvlPyUlXu9Qs9oqR+4j3G5/f/ZpxCM3kMTnHfiXf2XyI9IFYqiDsROeQnomvmZg/PPGay9XVlViUhaHPN5H6hSMH+bN/RaNhSMHxrcbN6zH3/59meiTuBbyVMH6Cnjj6ON2DLrke9S0Lz7XbVBdGYs0TG0VjwWrKf7ypz9gAInpQL081MZDEgNpj19y9JIqjV3E4TLe45he+lBcHUKLIAoCPZzl7D6CQDzncXtizhPfTxBF3lAFlJ87ZzYuhx6+Q8rA80pBxlF0SMmXBD6yYccDNeaHjYgHIyZB1ZgtGLqx0tO3F6K00WMCTz84ualDeM2ZP+fqZzlRYOToMRarzzFbgc9Nel3e0rhx8ERFlFI16tOLoYdgvuylF//P45JiGNzwQ9PLW6TxtWfz5k0eCwRWAZ/fR867sUcawZYZ3quf52mAYFM0tPSB+YJXIOa/W7RogXt1186d8Ehp+CbgIY4gdLAJ8DLOO5yHz9n79mXie64dTTDthLnP1Nap5WXl2F8dN5KfLFezMrC/EWuibdt28JhEQDTYAerVYi7pLQcNR6sxfwkPiv3792dm7oE7gccXrTcJ9c3v3acvfNDVWdiFxNsMZX3FOimvIMCgwYXDbOLePXtgstsXiGFhu3bpmO+BUb5p43qb5o6SD5sAr5xqKzA1FT4/eDfYCaNhoRvWMGChLea/YcrDnMKQzLCvkLdznXRjuDvj27EKe1Ldh/butp7Vhq386O+fUnNmMFsx3vamlUX+1dfegE83KAAT/PFHHkACDxPMcVZbA+FwvdiLQZrN2wGDOmzQielzqL1u3RqbxCx0k0MYGZ4+abL6Cftb3zXsvgceUd4X0P/3jz7oyk2Hnox7GZcyIjICzml4HNl8iInCSKjboX2HDi1btETcaPQimOZ2uqXD+0jpgBsB+qMDY5ExBp+YB6nXDaU3pL7pgHRjg5IuvhAfeOgxmfF96snHrG9JUcNFBURmfRMYL2ECAn2gorIC8ykY3NpUvr4VeSsfWAUc3kf17cbeIARbPk3wYLsi1CckCcBHEG9ZqI43KywPm0ZSSDaVSnshcM55F8DlQx185unqlQxeClplm01wq9JuH4OHMeLeQCqGvtY+JI88/qTyEMPoTtxY8e1FwjpN++KzBfPnua0g5fmdgCvd2E9aYg2rTIHDFQe7PfipIoolgYYhYPzS2jC1shYSaEwE8MWwRcsWqkXfzJ5F+7sxXVz7bcGsvyoM+9U3+9t+XX4qiclm5UYCY9raBBdHNX1leZcu1eY7/sFbJhg+BCll+N96EQjObowvopdedgU+B6m24Bmru/jXq4EsTALBQyCofcGDBxM1IQELAvBam/ftHLj64HMn9u525eO7RXU8FJwEqjeS3LY1OTn5888+gcOMb0qKL7i3NRW+ibV/1qDBQ1EYvst5eXkeAwfB0wZbM8JPTMnctHHj6qMx5uGQ+tNPy+Az88MPi+AwY79SlgweAq50Y7eag86G9cQTTj7loimXSngZPGCxb7S+AsGt6iiHBBqYAB1RGhg4qyMBEiABrwQC64iCdcxP/vFpUQ7LALCxJdaxlB0pw/pURGaEczxMIlktDWPo6T89iaWxcgoTJOCcQExs7PARI/v3H4jPMvAh1gXC8entN1/HhyY9k2kSCFECdEQJ0QtHtUmABEjAZQJYuYtgLxJz+pdgiDWz3eaaYH8jSA7tbzMZ5jgkgFC4iIhvEALnEwSGQnxeJAyH+JMEQpQATfAQvXBUmwRIgATcJ4CY04icc+L4CTLVba4DTjKIB4fAoNaBmc0nMocE7BDQdy+GwY0wuIh2jwiPhni+dkSxDAkEMwGa4MF8dagbCZBA0yKwceMGfGo/eODAbm1XlwZGgN15YV5jQyVsLIDIhgi2CMeA4qJCxPLLzcnBStONG9dzJrKBL0qTqq6s7Ahi2KO7YVsA3AhcXdOkrn6Taix9wZvU5WZjSYAESIAESIAESIAEAk/gVwsdAq8ONSABEiABEiABEiABEiCBxk6AJnhjv8JsHwmQAAmQAAmQAAmQQJARoAkeZBeE6pAACZAACZAACZAACTR2AjTBG/sVZvtIgARIgARIgARIgASCjABN8CC7IFSHBEiABEiABEiABEigsROgCd7YrzDbRwIkQAIkQAIkQAIkEGQEaIIH2QWhOiRAAiRAAiRAAiRAAo2dAE3wxn6F2T4SIAESIAESIAESIIEgI0ATPMguCNUhARIgARIgARIgARJo7ARogjf2K8z2kQAJkAAJkAAJkAAJBBkBmuBBdkGoDgmQAAmQAAmQAAmQQGMnQBO8sV9hto8ESIAESIAESIAESCDICNAED7ILQnVIgARIgARIgARIgAQaOwGa4I39CrN9JEACJEACJEACJEACQUaAJniQXRCqQwJ+IBAeHp7aurUf9eZc7AAAQABJREFUBFNkQxBISkqOjo5uiJpYBwmQAAmQQEMRiGqoihp/PXFxcWlt2kZERGzbuqXxt9ZTC6Ojm6WlpcXGxW3ZvMnTceYFhsDgIUPPu2BKVFRUSUnJW6+/srWp9s/A0HdWa3x8/C233ZWUnFxVVbVw/nfTpn7mTB7PJgESIAESCBYCNMHduRJXXnVtz169IQtWzuOPPFAvoRdOuWTQ4KEeT9m0ccPrr77k8VCwZZ44fsIpp52htHro/rsrKiqCTcMmq8/pk86C/Y3mx8bGnnHmWf/8x7NNFkXINfyEceNhf0NtfMc49vixs7+eiSdMyLWCCpMACZAACZgJhIQJHp6Q0LJZs7jo6BhMBVVUlB85UlxYmIO0uT2ByomMjPS56piYWMydezy9eYsWHvODMDPyFyNPKQZzIQg1bLIq4fuMtD0xsbmkmQh+Aq2Squ1v9Q+3VXx8Ak3wozz4fxIgARIIbQJBbYKHh0e0aZORnNweCQPmqqrKgwd3HDy405Afij+LCgvLy8t1zdWcpZ7DNAn4TODnFcuHDhuhTl+0cL7PcnhiwxOYN3fOwEGDVb3ZWVmHDmU3vA6skQRIgARIwB8EgtcEj4lJyMgYGBnpeRESjPK0tIyoqGaZmZv9waUhZX7y8Qf402t84KHHWrZqpecwTQI+E/jog/dW/ryid5++y5Ys3rWrMYxafUYRcifu3bP7L398Ei4o+/ftW75sSQPrf94FF3Xv0TMxMWHjhg1vv/laA9fO6kiABEigcRMIUhMc9ne3bkP0ye/S0sKiosOVlRVxcc3j41uqq5KcnI4ye/dubNwXia0jAYcENqxfhz+HQnh6QAjk5Bya9kVgVmH27Nm7Rcvqh63yRw9I81kpCZAACTRWAkFqgsfHtxD7u6Dg0M6da+B5ItcgIaFV5879VYGkpHY5OZnFxflylAkSCH4CrdPSKisr4VoQ/KpSQxIgARIgARIgAdcJBKkJDqu6rKy0U6d+hw7t3bfP6GpSWJgL/5P27Y9ROJKS2hcXb3AdDQWSgLsEsOi2Y6fOxxzTc/CQYckpKQf273v2mb+4WwWlkQAJkAAJkAAJhASBIDXBwQ6T3+vWzfcW9iQnZ5+Y4LGx8UHIOi2tTd/+/Y/p2btZdHR2dvbOndu/X7igYUL1paSmjhw5unVam8TExLKysp07tm/ftm3b9q2l9Qln1gOq9+mbmtoaXukFBQWZe/BvF4IkIu0z7X79B8TF1VysTHi57t7lsyjzidi7RMV2zM7O2rqletiG8BF9+vbt3acfdqXJRY/J3Dt//ryCfK8fTI7p2atly2oX/F27duzLzDRXgaMog/wjR0p/XvGTuYDKQeQKfMEfNGRoUlJSQmJiJILFREXFxDRr1ixGPwVR5BGrpLi4WM90nu4/YBCCD1rIQX/Yv3+fRQGcDiGdOnWGEwJi8kRFRqID43Jt3rzJIuY9CqPVSuzPP/90pLTUWxUdOnRs1z4dRxHdaPmypeZivilgkAO2I0aOBmSMdvDBAZcsc+/evejEO3fk5eUaCnv7CSGjRh/bpm27lJQUXMaDBw7s2bMbEiw4dOveIzk5RQTmHz68fv1a9TMmNvb4sePat09PTU2trKw6fDgPvWjZ0sVSWCVw67VqlWTIVD9Rb1bWQY+HJLNzlww8fPBz5coVuOXRGzt26tS3b//uPY7B8wenr1u7dtXKFVLekND7T2Lzmvg5eJIMHzHKUHLN6lVFRYWGTP4kARIgARKwSSB4TXA0wJv9/UvbqsrLy6Kiqhdrwryx2dqGKYYdam64+Va8aKW69A4dBwwcdOppkz7+8L0VPy2XfNcTMDovv/KqLl0ydMldu3XHT8B8/923LQxHOaVf/4FnnXNe86NvX+S3aRPW7aiQH39YNH3qF2VlR6S8zQRkjh5znBR+95233DXBR4wafebkcyD/4MEDf3v6T4i2PmTocKmuTZu2CNw+dtz4+fO+nTF9quTricsu/62ykuE27TEcO4Jq4zriFJgy3kjCw+SmW+6wNoKlUqBesvgH+elK4sIpF6MHWoj6bu4cbwQwSX/JZVdg5GA4HYYsxmMnTTwFhvh7774NS9RQAD+HDRtx8qmnq/xmMc2wj4y5jMq59De/Vb7FsIxxO+C/UtKJAiIEdjPWEfbtNwDWp2Qi0bt3X/Vz27atn3784YED+/WjhnRMTMyFUy7t07efLgQ3tYpPkpeb+8F773jc5Oiqa67XY4yWlpY+9vD9EA7j+7QzztQPtW0Hyz7VbIJPPuscjJ8N+qifX82c/u03sz0eksyrrrlOdWOETyksLLzpltv0/tCpcxfcF4fzzn7pxRfM1jwu/aW/uUJESaJFi5ZAKj9VAiNVmuAGJvxJAiRAAvYJGIP92T8z4CUxuah0KCsLor0qMNV5z/0P6va3gMJU6JRLfoOXuuS4m8Ac7T33P2Swv6UKWBIXX3r52eeeLzkeEzCzYInq9rdeDEIwKfjYE09hdlzPrzM96cyzdfsbg4GVP3udRa5TmscC4WE19hZCX1997Q26/S3loT+scLRRcuqVwOnW5THaueOu+6ztb4xhvvn6q48+ePe5Z/7iuv1trV6dRxEf02x/62e1T+9w+533YqSnZ6r0D98vkszhw40zpnIIk+Wytg9DHd3+RhknCqgqsJ3k3fc9iLGNxcXKyOh65z33jxw1RrQyJKDkvQ883LcfFpx4vuL4NHTtDTdfcNElhhPNP2HKI3PsCSdi/Kbb36pkcYnL30B0BXAL3Hr7Xbr9LUfRwJtvu9PTdfTcXjlRTxzYbzWG0UsyTQIkQAIkYCYQ1LPgZnUlB+EI5e0YVGsx8ZbFjBH0hCfDgvlzMQuF77942Uuob8wyYlbMHx4p1990K+b/FCLMUq9Yvhzf3VEvZn+hg8qHAY3MxT98LyT1xKgxx048+VTJwRQXvlnDb6FFixYdOnbC93FlQxTCSag+8YlPPe2M48aeIGJhf/v1UwAgqPbCx+Pbb77Oyclp27YtmpaQkKh0QBsX//g9PAREJVcSXTK6XnPdjdItMd2+aOEChLOAoTNk6LDTJ01W9DCd/MzTf7Lw03CoDKaf4f1iFmJ2JDCXgQ8P5ndhXx7Kzt64cT3cNuAs0SopKSOjW/8BA5X+2IXqiiuv+vcLzxtOR29B11KDT8zv4ip49LGBi5ScOP+7uZJWCScKKAlnnnWOXGg4n/ywaOGOHdsxFY3PIO3at0dD4KaFkjD9165dbahd/UQDMY6SWwmZ8GvChHdBQX56eodu3XrAs0WV3LhhnVnC7FkzMQ5H/rjxE9RRjLpx9VUaH6OyDh5IbN5CyS8uKjJL+OGHRW3btpN83MJYPCA/7SeGDqv5CgSPEdxxcfFxWIeAwYmSgIHiuedf8M5bb+gCi4qL0G8lB3eNsuBxKZf++nMNShqGT3IWEyRAAiRAAnYIhKoJjqAo0rySkgJJB0ni61kzMdOplFm3dg28wG+78271MsML9bjjT8COG+6qCtta5i/hrv2P5/4qJiYMHThpnHvehapGGMQeTXAYLpPPOle0Wr1q5Xv/fUsfKsCT9YwzJg8cPASfsO2/fSdMPEVsEQj3t/0t+u/Yvu3Ff/1T+TKtWhm2YP68u+59EC6tqsDJp5z2yUcfSGFXEmdOPlvs77feeHXtmhoLD7YpasdigBtvvh0VYYR2/gUXwQ/HlUrNQmZ+Od2ciRw7JjiKwbaGdWUYIcCQnfpF8/sffFSNJOFtjIRhPymci34u7grDR46Gx4tZE/k6AbMYpq25gBMFIA3rDZRMqPfnp54UT4nNm2pCl2J4dtbZ52J0JDeIQQcY8WJ/Yyj7+isvGRxOsB7g7HPO37lzh0dnpDnffK0ESrf/zRW/UzkIyv7may/j9rzyqmsxMEYmhuiG2vHT4MOD+843Exyi0P9ffvEF0R83PkKMK38tHIWvDgxxfbtN+I5Pn/aFqDRw0JDoltXDCYwk9XwpwAQJkAAJkIDPBELTESU8vG3bbqrNeMfk5x/yuf3+OBH2ltjfSj58LqdqkX2VP7G7VY+fMFEEvviv5w3mBV69q1f9rApgUlb2SpRTkDjtjElqmhNp2EbvvPW6bn8jE6/n/33yIabwMVWpn2iRPnH8hAnatHqD2d/4BPGff/+fsr+VepjG0/cWkYWDFsrX9xA8/tUpBw/sF/tbhOzcUbvEU2Yi5WjwJHJzcwz2t9INy1hnzZwheuKriKQlgb1jhPnw4SMkXxK6F8pPy5dKvp5wogDkiN/Foewssb91+bDF//bXP3+/aIGeKelmMTG6g8r//eM5sV+lzMYN65/+8x/QmSXHOqEGZlu2bH7h+ecMq5kLC/07fYChoEF/2Pey1BiK9Timl7XyPEoCJEACJOAnAiFpgicntYcjiiKCbeorKsr8RMcHsZjb87iPxvKltdYJvuz7INniFAQuUN4vKAP7L+ugh5gJc2bXTM6hzKjRHrxgdbsQprZFdTYPwfnklNPOkMINZn+jRiymNM/TY14cV0fp49FVQ1T1IaFCqagTt23b6lGCBOLAUEfm4z2WDM7M7dtr29WuXXuzkhizyWQzFhSKQ4iUtPZCkWLeEnUqgBPFqIUCWBrrTZS3/MGDh8qnDLTFOnSMNyHmfHS8t15/xZwPny5zpls5iF+ET3BmaViNIJlpWGrNfyRAAiRAAoEgEHomOKKgtG3bVbFCULOsLDcD2zm/BDILaBCFz+IIw6cyPa2CMhSv309EHJMTlnuZXISfrnxxhrOvlFcJGCuyiBBRLzwa8YZTrH9i8SWWYEqZhrS/UWmltpGT6ICEGIjw91U+FfpRJ2l0RTndbP2rQ3oYmfCI0Lv19E8rACjt1RO6e/eIUcZFmeKFAgd9H7YlsqPA+nVrlT6wpO+65wH4X4mDlq6nt/TgocPk0MwZ0yTtMPHljKky/IOo6lCES37EHybUHUq2ON1bP9S/P7RuXe9RikWNPEQCJEACJGCfQKj5goeHd+pUsy8mGpmZuUnfNdN+swNSMu9wHgJKoGoYB5i3tghQXV/1kpOT5ZTsrGxJGxIIN6HsbPP0JBarSeEDnkLOyVE7CbgdIwShlGxg+1vqNSfg5CCZqa3TEClcfjpMwMEAvi7Kh7ijJycNyJcwMpgt1q1Jh1X743Ssqhx97HEpKalwHUFvQcx11CLTwxY1wqbESEN5gwwbNlKPoKd7oSz+sXYi1qM0nxVYuGA+PKfFpQqrIPCXn5+/bs1qeIhZByKEJklaQO5Ml7oHTOElP/4q9ORPy5fhz2PDGyATQ3HMFKirqRanNkClrIIESIAESMBAIMRM8PT2PePianaLwA6aeXke4hMbWhg8P3WrC9/xN+VvcEu35r/EYFHScnO9esbn5x9WwRwwhQmjCrv2iAK6bwwiNki+bwnd/sZmIn6Nf1IvDQ9rUVDatGnjogkONdBSFXESTuFYsAi/F1037EeDkBwqxxyPWS8Z2DSacMaks5xYZqtW/qxmuyFEH2rqPtZY3+mtmQ4VwDecZ/7yx+tuuFn/1IMgm8oWP5yX9/33C+bO+cbb1yqEDVGKYZiEf96UrFf+2jWr3BJVr3otCkMf9RXI2x5AFufyEAmQAAmQgCsEQulreFpaRqtWNZ6LxcWH92ZucgVBgwk5UnpE6kKYP0k7T4gPCUQVeQpzpqo4cqRWAcNEuO4bczj/sEOVpn7+qUjI6NoNTinyM7AJfaGhgYBzxRDlRgw7mIDYmlGmjRGI8Lobb5YqPv/0E0kHVeLY48Ze/turdPsbrtXwh4YDD2J477a3m+l38+ZKo0ZpsbfFCwVy8MVAyugJVxRAxMy//OnJTz/5CBXJFVG1YCb+lFPPuP2uexFmRK9X0mq3L/zUbxY56lsiLy/PtxP9d5YMCVT8RP9VRMkkQAIkQALeCITMLHhKSofWrWuCMBw5Urx9+0oE3PLWquDMb9Gy1uw2BEZwqDBChokErMv05smdkFC7owqCHMspSOjLwpxPjGG9V3xCwkkTTlZVYFIc7bXYE1vXxK9prFoV+W6ttBOBmPZGyAtEZ8f8Ihwhzj3/QvzBAxhWjtjiKAw4HoPxiZxAJbCiFPH4pHZ8u5g+7XP90w2cqu978FEp4C2Bbwu43Gq9KWLvzP4lOieEi0/2ogXfeTzXLQUgHL4f4Iw/uMQMGjwEW1pi1yTxToHbFQIsPvn4w2ZvaXwaUpvpqP961LMRZCrPIjTkcF5uI2gOm0ACJEACoUggNGbBk5PbSxTCsrLSrVt/qqx05xtxQ14z3V1Et2yc66BvUyeGjlksto1UmZgaNAR11o14cVk2S7Cf8/VXXyJEnZS/5LLLu3XvIT8DldDjluyxN6dbL1Ux7Wowr2HJif0N5h9/+B5mZ+sls8EKI4K71LXy5xXw4Pe5l8o2LtgIExPPEDvyaBAeWL3eHJNcVEAaAsd0bEH6ykv/fuTBe3XHdHjtwyiXYpKQj0iw1yW+oRxtHAk0Df9UW/Zzh8vGcVHZChIggRAkEAImeFJSu3btaqw32N9btiwLqiiE9i+6btpm2Q6tbUe+vshMHI4NJ8IQlEh85njJ+pQwNhE0nOvbzw/ff3fL5hpnIdR+1TXXY42db6LcOktCsOFDvMSHcUs45GDfTezbgoRagQfvcBj6cOJY8N28D9//7xOPP7x0yWIXq3NXVPv02qvz5fSpToQvXDhfTsemUUjL5jLmTemlpIsKiExJ4Ip/NXP6DK1dAwYMkqOSyNG2fe3UubPkN6ZEmrb22q0lp42JD9tCAiRAAg1DINhNcMx/t29/jGJx5EhJ6NrfWI2HNWGqIdgDXHdKdn6l9WWFw4aP9CgQ3+IjjwaSM4dCQ4Q4scsRp6xr124ehdQ389WXXxTjHhNvN95ye3Jyzebe9RXlvDw85iVWCZblWQjUfev1YlhcqP80p8eOO1Flzpk965OPP8D2QP/8x7OAMG3qZ8uXLXX3optrd5gTFxcvEvSvIpJpP4Hpc8SnV+WHDh2ue6HoUQsNAl1UwCBZfurx+DpnZEi+JPRPN9hEU/IbU2LsCTW9FI2y/hYknvTiuNKYOLAtJEACJBBYAkFtgqekpMv8d2lp4datITD/Deutv6fZtVNPnyRXeu3a1ZL2mCgtLVH52HLHYwFDJha3yXwzvrCruByGMuKZjXyPc7HwPZBTLphyqdjrkqkSiPVhyLH4iclg7C94+HCNvQsn6VvvuNv1dZBmBbD/vDkTW3VKpsfJv+KimjWCcJ+QkpKYfPa5GRld5ac5gdaJ60K9KJlFBSRH3/RUX5GplMEI6tzzLxLFoptVhym0+Pf90ZgniEwiOzTBM97gqKNLcEUBBMQcPGSoLlZPyxgMmR7dbLDnvNidmC32eC/jXKyXcL5kQlfMH+mu3bqZNyeCZxRG41Ld7l07JW1OYGGrykxKShZ/KnMx5pAACZAACfhAIHhN8NTUjm3b1jhrFhUdhv+3vvuJD01tsFMu/c0Vw369Ozc8obv3qJnLxwv+669mWiuzd+9eVQAT5wZ7OrV1a4/nfvbpx5L/myt+p58FY/qGm27FZoGqALanFntdTkHiyxnTxEEcDuUPPfr79F+imKsyeAEPGDj4kcefhKjR9YlwAmfc5597RvYlwRDltjvvxjbgetWup2GHAYI+dXfCuPEnnHiSVPTVl9MlLQkxAbGktVfvPpIP2/rCKZeOOfZ4yfGYAD0JNNHjmJ5PPPXne+576M6771N/1914C4ZhcFPxd9s96mYnU58QveCiS3STq7oL3XwbGiVyunSxGo2g2JLFP4otO+TofjfYkkYkmBPOFYDFfN4FF1108WV33fuA3ntVXViNcOlvfiv1bv911EiVj+WYCFkoZXAvn33u+eI5jXx8Cbnksivuf+jRW++4Cx1DSgZhAgPC2++8FyGJRDcof/d9D8noGo5S1uvCxUBHS/WluhCIGErHHX+CTkZqYYIESIAESMAOgfBe/Wp3g7NzQsOUQdzqXr3G2K9r794NOTn77Jd3veTV194gRrYSDoMMJh12w0nv0KFZs1qL87u5c3SHVI+a9O7T94orr5ZDR46U7t61Cy9O+HljEguODXAvlqOS+N3V1ylHZJWDlyscVBCZBPEf5KULq+jvf3tanEPkXJWABQObQ8+EAV2QXxDdrBmiqYhNBiEIvSwGqyo/4eRTZTndww/cg+brcjCreufd94sa8FL4+7N/FYNVL+lzGgbBpMm1+3EqOdiFsSD/MKYz9QAXoAeG5orgtQx7S/IxX3vw4AFMduLKiubqKDR/6P67paQkMFNep6UOeh998C78UuSsBkigFbAaVUXofuiE5kphnz348ONiVGE7G1jMGDLBg79d+3TJVyeiFTOmfWHhVYJiiMyo23/IQbexiInuUAGMuJ546i/SS1EdLhM8ahATMDwsrE3btvrnF9xTTzz2sKGXqqZBwr33P6x/CUFjMWVeUVmZmJggHzpQeM3qVW+/+Zo6S/576+13xcRURzyULwk4/VB2zXTyW2+86u3uEwl33XM/blv5CX0kZigUlk9kKLBzx443X39FSqoExn76AweZOAtb86L5aJTwgVYWjwIlCktpETpGLj2+tuGRgniOMc1iVOvmzpk909No1qASf5IACZAACZgJBOkseDjemfX5Bzfx+hT3Y1m82lWkM8wbwfaFCaK/DlevWlmn/Q3l1q1dgz/REhIQvQG+DcqOPH7sODmkJ9547WU91gSiwsF2hP0k5iMUe/nFFywsAMQN/O/bb+LdLGJhcOC1DVHy5sahtWtWI1y0lLGTgK/5iy88L5IxJX/N9TfpMu0IsV9GTCtM53fs1Fm3v2ECApRHUT98vxBu+nIIzLGbTM9evRXAA/v3ffTBe3LUYwIB0bHruMdDkolWY04df5LTAAlZh4q6vG29hO1a9W8p+AKDnobvCdhpSBlhML/QPZS2aMWJJ9U69nhswsJfBx/EcMjC/oYEhwpgAhsjK71n4sJhDXS3bt1xKXX7G6PTl1/8l3QSg/Lopc89+7Q+JY/GVm/tmZSk299Yzutxh0uMk2Geiv0N4Thd5eC/HTp2NFRn/pmUnAJt5U/sb5TEU0XykTD7mejS5HbDWbgLsC0XNJEC777zlsWjQBXDkgm9S8DJDQ80PFKkdWPHjde/NYlwJkiABEiABOokEJma5k74izprqleBiAi8O+t+V4nM/fu3BTZMIbYdURtP/rxixbv/fbNfvwGGvT8wnQznh6lf1O5ZI8p7TMAaxosTZrf+1kRJTOxhMaV5PSUO4Y0LEx8bQOI1iXMNYnEKTM89e3Yb8g0/YWiu/PknTJrC48VQNeRj68FXX3px0cL5ZvMFVg7+lLQ533ytxiG6cHiEw6wZNLjGTxdVNIuO3rRpo17GSbpT5y7yEeBvT/8J4x91RUQm9Mc+4W+98ZpZeSmD1Xjt0zukpKRKDhLwolm2dDHoVVZVqvgeEIUFl3oZSWN8Mm/ut9u3bd2xYzum29XF2r8vMzIqCraUTCgi7Exubs7evXvkRL8mJpx8CjZkVVXAD0pC7xkq3bN797ZtW3v36aPbmiiD3ovxCWZw0T2kW2Iif/26tQYJ+k98Q4D/vTR5/rxvIVwvYE47VAC+ywg+g6uD3ouBq6EDozrYzV/OmPru229ab5eDuwyhDIuLiwBNTWnrqqI/YPYX/cGjCXvSxFPM9crp2Ckz86ibmWQaEvCYMt+/hjLqZ25uLmKfGw5haBQZWX37o+9Nn/p53379ZBCuSuYcOvTOW69bXzuRiSuyZctmDET1cazIQezRnTt3SGEmSIAESIAE7BMIUkcU+w0I2pJ4Y2VkdKsOihwehulDeJKYrdI6lYeQDh07YdoJriCHMJN88CBsaFgYdZ4IE6pzly6tWrWKjY2DoYD3qAQ8qfNcVQAS4EKD6CgwoeCFD8dZbzv+2BTo72K6I8pTTz4GzwFYHpj8S0trExEZAeV37dpZWmLrawkieKDtmM6EkHXr1mB21i3lEYzi9EmTlTTY3/CSd0uyhRxMlz782BPKLsQk8ZOPP2JRGIdQEtOcWLmIXldSXLJ1yyaDxzAMRIw5YeFhFGEtyrejbimAVnTu3CUltXVuTg5Gj/v2ZcK2rq9KEILhHGbTCwsL8/Jyd+3cIQsb6iuqYcqLIwriP77+6kuoFP0Zw2OsoC07cmTvnj0eRw516oZYRogaCZ8uBPaBBMD0uJ61TjksQAIkQAIkoAgY50rJxS0CeE+vX281R2inIgjB0kmPqyetT8e0JTYVty5jfRQSMJWLP+tiwXwU9pZvTYClhT/MZ9tv3dBhw7v8Ei8FS9ws/Ly/m/ftCSeOh00MyRgg2Zfvc0mM4m6+7U6Zl8UHijpFYYyHEYvFiAufERb/+H2dcnwu4JYCGLTiz2c11ImuCHGog8PT0Zn1aIy+ScMXhuoAKatW+nY6zyIBEiABEjAQoAluAMKfJOALAUy3w20aZ+KTvYUJjgLYr15V4M0bxJfqvZyDaPRX/O4aPSD9D0djBXo5g9kkQAIkQAIkQAINQYAmeENQZh2NngA8a5WbOAIawhaHJ7G5yZiK/iVUYo0JDu8gKXPc2BM6deoiP20m4JU079tvzIWxQq53n34jRo7So/TADfofzz3jgyeGWT5zSIAESIAESIAEHBKgCe4QIE8ngWoCurMQQlMfe9xYuCHhw33ZkbJ4LMNMTIRrNfxxZWEcfC1mzpgq7AYPHorAI/LTZqJdu3a6CY5VpMNHjurbt5/EgBc58IR+4/VX6rseQE5nggRIgARIgARIwF0CNMHd5UlpTZQAIuItW7oEHuGq/W3btcOfNxawvxHdD0H6vBXwLX/suBMRRdFwLia/p37+P+hmyOdPEiABEiABEiCBABKgCR5A+Ky6URHAhjvYCAZh+GSq29w8LGTEFugIaGjY2Oj7RQu696jde9J8oscczG3r+Zs3bRITHKtpd+7ciS14EBZDL8M0CZAACZAACZBAMBBgUMJguArUwQUC8HvGzpTZ2HjmwAGE9w6U0zNiOCKaO/ZyRyQ4bGWC8PDFRYWI34y4eIgxsnHjeh9iU9qkg+ouvPjSLZs2YV8ng4lvUwKLNQICF065BJ9ZcBds3rihzn0AGkF72QQSIAESCFECNMFD9MJRbRIgARIgARIgARIggVAlEKQb1IcqTupNAiRAAiRAAiRAAiRAAnURoAleFyEeJwESIAESIAESIAESIAFXCdAEdxUnhZEACZAACZAACZAACZBAXQRogtdFiMdJgARIgARIgARIgARIwFUCNMFdxUlhJEACJEACJEACJEACJFAXAZrgdRHicRIgARIgARIgARIgARJwlQBNcFdxUhgJkAAJkAAJkAAJkAAJ1EWAJnhdhHicBEiABEiABEiABEiABFwlQBPcVZwURgIkQAIkQAIkQAIkQAJ1EaAJXhchHicBEiABEiABEiABEiABVwnQBHcVJ4WRAAmQAAmQAAmQAAmQQF0EaILXRYjHSYAESIAESIAESIAESMBVAjTBXcVJYSRAAiRAAiRAAiRAAiRQFwGa4HUR4nESIAESIAESIAESIAEScJUATXBXcVIYCZAACZAACZAACZAACdRFgCZ4XYR4nARIgARIgARIgARIgARcJUAT3FWcFEYCJEACJEACJEACJEACdRGIqqtAUByPjIyKjW0eF5cYHh5RUVFeVlZSUJBTVVUZFMpRCRIgARIgARIgARIgARKoD4GgNsEjIiJTUtJTUjrCBDc0qqqqKidnb+a+LWFVVYZD/EkCJEACJEACJEACJEACwUzAaNoGj66xsYldugyIjIz2qFJ4eHhycjrK7NixqrKywmMZZpIACZAACZAACZAACZBAEBKITE1rH4RqYf67R4+R+K/SDc4nhYU5eXn7Dx/OLi8/EhubABMch6KjY1u1apOTk4lJ8SBsBVUiARIgARIgARIgARIgATOBIDXBYVKXV5Q1b54CjbOzd+/YsTIv70BRUV5xcX5+fjZcUBITk6OimuEofFSqqipwyNw25pAACZAACZAACZAACZBAEBIIUhMcpEqK8ysqyrKydmGS2wCusrIyPz8rJaWDmguHLX7o0F5DGf4kARIgARIgARIgARIggeAkENRBCWFYe5vehjuKHGrWLC444VIrEiABEiABEiABEiABEjATCGoT3KyuniOrMMvLy/R8pkmABEiABEiABEiABEggmAmEsAmemJikyBYW5gYzYupGAiRAAiRAAiRAAiRAAjqBUDXBW7RIxTY9qiUFBYf0JjFNAiRAAiRAAiRAAiRAAsFMIHjjgnunFp6a2qFNm66qANZlIliK98I8QgIkQAIkQAIkQAIkQALBRSBkTPDU1I7Yoz4mJi4mpiYoOEBiReauXWuDiyi1IQESIAESIAESIAESIAFLAiFjgiMEoQoELs3JzNzEWIRCgwkSIAESIAESIAESIIFQIRAyJrjB/gbfdu16pKV1wQb12K8nVHA3Yj2vue7Grt2622zgC88/t3v3LpuFWYwESIAESIAESIAEGhmBkDHBN21ajP3qsRcmooBjLSZ2x8SViIyMzsgYvH37iqKiw43swoRcc6KiotROSXY0D48I1XXAdlrHMiRAAiRAAiRAAiRgTSBkLKEjR4pLSgoQfxCbZWLme8uWpdjEHm2D2delyyCJjmLdWh71H4Hyigr7wsvKGMrdPi2WJAESIAESIAESaGwEwnv1GxaibWrVqk16ei+l/LZtmAjPC9GGNA61o6ObxcbF2mkLxk4F+fQdsoOKZUiABEiABEiABBongZBxRDHjz8/Plkz4pdAEFxoBSZSVHcFfQKpmpSRAAiRAAiRAAiQQWgRCxhHFjLWiolz5ouBQQkJLcwHmkAAJkAAJkAAJkAAJkEAQEghhExz+37L+D+Z4EMKlSiRAAiRAAiRAAiRAAiRgJhDCJnh8fAtpT2lpkaSZIAESIAESIAESIAESIIFgJhC8JnhycnqvXsc2b57iER+mwGUtJgpwj3qPlJhJAiRAAiRAAiRAAiQQhASC1ATHtjvt2nVHFPBOnfohjYjgOruYmPiMjEHR0TEqE1vzIF6hXoBpEiABEiABEiABEiABEghaAkEaEaWsrFSQJSe3xx9yioqr99+JaRYfG5sgRysrK3btWiM/mSABEiABEiABEiABEiCBICcQpCZ4VtbOiooyzH/LgkvMebeMbm2gCbsc2/To9rqhAH+SAAmQAAmQAAmQAAmQQLARiExNax9sOil94FuSk7M3onpX+mj8GZQsLz+SlbVr9+51SBgO8ScJkAAJkAAJkAAJkAAJBDOBIJ0FV8jKy8syMzcjjbnwmJgEuIAjjfiDZWUlDIESzL2KupEACZAACZAACZAACVgQCGoTXPTGFjyYFOeaSwHCBAmQAAmQAAmQAAmQQOgSCNKIKKELlJqTAAmQAAmQAAmQAAmQgDUBmuDWfHiUBEiABEiABEiABEiABFwmQBPcZaAURwIkQAIkQAIkQAIkQALWBGiCW/PhURIgARIgARIgARIgARJwmQBNcJeBUhwJkAAJkAAJkAAJkAAJWBOgCW7Nh0dJgARIgARIgARIgARIwGUCNMFdBkpxJEACJEACJEACJEACJGBNgCa4NR8eJQESIAESIAESIAESIAGXCdAEdxkoxZEACZAACZAACZAACZCANQGa4NZ8eJQESIAESIAESIAESIAEXCZAE9xloBRHAiRAAiRAAiRAAiRAAtYEaIJb8+FREiABEiABEiABEiABEnCZAE1wl4FSHAmQAAmQAAmQAAmQAAlYE6AJbs2HR0mABEiABEiABEiABEjAZQI0wV0GSnEkQAIkQAIkQAIkQAIkYE2AJrg1Hx4lARIgARIgARIgARIgAZcJ0AR3GSjFkQAJkAAJkAAJkAAJkIA1AZrg1nx4lARIgARIgARIgARIgARcJkAT3GWgFEcCJEACJEACJEACJEAC1gRoglvz4VESIAESIAESIAESIAEScJkATXCXgVIcCZAACZAACZAACZAACVgToAluzYdHSaAxEAgPD09t3boxtIRtIAESIAESIIFGQSCqUbSCjSABEvBKYPCQoeddMCUqKqqkpOSt11/ZunWL16I8QAIkQAIkQAIk0CAEOAveIJhZCQkEjsDpk86C/Y36Y2NjzzjzrMApwppJgARIgARIgARqCITWLHh469Ydc3MPlJWV8AKSAAnYJBAXFyclExObS7oRJyLDw8d2TOqZnNA2MaasovLwkfLNOcWzt2eVVVY14lazaSRAAiRAAiFEIJRM8BYtUtLSMvBXWJi7Y8eqqqrKEAJNVUkgUAR+XrF86LARqvZFC+cHSo2GqTc2KuIPx/c4NSM1MiLcUGNF5THvrsv84/dbDfn8SQIkQAIkQAINTyAyNa19w9fqW43p6b2io2NwLtaWZWfv8k0IzyKBpkZg7ZrVu3btLC0t+fzTT1auXNGImz+gdfNp5w/tk5oYEW60v9FqZA5Ma96tVfxX27IaMQQ2jQRIgARIICQIhIwJHhOT0KZNhmJ64MD24uL8kOBLJUkgGAhkZ2WtX7f28OG8YFDGTzr0S018b/LAZpG161sOFB1ZnJm3NqsgKiIiKTZa1dsjKb5vauL0LQf9pAbFkgAJkAAJkIAdAiHjiNK6dSfVnqqqqtzcfXbaxjIkQAJNh8BxHZLE+WRNVsFl01aWlNf6qo3vnPz8Sb1VgRM7JQ9v13JJZmMekDSd686WkgAJkECIEgiNWfDIyKgOHXorxLC/Dx/md+QQ7W9UmwT8RWDpvsM78oondEmduS3r6i9Xl/965eW2vGLkjE5vparHpDgnwv11JSiXBEiABEjABoHQmAVPTq51WM/O3m2jXSxCAg1NIDo6etDgoag1Oztr65bNSERERHTpktGzV++27donJCbuy9y7edPGFT8tt6NZYmLi6DHH4cSYmBjI2bljO+J5b9u6payszPr0/gMGIfigRRmI2r+/cX5HmrblIOxvg/EtKF5dueeO4V3Uz66t4iWfCRIgARIgARJoeAIhYYKHp6R0UGiKiw+XlhY1PCbWSAJ1EhgxavSZk89BsYMH9v/tr38eMnTY+RdeDOtZTuzQoeOw4SPHnXjSSy++UFTktRtHRkZedPFl/QcMxLJjObdrt+7jxk/A3jovv/jCnj1Wo9ALp1wcHd1MTjQnvps7Z8b0qeb8xpHjzf5G6yqqqorKKuKjI5FuFRMSj77GcU3YChIgARIgAQ8Eau0DDweDIwuxCCMja5ZSZWUxEEpwXBVqYSIQHlZjMccnJFxw0SUXTrlUt7+lOCa2sVel/DQkMOd95933Dxg4SLe/pQymt2++7c5Ro4+VHCbqRSA2qtr+xr+s4jo+Jqhi/C8JkAAJkAAJ+IlACEwFpabWLMSsqCg/fDjbTyAolgTcIpCQkDh02HBIq6ioWPzj9xs3rG/WrBn8Q/r1H6Cq6Nuvf2Lz5gX5HqL6XHP9TSmpqapYZWXl8mVLMjP3RoRH9Ordp1v3HsiHaX7WOeetXbv6cJ7n1YQL538HpxclQf/v8BGj9J9+SrdL79IsxsoNRuo9uH9PUaEHAlLA9UTbhBiJFb7+UIHr8imQBEiABEiABOwTCHYTHLEI4+Jq9vP7xQu8ZnM7eIe3bt0F7TxwYGtOTuN0bLV/FVkyCAnA8/uVl/5dUPD/7J0HeFzF1fet3ntvlmRZ7k3uBWMbm2I6pgcwxQmBkJBGEkIg5CMvJKG8CbyhhQ4hlBgwBoNxLxhc5Srbsqzee11Jq/r95VnPXt0tWkm7q13pr0ePPPfMmZkzv7uWzp175ozO1Tt65PCDv3woNjZOmJqQMPrUyQyV2dOmpyFYRQjr6+pe+ufz9fV14nL3rh2IbMHKOi7hhV+36sZ33npd1Vxcbvx6g1G5fVzwZZdc56KIvTFqiRBmZqQf3LvdjILVq5aODpV9Hq2wq/cvx2WBBEiABEiABAQBRw9EkbkIYW5NTYm8bZ6ePu7uHvj28LBoyU02ZIEE7EAA4eAv/OM56X+LEbds2iiHjoyKlmVZuPKqa2QZ8eLS/xbC9EMHjx3VHawzcdLkkBC9QylbOVNBEeluB7ORjvChuUliIORK+TqHWZXsQJ1DkAAJkAAJmCTg0KvgyEUYFBQpbG9oqOzs1Idvuro6tOUmebNiZBB48/V/IYxENdeaGn0YlY+Pj6o2KCg4MChICJE1BWlVVAq4/GL9ZwgTF/KxqeMO7N9rqDO0kvq6ag/PniNs+/xqrK/tU8eKCvfPSPA7txETfX54qrSyuc2KnbMrEiABEiABEugvAYd2ZJW5CFUbMeGd93eq1CcBuxHo6OwwHEu1KK5SmJ42U0pwpLwsKwuNDQ1tbVrPcz5uZFSUsspByhs+e9dBLFGaEeHred8MXYSPtrPrmf25ylqWSYAESIAESMD+BBzZkUUuQt1fzba2FtWJ9EjcZn9YHJEEBkOgWaMx0zz8/C5M6DQ3ayIide9/VE06Ojp0LnikI7rgKmsd4RIhKB9cNU0enPm3fbnKUzMdwULaQAIkQAIkMAIJOK4Lfi4Xoc68ysoC1b2RaQpVcl6SgMMSMAxNUZqKQBR5+cN775dlU4WQkBBTVZQrCbx8yaS4AN2OkW35NR+cLFXWskwCJEACJEACQ0LAcV1wmYuwu7urvr5CRcfVlavgKiS8dG4C5o+0dJa5TU1b4ONrJCWiof05WSeqKmzuDf/P4tTF8bpnlYKG1ge3njK0hBISIAESIAESsD8BB3XB3d09ZS5CFxfX1NS5KjQeHrotXxERicHBPckl6urKKiryVGq8JAFnIaCMFM/Py+3q1uXfNGV/TvZZU1VDKJ86Y76FSQm7ujpt7YL/Ynbi9eN14TrVLe3XrzvciWQo/CIBEiABEiABByDgoC443G4lHOlwK4WyLGp9fQOlhAUScDoCyhSE69d9av4Ueqebnf0NfmDm6B+f34LZ2NZxzafpTW2d9jeDI5IACZAACZCAUQIO6oKPGtXvxaq+Fg2NTp9CEnAUAmVl+qiM0YlJTuqC5+Vkenh6WsK0vLTQErWB6SD/yU9n6k7VbdB2XPlJOlbBB9YVW5EACZAACZCALQg4qAve3q7NyNhpZsLjxy/EuTxQqKzMZ/yJGVCschYCOD5z1fU3CWsXLb7w++++dRbLlXZ+t/Mr5eWQlH+SNvpns3T+d10r/O9D9L+H5EZwUBIgARIgATMEesV7mNFjFQmQgE0JaFtby0p1C+Hh4REXLF5idDh3d/fwiAijVRSCwM9nJ0r/u6K5beV/D9L/5geDBEiABEjAAQnQBXfAm0KTRiiBtR9/IGd+5dXXXrvqBmX+e1dX12UXrfjTn//yq4ceDg5mRkKJSl/43bxkeQRPfn3Lyv8eqtMaOSNJ34AlEiABEiABEhgiAg4aiDJENDgsCQwlgaKiwv17v587f4EwYv6CRXPmzq+sqNBomkLDwoOCguCFi6o1P/rxc8/81XJblS57k9kTgizv09E0cQTmXVPjpFWJQT6H7tSRlEJl4dn9eW8cK1JKWCYBEiABEiABuxFwXhe83/s17caUA5HAgAl8+snHONx+4aLFogesgkfHxKh6wxE/x44eUQnNXypPs6+qVGfZN9/WWWpdXfpnaV59S/8aUJsESIAESIAErEfAeV1w6zFgTyRgdwJabaupMZGRMOtM5mWXXxkV1ZPwXvnV2dl55HD6F59/2tpqsrlSX5bTZs6S5YryclkeyYVT1U0jefqcOwmQAAmQwNAScJkwZfbQWsDRSYAEjBIIDAqKjYkLj4zw9PQqKSoqKMhvbtYY1TQv9PPzf/TxJ1xcelaJEdPy5z89Zl6ftSRAAiRAAiRAArYmwFVwWxNm/yQwQAIN9fX4HnV6gM1FMy8vr5/+/FfC/4Zk29bNg+qOjUmABEiABEiABKxBgC64NSiyDxJwSALx8Ql33vOjgIAAYV19Xd3e7/Y4pKU0igRIgARIgARGFgG64CPrfnO2I4GAh4fHxElT5s6bPzZ1nJwvwsef//uziCaXEhZIgARIgARIgASGigBd8KEiz3FJwMoEwsLC58ybP3nylIjIKFXXJcVFb7/1+sBCyVVd8ZIESIAESIAESGDwBOiCD54heyABhyBw4dJl8+YvVJmCxW9kUDl08IBKzksSIAESIAESIIEhJEAXfAjhc2gSsCaBs1lZ0gVvb28rKCjYtWNb5ulT1hyDfZEACZAACZAACViDAF1wa1BkHyTgAATOZmWeOpWRnZV16mRGdXWVA1hEE0iABEiABEiABIwTYF5w41woJQESIAESIAESIAESIAEbEXC1Ub/slgRIgARIgARIgARIgARIwCgBuuBGsVBIAiRAAiRAAiRAAiRAArYiQBfcVmTZLwmQAAmQAAmQAAmQAAkYJUAX3CgWCkmABEiABEiABEiABEjAVgTogtuKLPslARIgARIgARIgARIgAaME6IIbxUIhCZAACZAACZAACZAACdiKAF1wW5FlvyRAAiRAAiRAAiRAAiRglABdcKNYKCQBEiABEiABEiABEiABWxGgC24rsuyXBEiABEiABEiABEiABIwSoAtuFAuFJEACJEACJEACJEACJGArAnTBbUWW/ZIACZAACZAACZAACZCAUQJ0wY1ioZAESIAESIAESIAESIAEbEWALrityLJfEiABEiABEiABEiABEjBKgC64USwUkgAJkAAJkAAJkAAJkICtCNAFtxVZ9ksCJGAVAiEhoR4eHlbpip2QwKAIuIwKifQdVA9sTAIkQALnCbifL/BfEiCBARJwd/N0dTX/X6m7rb1lgL2P4Ga+vr4/+/mvQ0JDu7u79+ze9eUX60YwDE59iAlMmBuz4vZJ7h6u2paOL14+UpRVO8QGcXgSIAEnJ2Deb3DyydF8ErALgZ+t+jjQL9LMUF3dnX9+Z7EZBVYZJbBk6UXwv1Hl4uKyaPGFWzZvbG1tNarpCMKbbvnBjLRZRi3JOpP51hv/MlpFoVECHl5uP356iau77j3tW49929zQdv9zS6Xkncf31FfZ9bF28fXj4H/DWi8f9wtvGPefv+wzarmzCy+9c8r4udFGZ5F/svrzFw8brRquwtsfXRAa4ydmt+Oj08d2Fd3yu7mRowOFZNfazCPbC4fr3DkvOxBwaBccf3fd3b0sodDe7rh/mC2xnzpOTQCr4E5tv8MaHxzS43+LL/w28PX1c2QX3MvL29XVeGhfQKDub/b52fDfPgh0dXa7e7pJpbaWjs7OLqUES9Gy1rAQHOnr6upiKDeU1FU2YyxDuaEEnrcU+gQM2//yHt5uptD5B1v051hScoRCYKh38tSIgFBvPNR1d3XjsQ0PEjVlGgttw42WNDrbu9DKN9BLSjrOSSzsimokYEhA/zvFsG7IJf7+oaNHT7HEjDNn9tELtwQUdUYUAYTHhAbEBflFZZfsd8aJ79yxbfqMNGF5dVVVTU21I8+iWaPp6OjlF7q7O/QvWEeG2dnR4+7IL+FwIx4JT2JC2NrcLmsNC3f+aaHUNKxVSg5szN3z+VmlxFT5zMGySQtiRe3RHcN27bNV067yLMXavyksDitPmhy+/LaJASHehhY21rZ+9kK6JY54e2vHqEDd41aLpucj167V/x9vaTT3ITQclxISUBFw6L8QFv4Oxe9l+t+q+8rLkUzgthXPRYWm+ngFyuX5N7+6r7DimD2ZzJu/8MIly/wDAtra2p584o8DG7qkuOhvT/0ZISjlZWXphw70qxOrGNCvET9Z+xG+lU1+/4fHg4KDlRKWLSfQ1dUtlhvxG1606uzodvfoccF7JBatXPc9GryxvpXOaWx6N+PMofIx0yJOfl9SlldvYSunU9vy75P4Vpq95qnFRh1ZpY6jlS//4bRxs6JMWYXp3PaH+R/+bX9lUaMpHSFXvmzBwwmEeCEjm7Ro2mSZBRIYAAGHdsGV89Fo6pSXynJbm10jApVDs0wCIPDx9ke8PQMkiriISYun3Skv7V9Ijp3t5torhYirq/6dvn3sSUxKDgsPx1iDTGZSW1vz5fqB7MK0lgH2wcVRDAl0tHV6evf8hYLnLWqxNC5WZKXEsJWhpA0Lmaa/yvMbTFeqa/IyqvCtlvLawQhc80Ba8pSeXz7iC4v6WPCuKm70D/aOTQkWHyE3d9dbfz/vo6f3m/8AaBUvW1oaexzu1mb9x6m1iavg5ynz3wERcBoXPC/v6IAmyEYkYHMC+eVHlGM0tdYMrQuuNIZlEnBSAu1tXZ7nggg62jvFFOCUi4BsKelzankZ1ev+md6nGhWGDQE8tsWN1b16wtuSr14/npVeLmeHWjjoQgHvWC65c8p7T3wnaw0LyngnEYiiXBdvoQtuiIyS/hAwvnmoPz1QlwRIwHYEXPx9wtzdnG8XlO2IsOcRQqAnDPfcV7tW54LL9WwpGSEoOE3LCeBD8vrvd1cUNGDxG6EmSv8bnaD2sxcOyc9PWIyfX5C5365KJ1s438qVb6WDbrmF1CQBScBpVsGlxSyQwLAnkBwza/nM+yKCx3h6+IjJIq2hpqXmYOZne09+3NbebEhg+az7vD38hdzVRR12gt7Ka7KUrXYefaupxcq7GxH7ERmpi79MTh4jhsOOjjlz5yuHRrmwML+stFQlFJep48YHB4cYrcrNya6qqjRaJYSDNyA6JjYhYTR6q6urRSZBw7Hc3NzSZs5ycelZvDh29LBWqzXUsZYEkTzz5i2IiIzy9/dvb28vyM/Ly83NzcvROnBmRmvNHf1Ih7utVbrg6oIVh1N1lTozylORAkVVi8uynPrq0iZDuUriG+A5fUlCWJw/1l+x7FqaU1d8tq7oTI1qy6NsNX52tLuXW31lc9GZWniHkxfGjp0R2VSnzT5Weer7kp74eDcXbDScMDcaAc3VJZrD2woMzQgK94kf35NNqCSrtrai59dFcIRvyoxIhGd4+brXljeX59cjm55qz6u0wboFDD11cVxIlB9QYNYgUJLdA0HeX+sOh97QM1JGApTRXDew4fSB0qkXxItxI+IDNPUm/xeL+G9oYkEdCVVQkKEpUiL64U8SGAABuuADgMYmJGArAn7eIfdc/mpooO7PgxwGXnWAb8SytHuXzFizdsdjp/J3yCpRWDD5VlX8t1IhIXIqvpUS5Eg5XbBLKRl8ec2PfuzpqV5Sggt+/Y03qzrfvGmjKRf86muug9Op0heX32zcsH3rFqNVQjh4A6686pqxqePQG7If/umx3xuONW162g033Srk8InLy8sMdQYvQfrF1XevSUpKVnY1JmUsLvGH/8P/vHf0yPBPzyyDbttadBG3MgZASpR8rFu+9M7JyhyIhp0f2py3+9Nej7UqHUQbX3rXlNSZkcq8AvHjQubAjWvp+OQfh7BSq2oSFuO/ck3P/1PELh/akn/x7ZOEQuToUdgGOm1xPFqtfnyhTA4YMyZ4wryY9/78XX1lrw1Ry2+bNHpCjwsOP/u79WeRyjo0WpfcGkI4ndiquODKlI1vnzh7uEIMYYuf3n4eV98/A+HXys5BAJf4GG9880TmQZv89xHDGfW/RVVNqT4pofmdptIFl9sP5Mq3lChnxzIJ9IsAA1H6hYvKJGBDAuFBiT+7/r+G/rdySPjiNy17auGU25TCAZTLa7MH0MpaTYqLhjin24ANOJ8Tz1okjPQTFBT8m4f/oPK/pR78uVtvW33tqhukZLgWsH8Oriq+q0p0i83VJU06SXHfy89DiwVr3nf8cQE8XaX/LU1CRPutD8+ddqH6Sfvcy5UeLXjM0v+WraISA+99eon0v4UcmwuvfSBN6qgKUYkBdz2xSOl/SwU8YFzxo2lxqcbfOEm1ARf8Q7wxtMr/lr0BCx42Lrp1opTYs6AMPqmt0LvjhjYgj7j4yNWde5kABUOJYStKSMBCAlwFtxAU1TzKcEQAAEAASURBVEjAtgQQ23DXype8PHwtGebi2Q9kF+8rrz1ribJRndrGEqPywQi3btns76dbbJs0earIiILlrm937VB1m5+Xq5LIy717v4uOjpGXSK2dNnO2vDRfsIoB5oewQ+19Dzzo46MLQGpvbzuSnl5SUgwO4ydMFCv0sGH+gkUQ7t/7vdXtgW80Onm8hd0W5p3p6uqVwNvChpao7Vp7Bt9KzZ3/zcS3UmK7MgI8EDhh2P/kRXGGQkPJ9b+YhQAMIUf0yKm9pXiicHF1QShIwrkQEXBedsuEnGOVCDIxbC4kqNr/dQ5+XnXfdOHKi2weZw6VZewpmXphPGJUoIkYD8iNRrZgmVx0VVXclL41HwvDMclBaCiyPaLPK++d9upvdpoyYDDymx6a4+2ry8uEfbSnD5RVFja6ebgiikas0KNzPIRAePzbosEMNIC2kQn6BFZleep3EcoOcYNe/tV28xJlLcsk0C8CTuOCBwSEhYbGenv7u7n1/K/WajUtLU3V1YVarZG42H4hoDIJOAIBeNWIQlFZcihzXU7pQWT4vijtXl/vXu9zb1n+t+fXXi/1q+rzQ/x1zoGMIJe1HZ1tXV26OFoIm1qQWE2X6E3qDL6wc/tW2Ymff4B0wTd8uV7K+yzs2d0rPMbL29tyF9wqBvRpoU0V4FuHhOg+Bk1NTc///ZnGBp2LsHvXjrnzF6y6/iZhwGUrr7CFCx4aFnnBsissnOPWr5vLSgosVHYuNVPn9Vjigo+bHY0VazFf5B3/6JkDTeezj6dvyZ84LwYBKqiFB4xl4PUvHzFKBgHK7/xpj9g4iJVX6dB//2X2vg05aKJp0AoXHGW/YC9VLIqyT9kEwtP7S0/tK73pN3OEF+7j74kQFziaSv3Bl+Fb41hK0U9zY9v7T+6V8dYggDhsHJojahddO9beLrjLqKikIDE68OLxYPDzZQ8kMDACTuOCq47JhC+O75CQ6NLSszU1xQObPFuRgIMQwBL43Inq0IL1e/5yOOsLYeGJnM2/vvkLD3fdXzUIg/1jELJS06BbQHrl89VyLo+u3qmKC//35l/mlw3/6GFJwHkLF624WBr/yksvSP9bCOFzjxs3fsrU6bhEvPis2XMPHdwv9a1TsEOojXUMtaiXgFCvlOkRRlWxlxGn0xutGqTwwut7thOIr7V/Pyj9byGBB4wj08XBMXB/A8N8Gqp7RXILNaSslok7cApj8LlJ4CgZ4X9DR7l8Dk/alAuO5XzZRPSMc4UgnLUiUVzCEqu74PMuHyM6x8//PntA+t9CCJ87cVLY2LSeJXzEi+PMUZx2JPVtXUhbNlqktsRAVp+4rY1n/8OMgNO44II79iSfWzvQnVEMYUzMWKzn1dTY7z/wMPsEcDqOQCA1fqHKaW5urZP+NyzUtmvSz6yfN0m3Aipsnjvhho37/+EI9tMGqxDAYaKBgbr1ucqK8qpKI2uT27ZsFi44Rpy/YKHVXXCEvmiazL2aV85Uq7X0aEllK3uWscHxqvtmGB0R/vfbf9xjtGowQsRAy3BtRF8Y9YwRTiNccAyUMCE0Y4+RVSSEIEszZOoS6ZSjSrl8K8JUpL4sIDeI0dCdI9v1LrhcX5etBlnwDfSUwdbYVypSsqj63PdVjnDBIcc2U7u54IjYWXRtqjAGAULbPjylMoyXJGBPAg7tgre3axsbe44iQ7hhY2M1vsXLdE9Pn8jIpKCgnmdofEVHp9TVlSvfsws5f5KAsxCYNuZSlam5ZYdUkuySfSoXPDZ8aDYzqQzjpbUITJ6sz1qTnn7QaLcIAUe2Fm/vnvchQcG9YpOM6vdX2FBXs+6j1/rbyhn1RSSG1S1HVkHZp6lFVqwKw5n28OpJHorU1FLfVKF7oGFj3SbCzRprWpHrAyvQGDHgfMSIqdH7K0+ZrvvTjIan95UabY7lfDxjiNVoqxtgdEQhXHrzBBFPj8uD3+RpFUddmmnFKhKwEQGHdsFbWhoLCjIMZ44T6YuKeh5ehReOl/jh4QkVFXmGmpSQgFMQCA7Qb0AUBo+NW/DAdR8ojff10q2PSiFO7ZFlFoYBgdDQUDmL6qpqWVYVmjUa4YL7+fmrqnhpSACB1IZCSAxzAhpV668wJFK/o7q1qc1oNhL0iYVt4YJjM2V/h7CKPkK0hQsuflqlT9EJspLL3upMwIcCngGEC251A+ToqgJi9Kec302L3IJ7vxzKrFAq23g5Mgk4tAtu/pYUF2cGBkaIF3A+Prq9L+absJYEHJOAv7fe9xIWIjWKV5AuWNOUzdimaaqKcmckEHA+CgXG19XVmJpCY2NDaFjP0xfOCfLw8MCpPaY0Kbf/AfXYGSmxr/r5LFk2VUAsuKkqm8rluY/IX24qocrADJBRKGjeaCzMXXTb3KAVzrrVDTBqduTowJX39OyCxRfSNP332YMIRBGX/EkCQ0XAiV1wxIW3tjYK59vLS7/wMFQoOS4JDJiAcp+l5Z2IMxot16emgxMQa9vCyObmZlPWtrW1ySoshOMgT3k5+IK7h8fMuUst7OfIwd1tDh8ObuFcrKXm7escf1WVYeVYh1Zu7hwkCuRElz3Io22kRBbatPpUJD4BnoiNkVVWLwRF+CBJooyY/+r144ZHilp9UHZIAn0S0P9X6VPVARWwc0jkz3V3N5LA1QENpkkkYJRAs7ZelXPQqJpK2NFpMqOwSpOXTkGgtla/8o19mUa3Y2IifueTr6Pc1NRo3akFBYelTphmYZ8FuZnDNSmhhQQM1TQN+gckHMbeZ9p0HFZv2IkdJL4BPYHg+MKSsBX9b3SoTPCCdwJGt2NCDVlceoY/99XSqId2Xma1f7Eqf9sj82UI+I6PT2ell1utd3ZEAoMg4NwuuJubzn75dDsIFGxKAkNGoLG5CkdjKoevrMv9aNvvlRLDcnunDdeNDIejxNYEKsr1noHMDm44qL9/gBDCeero0OfNMNSkxP4ENIqjdrZ/lGmjiPPBzwsLz6ITMwvVAxsFWVBkw8BQhNkYf0sjTz7q+Ri32+qAJ6RnwTGlcmF+74acI9uH+GheCYcFEnBuFxypUcQt7OhgNCQ/zI5CoK1dHULgMgppNPFtMvSwvCYrOaZX2CjSftc0Fp3LwtnveeFPmqqNtyf37amQOOJlRYXeBY+OiTVqIpYb/Px1d7O5We/rGFUegLC1pbmowNJtahprr8EPwGBHa4JzKKVJOIrSQV1wl1HSAzaaNlFOYQAFpQseHm/iN48LVsF1y/BWfwaQNmOOqx9fKA/phP89hFswfX39g0LCOzs7qypKmMBN3qMRXnBiF9zDwwvf4v61tamdnhF+Xzn9ISQgj8uRNiBoe3Ly8ozcLVKiKhzI/Gz+5FuUQkSHX7Xw4fV7nlIKUQ70i1ww6Zat6a+aiUJpaqmGB69sOD7hgsyC3VLi6eEL5769w4aL6PIxwNXVVY5rz8IgDcCB8EatVe6YNKowGGFZaYlsPnvOvA1ffC4vZWH6jDTswhSXZzJPS7m1CkgKvnPzOmv1NgL7yTxYJo9+TLto9NGdjrjmimM1sQlS3J2qEv0zg1XuV1WxPjgKx+7sWnvGsNsJs6OlAfknTSb/MWxouQTxJ3c8tkD639+tz97/dc+pokPyNX7yzEnT5omh29u02zb+t1mjpzQkJnFQRyBg/M+MI1gGG3D4pZ9/aGnJmc5OIy9bY2J0CfahWVtrPPmog0yEZowoAp1wbjvb3N30kY6Y/jWLHkmNX1BWkxUZnIyDeD7e/khhxXGJpaahsLG5MsD33Al456VpqVfi/MtNB14oqzmLs+vjIybPGHv5uIQLUB8RMubfm35xXlH9Lw6rV7ngaalXxYVPOlWwE4GfCZHTsOJ+tnjvf7Y8pG5pvevy8jLZWVRUtPJSym1aUI5ouQENDfXCKrjgHh6e2G2iNHLK1GkrL79SKTFflifX4Mgd85qitqWlJftsVsrYnt9sPj4+kyZPOZlxQtVw+YpLpOTgAWsfjSm7ZmGgBHAaDhbCw+N6Vn+DI33hheMoSsPOEJocEOJtKk7aUH9gEmT9Q55yPBWoms+/IkVKSnN1n3kpURXaWnX7Jn0D9cleVDrKSyTbLsysSRjfk+UJHjBOADXMjz5XcXxmxnf6J09lP4Mp43SkO/64UJ6CifOJjN6FwQxheVsfX3/pf6OVh6fXnIUrdm7+zPIeqDlcCQzNApUlNEND42JjxwcFRowbN9/fP0TZxNXVLS5uQkBAmBDinU59vZFj5JRNWCYBexIorz2rGg6r2tNTVl4650F4w8jnvWDyrSqFtTv/qJLgMjFqxo+ufPOx1bt+ddPnNy17SvjfkKfEzp09YZWhvpDklBjxzCJDUpZMv2fJjDVjYpEZwBWPAWGBo031MHh5fl6u7OTW21bDnZWXWMTFyephYeFSYovCwAwoK9U/zF91zbVKw+bOX3D76ruVkj7LJSU63yIgIAD+tFI/PKLX45asWvfZWlm+4857lK3A7f4HHoyIjBIKMBX+ulRmwXEIbH4vQxqz5MbxF9060dVNf6Kzi6vLnMuS73tu2R2PL7TDqTQr10yduTyxJw7u3BdGX/XgTPGEAAGO2DzV1+HwOEZHtPUL9IQ/LcripzIJulK+/UP9+5mr7pueMl3fCovfN/9mjkyXjscV+OvKtoMvB4Z6I/5E+t+b3skYQv8b0wmP6PVOEpLAYJ33MvjJsgenJuC4q+BBQbr/tHC4ExOnnUtB2KTVtnh6evv4BCjTseXnHx9YyKxT3zka78gENnz/zL1XvWXGwnEJi/AZVn5uC8qPHjz9qRnHWtXb5fN+lZG7tUVrZAVr78mPL5i6us8UK1ctevjtr3+i6tZalwX5ebW1tWJPYXRMzJ/+/FRxUSGcSKwtR0REIjoFpzy+8PdnDYf79W8e9lVk/FDutF6+4tILFi+RTQry899563V5qSoMzICMjOOXX3m16GruvAXJyWPycnO9vL3Hpqb6+vb7CJWjR9JnpM0Uva2+a01bm7aosAcC4ry9vLzeeO2VrDOZKrMrKyoQXjJu/ATIMXe0ampqQoAKmGAtH22FPsJsPnj/XVVbXhoSSJoc9uCLKwzlUtJU2/rmo9/KS/MFpcfc3GhyA1J5fsPxb4umXhAvept2YfzkhbG15c0tTW1BEb5YoJUHc173s5nv/r/vzA86+NoLbxi3+PrU6hINugqJ8pURILj8dl1Wn+mxzxwsmzAnWphx9f0zkM0QE3RzdwmL9cc2x89eSM8/pY4kQTg4MrIDPlrhY3zVfTNwEhC8bcR/w/mWBuBj/PUbx0XPVvy57NaJcv8lur3kzsn4NtU/HkL++fNtpmqtIm9p6SGv/JJhckohyyOQgOOugufmHikr0+8Kgr+CFODBwVG+vkHS/8bnuLAwo7nZiBcyAu8lp+w4BEqrM88Umvu77ubqMTFxqcrgDXuf3XXUnOMu9RHrsungP43639CBZ79252NK/142VBawxI74FqXEimX833zz9VfkXxr4jqMTk+LiE+BHiujw2Ng4EXGhGjQkNAy5ruW30vFFcIiUoxARqT8HW9UJLgdmQHVV1aGDB2RvWHKeM2/+tOkzhBnwoV984e+yts/CqZMZ+JZqnp5eY1LGJiYlw/+GcPGFS2WVsvD2m68dOZwuJf7+/mNTxwGX9L+7urpee+VFZaSNVGbBkAD8XTPfXr66TYGGDQ0lYTE94SXiq7Zc7Vedr+n5d+v7p47u0EeBw+nEwjNiM7BAK/1v+L5Zh/QbcJXNrVgWHjb8YBiAb+n+YoiMPcWWpAdBGIkykgSHesaPC4kZEyzc3DQssRv7+vylw6cP6ANgsDNy9ITQiPgAaQAM++Tvh2yRn1v5zsGYab1kzU0mH6V66Q3ioqaqTBXS1tRgPEvMIAZhU6ck4LguOHBWVxedPXugqanGMBYcf1/r6yuysvY3NFQ5JXgaPdwJfLD1t9vS/2Vqlgj+1rQYef26/fBr737zs5Iq/WtcVQ9wrI9lb3z6g5V7Mz5UVSkvc0sP/fOzW5DZUClUlgsrjr2x4V5Nqw3/EmBB969PPqEMCJEGaLXa3bt2YF1cSmQBGQNk2XxBeUKNUc2BGfDJfz/ctWObfHgQPcOq3JxsTKewsMByC9H2vXfe3Ll9q6o3yNFJZWWFUbPhYX/4n/c+Xftxa2uroQLWyP/3mb/m5OiXJwx1KDHICWQSSb/S4U2Yq1sMRnfKvB9Ge9/+0en1Lx8x6mLidPqTe0tefWjH96bPSIeO7Lb9fDS2lKgK7doOlURcals63v3Tdw0Gp95gJXvHx5mb/33SaCtD4ZevHj24Kc/Ix7ijq67C+KNId1f3xjePb3n/JGww7BBr5Fj+L8qy4e8fw0GNSuoqbJ7LAf+jTx7dpxw9+4x6j4eyluWRQ8BlwpTZTjFbnMSM+BOxDoS1qNbWpj4X+ZxiXjRyeBPADsuk6LTY8InYhaltb0aylOqGwpzSA/VN+vUhowQQLz4xcUlIQBw2VuKw+oq63JKqU0WVGbWNxUb1TQljwyfEhk+KDhmLLCh4fVRRm1NRm11UlWH0AcBUJ4OUY8U6Ni4upmcd1xWpr8vLyqqq7Lp5YwAG4KBKrNnHxcV3dXedOX1amS5wADSw7B2fMBor2R6enjVYaa+sLC5GxsnuPrtCDH1iUlJwcLC3tw/AFRcV2SIRYZ9mUAEEcJTMvU9fKCKjEFLy6m92WogFkSdY/Q2J8nP3dKssbMD2R9ul4RMmrfr5LCw5owz39+VfbUcBgdFxqSFIko0EqchYgkiSPuNPDGeHZe+oxMCIhAB3D7eGqmbsJS0vaDCdalXfASYeOyYI2089fdxrSjVoZWsC+rEdo4T9l/GJugQSnR0dX6x93ZL//o5hO62wIQGnccFtyIBdkwAJkAAJkIBpAvA+b39sAcJIhMrQZtgwbaauxtAF77MJFWxK4LJrV/v46DaTZJ0+euKwzTcA2HQ67NxaBBx3O6a1Zsh+SIAESIAESGDABLD0e/VP0pAPRPTQWNvqmNm+BzxBNrQpATd3d+l/Y/E7M+OQTYdj505EgC64E90smkoCJEACJGAnAkjdPWZ65JRFcSKoQ4yK0I73n9zb1dl3EJGdrOQwDk8gMjpB2lhWko+jeeQlCyOcAF3wEf4B4PRJgARIgAT0BIIifKYsikcqa5m7WtZVFDauf+nwSItjltNnYWAEYuKSZEPVvkwpZ2FkEqALPjLvO2dNAiRAAiRghMDsi5OmLtal9JbVWPze+XEm0phICQskYCGBiKg4odlQX4NvC1tRbSQQoAs+Eu4y50gCJEACJGARgYLTNdIFx7ktpXn1hzbl52Uw+61F9KhkSCAv+5SnV89G3sK8M4a1lIxkAnTBR/Ld59xJgARIgAR6ESg4XZ17vBKOeM7xyvrKll51TnKRf7K6VdNWW3YuaaCT2DyMzeT+y2F8cwc5NSYlHCRANicBEiABEiABEiABEiCB/hFw6NMx+zcVapMACZAACZAACZAACZCAMxCgC+4Md4k2kgAJkAAJkAAJkAAJDCMCdMGH0c3kVEiABEiABEiABEiABJyBAF1wZ7hLtJEESIAESIAESIAESGAYEaALPoxuJqdCAiRAAiRAAiRAAiTgDATogjvDXaKNJEACJEACJEACJEACw4gAXfBhdDM5FRIgARIgARIgARIgAWcgQBfcGe4SbSQBEiABEiABEiABEhhGBOiCD6ObyamQAAmQAAmQAAmQAAk4AwG64M5wl2gjCZAACZAACZAACZDAMCJAF3wY3UxOhQRIgARIgARIgARIwBkI0AV3hrtEG0mABEiABEiABEiABIYRAbrgw+hmciokQAIkQAIkQAIkQALOQIAuuDPcJdpIAiRAAiRAAiRAAiQwjAjQBR9GN5NTIQESIAESIAESIAEScAYC7s5gJG0kARJwegJubm7xCaP9/Py0Wm1NdXV9fV1XV5fTz4oTIAESIAESIIEBEaALPiBsbEQCJGAZAXje19948/gJE/38/JUturu78/Jyt23ZlHUmUylnmQSsQmDJjeOnL00QXeUer/rilSOLrhk765IkIck7UbX+5SNmBvLwcvvx00tc3XUvit967Nvmhrb7n1sqJe88vqe+qsVMD6wiARIgAfMEnMkFd3V18/b29/b2c3Pz6Orq1GqbW1ubOjrazM+QtSRAAkNFIDAo6IGf/iIoONjQABcXl+TkMamp4+iCG8KhZPAEfAM9XV1dRD943kPBL8hLSvrsv6uz293TTaq1tXR0dnYpJdqWDlnLAgmQAAkMgIBzuOBwvsPDE8LDR+PPtmqS9Q2VlRV5cMdVcl6SAAkMLQEfH5/fPvyou7vulwzCTmpqqltaWnx9fAODAj08POEYbd+2ZWiN5OjDlUBrU7ucmra5x11ubdZLlGWppix0dvSKkhIONz6x8m9Qnz0oe2OZBEiABAwJOIEL7u7umZIy293dw9B6SIICI9rbWsvLc4zWUkgCJDBUBC657HLpf5/MOPHB+++1t+vfWcXHJ4SEhsEjHyrzHHxcuHo/ffCXgUHBvr6+n6/7ZP/e7x3cYEczr1Wjdrh7SRS1pizv6uoWq+ZiER1qnR3d7h49y0A9kp6FdX6RAAmQwMAJOLoLjvXvMWNmSv+7u7urqam2ubkesSi+vkG+voGQVFbmDxwAW5IACdiGwNixqaLjtjbtv999S7X5sqioEN+2GXmY9BoXrwtlDg0JHSZTsuM0WhROdktjz7NfLxdcsUZuyqiOtk5P754/kfC8hQ6Wxt09eqLDpcRUW8pJgARIoE8Cju6Cx8aN9/DwEtPQaGrz8o9j/UHOysvLFz464sKlhAUSIAEHIeAfECgsKS8vV/nfDmIhzRjGBFqb9K9cRNBIi8LtVpZNQWhv6/L07qnsaNf9iYFT7uXT80dTSky1pZwESIAE+iTg0HnBPT19EGci5tDS0piff0Lpf0OOEHDI+5wkFUiABOxPQEbNtmm19h+dI45wAkonW6x/K1fBWzR6B90UqPZW3YbLdq3OBW8zkJhqSzkJkAAJ9EnAoVfBIyOT5QQKCk4g5kReskACJDC8CYSFh8+btyAiMsrf37+9vb0gHzkMc3PzcrStrWYmnjI2NTQ0TCo0NjScPn1SXHp5ey++cGlsbFx4eDjCfBsa6o8eOXzo4H5RGx4RkZycgnJeXk5lRQXUZs+dN2bM2OLiwiOH00XaFmwwnTp9xtSp05FpsaAgH3tJTRmTkDB68pSpoWHhyAnj6+ODVOhlpaXFxUUYsNW0/diiOiNtprBHPsDgEvnU58ydL+TiJ179HTp4QCkxWgaNqdOmh4dHYO5NjY0gmJebU1RY0Nk5/N8cKgNRxNZMrWI7ptJBN4oOQulwt7VKF1xdMNWWchIgARLok4BDu+CBgeFiAhpNHZMP9nkvqUACw4OAr6/f6rvXJCXpn8AxrzEpY/ET2+A+/M97cJ1NzXTNj+5zddW/3IPv+/ijD0MZzvfKK65SVkXHxISFhUsXfPqMmRdfchk093y7KzAwCJ6rGAJqs2bP3bplU8aJ49gfKXuAPfDF//fZv6rc2ZtuuW36jDT46CoLE0Ynzhk16uprV23e9PWObVvlDj+l2rz5C668+lqlRJTHpo7Dt1KOQc274BjuB7ffGRISomw1cdJkXGIL7CsvvlBeXqasGn7lFkUginC4DZ1y87NuPZdHBTptLbqdnTIRoZSY74G1JEACJGCGgOO64EgBLteBamqKzcyBVSRAAo5AACu4111/k7TEy0u3iwNrsf/vf/4q5Sg0Nzf/7aknlBJZDgoK/sWvf4v1ZilRFvA74dbbViePSVn36Vql3FRZ2HDhkmWXX3m1oU5Lq5F8LIsuuNBQc/mKS5ZdtEL630IB6/RXXHXN+nWfKvUDAwMN/W+pgB4uvewKnFL05fp1Uqgv9CTbsOirob7ejF7quPH3/PDH8venShNsQfjjD98/nH5IVTWcLrEFU3rMzee2Y8IRlxJNQ9/BUVXFjVGJPfsZqkqaBJnqkiadpFgnGU7EOBcSIAE7E3BcF9zfX79+09hYI7hga6afX4iXl097O94Aa5Aaxc68OBwJkIApAj4+vtLtVumo5Gac1PseeFD630hieCQ9vaSkGMkNcb6mXAmev2ARhEbz9G3ZtNHT0xOjL71ohbBh0uQp0v/G2nNVZQX2iYohWppNnieQm5O959vdWAJfcfGloh94z9hUunvn9szTp2685TaxwDxx0hSVC773+z2wE5YjcCY7OwsxLdgyHhEZOXv23JBQXWKTCxYvOZJ+qMggIUxOdjb616FzccHKvShjstlZZ3Tyc/8YtpW1iNtR+t9w1o8eSa+srAwOCZk2fQaCUqAJ7/zmW29HYE9tre5Xq2w++EJIWGRgkEUpXBrra2uqywc/otEeOtq7Xv7VeZjnNLCZUiUx2lAKd609g295icLO/2biWylhmQRIgAQGTMBxXXBv7wAxK0Q94g9nRERiWFi8m1svgzs720tKzjQ0VA14/mxIAiRgLQKIjlDGVyhXYZVyDAfPy+ig8K1l7ERTU9Pzf38GwdxCc/euHXPnL1h1fpX9spVXGHXBt23dLPSlC37HnfcISWFhwTtvvoZu715zLxx6CDUajahS/UQW83fffgPCjBPHpAuOKbz+6ks5OdmQHzqwb8W5qBV/fz/Dts8+/VRVZaVKvnXzNwgygfMt5IsWX/jRB++rdEqKi/AthKAnXfAzp09t/HqDStnU5Y03/0CSzz6b9cZrr8h0NJu/+RrvEOCIi7ZXXXOdmKaprgYmX7D4UnjhlrRtqK/5Yu1blmhShwRIgASGH4FeHq1DTU8e6oEo8KSkaX5+Rs64RnbwhITJyAteUZHnUMbTGBIYgQT27/se33Lif/rzX7y9e5K6wRF87dWXpNxM4aIVF8vaV156QfrfQgife9y48VOm9kRpI14cIdoyklu2MiwIfzQ7++xrr7yoqtVojIQTIIv5e++8KTThduO5QqzZ79yxTfjfqGo4/2CgWhRAFfxdQ/9b9IbgE0R7Y88lLmPj4oXQuj+x7VI8XaBbrMS//q+XlQ8/KP/n3++kjB2LSBgo4P0Awn7q6+usawN7IwESIAESsISAft+SJdr21IF7LYZDakLpf2PBu7q6CN+trfq/nVgg9/e36L2nPe3nWCRAAv0i4B8QgH2QokllRblRR3bbFt0iN9TmL1hoYf/YlPnuW68bKmua9L9GZG1HR4fSbZXHDiiTn8hjPuV6s2xuvlBdpXtlFxysD7Qz36RftdOnp0n9/fv2Kici5d/v+VaWkfVFlq1VqKmu0DQ1WPJdU1VhrUHZDwmQAAk4HQHHXQWXLrhgCp87P/+4Mi9KcHB0XNx4URsTMzYrS5dczOnuAQ0mARIAgcmTp0oO6ekHZVlZQFQ0kvqJxfWgYCNvxpTKsvz1V1/AC5eXyAzY2NgT33Im87QU2qeAMBgxkIvFOy/7ZRgyIUr9fd9/J8vKwr5934soGggjIiyKGFE277O8d/c3fepQgQRIgARIwHFdcOXyUltba27uEbkcJW5bXV0ZshYGBPTkAMZKOU7KxEk9vKMkQAJOSiD0/G5F2F9dZTxYHFXNGo1wwUU0RZ+TRWTIgX17lWrIBGLrZCCIXVmw8AIkLgwKCsLivo+vj4tLzytHEdOiNMa6ZQwnO6yuNr5JRhneg6QuUp8FEiABEiABexJwXBdcOtydnR25uYflpZIOIlKECw6hj08AXXAlHJZJwLkIBJyPQoHZdXUmM3VgATs0rOfBG+6sh4cHTu0xP82TGcdVqbvN6w+yFrlfrl11A7KMqzIYDrJbC5sjRF5oIgTFzKwRbCM229goHsZCa6lGAiRAAiOZgOO64Mh2Ar8a9waOtTL+RHm32tr0aX09PHo2fvGLBEjASQmItW1hPBKHm5pFW5v+aHEshNfV1ZrSFPJ6sym0zbftb62vry9SbsuIdjSHs4tVZzw24EAcXCJjt01dc3cP3a90M/43zECtcMG9vHr2hlr3K3HMhKiYBEv6rKooycnKsESTOiRAAiQw/Ag4sgveIXAjF7gp7krX3DA1galWlJMACTggAWWOanixRrdjwmw/P30ewKamRoeayKobbpb+N2LWP/vkY9VBnj+8936Z3dwWlmODqVgINx/xgrcHYnStVv88Yy17Jk+bY2FSwqiYeLrg1sLOfkiABJyOgONmRMHJO4Kmu7vur4UhXOWWzXOr5oYqlJAACTgHgYpy/SktMju4oen+/gFCiFgLrDEbKgyVBH7tlKnTxOgIQP+/559T+d92MKymRhfAg700quOQ5OhYhpcr8c3Nul+zspYFEiABEiAB+xBw3FXw5mbdkRzYxoTdlsqYE4lGGXyC8zKlnAUSIAGnI1BRoXfBo2NijdoPz9LPvyenNb4czX2MjIwShuEnDteU+Qel0A4FHMYp84LHxMbl5eYYDqpkC31DhUFK8nIyNRqL3k7UVOnv+CAHZXMSIAEScDoCjuuCt7ToXHAwDQmJKS838rckKChCEm9pMZLiV9ayQAIk4OAEykpLpIWz58zb8MXn8lIWps9IkyEW9k8pKM0wWkDmEyk3lY1EKvSr4OllMhhP1U9xcaGUXLhkmVEXfOmyi6SOLdbpTx5jflgJmAUSIAESMEnAcQNREOctF8Lhgru6uqkmAUloqG6pDFkLtVq+UVUR4iUJOBMBbFjEOZrCYh8fH5zdaGj98hWXSOHBA47l6pUqHiGM5ttOSh6DNIXCfsNfaHJeooAwG3kAUJzFR2nCpZYZ0CdOmiwTpMjOsedVHC8KCYZAuhhZxQIJkAAJkIA9CTiuCw4KOHlesMBWy5SUWcrIbwSIJyeniVS70KmqKrAnNY5FAiRgCwLrPlsru73jznuUXjgWv+9/4MGI88EeZaWl0l+XTYa2gJPeEQIubEgekxIf3ysryISJk358/09lEDYSkuAsUPMGy+ToiUnJaK5UjoiMnD1nrlIiyjBgy6aNooygnd/+/tGwMH3mb0TYQyJt+HbXDvOJUwz7p4QESIAESMBaBBw3EAUzbGqqaWqq9ffvOckZ4eDjxy9AdAqOyfT09PXzC5L+t0ZTW1tbai0i7IcESGCoCCA0GeEl48ZPgAHwIFfftQbHSSJABf/ho6KiZQgKlm8/eP9do0Y++Itfe3n1yk+6cNHiCRN0/uu7b79RXl5mtKFVhAcP7Js7b4Ho6qc//1XGiePwy5E5cWxqquFBQvf++CdvvPaqmaSKWzZvvH313aK3u+75UU11dUsLMrR2hIbhSLKePamVWKXIy1VZvufbXcsvvlRkeMTPh373SG1NTWVlRXh4BPKpg6rQRyT9xq83qNrykgRIgARIwG4EHHoVHBQKCzPkgTv44+HrGxQaGgenXPrfzc31BQUZduPFgUiABGxK4O03XztyOF0O4e8P/3VcbGyc9L+x0PvaKy+a8qSx1xAnPioPfcTvDSHBz/iEXivTchRrFT7/7BONRr8pBcfF4wEA8evC/8aTw9qPP6g4/wyAFX2kCTcz9Injx05mnJAKcKDj4hOwIi78b8hvuPFmWSsL4PPMX5+Ezy0kmD4aYo8mpi/9bxj5v8/+jUvgEhoLJEACJGB/Ao7uguNQzOzsQ9iL2d2te8MrGSELYVlZtuHB9VKBBRIgAacjAA/yw/+89+naj5FX29B4rJH/7zN/zcnJNqwapESr1Q3X0d4r0WFHR6eZnmGtshZO7V+ffCL90AGlUJSxhv2P555G/Ppr/3q5oaEeQnjkRw4fMtRUSrBsj+Aco75yYUH++s8/UyrLco+H/cxfsSRvmLQRBn//3bdP//XJpkaLkpbIPlkgARIgARKwLgGXCVNmW7dHG/V2LjWhN0JQcFJPZ2ebVtuCiBQbjcVuSYAEHIGAh4dnYlJScHCwt7cPlr2Li4ocLRGhKUpe3t7YQ4nFexiM6Jri4iKVs47VenylHzpoqgelHNHbkVFR6A2B3fUN9eVl+CrVGntEUbYSZbxGSEpO8fXzHdU96hzDQkO/3LAVJSRAAiRAArYm4DQuuK1BsH8SIAESIAESIAESIAESsA8BRw9EsQ8FjkICJEACJEACJEACJEACdiNAF9xuqDkQCZAACZAACZAACZAACfQQoAvOzwEJkAAJkAAJkAAJkAAJ2JUAXXC74uZgJEACJEACJEACJEACJEAXnJ8BEiABEiABEiABEiABErArAbrgdsXNwUiABEiABEiABEiABEiALjg/AyRAAiRAAiRAAiRAAiRgVwJ0we2Km4ORAAmQAAmQAAmQAAmQAF1wfgZIgARIgARIgARIgARIwK4E6ILbFTcHIwESIAESIAESIAESIAG64PwMkAAJkAAJkAAJkAAJkIBdCdAFtytuDkYCJEACJEACJEACJEACdMH5GSABEiABEiABEiABEiABuxKgC25X3ByMBEiABEiABEiABEiABOiC8zNAAiRAAiRAAiRAAiRAAnYlQBfcrrg5GAmQAAmQAAmQAAmQAAnQBedngARIgARIgARIgARIgATsSoAuuF1xczASIAESIAESIAESIAESoAvOzwAJkAAJkAAJkAAJkAAJ2JUAXXC74uZgJEACJEACJEACJEACJOBOBCRAAiRAAiRAAiSgIuDt47t85Y0qobw8tHd7WUmBvGSBBEigvwTogveXGPVJgARIgATsSsDX18/FxUWjabLrqCN+MDc39+CQcFMY/PwDTVVRTgIkYAkBuuCWUKIOCZgj4O7m6epq/r9Sd1t7i7kuWGcvAolJyRiqsqK8ubnZXmNynEERuHvNveMnTEQXhQX5L/7fPwbVFxuTAAmQgMMQMO83OIyZNIQEHJjAz1Z9HOgXacbAru7OP7+z2IwCq+xGYPVd9/j5+WO4nOyz/3rlRbuNOxIGmpE286ZbbjM609bWlicef9RolXnh6MRE4X9DLWF04uQpUzNOHDffhLW2IHDqxKGmhjplz4xCUdJgmQQGQMBxXXAXF1d3d08Lp9TV1dHZ2WGhMtVIwLoEsApu3Q7Zmx0IuLs77m8/O0zfFkMAqaur8S3+3t4+AxsxJCRU2TAktNelsoplmxLIzz5VXVVu0yHYOQmMNAKO+0fI29tvzJiZFt6PtraWrKz9FipTjQRGCAGEx4QGxAX5RWWX8H/HCLnnQzlNrbato6PXUoibmxtiuAdj0/FjR2+8uUM8L3V3dx/Yt3cwvbEtCZAACTgOAcd1wfvFyNXVrV/6VCaBYUzgthXPRYWm+ngFyuX5N7+6r7Di2DCeMqfmCASOHzuCb6UlN93yg5mz5igl/S13dXX9+U+PLly02NXN7fs9u7VabX97GIz+9TfePDZ1vL+/35nMzPfeeXMwXbEtCZAACagIOK4Ljt+8bW2tKnNVl56e3kLS1dWpquIlCdiNwMfbH/H2DJDDxUVMWjztTnlp/0Jy7Gw3Vw/luHxGVdJg2bkIwO3evm3LkNg8fvzEwKAgDM0AmCHhz0FJYHgTcFwXXKvVZGXtM0Pfw8N73Lh5QqG2tsyMJqtIwKYE8st7rfw1tdYMrQtu08mycxIgARIgARIggcETML51ZvD92qGH8PAEMQoCBGtqiu0wIocgAbsTcPH3CXN387L7uByQBEiABEiABEjAhgQcdxXc/KTxYj0kJEbo1NWVMxDFPC7WOheB5JhZy2feFxE8xtNDl0cCaQ01LTUHMz/be/LjtnYjCa2Xz7rP26Mn1x6+XF3UWyPQW3lNlqgVP3cefauppVopsUU5ddz4iZMmh4dHBAUHNzU1lRbjqzDrTCbKfQ4XFh4+b96CiMgof3//9vb2gvy8vNzc3LwcbWsf8Wmi5+iY2Lnz5kdFx/j5+pWVlebl5pw6mVFf3yurmnkbsJVw3vyFoxOTAgMDsadQdHI2K8v8ATFTp83w9vZua9MePXIY/WMfISBMmjwlISFR06xBPvKD+/cVFRWaH1rUWsUAdBUVFT1h4qQxKWM9vbwaGxqKCgu+27NbtW/SEnvsphMdEwNcRoerrqrMyck2WmUoRHqWmbNmI5VhaGgYQslHdXfjJpYUF4NAebnJF6fiDore/AN0AWb4EM6ZO181BNIjNjdrVEJekgAJkICFBJzVBQ8NjZUb7aurLfp7ZiERqpHAEBLw8w655/JXQwPjVTbAqw7wjViWdu+SGWvW7njsVP4OlcKCybeq4r+VCgmRU/GtlCBHyumCXUqJdctTpk6/5rrrA857MOg8KmpUSspYFPDaat/e7zZ8sb69vc3ooDgKcfXda5LOnaEjFeBBirYf/uc94d3KKlXBw8PzzrvXjE0dJ+Vw6ZCyGvas+3StFJovLLtoxfKLL1UmLkwek7Jg4QUw/pP/fnjwgPEMM8HBIbfdodsGACNnzZ57w023yN9UGBEE5i9YlJuT/fq/Xu7sNLeDZZAGwE4YgOeQH9//Ux+fXgkBp02fcdGKS15/9SULnwTMg7JFLZzdRRdcaLTn/Lzcl198wWiVSnjpZVcsXrJUeQehkDI2VajV1tauX/cJnspUrUJC9HdQWRUYGIStmUoJyoWF+XTBVUx4SQIkYDkB5wxEcXEJDx8tJtncXK/VGlkUtBwBNUnAQQiEByX+7Pr/GvrfSvPgi9+07KmFU4wfgKLUNF8ur7V0KdF8P0Zr4bzevvoupf+tVINLCjf08SeexOq4Ui7KQUHBv3n4Dyr/W6qh7a23rb521Q1Soipg5fjBX/5a6X9LBbS97vobxbk8Umi0cPOtt1268gqV9yY00ckNN936g9tXG22ozL+38vIrb7z5VugbasKbh2dsKJeSwRuAcS9YvOTnv3xI5X+LIbBOf/cP7zVqm7TBqQs/vPf+ZctXGL2DYl5wte+8+4d33HmPwTSN3C8DHZ2gopx5sk2xoZwESKBvAk65Ch4UGOHmprO8srKg71lSgwQcngDOorpr5UteHr6WWHrx7Aeyi/eV1561RNmoTm1jiVH54IXzFy66+JLLZD9YJjx18iTCSBDOEZ8wGlEZ4vQWTVNTTY2RSJj7HnhQeo1YJj+Snl5SUgxfCkckSscaHjyE+/d+L0eRhRtv/kFEhP6k0pMZJzJPn4KvOTY1dcLEyWZ8MtkDjE+bOVteojkiZ3AZFx8/I22WcFunTU/DpA6nH5RqhoUly5ZDiMxO3327u6AgHw8ks+bMjY2NE5qIb5k1e86hgwcMG1rLgCuvvlZ0fuL4sZMZxzUaDYKC5s5bIPjjUQRBGkYNMDTJzpLTp056evY67gqZDfFwZaEZiCSRHxXxNuDUyROIfUI4SgxuQFx84vkXLOmH1PybW5p379wuB8KHGS9VcNnS0nJw/14pRwGauLlKibXK+IyNTh5vYW+FeWdsZIaFBlCNBEhgwASc0gWPiNAtgXd0tOHv+IAnz4Yk4DgE4FUjCkVlz6HMdTmlB5Hh+6K0e329g5W1tyz/2/Nrr5eSqvr8EH+deycjyGVtR2ebcr9EU0sV4kFkrRULcOyuvmaV7BDO3wfvv6uMuPDy9r7iiqunp83E4fCGrgN8ayxPiubwmZ7/+zOIXRaXu3ftmDt/warrbxKXl628wtAFx0mKCDiRo3/0wfvSS977/Z6AwMBfPfSw9O+lmrKANXgEaQgJzH7jtVdwjr1U2Llj+09++qCnZ8/u2KuvXXXk8CF4eLLWsAC/7bmnn5KB73u+3XX3mnvlcesrLr7M0AO2rgGtra2YQmFBvrANjxOQLD33bABJUvIYQwMMZ2F/CZ55xGOPHBrB9Ja8vhD6CxYukg1fe+VFGTuePSpLyLHN4LpVN+LuGJ51j50GG75cL5tPnzHTI6jHBa+trVHKpYItCqFhkRcsu8LCnrd+3cyD4i1kRTUScDQCzueC+/oGenn5CY5VVVwCd7RPFO0ZCAEsgc+dqA6uWL/nL4ezvhDdncjZ/Oubv/Bw95a9B/vHIGSlpqFISF75XB8a8ejqnaq48H9v/mV+Wc/uQFt/rbziSnlEOZzXf7/7lmpEuDiffvIxvlVycXnRioul/JWXXpD+txDC5x43bjyizHGJeHFEWh862Csme8Ull8rmB/bvlf63EKK3Z//21COP/cnMeiriT8Q6N5p8/tknSv8bEuzl++yTtYgSQRmuPFaUEdQuOjf8iSX85//3Gel/C4V3337jz089LRAh1TQsUT6fQMeKBmDD5d+f/ZtqB+qWTRulCx6ueF1gaL/zSvAYI4zHA5L0v5XTqa6qQiy+UuJYZWPBS45lIa0hARKwBgHniwWPiEgUE8evV6YDt8ZngH0MPYHU+IUqp7m5tU7637BP265JP6NfnBMWz52g9tqHfCbCPxZmmPKzTRmJ7BPY9CZqkTmkqrLSUHPbls1SOH/BQlkWBeRfkZJtWzbJsiwgmUlra4u8NCxgtVUIGxrq9+8zEugCt17uwJPr2Yb9QLLxqw11dbWqKjjcZ7POSGFEpD5mRgitacDXX6r8bwwBv1w6/V5ePcv5w++rtLRETApPU3hMcroJ4uFN09Rg4bdWa1GCIKeDQINJYCQQcLJVcBzH4+8fKm5MbW2p8t36SLhbnONwJTBtjH75Vswxt+yQarLZJfvmTdKFYYiq2HC9x6lSHpJLOJTY5yeGLikuMupDmzFs8mR9zpZ0E2HWCAFHKIUYBYkOlb0h457cAIp8F/hS1lpSRnyCtD8n2+R2VWS1E6HG0DfTbaeJI3uPHT08bvwE0TAiIqqstFR2Yl0DTKUdRIZHM+8BpDHOW0CE95Sp04T9q264KW3mrK82fCGjcRx/Xg11Nes+es3x7aSFJEACgyTgZC64PI4H066qYi7CQd59NncUAsEBuiT30qCxcQseuO4DeYmCr5duhVgKcWqPLDtCAfmnpRkVFRWybGEhNFT3dA396iojOzVFP80ajXCUVcHBwefDD6DW0J/839K8iHD9mnRjY4PhErXQlCHsMuBB9mBJQflsEBUVdVzRxj4GtGm18klDMfjwKWI3J95UIFRJTAn5Zx742S+QqR053b//7ltVlPnwmTZnQgIk4GwEnMkFVx7Ho9HUtrfzBZyzfdxorwkC/t5671OoIDWKV5Au5spEo1HYpmmqakjkwed3UmL0qsp+u+AB56NQ0LyuzuQ2azjHoWE9zx5YyvXw8MCarphsYJD+EaW+vl4I+/VTaf/iC5fi23zzgQVyKINDcPCQcgj7GGB+C6nSHict4xnpL//z/25ffbcyUgibaBHkg2/44kcOpyNMSAYUOek0aTYJkICzE3AmF1x5HA9zETr7J4/2Kwko91kq5ebL2MRpXsHOtXLdEeM2NDb0d3Tl0mxzc7Op5m1t+gN9sBAu462VDnFri7mAb1M9+/j2OsLGlNog5VqtVvbg6+sryyjYxwDliMO1jAezt974FwJ+cMQPooaUgTfwxREgjsw5L/3zBeyvdUAC7h4eM+cutdCwIwd3tzEc3EJYVCMBByPgPC644jie9natRlPnYCRpDgkMnECztl6Vc9CSvjo69c6cJfq21kGqbzkEzomUZQsLyPsmNbEv01QouZ+fLsAAyk1NjbJJRYX+nBRfhY5U6LOgTMCCTCaVfS3kD8zRD1Is9itthnn2MaBPDsNG4UzmaXxjUyZ8cWRhHz9hknxOgyOOc4ue//uzDuiFBwWHpU7QxbL3eS8KcjOZlLBPSlQgAcck4DQueO/jeHRpbh2TKa0igf4SaGyuwtGYylaVdbkfbfu9UmJYbu90rFgspQ9t9ORLwykoJcqzBmV2cKWCKPv7B4gCAiqUOw6RaU4q4xggWba8UFenf7BHtsHN33xteVvLNZW7SLGzU9nQPgYoRxwJZXxOkBAd35gsMvbgZFORFPJcvpT569d9OhIgcI4kQAIOSMBpXHB5HE93d1ddnX65ywGZ0qQRTqCtXR1E4TIKp17ju9sUmfKarOSYWcpapP2uaSzCp10ptLBsGOzr7elvYdvBqJWXl8nmOIZQli0sKJeEo2OMN4fb5Oevm4sqlhcRwDJZSkhoT7B4f7+U9ick6M7/6m8nferHKKZWXNxrT7l9DOjTwmGscOL4USRr/+VDvxNznDBh0vpRDueCt7Y0FxWYTMijujsaxYsgVRUvSYAEHJyAc7jgyuN4ampKBuaXOPidoHnDhoA8LkfOCEHbk5OXZ+RukRJV4UDmZ/Mn36IUIjr8qoUPr9/zlFKIcqBf5IJJt2xNf9VMFEpTSzU8eGXD8QkXZBbslhJPD1/8J2rvsPIiOtahZSYKnBI/ZkyK0YNRpBmqgjIkYPaceRu++FylgMvpM9JkXC9iDFQKdbU1wndHdkLkM6k0yMqC5U/s4FS1kpeIA2morxfbOhFAjNB2lZcvNQdTUGaqVi78o0/7GDAY44dBWzznIBxfRKTgdCTzM5JPs2Y+NuZ7GEAtMoLv3LxuAA3ZhARIwLkIONZ2LlPs5HE8UGAuQlOUKHcQAp1wbjv1WwaFVdcseuTaxY/Bz7560e9xzmVCpD4HNhRqGgobm9Un0aSlXnnXypdiwye4uroH+EZMTFx66/Knf3njOnSC0+nNTBaH1atq01Kvuv+a95am/XDpjDV3XPL8wz/YdOPS/1HpWOXy2NEjsp8bb7lNustSKAqJSckqCS5xYHj22Swhx9mT8pAapeby86fHQ3jwQK+jMSGRZ7KgfNFy/UGbogesoN97/0/F8fJCYvgTZ84LIZx1RCwYKgiJqUV6pT42Anp4eColKGPiMnML/HuZ31CqWdEA2ecQFpo1ujdC4InE7faxZHRi4opLLjP12YPz7empuy84BMe8STU1uuSYISGh+PyYV2YtCZAACfSLgFt4pPEXvv3qxabKOI4nJiZVDNHYWI0TeWw6HDsngcETGD/6gkDfCGU/bq7u0aGpY+PmxYSNxyK0t2dARt5WpUJx1Sn43EoJysH+0bPGXbNk+t0LJt+KdfSwIF10RGhAnKa1tqSqJ7zV8MvfJyQlbp5K7ucTmhSdlhQ9MyQgDs5EWGACDr1v0Q4keZ+qZ+Vlbm4OcvmJWFu40QsWLsJhkEgjKHQw7rTpaffe/8DCRYs1Gk1RYYGyLcqFhfmoEkJolpYUyz2R8Kju+8nPYuPiRS1OtPl6wxeq5ghlkc0R74HDcfJyc4QOVjFX37Vm7FjdbxIIkRzwwP59qh7y8nIvWHyhm1vP60GkPkwdN/706ZPKHCx4MPjRfT9ZsvSi8vLyCkXgjegHU75g8RJRxrbRWbPmHD16GHm4hQQJqu+97wHpyW3Z9E1+Xq6okj+taAAsLyrsFegiRsENEslnGhsbEfIuh7ZFwcvbe9r0GaJnwEHGbjkKjkKFSyuP6pRyowUAF35zfV3dwQPqu6ZsAl/5wV88hBuNG1FbU11epg+OghpqH/jZL33OJ6IpKSk5sG+vsrmqHB0dLR4X8ZFG+hoRUC508JJk3vyFRUWFcqVc1XYYXOJ5dcIUXYDc2cxjLc2aYTApToEEHIeAy4Qpsx3HGqOWwP9GOkJRlZNzuKWl38nOjHZLIQnYjgD87HuvestM/1gpf/K9ZaqQqivmPzR7wiozrZRVaPvMh1cY9aER9/LQzV/2mWIlv/zI21//RNmnVcpTp8247Y47lV1hrbGpscnD0xNeqXRA4bg8+7enqqv1eyhFk3t++GN5eCQkyEyCABVkOMG5P3JdE23/8dzTyshpOdyaH90Hv1lewstE1kKc5pMyNtXdvVfcXUF+3kv/fF5qysLkKVPvuPMeeYmxamvwVY1tlHDgZCfwHZ984o+q5InYRfq7R/4o24oCVrtxUBH2p/qfj2KHHGHrTzz+B8NVcFRZy4B1n63d+90elTG4/P0fHhdbQnHU6At/f9ZQwYoS+KmPPv6EeCRDt5gvHqtatdqIiAgkvdn7/Z51n641HO7Gm38wYeJEpVwew4TboYwO6uzofOp//qTUfOh3jyip+UtuAABAAElEQVS3AkMf4T3YKIznqFA8VPU+0PSFfzyHY1yVzVVlvLJ4+JE/SvvxogafRjxXeHl6ia52bNuy8esNqlbD5tLPP/Dam38kprPx839XV5UPm6lxIiTgCAQcPRBFeRyPVttM/9sRPjS0oU8CpdWZZwq/NaPm5uqBwBKVwoa9z+46as5xl/rw4Dcd/KdR/xs68M7X7nxM5d/LtrKQGDXDz7vfqQNlc1OF48eOvP/eO3B9pALiMRB0CwdU+t+oOplxQqPRJzGUym+/+RpOTpGXaIWw7NjYOOl/w4177ZUXjfrfaPXOW6/XVOuCB3CJoHBsrMQRLcJ1xoiGC89yLFHIOHFcaT9shucGGxDdLv1vaGJB1/wKrnSv4YYmJSUr/W8kcvm/fzwnFWxkgKrbIbmEu6x0suHLxsUnpKSMhf8Ne9JmGl8ACg8Ph8+t/JbG43Yo5TKqRyq8+dqrWJmWl9CHDlay8WCm9L9x7z5d+7F5/xudYG8AnmRkb1jIx6sMfBplVxcuvcieYeLSEhZIgASGAQFHD0Tx8PDy8QnET7AuL89ubeWLsGHwqRsRUziRu7mrq1OV50TOHMHfiAOp1/R6S47avLL0gvIjEcFjAnzDpbKyAMf6eM43b298IL/ssFKuKtc1lR7P3TQmZrYpJ7uw4tjaHY9VN6hDQVT9DOwSERrHjh7GqnF4RAR8IGUncM3h97zxr1e+27NbmVJQ6kDhxPFj2BgJX0fp8goFbMGEj15seuUSfi0CFZCUEIEoyqHhcp3MOP7qS/+MQSzLuWwnRgNRxCiw/8Sxoz2LpmHhyk5QC/OwfP7Ga6/gqHNDF1wZiPL5uk+wzJyUPEbVQ3b22Tdfe0UGGcuJKwtWMcBUIMr8hYvwVIDh8KxiPqhDadKAy7hZVVWVqeMmGN7N8rJSGKB8WhOjYNMtyFsyIm731i2blJpYqN6/73vsCoiLj/fy8pYL2FIHd+3Qgf3/evUl3EcpNFMoLirCLcNTnMwpLpXxegSZKwsK8qVkmBUYiDLMbiin42gEnCAQBciwFu7nF9LUVG34y9rRgNIeElASwDZKRGDHhk+MDE7WtjcjWUp1Q2FO6YH6JrXzrWyFsr9P2MTEJYjbRm4THFZfUZeLyO+iyozaxmKVpvlL7OaMDZ8UHTIWAegIUKmozamozS6qytC01JhvaJVarH/DE8L6MTyhzs4OBDqbOnDH6HBonpiUFBwc7O3tg2VvOEPKIASjTaQQ4c4JoxOjo2NcXF3PZJ5C7LissryATuCxw3749Ag0LywoMO86KwNRRBwI/O+o6Gg44giZwBo8FmixsGo7Ayzv2c6a+ABg8Tg2Ph4nEyH9OZxyuOYySt52xuDlw+jEJAwN1xxPRD1hMK0DTASER7LYuLjIqGiYjU9jWVmp8igl201hCHtmIMoQwufQI4GAc7jgI+FOcI4kQALOTsDQBXf2GdH+kUxA6YJ3dLR3d3UpaXy/a2Nh/lmlhGUSIIF+Eei1P6lfLalMAiRAAiRAAiQwEgi4u3uopunp5a2S8JIESKBfBOiC9wsXlUmABEhgeBLAtsUrr7p2AHPb+NWX5uNzBtAnmzgCgT63dDuCkbSBBJyXAF1w5713tJwESIAErEYgMCBQ5vDuV6fILUgXvF/EnEW5WdP05advYy+WUYObGuqMyikkARKwkABdcAtBUY0ESIAESIAERhaB+lp9is+RNXPOlgRsT4AuuO0ZcwQSIAEScHgCOIhUmZHdcnuRm89yZWqSAAmQAAkIAnTB+UkgARIgAesQ0Gq1yFyOIz+RexFnD1mnU3v1AuM//M979hqN45AACZDASCfApIQj/RPA+ZMACZAACZAACZAACdiZgKMfUG9nHByOBEiABEiABEiABEiABGxNgC64rQmzfxIgARIgARIgARIgARLoRYAueC8cvCABEiABEiABEiABEiABWxOgC25rwuyfBEiABEiABEiABEiABHoRoAveCwcvSIAESIAESIAESIAESMDWBOiC25ow+ycBEiABEiABEiABEiCBXgTogvfCwQsSIAESIAESIAESIAESsDUBuuC2Jsz+SYAESIAESIAESIAESKAXAbrgvXDwggRIgARIgARIgARIgARsTYAuuK0Js38SIAESIAESIAESIAES6EWALngvHLwgARIgARIgARIgARIgAVsToAtua8LsnwRIgARIgARIgARIgAR6EaAL3gsHL0iABEiABEiABEiABEjA1gTogtuaMPsnARIgARIgARIgARIggV4E6IL3wsELEiABEiABEiABEiABErA1AbrgtibM/kmABEiABEiABEiABEigFwH3Xle8IAESIIFBE7j90QWhMX6imx0fnT62q+iW382NHB0oJLvWZh7ZXjjoQdiBQxNYcuP46UsThIm5x6u+eOXIomvGzrokSUjyTlStf/mIQ0+AxpEACZCAjQk4jQvu4eHl7e3v5eXr5ube2qppaWlsa2uxMRx2TwIkMBACPgGerq4uomVnexcKvoFeUtJxTjKQfk23CQr3cXPXvdOrKdOYVtTVuHu6BYZ6i4uacs2obn0L/2AvT2+LfjFq6rXalg59y3Ml3wBPbz8PlbCttaOpTqsS2ujSw8stIEQ3NTlEZ0dXY01rV5dinrLufAEAgVFcQb++ytwvWNADQyibmppvoP4z0N3dM65fkP4zcH5M/ksCJEACI5eARX9phhYPPO/IyKSAgDCVGfi1XlVVUFGRP0r591OlxEsSIAG7E2hv7RgV6CmGbdG0o9Cu1buqLY09Eut+XffgzOAIX9Hntg9OYd3dfP9X/Gha8pRwofPZC+n5p6ql/qqfzwqN1i3hS6HRQmVR4/tP7lVVrbh90phpESqhuGzXdrY0tRWertmz/mxzQ5tRncELx82Ovvj2SUb7wcNPq6a9qrjxu8/PVhQ2qnTw5HDHHxe4uOienT58en9Zbr1KR1yGxfhDU5Thgr/0y+2Gaq1N+rusbe65+63NeomybNiWEhIgARIYCQQcPRY8KCgiJWWWof+Ne4M/FRERiSkpM93ddX/sR8IN4xxJwPEJKNeG4fPB4DbFanGLxvre59b3T0ksF1yXKlfcpVBZgAcp/W+s9Sr9b6Van+X+LmxjfTowzGfyorh7/7bkmgfSsE7c5xDWVXD3cMUaf9Lk8B88Mh/BQjHJQcr+saifvgUrGrqvlfdMPV9U/7tyjb5q+4en1dXnrsV9F1XC4e4lOfepMNqQQhIgARIYIQQc2gX38wuOj9cv59TXV5SUZBYWZpSX57S3697qYo08NXWuq2vPK1F+kQAJOAIBrWK9EyFjMKn13DqosE25Pmotawsza8rydEu2CCOZfWmSmZ4vXq3/rbLp3QwzmljiNfNdnFVrpi2q4KOLb+UziWiCZ4BbH57n6qZbcjbfz4BrsewtDMDqu4gGkV2Fx/nf+NAc+epAyPesOysdZQSlTF4QK/VlIWV6JNqKS7wHOLWvVFYpC+Lth5DoPgMKt9sWnwHl6CyTAAmQgOMTcOhAlJiYVEkwO/tQa2uTvKyqLoqLHRccHA0J/O+wsPjKSv36jVRjgQRIwP4ElGEGwhVT+qAtihAFK9q26Z2M1Y8vFB3OXTkGC7pGg85jxwZHJ+lWf0tz6sy40aZCLCy3+fXf75LKWJiH5zrvipSU6bowFURsX31/2rp/pksdqxe+fPVoXkaV7BYO94R5MfOvGCMkMOnm38554w/fdrR1CgmCxb96/RhCccTl0psnnD5Qhrhw2YOLq4t8gIFPj/5llarQ2qR/1yE+D8r7riyrGvKSBEiABEYIAcddBXdxccXmS3EbKipylf53j7C7u6Qkq7NTF2Dq7x86Qm4Yp0kCjk9A6WAJ51u56ql00K04F+zCPHukQnSIiIuF14w12vkld0yW8m/eMbcELtWsUoB3i/BrJAbZ8bE+ciNpchiiYqzSvyWd1FU27/0y+6NnDkif28ffc+byRGXbgtM1Becj4xE5s+jaXhjnrUz29tVtNj28rcDMlk3lZ0CsrMv1dQxni2Ak5SxYJgESIAHHJ+C4Lrivry6FGSA2NtYYouzu7mpu1r16Rr4UQwVKSIAEhoSAdLawUNp9LguHDE2REkPDsIsRcdL4jksNMazVS1xGCTX8VPmv2/5zCv0LzRnLRnv5qN/yIYgiOFL3YH/mUHldRbO+W3uVkJBRxsxgzPhx+skix4icGiK2jVqEvCVSZ/zsnteA/f3C2v/Bzfp3hrEpvSLC0dvXb56QuVPSLhqNTCZiCOzXnHu5bgUdz1HffpplZmhlIIp4AJOfAbRSOuhmOmEVCZAACQxjAuo/UY4zVXd3fWIvU6HeXV2696eOYzYtIQESkC54Z4fOIZYr31JiSOnyH07D6jXkyBzy4i+2GSoISfLkcJnx48A3eXvW6R3B5sa2ozsK4XxDE1EWSE2tCvVefttE0QlcTCROMTWEreV5GdUyGCYmJfjoTl2W9IBgrxW3TZQ5ST74677y/AaVMUtvHj/1gnghLDpTm3mwTKVgyWX2kQoZjhIRH6BqgsBxUF28ahzkMObiOyaLaJnlP5go97l+/fpx6aarmotLdCLlwuE2dMqlAgskQAIkMAIJOO4qeFtbq7wfAQHG40x8fHQr5VqtRiqzQAIkMLQEEJ+A+BN8y2VmQ4mhhTnHdGEkiH+ITQk2VBCSaRfqHFBcHtleoFL79rMsGQI+cX6MXMGFGjxXJO0W+giikM8Jqh7scCkjPTBWUJguFTfKtRXNezfkSAOu/PF0WRYFRJNL/xvBJAhrUSlYeIltlFLTMIs5qg5tzm+o0f0GRrQMHhgwdOrMKNEKOWT6TCODLZjiM4CfeDRCQzjiUqJpsFOWdDlNFkiABEjA0Qg47io4zt/BO2xEhAMZdls2NdVqNHVKfCEh0Z6euhMoqqp42J6SDcskMJQEco5VvvyrXrmiDSWG9qVvKRg3SxdZgYMVS7J7/X/X6buMGj1Rd0QAgr+RR0/VD/zv79afvfB63QruRbdOFH4qlm8XX6/b3g3nFYmxVQ3teYllfjmcjJwRkn0bchBeIhKTY7/m3MuS92/MlcpX3z9Dlje8dgwerbzsbwGbLMVhRucjd9QdYKvlD34/T0iRhbCjXb9l8+s3jqu1Da5xI1SfAWBXSQwaUUACJEACI4iA466Cw/8+d+xOz82AI56UND02dpynp27FKDQ0LjZ2vLhRNTXFKu98BN1ATpUEhgsBREjLlekUE6fbIApFnoKJmBOjU0/fmq/vZ3qEyLs3+9Jkeeblt+uylFk+jHZiU2Fkon6ji+GOxnX/ly798vlXpciF/FkXJyGtuDAMgey5J/SpTvprLd4GSIySlaqTioIGpEMRQiQolGH3eM9gqomqB16SAAmQAAmYIeC4LjiMxuGXtbX6SMeQkBikAB87dg4O64mJ0e3Tr6jIKy0dygUtM3BZRQIk0C8CMsk0NiYq9ynKTqYtSRBlOKkZ3xVLea9C96it/9HHeV98xyT0Nu/yZKGDoAhsiOylb+LC1c0VCQSNfkf3PtTGRAcmxbMvTpR18HRlWRQQAbLjo0xRxuI9QuRRhiMuk5MgsH7TOydUrfp1iaSNUh8vE2RZVdj6/kmZO0VUNVS3KI/vUenzkgRIgARIwHICjhuIIuaAs3g0mtr4eN0mKghlpkKUUav00S2fNjVJgAQckMDhrflIwSEMm74kAdsNexmJKJQJum0hRVm1Mua7l865i6z0nmwnIvkJ8qtc+0CaXPTd8u+ThvpGJdgbetV9+sAPlc4/7t+sklhyiSQt1/9ydkiUn1DGjsbju4sMG2KDJgLZxZbNuLHBeAzAErjcCrnun4fNzN2wt14Sl1EX3TJRGU///RfZvRQUFwiYQe4UuXETNdj/qqhnkQRIgARIYOAEHN0Fx+GXOIXe1PwQi4Kz64uKTjM1iilElJOAExHAAjByV4vQkeSpuiNspP1jpkZIT/rw1gIpN1r45u0TN/92rqiSC+rVpU2ISjeqbwthQKhus4pfoFdEQgByj0yYGy3jYTAidoWacqbXv3RkzVOLxXyVTwJoUparS8bap80IOBE2eHq59xiQEABvXnkiZlVxE3IUmuln4rwYZe3clclGnxmUOiyTAAmQAAlYQsChXXC416NHTxHTQGh4YeFJpEkJDY3FRkyxTRNVAQHhiEvJzT3S0aHPgWXJzKlDAiTggASO7y5evKpn3yQWoRMnhikzb0xdrMuFArc153gfnnRpbj1OvlSlGP/m7f6dxWMYqC2IyVht8wDXPLnYlAJ62PdVLg7KMaWAgJnN72Zcds9UpQIeUXau1cWoKOWmypfcqT+HyFAn93jlV2Y3Vk65IA5R4MqG2CGKnI+GiWiUOiyTAAmQAAlYQsBxXXAfnwDpfyM7SkHB8fb2nuwHpaVZZWVnsR0zOjpFzBB7NBMTp+IEe0smTB0SIAFHJoBFVuGCw0hEfksXHEejyyiUnlMwu/ueBJKC3/3nC6QeujIMvJa1hgUcUP/WY98aygcvaaxt/eyFdDNB2GKI/8/eeYDHUZ3r39Kq995lFXdb7h1jXLAB2/TeCaRSwiUkuRcSckn5p5AQkpuEQEjoNWAg9O5u4yL3IsuS1a3ee1lJ/3d91mdHs6vV7mq19dWzj33mzKm/GWnf+eY738FqSOhdpd/5e387aMnERxwhnmE+ff5o4UF9FEiT5eFAv/L6qeIU1l/iiQg5OMTVOfF1JeCYrMVMEiABEiABCwm4rgRPTdUHPIG5qLT0sFbbJ6eEnIaGivb2xoyMWWJfTPirREYmtLSY+0aR1ZkgARJwWQLQdnC0ELoTEanH+YwTojMrxxAL5cAXJZaMHzZsyG6Y0kXhza+ftKSWHcvIoIFY1AjfdETjri1rw247DdXtlihpqN7oJL3XuBjV3AvHW+7Ljir4U9nb3a9LDAyCBtxO8BCCD0YynAOMnP6qG6ZiAOLw0+ePwbF+5fW6v8nwjcEePZ88N3JcQtkUEyRAAiRAAsYEXFSCQ1gHBuq/e5qaKpX6W86hp6eztPQIAqSIHEpwSYYJEnBrAoe2lF9yNuQI1B6iEIroe9ILBdsu1pa3WThB5UboXR2O9lUbZRhseKFg+aZypjnLUk/uqcJSVGWmmfR7Tx4qOW5L7MLohJAZ56WIlqHXdY0cHwdHcLG30ZSFSfs+K4agN9M1T5EACZAACZgn4KJBCaX+xui7u4f9Qw8VLrxTUAyGcPNT5VkSIAG3IHAqt1pufi6iEMILJWO63ph9fFelW8xilIOcODdh4pwE0QgipsvWLr9njjROy0y7J9Z/WxcJUfx8+pw+AKLSAC9CJZ4rwv9JgARIgASsJuCiElyjMdh+BgYGzExLrsv09XXRuZgZPE+RAAkYE4D+Ljm37wyUN/Q3vFBkSD6EBDGu4mE5wWEB684txIQ3y1t/zIX7tZgjAqqo1mjafe5Q/wjeIpqF2z3CyIg0gsnINPbvVAVLsfswZIP+/gFJKRn4BAQEykwmSIAESMDdCbiobO3r65ZklRZxmSkS0N9+fv4ijWApqrM8JAEScFMC2OFSjBzKG7EIZRxrk5vSu+kczQz7invnyPCLHz1zGHt5bno9T66AhHV8wmy9gdxMI7ad8tX4rL1NH0cFruRfvWrY5AgNfva83iKO9OqbpjnAHh+XkLL+6juXrliPz/qrv5GcmmnbvFiLBEiABFyNgItKcIRAkaRiY1OVRnGZj0RSUrY87Ow0vKuVmUyQAAm4IwFsyiMV5+yV6ePPLak8ss2ijS3dccpyzNicSGzKgxwYoctONiKB1ZOfKAIIrvvmzMAQw6tCWXf0iWVXTpIO6Ae+KoPnvbJNeOGXHG8QOf6Bmguu1S+aV5axb3rJ8kvkG07YXBYuu8i+7bM1EiABEnAWAReV4Nhqp7m5RkDx9dUg8klAgH6TC5GJv8UJCVkITSjB1dd7/neznCwTJODxBPJzq8UcEYtQeKHAKHtsp4c7gmPfnAuunSwmjjgqn79oCGSOZakyRCPMz5cPv3OnzfdGWFTgvAv1u5Oi913vFRo39eUrx3EhRP7M5erA4cblR5OjwVvOoc4nGo0mJFTvJDOallmXBEiABJxOYEzsKHaZVXX16fDwGI1G52eCGOGTJi3u6Gju7e2COkcg8NDQKEhz2VFVVSG35pE0mCABDyBw4IvSmeenKSdypqAZulCZM6ZpeF3f/+Qa8108899bETPbfBkrzvqMu/qB+T4+CMSo+/nsxePyVYDIgSH827+7QPioYNehGctSj+88I07Z5d9L7pwpe9+68RQcYIybbW/uOb6zErv24BQKwx7/xmN7jYvZJadfq4Xcl0MSbfb3MyS5XeiyERIgAScTcFErOKj09/cVFR2UAU+QA9kdHZ0cG5uGXTOV+rumpqix0Z7fQ06+JuyeBEhg3Lim2k5sYaMkcXCT3kFcmTmmaVjfR/zYcQArrp0ScW5Pe2ztWXBA/yZQdgG5v/nfhujmiM8Nu7U8O8pE+pSYtMnRohHobDMb0WOHTqnO4TOTPSt+lF2bqV5XM+RvO1bn93R3mSnPUyRAAiTgLgRcV4KDIGzeBQV7amtLTFq4YR1pba0vLNxHFxR3uds4ThKwioDSxAtn6NNH6qyqjsJ91m/iaJWh3XiDm74evZ1eemtYOObQyEB4gYvCiAnz4TNHTFY8tuOMDMiNx4OLbtcvnZSF5QCQozKiyzImEytv0O+FibOfvWBYdmlcGF3s+ahI5oste+ShfRO5u75UNlhVUaw8ZJoESIAE3JeAz9ScBW4xejif4IPoVD4+Gihyrbanq6t9cNDEe1K3mA4HSQIkQAIkMCKBtPETFy5bK4t9+dEbba2W7kwkazFBAiRAAi5IwHV9wVWwYBHHR5XJQxIgARIgAQ8mkJSaIWfX2txA/S1pMEECJODuBFzaEcXd4XL8JEACJEACoyGAuOCy+omj+2SaCRIgARJwdwKU4O5+BTl+EiABEvBMAtgRIjgkTMytr7eHjuCeeZk5KxLwVgKU4N565TlvEiABEnBtAglJhqiUp/IOuvZgOToSIAESsI4AJbh1vFiaBEiABEjAMQSSzm1Hj5X3p/NNh4hxzEjYCwmQAAnYnYDbLMe0+8zZIAmQAAmQgCsTqKup0Gp1Ox81N9T29ztuVyZXZsKxkQAJeAwBtwlK6DHEORESIAESIAESIAESIAEvJ0BHFC+/ATh9EiABEiABEiABEiABRxOgBHc0cfZHAiRAAiRAAiRAAiTg5QQowb38BuD0SYAESIAESIAESIAEHE2AEtzRxNkfCZAACZAACZAACZCAlxOgBPfyG4DTJwESIAESIAESIAEScDQBSnBHE2d/JEACJEACJEACJEACXk6AEtzLbwBOnwRIgARIgARIgARIwNEEKMEdTZz9kQAJkAAJkAAJkAAJeDkBSnAvvwE4fRIgARIgARIgARIgAUcToAR3NHH2RwIkQAIkQAIkQAIk4OUEKMG9/Abg9EmABEiABEiABEiABBxNgBLc0cTZHwmQAAmQAAmQAAmQgJcToAT38huA0ycBEiABEiABEiABEnA0AUpwRxNnfyRAAiRAAiRAAiRAAl5OgBLcy28ATp8ESIAESIAESIAESMDRBCjBHU2c/ZEACZAACZAACZAACXg5AUpwL78BOH0SIAF7EvDx9YlKCMmeFR8U6m/PdtkWCZAACZCAZxHw86zpcDYkQALOJ3DrI0tjkkPFOLb8++SRbRU3/s+ihPERImfbxvxDm8udP8oxGEFYdNC3frNcNLz5jZOHt3rmNC0ht+K6KbNXpouSxUfrP3j60LIrJs6/KFPklByrf/+pQ5a0wzIkQAIk4KkE3EaCBweHBwaG+PsH9fdru7raurvbBwcHPPWqcF4k4NYEgsMDfH19xBT6+3S/pyERgTJHezbH5ATDY4L8AzTKU4MDg53tvT2dWmWmy6bPTdr2AYaEBxibz/v7B/q6+8Fh3ODILYdFBQYE6f6wd7X3daHKMD94WggI1KEG4abazmFK2Z4dEmG4BwYHdeMOjTTcA7a3y5okQAIk4CkE3ECCx8Wl46PRqN/q9vZ2lZUd6+mx/5eHp1xczoMEnEOgr1s7LiJA9N3V0YdEX49BQ3e16XJM/lz3w4URMUEmT2l7+2vL2w5uKis8VAvVaLKMB2SuuXU6nFhMTgRCtqOlt668df+XpRWnmkyWQeZV98+LTQ5DoqdL+9SDm00Wy5wRd+V9c8UpNPviz3c121uFd7cbrrJ4guruNOQo0yZHyEwSIAES8HgCLi3BfX01WVlzgoJ0XyfGPwEBwRMmLCgvP97W1mB8ljkkQALOIgDxJ7vuPivBexU5XR3DmmZlLeOEX4AmZUIUPjCiv/2n3KriFuMynp3j4+MDC3dYVHzWzPiGqo4PnjrUXGeLASImKfTye+ZIVl++fMLu+huNi+suehGCe0jO2btCjoEJEiABEvBCAi69HHP8+Bypv2GqaWurr6srbWw8093dIS4VvpNQJjQ0yguvHKdMAi5LoEdh7+xq0wnuboUnidI+amYKUGzi09fTryzm5+97/Y8Xpk+JUWZ6ZLq9uUd8wGFgqOE/Njn0xocWCYcTq+YOLxf45UunoANflR7/utKqFiwsLN5+iML6e0Ahuy28Byzsi8VIgARIwB0JuK4VPDo6SWpreJuUlh7t6+uWiGNjU5OSJorDxMTsoqID8hQTJEACziWgdDMQUkxpF4eP8ojD62jt/ef/bFUWy5gWu+L6KbDgIhPP3pffPefJBzYpC3he+l8Pb1NOCoJ7wUWZ89Zk4CEE+UEh/tc8MP/13+1RljGfhvKG/pbCvTSvYdvGU+ar2Hy2W+GGLu4H5XVXpm3ughVJgARIwK0JuK4VPDY2TZItLT2i1N/Ib2g4A3O4KICVmvjIwkyQAAk4l4BSYAnxrbR6KgW65eOEXnzlV1+3NnSJKv6BmuG8xi1v071K9nZrd71f+OYf9orVjRh8YkZEYIgVZpTL7p4TFR8iZg0nlvf+dnDsCCjvAeGCIv4VPdrmjDR2o2XLJEACJOB4Alb8+Xbk4LD4MjBQH9SspaWur6/HuPfGxsqYmFSRj/Wa5eUnjMswhwRIwPEEpNiCWBRLJ6VrisyxYVRwxsj9vGT1TdNE3QlzErA602Q7SZmRE2bHR8aHwHkagZSwPLS+sr22rDV/X7XSHq+qm5UTFxIZiMz2xm4oftVZeQhb8rSlKeKw6nRzY7XeL04WUCbgwp45I3bCrIT49PDOtt6mmo7juyoxEmUZq9JYk3r6cN3EOQmiVurE6KIjdZa0gJiAmKAoCQgwn6ucW2QjUxcmaRRxaerK2+SAEfJ8zsrxiDgZHh3Yrx3EdHAJKk83y7oyoXREEQ9g8h5AGaVAl1WYIAESIAGvIuCiEtzfX/dFKH66ukx/XcE7BUFRsCgTxaTL+LlK/J8ESMBpBKQEh0oTg5CWb5lj2+BaGwzeaJCDxo1c/I2cyfMTNX7q93tJWZHjlqWuvGHq7g9O7/2s2GR0v/XfmgXjOtrs1w789f6vTJbB2ezZ8WtvnS66/vrD03s+KjIehsiZNC9x/bdmwm1GFhg/NWb2inRo1nf+cgAxXmS+VYm6ijYpwZOzIi2R4FDVCy/JEr1Aeb/xuz3DxXmEZf2Su2Yqx1NyvOE/fzuALYfW3TUTbJWn4lLDcK1NS3CFI4oQ3MaiXNkU0yRAAiTgbQTUX1QuMn/E/5Yj0WqHjZ8gIxL6+ekjoMlaTJAACTiLQEt9F+ys+MhQG8Y5to0tNMrwcF6e32jcCIJPG+tvWQwG7POumLji2ikyR5lAuENxiBayZugNxsoCIp2zzOAjd3RbhXEBkTNrRfqGb89S6m9ZEnFdbnposVwTKfNtSPgaPWwYN4J3AhffmSPz//PXA2YCgRsPODJO99f4qu/PU+lv0WBnq+m/z1iCKe4B/AvzPwpDiMucjlYTLzblCJkgARIgAW8g4KJW8KHb7gwbA1iqc4Qv9PHxHVrLGy4f50gCrkgAdllVRGrjHNvGPfsCg/wtPWHCV+TItnJYmmFgrixqqchvbKzp8NX4RieGzFiaEhGre2OGn7mrx5/cW1VTqn69dmhz2bTFyaLMzOVpxcfqRXrIvz7j0qdEixxEBhTickiBcwcIWoIkTM5otvxkI3qfsjAJ4lucx9lF67N3f3j6XHEr/hdhv0UFeImYrwlXnGsfXCCFNfbsLDtp4tFFNgJv+32fFuMQ6+GFrR1PNUs2ZIOqKIOgkPVn2rDXqXiEGM6rG8VU9wAuiipHdsoECZAACXghAReV4FqtwUaitIirrpCU4MiH7wr8UlQFeEgCJOAZBBDHY/VNU+Uu97BYq4IVimnCT/rFR3caW3nhLoIt0yG+RTEkPn3+mIoMRDkcZhBpBPnjp8WqzorDzOlx0sp+bMewJnBRGK299PNdUqZjv3rsvJOzTL+CZcHajD0fF1m7zRA2EJ04V+8Ijl7OFA67Rw/OInYKzO0iggoOj2yrwBjE2Ib7F6Pd+V4hzmL7HiHBQR5PC6L80R0Vm18/ieeKu59YFRis+/roHH6jpeG6YD4JkAAJkAAIuKgE7+01eHyGhcXU15v42oA0l8sxeS1JgAQ8iUBoRMA1P5gvZuTn54vd1GHNlaZc2HE//Mdhk/M1s9361rfyZ56fivWRqIjFkSar5++tnr0yHacgW2H3NTYY55yvF9Aog4WVJhsRmTD6vvrr3VJ/i8wvXzkBAS1UPkaSkB5ubIw30yaM6Bu+M1t6sODdQluj4U+lqiJc0K95YAFs2CL/TEHTptfzVGUsPBQ9bnv71IEvS1VVRMxvVSYPSYAESIAERiTgohJ8YKC/o6MpNFT3whfRwUNCIjs7h2yGB/09YcJ8jcYw/v5+7YizZQESIAF3IZA+We/5oBrwp88dPbmvWpVp4WFzXRdWEKJweLRhtYmy7sHNZUKCIxO+KMYSPHO63jpeXdKCKIHKuqr0jv8UmtTHJ/dUzVmlN8bHpoSZkeArr58q2gwI1kTGBmP5qdTTyEfvnzx3VNWp8hDW6+TsSJnz0b+OyLQNiaqiZmP9jXaG8wW3oQtWIQESIAGvImCQsK427bq6MiHBMTBsU19dfbqlpUar7YPbd2RUYlJiNhLKMQ8MmPs6VJZkmgRIwH0JYGVhzvlp7z91yLwCNjlBaZOWBnVVMawfxYaUsLgjX4bwk2VSJ0ULIzpyzCzEFOWH8zDJU0hw8Twg21cl5qzS2eNN/lQXt3zwj8MmXXFkeXhjI7SLcBdBJtZTwiovz1qb+OTZIXL/0KYyvJpAI21Nw5rhre2C5UmABEjAqwi4rgTv6Gg+G/lbH383KWkCPggqbPK7UxdseHDYVZtedUU5WRLwAALw4th9Ltgf1lpHJ4Zi/WJcWjg8IvCTNjn6zl8te+23e0yamTF9uGvPuiAtbXIMwleHRAQGYf+as5EBNX6G+IDDUTrxdeWidbr4fVDb0Nzw35Al4cci0vhrY7MlXhlXEfOSjVuYgPPJ9rdPGTu7G1eH/n77z/tvemiR+JsZnxYOb3h44xiXHDGn/kx761CPF0RjHLEWC5AACZAACZgh4LoSHIOuqiqARwq23ZETkPobX4HYMjMlZbKIC97b2ynLMEECJODuBHq6+7ELj2oWcMO4+r/mi0gjwWEBtz6y9KkfblZF7xarNicvSJIO06pGRjzEgkUhwVFy1vI0pQTPnhUvqlcUNEHgjtiUyQJdioDZ0aZCm8taIl4K/ugtWp8l/vTh7x62lMfGlrKM+QS21IHmlg4tWIRaltdgOtKL2YZMuqCYrcGTJEACJEACIxBw0bjgctQ1NUWFhblNTdWIdoKYg1DkSGB1ZkHBnq6uNqG/Ubizs01WYYIESMAjCXS09Lz8y10y1jhcLCbNHbJTTFCo/x0/P2/qomSpv+GMgSh7VUUtJcfr8RluP0glLvQiu5CaGwUQjAX6XpQ8vMXEAnFlI+bT8pWd+e3l8R4AH+XuPxDiV35/rvnGVWcPbS4vPmrYPvPS784WDiSqYuYP6W1ing/PkgAJkIANBFzaCi7m09PTUVlp4uWp0jqOtZs2TJ5VSIAE3I7A/i9LL7xZv0d96sSoggM1cgoI+ScXLGIXmE2v5eXnVsuzSMCILuNbK/NV6aM7ziy/ehIysVkmttWE4zXSM5frvVBg/0boQ1UVyw8Ra0WYtFGlt7vfkoq7Py6asSxVLCGNig9ZtC577yfDbslp3OCHzxy569fLEWQGp+Cic/2PFr7wsx2WPI0YN8UcEiABEiABexFwdSv4cPPEWsy4OH1UAVjHW1tt/0YcrgvmkwAJuCABpf93UJhhW1xIW7ltO/Tl67/do9Lfls9FGfAbviiiorS4Y0ug4ZZaWtKFMhiL0inFXN3BcR88dUgWWHpZNoS4PBwxgWeGtx7fJzV3REyQagv6EVtgARIgARIgAbsTcFcJPn58joxIiFWb8sWu3QGxQRIgAZcigNWZcjydin3OY5J10QbFDxy4LXeYPlfJ8D8s6LXndp2cMEe3D05MUii8XESJg5vKDEWtT8ndhVAVQRItbADjOb7zjChsgzsKaHz+gmErImw1D7O6hV07vZi/f0BSSgY+AQH6GOdOHxIHQAIkQAKjJ+B+Ehwb0aelT0ewcDF5hCmsrS0ZPQi2QAIk4BYElP7ZxUcNe8gLRwsxhRaLpe1wU5YxB+Fxjg10ECNclESolvJ8cxu8D9egzJ+/NkOmCw8avGhk5nCJTW+cxLOBOAsr+OIN2cOVNJmPEC4ndhv2ElpzyzTlRvcmq7hCZlxCyvqr71y6Yj0+66/+RnJqpiuMimMgARIggdETcDMJHhQUNmnSosgIfVwCzL+s7CjWaI4eBFsgARJwfQKT5iXOOE8fqBTvvpThSurOtMvxRyea8NNImRiFaIaijI+vwZQuaykTeXsM79ZmXpAGs7E4W3ioVlnMTBpb/Mid4WUxbK8jreAYf8kxwyOELDNcAv4kyuDcSzZko7XhCpvM/+LlE/LlAEzp1/1ogQxzbrK8K2QuWX6Jr6/+ewr2l4XLLnKFUXEMJEACJDB6Am4jwUNCIjIzZ2NHTH9//btIuIAXFR1AXJTRU2ALJEACLksAchlaE/u63/zw4g3fniXXMsIELv2bMfj2pm55iHjeiRkRyhlhn53rHlwgI6VAHMuFm8piMo1QKpWFzeJw+pIUWdhyLxT4rtz6s6VyZxw0BfGNQIqyixO7KtGLPLQkIeK6iJI6d5T7rIuOAhf2t/6YK8MpBoX4X2VlC5YM0o5lNH5+/kOdTzQaTUhouB27YFMkQAIk4CwCrh4RJTAwJDIyMSoqUSpvQaqzs7WiIq+vjxuzOevOYb8kMIYE4FXywFNrzXRQcarp/acNKxRFSYjanHO759z00GJYrDuae4LC/BEFBXHEVa1d88D8d/96QLm4U1Xg0JZySHlkIoqIONXd2WdmP3lVdRzCXeTuJ1YhKiJ2cccwIuOC5fMDxPfWjaeMq4yYg03pv/PYCjEktA9buNzDaMS6KICQi+///dBV988ThTFBOLTsObcLEjIRqvyKs7pcRmBE5mXfmy02Fu3t0r7x2F75qCMaGbt/+7VavCuQ0ERH/f3cCHnskLNlEiABxxFwaSs4LCATJy6Mjx+v1N+9vd1lZceLiw9SfzvuNmFPJOAyBKD/8nZXbfxzrmpTHgxw0xt5yhgjCJACb5ApC5KE/oaY++Kl4w1VHWIqsFKPnxZrZlqnD9WqtGb+viEhDs3UxSm5nWREbDAiG0IuSymJZt94bE9vty1SsqdTC6dw2TUEtLXuKKV5Dfu/KJEtLL10QtrZJw2RExjij6HiExJueGiBHBeZMOQ72Helrka/CFUMD3tD9HRbuoZVzpEJEiABEnBBAi4twbHUsq+vR1DD1yciD0J5Y1OetjYrHChdEDqHRAIkYBUB2Iw7Wnthgd70et6T/7XpsxePGetvNDjQP/jsT7ZDoBs33lLf9cqvdh//uvKd/9sPSzAK4E9K/l4TJWVdCOXS40P+1ByyJhbKC/+748BXpehFNigS8F9/6Re7sOW7Kl91aFxRFkBolLoKvQMeZP3Fd8yQp5Do69GvjTHTwvZ3CrBxpqx1+T1zZNrVErm7vlQOqaqiWHnINAmQAAm4LwGfqTkLXHn0sbGpwcERLS217e1NcP525aFybCRAAi5CAFbbhPHh8Wnh3R19TTWdNWWtqkjecalhOJu3x5wEF3P53uMrRThCbJn5wqM7bZggzO3pU2K02oHudt1TRHuz3qxgQ1NeWCVt/MSFywwuSV9+9EZbKzdi88IbgVMmAQ8k4Oq+4A0NeAs55EWkB14ETokESMCuBODjAWdxfIZrFUboEe3QqDt5QZIMB77tbVtct9FIY3UHPsONhPnmCSSlGmI4tjY3UH+bx8WzJEACbkTApR1R3Igjh0oCJOBhBOBjfdFt08WkYLouOsIteJ1whREXXPZ64ug+mWaCBEiABNydgKtbwd2dL8dPAiTgjgSwgPLaHyyQgb23vpXvjrNw9zFjC+TgkDAxi77eHjqCu/sF5fhJgASUBCjBlTSYJgES8GoCiPuBjXgmzIpXhhnZ8W5BwQErtrH0aoJ2nXxCUpps71TeQZlmggRIgAQ8gAAluAdcRE6BBEjAPgSyZ8fPX2NwPkajO98rzP28xD6tsxUrCSSlZooaWIt/Ov+IlbVZnARIgARcmgAluEtfHg6OBEjAkQSUO94jxPi2jacsiZriyBF6VV91NRUITYspNzfU9vfrgy16FQFOlgRIwIMJUIJ78MXl1EiABKwjUFvehmWX1SWt5fmNVUX6Deqta4Kl7UegorQQH/u1x5ZIgARIwIUIuHpccBdCxaGQAAmQAAmQAAmQAAmQgD0IMCihPSiyDRIgARIgARIgARIgARKwmAAluMWoWJAESIAESIAESIAESIAE7EGAEtweFNkGCZAACZAACZAACZAACVhMgBLcYlQsSAIkQAIkQAIkQAIkQAL2IEAJbg+KbIMESIAESIAESIAESIAELCZACW4xKhYkARIgARIgARIgARIgAXsQoAS3B0W2QQIkQAIkQAIkQAIkQAIWE6AEtxgVC5IACZAACZAACZAACZCAPQhQgtuDItsgARIgARIgARIgARIgAYsJUIJbjIoFSYAESIAESIAESIAESMAeBCjB7UGRbZAACZAACZAACZAACZCAxQQowS1GxYIkQAIkQAIkQAIkQAIkYA8ClOD2oMg2SIAESIAESIAESIAESMBiAn4Wl2RBEiCBkQn4+Pisv+r24codPfh1WfGp4c4ynwRIgARIgARIwEsIUIJ7yYXmNB1FwMcnKjpuuM4iImOGO8V8EiABEiABEiAB7yFARxTvudacKQmQAAmQAAmQAAmQgEsQoBXcJS4DB+ExBAYHBvbt+ko1nQVLVvn48nFXRYWHJEACJEACJOC9BFxIgms0fr6+uvFotb2DgwOWXxONxj8sLDogIBhV+vu1PT0dHR3NlldnSRKwL4FTeYdUDc5bvEIzjhJcRYWHJEACJEACJOC9BFxCgmMFW1zc+ISETHEdmpqqKyvzLbkmvr6alJQpkZHxqsL9/X2VladaW+tV+TwkARIgARIgARIgARIgAacTcL4EDwmJTEub5u8fKFn4ajQybSYB4/fEiQv9/PyNy+BUevqM2tqSurpS47PMIQESIAESIAESIAESIAEnEnCmBIfnSXLypMjIBNvmn5ExU+pvOK7A5t3b2xUQGBIZoTeKw6ze3d3e1tZgW/usRQIkQAIkQAIkQAIkQAJjQcBpEjw6Ogn628fHRgfZ0NCo4OBwQQRuJwUF+/CvOGwMicjKmivSSUkTKMHH4r5hmyRAAiRAAiRAAiRAAjYTsFEB29yfqAgvEfhwS/3d19dTXHwI/1rebExMqig8ODiIulJ/IxMrMmU7WKMZFBQqD5kgARIgARIgARIgARIgAacTcI4E7+hoEjOHgK6pKTpVsKezs8VyFliFGRGh3/2kvb2xp6dTWTcxMVt5KMW6MpNpEiABEiABEiABEiABEnAWAedI8MbGSuhmuIicOrW7vr583OCgVfOPikqS5VtaamUaicDAkPDwWGVOVFQiIq4oc5gmARIgARIgARIgARIgAScScJoveGHhPpunLb3A0YLK1VuawBsbzwj7N9xd/PwC+/q6be6OFUmABEiABEiABEiABEjAjgScYwUf5QT8/QNEC3ABHxjol61JE3hzc02rIhCKLC9LMkECJEACJEACJEACJEACziLgNCv4aCYMq7aorlx5iZzExCyRX1tbDH9x2YUsL3OYIAESIAESIAESIAESIAFnEXBLK7gMB64MhHLWBK5bownvcARXUVrH/fz0VnNnUWa/JEACJEACJEACJEACJCAJuKUEx+aXYgJarT4WOA4TEgwmcBwqJbhy6005cyZIgARIgARIgARIgARIwCkE3E+CK8ObSJ2N+N8iTGFLa11vr27lJcIdSqDYhlOmmSABEiABEiABEiABEiAB5xJwPwkObS3ltdzcRwZCqa0pFkCVsltpLHcubvZOAiRAAiRAAiRAAiRAAu4nwXHNBgb0+1+KNZfSBN7aWt/b2yUu6lAJbsW+m7wnSIAESIAESIAESIAESGBMCbilBO/r6xVQhARXBkKRsKS/OHJkeXmWCRIgARIgARIgARIgARJwFgG3lOBarV6CBwQEnTWBxwMf9uhR7lSvlOBaLa3gzrrB2C8JkAAJkAAJkAAJkICagFtKcMQcFPNAtMGkpGyRrqkpUk4uJCRCHkrJLnOYIAESIAESIAESIAESIAFnEXBLCd7Z2Sx5hYfrYoGrTODIiYjQmcbxg+176IgiUPBfEiABEiABEiABEiABVyDglhK8paVOBkUREGvOBUIRh/BOkbHAm5urEaLQFVhzDCRAAiRAAiRAAiRAAiQAAm4pwQcHB7AFprx+7e1NPT0d8hAJ6Z2CdGNjpfIU0yRAAiRAAiRAAiRAAiTgXAJuKcGBrLHxjASHRZnKEIQIkCK8U1Cgu7tdhimU5ZkgARIgARIgARIgARIgAScScNq2kRMnLvTz0+8zL+YvY5hERsSHTT1PQoGMLik5Ig9Foqurrb29MSwsBodwO5kyZSls4XD7Dg+Pke3gVFVVoaoiD0mABEiABEiABEiABEjAuQScJsHhqy2iepucv1JG+/sHmSxTXn4iO3tuYGAozmKbzPDwWFWxyspTnZ0tqkwekgAJkAAJkAAJkAAJkIBzCTjNEQX+3BbOfGCg32RJ5J8+vb++vty4KbiGFxcfbGqqMlmRmSRAAiRAAiRAAiRAAiTgRAJOs4KfPLlr9NNGXBSEA6+tLQ4OjoBH+MAAZP1gd3cH/b9Hz5YtkAAJkAAJkAAJkAAJjBEBp0lwO84HQhwOJ/Q5sSNSNmUzAR8fn2tvuUdVXblcWHWKhyRAAiRAAiRAAl5IwBMkuBdeNk7ZdQn4+AQEml694Lpj5shIgARIgARIgAQcS8BpvuCOnSZ7IwFHERjkPlCOQs1+SIAESIAESMBtCfhMzVngtoPnwEnAFQmEhkUMZwjvaG/t7el2xUFzTCRAAiRAAiRAAg4kQEcUB8JmV95BADobH++YK2dJAiRAAiRAAiRgCwE6othCjXVIgARIgARIgARIgARIwGYClOA2o2NFEiABEiABEiABEiABErCFACW4LdRYhwRIgARIgARIgARIgARsJkAJbjM6ViQBEiABEiABEiABEiABWwhQgttCjXVIgARIgARIgARIgARIwGYClOA2o2NFEiABEiABEiABEiABErCFACW4LdRYhwRIgARIgARIgARIgARsJkAJbjM6ViQBEiABEiABEiABEiABWwhQgttCjXVIgARIgARIgARIgARIwGYClOA2o2NFEiABEiABEiABEiABErCFACW4LdRYhwRIgARIgARIgARIgARsJkAJbjM6ViQBEiABEiABEiABEiABWwhQgttCjXVIgARIgARIgARIgARIwGYClOA2o2NFEiABEiABEiABEiABErCFACW4LdRYhwRIgARIgARIgARIgARsJkAJbjM6ViQBEiABEiABEiABEiABWwhQgttCjXVIgARIgARIgARIgARIwGYClOA2o2NFEiABdyIQGxfn68u/eO50yThWEiABEvBgAn4ePDdOjQQcQ8BPE+Dra/5XabC3r8sxg2EvxgTi4uO/d8/9YWFhAwMDn37y0bYtm4zLMIcESIAESIAEHEnAvG5w5EjYFwm4K4HvX/1mRGiCmdEPDPb/6sXlZgrw1JgSWHvROuhvdAEr+MWXrN+xbQu0+Jj26PTGb31kaUxyqBjGln+fPLKt4sb/WZQwPkLkbNuYf2hzudMHaWYA/oGa7/5+ha+f/q3F8z/b0dnae/cfV8qcFx/d2VLPx1ozCHmKBEjA1Qm4kATXaPyEKVGr7R0ctOUL0t8/CLxRFy24OniOz4MIwAruQbPxwKlEREbKWWk0Gn9//56eHpnjkYngcLyZ8RFT6+/T/TkNiQiUOdqzOZZMPHNGXHJWZFCoPwo313UWHKhpb7YFXURMkF+AZnBgsKm205J+B/oHUV6W7O3S9vcPKHN6urTyLBMkQAIk4I4EXEKC+/j4xMWNT0jIFASbmqorK/OtohkUFJqWNi0wUG/1yc/fpdX2WdUCC5OA5xHAM21MeGpkaOLpyr2eNzvLZ7Rz+9asrGxRvrjotMfrb8y0r1s7LkL/ZNjVoftj2Ndj0KxdbSP/eZy6KHnNLdOUqheNrLhuSlVR83t/P9R9tk2B1Py/oZGB6785M3VStCi26fU8mOTNV8HZfu0QK4wQ3IODg/iyEHW7O0eewoi9sAAJkAAJOJGA8yV4SEgk1LO/f6Ck4KsxGD9k5nAJX19NYmJWTEyqsoCPDxddKXkw7V0Eblnzx8SYScGBEdI8/9zH3yuvPeJdFBSzPXb0yJ8ef2zx0vOKi4qOHT2sOOOxSaWRWMhlGJLlbLs6RnhPuPzqSfPXZsryykRydtS3frP8pV/sam3sVuabTC+6JGvJZROk9R1l/AMt/dIZGBgUFaG8ReP92kE/f50E1+Xo80x2y0wSIAEScAMClv41HIupwPMkOXlSZKQ5J1rz/YaHx6WmTkE75ovxLAmMKYE3N/8kKCBcdpEaP335rDvkoeMTWSkLNL46zwH5gydVmfbORE1N9fv/ecd75t6jMBJ3tekEd3enQYJ3t5szIU+cm6DU321N3WcKmyF7M6bHBofpLOswjd/w34v+9ZPtcCwZDmliRsSl350dHq1zDrTtR9vbHxCk+9sO5S1agGncz19nXpE5trXMWiRAAiTgCgScJl6jo5Ogv202V8NqDvEdGqp/uekKKDkGryVQWnNIOff27kbnSnDlYJj2TgJKPw3hiKK0i3eZleDwNpHQDnxVum3jKXHoq/G5+eElcam6ha1wL5m6MClvT5UsKRNYSbnmlulTFibJHNsSfb0DAWcFvLavX7QAUR4YrPvOkjm2tcxaJEACJOAKBJzjsJGePiMlZYrU3319PcXFh/CvhUSCgsImTVqs1N8NDRVnzpy0sDqLkYD7EPAJC4710xjctNxn5BypMwkoRbYQ30rLt1Kgq0YJhS1N1+X5jVJ/oxiWSCq177w1Gaq6OMSiekQyUerv+jPt//69LUsRdO7sZ3/6evQSvNcox3gAzCEBEiABdyHgHCt4R0dTREQcGMGlr7a2uL6hAinLkfX0dA4MaBHYAFW6utogvpETERFveQssSQKuTCAref6F874XH5Ud4B8sxomwhh1djbn57+4+8WZvn4mYEhfO/16Qv848iR9fH7XbCVqraSwQZ8W/Ww8/397VoMxxtTRClyxect74jMyIiAgswquuN24u/AAAQABJREFUriopLiosKOjoaDc/1Mys7Ph4c+5tTU2NhQV6y675ptz3rFwuib+xwl1EuqbIHJOzW3hxlszf+taQZfGIaZiUaYgtE58WDlt4R8sQ0wl8Reor20UxGK2/fDXv5N4qEVBFNmthQgru3m4pwdUJC5tiMRIgARJwQQLOkeCNjZVYQNnb21VZecqGAIL4SjlzJh+LOKuqCpqba1wQK4dEArYRCA2Kvmv9P2Ii0lTVoarDQ+JXzf3Oijnf3LjlZ3mlW1QFls64SeX/rSyQnjATH2UOYqScLNumzHGp9KrVay5ce7Gfn+EPVFb2hKXnnQ/5+PZbb+TuM2dVvejiddkTJpqZTnVV1Z+f+L2ZAh5wSkpw6TYtLd8yx8Q0fcbBEVzkQwHDgK0ss/rGqcpDpGEI3/62+mHm438e+cavzj+5pwrBTyyPfqhqGYfSeb23S++5Ln1pZI5xLeaQAAmQgLsQMHzDOXjEhYX7RtNjW1tDXt6O0bTAuiTgagTiIjO+demzgf4hZgYGLX79qt98kfvkrmOvmik24qmaptMjlnFWgRtuumXuvAUme4c5/Nrrb5o8Zeprr7xksgAzBQFsWyMEa9u5uCXGOcasQiMC4Uki8kuOD3lJkpAenpSlM4EjP2N6jAgOqDSKy9YQKeUv934pD21O1J9pw5pOVIdZXTTSUNmuzxn6bGBzF6xIAiRAAk4k4DQJ7sQ5s2sScEECWBrxjXV/N6+/5bDXLrj39Jk9NU2FMsfaRFNbpbVVHFN+7UWXKPV3/sm8glM6d4jUtLQ5c+cL5Tdr9ty8EycOHsg1OaT9ufsaGuqNT6FZpVnduIBdcpJTMwMCLQoDUldzprOjzS6dGjdSdKTuqQc3K/ONc5RnRToiVu/4hMOa0hZlgVU3ThOH2Gvz2gcXhEXp1ieEngs9rixprzTc0JWe6GgWjjEq3xh79cV2SIAESMDxBCjBHc+cPZKACQJQ1fBCUZ3Yn/+foqpcRPhePfc7IUFRyrM3XvjY/228RubUt5RGh+mj40sPcnlW2987MKD3o0VmexcUqhWrL2Q7Y52IjIxaveYi0Ut/f/+z/3y66LThMWPrls333Hd/QIBO/F1+5dWHDu6HX4rxkPbn7sXHOH/ipCnR0WrCxsVGmbPqoqt8fC1a5p5//EDu7iEqeZRdj7469rCUjSi374Hbd3K2zgRedrIRe2R2tvYICR4UNiT2pazLBAmQAAmQwIgEKMFHRMQCJDDmBGACXzTtWlU37+/87cGCD0TmsaIvfnjDB/5+BoUUFZYMl/HG1gpR4On3bpfVH7l9q8ov/JUvflBafVAWcNnExes2CDs3Rvjeu28r9Tdyqqsq3317I9xUkA4ODl60eOme3btcdi4jD+zcRo8jl3RUiXCFBO88G01c9Lz6Jr0X+ObX85Aj10eKuN2OGh37IQESIAGPImCRtcajZszJkIDrEZiUdp5KNHd2N0v9jfH29HUcOPW+auCLpqpVu6qA2x1On5Ejxtza2rJ3z9fG44fzSWdnh8ifMlXvGmFczIk5Lc0NHe2tlnzaWpqcOE6TXctwhDgLU7cogzCF2BET6fJTjU21umg8cq977F7p46vfMV4U5r8kQAIkQAIWEqAV3EJQLEYCY0hgVvbFqtaLq/erck5X7lk8/XplZkqcK2pQ5QitSsfGxQUF6c38RaeHXS1aeebMxEmT0TLKW9W+Ywp/9K4brxNVOpbIgCQX3nzOC/wNfYxCuWQTSLFXjoy+4hjC7IUESIAEPIMAJbhnXEfOwr0JRIUnqyYwMXXpvVe9rswMCdQ54yp/sGuP8tDd0/FxhmDebW2t8QmGQ+XUBgYGxCEcx5X5TI+eQGerbit78SO2gpcmcOxR31Clj0ziozFYvmWsw3P1+D8JkAAJkIBFBCjBLcLEQiQwpgTCgmJU7SM0SmBkhipTdYhlmqoctz6MUqyVXH7BSnzMTycwULcukz92JNDW1C1bCzi7FbwMhLL5DZ0XuPgJDg0QCWzE45LLes8NlP+TAAmQgAsToAR34YvDoXkNAeU6S8snDT9cywu7fsngkGDXH+SII5w5d2lwSNiIxVCgqOBYfW2VJSUdVkYGEUePgUF+sclhqRN1rxqqipqV2/QIdY58uYGlw0bIjkiABEjAYwhQgnvMpeRE3JhAZ0+LKuagJZPR9usXzFlS2PXLtLW2ykG2t7fX1dXKQ5OJ7q4uk/nOzZw5Z4mFQQkRJtKVJXhUQsiidfrN6je/cVJJNSBIIw672vX7VirPMk0CJEACJGAJAUpwSyixDAmMLYG2znpsjanso665+N+bHlbmGKf7+g1uA8Zn3S6nublZjhnRBr/47BN5yIRjCLQ2GJ5qpi5KEoFQqktaassNWwghEGFQiD4cuNJ33DEjZC8kQAIk4DEEKME95lJyIq5CoLdPF7hN+eMzDsvX8DGxj4woVtNYkJU8X1kFYb8b2yoGB/VLD5WnRkwbb1gTFGCRa8SILY9pgZqaatl+evp4mXavRElRvn+A3lXa/MhrqsrNF3D8WcQC7+vp9w/UGbmF/kZCZQKHNJcDqzjVKNNMkAAJkAAJWEWAEtwqXCxMAiMTkNvlyKJw2p6RdeHx4i9ljiqxL//dJTNuVGbCO/yy8x56f+dvlJlIR4QmLJ1+41cH/mHGC6W9qwEKXllxSvr5+WXbZU6AfwjEfZ/WtYzocERpbWmJiNQFfkHYwZCQUBkCXI7c9RO7tn7s+oM0M8KTe6tmLk+TBWrLWmtKDQ5CyJ+22HBrHdxcJksyQQIkQAIkYBUBSnCrcLEwCYxMoB/itr/XTzPEFHrFsp9MSlta3ViQEJWFjXje3PyT8tqjsq3G1vK2zrrwkHiZg8TcSZdi/8vP9/2lurEQe9enxc+YM3H95PTzcSo+OvuVzx9QFlamsVm9SoLPnXRZatz0vLKt4wYH0xNmweJeeGb3a1/+SFnLFdLYc/6ClasxEl9f35tvvf1fzzxlclRJySnYKdPkKWaOkkDu5yVKCb5pqBd4ysQoaR3HGs2eTu0ou2N1EiABEvBaApTgXnvpOfExJFDTVAjJq+wAVu3ZE9bhIzKXzrhJKcGRuXHr/965Tq04MxLnfPvS55TtiPSElEULpl6de/Id41PIKarcOzF1iepUQvQEfGQmHgNiI8Y3tLqWFfOLzz9dct6ygABdtEEYwu++9/6XX3q+vc3giIztM6+8+tqIiMhXX37x6JFDcjqWJLCToyXFvLxMS31XU01HdGKo4JCSHVVd3CLSkXHB1/yXwV0KYt3LWXH6JEACJDAaAj5TcxaMpr7NdSdOXOjnp1/TIxrRaAyH/f2Ghfbd3e0lJUdUHUVFJSYlGfQEzvr6amSMNrxkR7QBWaW8/ERHh2Gll8xnggTGiEBy7JTvXPa8mcZhKf/1y6tUrt4blvwIwtpMLeUp1P3DGxu6evTySHkKvwg/uuHDEUOslNYceuGTe5QVXSE9I2fmbXfcJUcCv/amRvw0REYhbniMn5/eatDf3//rX/5vZ6fa7V5WNE788te/E+K+uOj0P576m3EB5ggCaZOir33Q8L2AYOF15W0xSaGIkSIRNVR1vPzLXfJQmUDJmx9erMwZ5+MjNvoRmdpewx/n47sqN//75JDCPCABEiAB7yDg66xp+mPJj8Zf+VGORJnv76/fs1pZwNfXT1kGaam/UQxp5Vmoc2VdpklgrAlUNeSfKt9hpheNr/+0jJWqAh/tfnzbYXPCXZaHgv88928m9TfKQJ1v3Pozlb6XdWUCJnb4t8hDF0kcP3YUFm65otTHxycmNhYW8fj4BKm/MdSTeSegwi0fM9oR+htVGhrqLa/ohSUrCpq2vJkvJx4eHZQ9K16pv7vae9/64z5ZQJXA9vV+AZohH/8hXzTKU8HhQ/y1VE3xkARIgAQ8mIAmLiHFKdOLi0uzUBn39fU0Nak3sAgMDImIiLNw5Kje1+daK88sHDmLuS+BY8Vf4FWMKs6JnA6cv48VfdHSYYgBIk6VVB8oqzkUH5UdHmL69oawPlr02Quf3ltafVC2Zpxobq86Wvx5dvKC4UR2ee2RjVt+5mqOKGIitTXVx44cjoH0jo2DdFbODtK8rLTk2X8+/fWuHVZJ8Jmz5syaPUc0dfjQwdKSYmWzTKsIIBBhxamm9KkxgWf3yJRnwb/gQM3GJ3J7u4d9/oF1Ze4qSwPaVJe0Fh2pk+0zQQIkQALeQ8Bpjijeg5gz9WYCWGGZmTQ3JW4aVmH29HUiWEpDa3lR1b6WdrX4VlEKC46dlrEiOjwVCyuxWX1tc3FlfV5F3fGmtjOqkuYPU+KmpsRNT4qeiCgoeDtU21RU23S6ov54R5cbhJMLCgpKSU2D/TsiIqK2tqa8rAweKebnO9zZh3/6KFxZxNlf/+pR5TZAw1VhPgjAqyQpK1KDtzZBmubazrK8Bm2fLYEyCZMESIAESEBFgBJcBYSHJEACnkbg5lvvkCbwwoJTwwVa8bRpcz4kQAIkQAIuTIARUVz44nBoJEACoyMQFh5+y613ZGXrl25jmfZ/3tk4uiZZmwRIgARIgATsQIAS3A4Q2QQJkMA1194QGGRi5bR5MgcP5OadOG6+jA1n4UEO2T1/wcJ58xdKb3L4MT/z9JP19fQ8toEoq5AACZAACdiZACW4nYGyORLwTgLzFy7CfjrWzr2trdWOEhzPAAsXLZ45c3b6+AzVYLDR5ssvPl9SXGTtCFmeBEiABEiABMaCACX4WFBlmyRAAk4gkJGReellV6o6hvMJwqd89MF7SKhO8ZAESIAESIAEnEWAEtxZ5NkvCXgUgR3btkRE6kOOWD6xgnxD/GnLaw1XsrjIYOSG4K6tqdn99c59e3dbFb5wuMaZTwIkQAIkQAJ2JMCIKHaEyaZIgAScTOC6G25qbm4+eeJ4RUW53N/HyWNi9yRAAiRAAiRgRIAS3AgJM0iABEiABEiABEiABEhgLAlYvXxqLAfDtkmABEiABEiABEiABEjA8wlQgnv+NeYMSYAESIAESIAESIAEXIoAJbhLXQ4OhgRIgARIgARIgARIwPMJUIJ7/jXmDEmABEiABEiABEiABFyKACW4S10ODoYESIAESIAESIAESMDzCVCCe/415gxJgARIgARIgARIgARcigAluEtdDg6GBEiABEiABEiABEjA8wlQgnv+NeYMSYAESIAESIAESIAEXIoAJbhLXQ4OhgRIgARIgARIgARIwPMJUIJ7/jXmDEmABEiABEiABEiABFyKACW4S10ODoYESIAESIAESIAESMDzCVCCe/415gxJgARIgARIgARIgARcigAluEtdDg6GBEiABEiABEiABEjA8wlQgnv+NeYMSYAESIAESIAESIAEXIoAJbhLXQ4OhgRIgARIgARIgARIwPMJ+Hn+FB01w+Dg4ITEJF9f3+Ki047q07X68fcPSEhICAoOPl1Y4Foj42hIgARIgARIgARIwJUIUILb52rc+c3vTJk6DW11d3f//GcPW9Xo9TfePGfufJNVCk7lP//sMyZPuVrmqtVrLl63QYzqpw/9qL+/39VGyPG4MoHAoKBHf/Hr4Ub4xB9+V19fN9xZ5pMACZAACZCA2xFwIQmu0fj5+urGo9X2Dg4OWIbSJzQ0MiAg2N8/cHBwsL9f29vb1dHRhLRl1e1WSqPR2NxWYGAQbOcmq4dHRJjMd8FMjZ/hXvLx8XHBEXJIrkwAd8xwvwUYdnBIiCsPnmMjARIgARIgAWsJGGSTtTXtWB6KLS5ufEJCpmizqam6sjLffPs+Pr6JiVkxMSlIqEpCvtfVldbVlanyXfaws6NDq9Uqh+enkLPKfKZJwFMJ4KFZ9VsARW5GlHsqB86LBEiABEjASwg4X4KHhESmpU2DGVsS9x3JohwYGJqVNVuj8ZdVlAmI8oSELD+/gKqqQmW+y6bf3vhvfJTDe/inj0ZGRSlzmCYBRxLAU/F99/8gIjIqJCTkvf+8vXf312Pde0939yMP/1jZS87MWbfefqcyh2kSIAESIAES8BgCzpTg8DxJTp4UGZlgFU3o7wkT5imN3z09HZ2drQMD/cHB4RD0orWYmFSUqaw8ZVXjLEwCJCAIpKali0RMdAyZkAAJkAAJkAAJ2JeA0yR4dHQS9LdSSVs4sZCQCFmrvb2xrOy40nE8NDQqI2OmKBAdndzUVNXV1WZhyyxGAg4jEJ+QMDAw0FBf77Ae2REJkAAJkAAJkIDrEHCOBE9PnxEREScp9PX1VFTkqdxR5FlVAqoa5cePz2lsrKyuVruadHQ0w/8kJWWyqBUdndLVNYJbuap9HpLAGBGAZ3P6+IzJk6fMnbcgJja2tqb6iccfG6O+2CwJkAAJkAAJkIArE3COBEfQEiHBEbqktra4vqFinDUxTGD8zsvbPlzYE6zmlBI8KMhpgRQSEhJnzJw5ecq0AH//hoaGsrKSr3fucEyovti4uMWLl8YnJIaFhfX19ZWVlpQUFxeXFMHd1vJ7cRKGPn1GXFw8vNLb29urzuCnHEESkba8EVVJePcGB+uvSFXlmYqKclWB0Rz6+/uL2I4NDfVFp3XPZiEhodNnzJg2PScuPr4Zt0VV5fbtW9vbhn0rMnnK1MhInQt+eXlpdVWV8WBwFmWQ39vbc/jQQeMCIgeO1FOmTJszb350dHRoWBgcrvATGBgQEGBY8ICSiCKPWPJdXV3DtTOafFjZIfR1ly8yEndde3tbVWUlgJeVlQ53GyCs+5y58+QUZO9p6eMXLloiD5GA09f+3H3KHKQRvWfq1Oki8/ixo52dHaoC8jA9fXxScgoOtdq+gwf2y3y7J1JSUucvXITfRCwv6e3p0f0aFBWWlZZa2BF+BXAd8bCEK4efmhrcQZVndLdtmWN+kS0cJ4uRAAmQAAm4IwHnSHAYsOGrjQCC8NVGCEIbwA2nv882NYivdj8/3WJNKB8bGh9lFUiZu++7H1//sh241c6aPeeSdZdufPP1QwcPyHy7JyA6b7/zm5mZWcqWsydMxCGIvfHay2aEo6ySM3P2FVddEx4eLnMSE8dNONfInt27Pvrg/b4+q68a2lx63vmyzddeecm+EnzRkqWXXX4V2q+rq/3j73+LaOvz5i+U3SUmJiFw+wUrV2/fuvnjjz6Q+crErbd/Q6jk/JN5JsOxb7jsClxHVIECG44ktO+93/9BUFCQsuXh0kC9b+/u4c7alo8b75rrbpCe3LKRWbPnIo3bYH/u3o8+eM9Y+i9esvTSy6+U5WVi4qTJ+MhDJDB9Ywk+e87cSy/TV4+Kjv7is0+UVZTp2+64KyJSt2YD7YyRBI+OjrntjjtTUtOU/eKREofQ0c88/WRnZ6fylCoNVpdefkVEhH5hiTg7PiNTJHDzf/H5Zzu2bYErkaoiD0mABEiABEjAQgLOkeAYXGGh2opm4YgtKQa7oyjW12eF3deSlkcsA2vZjx/6ierLW9SCKfTGm2/r7e09cfzYiO3YUAA22gd++N8wrJqsC9PsTbfcnpU94T/vbDRZQGReuPbitRddMlwBNLJk6bIFCxf/+Y+/t2qrFIgzpf7Gw8CRw8NakYfr3Xy+zziEltb9hIWFf+s7d6tUoziF8UOF9/T2fvXFZyLHqn9R3Xx5PO2ga/Oh9PAMA0t8Y2NDRXk5DKvmG7T2bEZm1nfvvs/MADAFXL75CxY98fjv6mprh7Q/wuQMZVtbWgwH51K5e/dICT5v3oLhJDjuUqG/US/vxPFzte35P1aZ3Hf/g8NF9oQB/uFHHn3mqSfLy03HLcUdsn7DZWYGhGdsFFi5avUvH33ETDGeIgESIAESIAEzBJwmwc2MaZSnEI5QSiXHr8WE+hH6G54MO7Zv6ejogBZcvOQ8KQhuvvWORx95aCxeZH/v3vul/oah7tCBA3htjn5h/ZV6FAIamcPFmFty3jKl/oYvQd6JE/BjiYiIgDcC3ssLbdcBT6DGBssv0yXrNpx/wQpZHvp7TF8FAIKYLwy9m7/6oqmpKSkpCVMLDQ0TY8Ac9+75uq21VQ7JLonMrOxvf/ceee/B3L5r546mpka8mpg3f8H6Sy8X9GCLffz3v4VfhF06VTVyy613SP2Nie/asU2ns33GJaekJCenwotGmOebm5vV+nvcuKLTpzFmfYM+PssvWCnSuGFOFwyJLGTy9QX2hT1TUS6s79ExMfBLMUl40WKDTwuGpxr/6A8DAgPv/f4D8tcN90Duvj1Y9oq3OsIFH11AQ99x17f/3y9+ZtwdfLfWrb9U5sNz5UDuPlxEOFClpqYmp6TK34IxepCWXTNBAiRAAiTg2QQ8UIIjKIq8Zt3dtjsuy0ZsSHzx+afSzgpTH7zA/+vBH+GLH01BHJy/fMXWLZtsaNZMFWhreB6LAnDX/r8//UEKoO3btsBJ4+prrhdnIYhNSnAo1MuvuFp2cezokddffUn5qIAtxDdsuHz23Hl4j2/5K/g1ay9euXqNbHas9bfsqLSk+Om//1U4LB09Mm7H9q0//O+fQGCJAhddvO7tt4bEYpcVbU5cdvmVUn+/9MKzUqLhSQa9YzHAPfc9gMbxhHbtdTfAD8fmjoarGBsbJw3MeAL88xO/lyVP5p1AGsPDu4iVqy984dln5CmZgHM+PuIQJaUEP3Uy79NPPpLFzCR2f70LPjCiANzHN335uXFh4a+PfPjTFxWdNi4wyhzc5+IXDe3k5R1/5cXn5T385RefYXh4CYBTuBMWLV6KJzFVd3BekhcRvzjw2JEFjh45hHRgYOAl6y+FEH/37bfkKSZIgARIgARIwFoCvtZWcPXyPj5JSRPEICG/8MLf8QOG3pL6W/QOn40P3v+PHInwJ5aHdkmsXrNWtvP03/8i9bfIhOY+dvSwSMMoCz8EWVgm1m24VBpQi04XvvKSQbuIMljG987bb8KEj/WOspb5xKrVa9Yo3Focpr8hQP/x1N+E/hYjhDX05Refk6PFMjuZtldCul/X1dZI/S0bxypAucQTLuAy344JLMOVrRUOtVuLfADZtXP7b371c7s7wIj2Dx7Ilcxh+JeDkQk85slBHj1yRObbK4GnRLmiFE8+L7/wnNTf6AJj2/jmG3I9Md5LGPcrh4dTxhcRmT09Pe+9+/bjj/1G2bJxO8whARIgARIgAfMEPE2Cx0SnwBFFzBnb1Pf395mfv93P4hv6Q4Xalu3jdbZUJ1isJvPtkggLx2t//dIx6L/6ujrjZjd9+YXMXLL0PJmWCaUuhNSW+TYn4Hxy8boNsrrD9Dd6xGJKYzs97OK4OmI8CFQiB2aXhAilIpqC94LJNltamkU+HnWkPd5kSdsyEatDVpw1Zw70qDx0TAI7zBefM2wjGAse9lT9LlhoePbbOQZeKHPnzZc9vvv2RuN7AGc/O2fRh0+OdNyStZTxUvAeQFrEZQEmSIAESIAESMAuBDxKgiMKSlJStuDS36+tr7dnzDsLcUudrSoPdYIwfCLTWJqoClt7OGPGTFnlwIFcmVYm4NELb12RgziDylNII46HDOIBbwSTIl5VxfwhHB7k4jyUdKT+RncDg6ZDVUjbsOZspEDzU7DqLO43Wd6k8sNZZRgZH1/7/+p1dLTD/1sMA49kP3v0VxesWAXHCTkwByS+3rVT9rJwkc7lQ/kzf4E+Rg1M1NLpRVlglOnZZ6O+iEaE741xg4UFho0CEpOSVQWOHNZ5m4if6TNyHv7pozNnzZFvh86d4f8kQAIkQAIkMFoCHuQL7uMzfrx+X0xQqaoqUO6aOVpO9qjf0toioqTBtAa7tZkA1db2FhMTI6s01A+7ULKzo0PobLkwUdZCzD6ZrlUFypAnLE7ADxghCGVxB+tv2a9xorlZr1BxKi4+AfHpjMvYlgP3Bvi6CKsq4l6bbASGYZEPHwaVp5DJ8jZkIlLeZVdcJSpi1QF8LfDBixGEUMTaUAhfG9q0qsrxY0fwBCI0KwS3cs0DrPIIhS5aG6NYhPJdBJ54o6LVz5nGE8FtXzL0lQUekxCSEiuYRWH41t9y2x2YUXlZae6+vQf276P/iTFG5pAACZAACdhAwHMkeGrKlODgcIEAO2i2tAwNuGYDG3tXUaqu5OSUgjaDNW6UXYWf80JBO83Nw7q/t7W1Yp8RlIENGBvZYNce2a/SN6a+brTolPobngljGv9ETsGSRKsiCkpiYqIdJTh6x0xhN0UCTuEIDgi/F+WQ0tLSxX40yLQqnqOykRHT8O5A4wi8LUOCoAo2aYJHPj4wPG/66ku5KmDE1mwoALUKCSsicENw45FPvnuZrwjTvmvHdhsaH7FKSKje9QXT/+GPHx6xfHx8gnEZeDFhDbFyDQOeKHBB8bnqmuuwOxVcWfBOybgic0iABEiABEjAcgL2fxtued92LJmQkBUVlSga7OpqrawqsGPj9mqqt6dXNoUwfzI9+oT0IUFTZvYcQUhy2ZfKEK70jWltG220vg/ee1d2hEjkyojgMt8pCWUoQBWB0Y8HFl/phoTg3Ai4IT2JIUm/e899sgus55NpuyeggLHg8qsvP29qVD+M4SUMth+SQUvs3rVoUOnkjc0pZS/SC6WludnyFb2yuiUJ5YOHJeXPhZJXl0XslD89/hh2TcKbDeU5aHEYyL//wA9NLjZVlmSaBEiABEiABMwT8AQreGxsWny8/tU/dtwsKTli1Xb35gHZ8WxEpEF2y7AMdmkfcYtlO3ACHs6TO/ScjRCFsWO5rIIEQn3Lw6io0a4Wxe4zsEdeuOYi0SaM4piviOkme3FKAqtWZb92jwoCs/eTf/kTorNDCEKrXX3t9fhgASh2a5JaHL0DDgLOyGGMRQIOJ9gZBx/Md+HCxTmzZiv3aoWbEG4S2HrHomu0CYd7uHOIyICIvbNz+zZk4q2L3KsyN3fvGHWNQIdShRcP9TAx2aPKC0VZBrcHwlbiA3R4kJg+Y6YM+omref2NtwQGBn29a4eyCtMkQAIkQAIkYDkBt5fgMTEpMgphXx8iDR8cGOi3fP6OLKl0F1E6pYx+DLU1NbIRKRRkjkxg20iRhrEWzrIyHwmliJcuy8oC1qah/zASuUX8zbfe/q9nOk4XOvnthPQVxnSwj4y1kxqxPPasgbzGDjiypHI1JJj/55234FIsz451ArfZpq++wAcm/5tuuU3u0IQR4iEBTiNjNIDjx46J4IDQr9grBy8fsH29fA7Z/bVhyaZ9B4BXQOJ9Dqb2j7//1S6Nw+ek8r138WIHm25+89t3Y4sf0eyy5RdQgtuFMBshARIgAe8k4N6OKNHRycnJk8SVg/4+fXq/46MQWn7fKKVtvcWhtS1pv7bWIMGlw7GqIgSQjMRnvCxPaRLGToqqurYdvvnGa1Jzo/dvfvt7SlusbW2OslZCot5bCYvqpI/yKNtUVse+m0J/QwLu27Mb3uEQ+vAe3rFt65tvvPrLnz/iSP2tHBiCpfzrmadkxEBcDmwuoyxg3zRWhcoG583TBQiff3ZDHCTq6mrt+/wpOxKNi0M8YCjfeCjL2JxGWPc/PPZredvExsZhTYXNrbEiCZAACZCAlxNwYwkO+3dKymRx/Xp7u11cf2M1nrSfwRdW6ZQ8+ltQuaxQbP5n3CbMkFIxnMo/qSqAHbylLscatezsCaoCth0++8+npbiHKrrn+w/ExOjWgzrlBx7zMlZJa0uLmTEofeuVxRDHRnlonL5g5SqRiY0h3974b2wP9Nf/ewIQPvzgPwf259r3ohv3PmIOdjyVZaRFXOYMl4AZe7hTw+XjbYD0ol6waDFuvMzMLFEYTybD1Rp9/oFcQ0TO1ReuHX2DqhZwBREaRWTiMSZtmNA3qlo8JAESIAESIAFjAu4qwWNjU6X9u6eno6jIVezfUG8IJGwMGptay8wTJ47JtMlET48+gDe23DFZQJUJuSPtzYiLJ+JyqMpIz2zkm7TFKiMiX3fjLVKvq9pBXAhVjplDGIP/9n9/am3V61346d7/gx/ZfR2k8QCw/7xxJrbqlJlVpsIRdnXq195FK4I8yiqXX3l1Vla2PDROYHZya3SrKBk3ZXPO+g2X4WFvuOrK9xvK+IzG5eGqJKOYp6amGRcYMefQwf2iDKpjU3oIVnFovCf8cE11dBhCKMaejeQzXEmZf+L4Ueldg0XAylCbsgwSMJAPtzUSfn2uvPra4c6iLmJZyqbwLC3TTJAACZAACZCAVQQ0cQn28TqwqleThbGqEvul4FRPT2drq4n9HWWtuLh06f/d2dlaUnLY6f7fcHoW8f4wSOw/D32jDFsGT+hp03Xh6vADcfP8s/9UBgQU+cp/MzKz4XiKHHgSox28u5dn4+LjTcY8KS8vPW/ZclFs1uy52AZI1oKY/t4935eL4fA+/ZOPPpANykRxcRG2A4StGjkQIkvPW4Z1dYhjKApAQqHZ79x9L3qBNqooL5MVRSJ7wkR8RBrOx1IJ4dJg3/LFS5eJdXL4F1sY7tnztd3jK4/PyJRO2JB9ySmpeSeOyWGsWLlaGWbulZeeh2+Gagp4dBHiGyvtYMeVoQMx5muvvwkRTmR5XETYueWhSKCvVReuFQDhpQCLON5IYCNSaEF8Zs2Zh9cLONvW3mb3uYsBINQJrs6iJUsRFfF04SllABz0e/7yFStXXSjH/NknH8uLKzOVidmz5wmrP5bnKmmgDDZymj59hvIOV1YUacQ8ETck7pyp06YLLHDL2bVzu3FhkzlYIiwt2RDT0O7ALkrCMA+vKrnXqayOAviZMFHvnIZLBqcX5R5AISEhCCx4/Q03z5kzDyNBYVkXCfym/NcPfoy7aPmKVX4aPyzWVBbAL+NNt9yekZEpquAifvzh+8rqTJMACZAACZCA5QR8puboPDUd/zNx4kIYDZX9Ila1PFS6dHd3t+uCnJz7QbGpU887dzTy/5WV+U1N1SOXG12Jb33nbtWbfa1WCxWC3XBS09ICAgyv8rdt2fSxKQWs7B8x7O6481syB3EeKsrLoQ/g5w0dAMcGuBfLszJx17e+KzUoMhGEBA4qiEwC+YK6ohgkxZ//+HvpHCLrigTs99iIRJkJU2h7W7t/QACiqUhDJhp5/LHfqOLK6SJPr71Y1H3k4R9j+sp2YuPiHvzRQ3IY2Czmz0/8wb5KFBLz0suvVHaKNHaLbG9rRYBq5bJI0ANDVUkcLlm6DBZQmY+FlXiMgQDFlZUjF2cx8p8+9CNZUiZgKZcPQjJTlQC9t/79GvxSVPmjPIRvN7ztlY3gtqmHf1FHB0Ky4AFMPAKJAgje8tSTf1EWNk7nzJx16+13yvzGhoaurk5c1pjYOOFShRZUsc9lYZH4yc9+jtArysx3Nr5puRUcFf/7oUfkky244ZZDpEU8JmFZBVyn4JmtbFymf/w/P8X9Jg/hvY37DQ9IeHxVvoFB8ERl9EyUN7588M5CR2gBih+x/OWvAAp/9ulHm7/6UvbCBAmQAAmQAAlYRcBpVvDExGzYvH19NfKjHLfMRAL5jY1n5FmIIVjB5eGIiYaGM319er+OEQvbXEBawaF7fHx88VUNsx9eZ0dHxwjTvmgZzrhwER6xF0QVhCFT7huCFiA7oAWFikKzJjcXxA6IsXHxwnyOLiC8IF/gyiIMkMiBCvnXP/5eUVE+3ABqa6prampmzpotpQZowyKuCqt34vgxuBmoRPZwVnDRV1dnZ0H+SYTDEy1DCcFUud+uwemUVnCMTcwag0cUFKX6hG376Sf/Aj1nDAFkMELpCA7mcOqA2hNNAQ6enWbkzERFVDe2giMfTvZRUVHyhYNxF8gBgRk5syBkjx87arKAbZmQyN093aAqLzduG1x93AORUVEyE41jmi88+4z59zAohjW+mAgM3mI8wSEh0NO4CeXDTGZmpvmQIHhsy1S47gDaa6+8KN9LWDLN/Pw8vEAQ9wz+RbQTvF4QMU9gz8b9IxdHKlvbt3cP7O7SiQtXH/cARo7bWBaD7xYkeN3QjWCLTp9GSeWiYXgWIQedojUxDNECQoZ/8tGHsjUmSIAESIAESMBaAk6T4HFxaUJejzhihDrBbpeyGGpZJcFraood4KYiJfjhQ4dee/XFnJxZ2I5bjhkJmJOxqd4H7xv2rFGeNU4jijakA1yKlV/8KAb7K3Se8XpKnILEgcTHBpDYDUcpOkXjqPLCc/88c6bCuC9lDoTmkcMHoVdgMlR1jfbxTv/ZZ57GG3yV/kYL5iU4CsAjHH4IcAsW3ekkkb9/QcEpZe+jSSsl+B9//1vY/qUBVTSL8WMt4EsvPGc8eNnvgf37oDshuWQOEnB4gNoDvYHBAVjKkYOmTEpwnMLzydYtm+HDUFpaAnO7uFg11VUaPz9oRymF4Zat8lZS9mhbuqy0dNeObZg1pDLicBs3AhPyqy+/8OnHH46ov0VdPNS1d7TDvi6HLdvEqkQ8kED3yxzjRG1dLVybZD6YQLnKQ0sS8Lk6eeI4niuE7FZWwfuNY8eOqsLbiwL4fYetHUsnU1JTlbJbnIVq//yzT1558TllKE9ZEd7kR48chgqHxFc+PIsCuO6Yxb/+8dT+3H0ih/+SAAmQAAmQgG0EnOaIYttw3agWjIVZWRMiIiOxAx8cQuBJYpX9T8wUjSDqAgQBXEEa8Ua8rg4aGjpgRA6w3mVkZsL0FxQUDLeTMxUVMuDJiHVFAbQAFxrhvtzfry0pKR5uxx8LGxzrYkpHlF//6lE4AcOEnz4+IyEhEe9aMPjy8rKeboveh8DwibnD7QeN5OUdb29rs9fgL1ixav2ll4vW4Ev9lz89bq+WVe1ANOO2wfRhisabjaqqM7h9LLlzVO3gEE0hmCNaw5NJS2tLTTV+qiwkibcKcjPO4RyojHs0zoExXryRaG9vx68BVtNaeFHwJAY3pLj4OG2fFjcAHgItfPzAGOBxjhA6IuyJjmBlxdiFUzSeMnNIgARIgAQ8mwAluGdfXy+anbEEd+Tksfu6cLpA7G3zft4/+/mvhEcyHop++egjjhyk4/uS7uAwwD/22185fgDskQRIgARIgARck4AuAgl/SIAERkkA9mZYfNHIlKnTzEtw6RphMrLNKIfhUtURe0QuxxxxCbJLjZyDIQESIAESIIGxJkAJPtaE2b5XEDiZd0K4iUN0QoubdHqGb/1td9wlY4fDO0iiOf+CFePHZ8pDCxPwStq6+SsLCzuyGFyAbrjpFkSxFJ0ifjbWNjhyAOyLBEiABEiABFycACW4i18gDs89CMitkTBceD8vO/+CkydPNDY29PX2YWEfQtrBqxgrVqFNxXzglv3px4bo7HPnzkcMHGunmpyc7GoSfMHCRdNnzMSrADlTxF//y5//aO3UWJ4ESIAESIAEPJsAJbhnX1/OzkEEsMgPUTLgES76Q2hIGR3SeATQ36++/CJiehifcvecK666Rpr5MRf4uz/xh8eMd0Fy92ly/CRAAiRAAiQwSgKU4KMEyOokoCeADXeamhpXrV4jDcDGaBAPEZH+ENBQtbERAmxPnDTFuLz5HOW+j+ZLOuwsIm2LsOiI/3Pk8CHsfUP97TD47IgESIAESMCNCDAiihtdLA7VHAHsYYmdKRvqIQJrEd7bvltvmut46DmE8EM0d8TSRmRDbAyE8PBdnR3N+GlqQmDEU6dO2hCbcmgPLn0ERxSE8YZbDnaPctYlcGlAHBwJkAAJkAAJnCVACc4bgQRIgARIgARIgARIgAQcSsDXob2xMxIgARIgARIgARIgARLwegKU4F5/CxAACZAACZAACZAACZCAYwlQgjuWN3sjARIgARIgARIgARLwegKU4F5/CxAACZAACZAACZAACZCAYwlQgjuWN3sjARIgARIgARIgARLwegKU4F5/CxAACZAACZAACZAACZCAYwlQgjuWN3sjARIgARIgARIgARLwegKU4F5/CxAACZAACZAACZAACZCAYwlQgjuWN3sjARIgARIgARIgARLwegKU4F5/CxAACZAACZAACZAACZCAYwlQgjuWN3sjARIgARIgARIgARLwegKU4F5/CxAACZAACZAACZAACZCAYwlQgjuWN3sjARJwEoG0tPQ1ay92UufslgRIwDkEVq1ek5GZ5Zy+2SsJmCWgiUtIMVuAJ0mABEjA7QlMmz7j29+9Z8LEScEhIafyT7r9fEY9gUnzEkPCA1obukfdEhsgAdclcPElG9ZcdMmChYtqa2pqa6pdd6AcmVcSoAT3ysvOSZOANxFYvOS8G2++zcfHB5NOSUndvOlLS2YfGR+85pbp5fmN2r4BS8q7URk/f9+bHlqcsyx18oKkilNNXe29bjR4DtXbCJx/1aSQiMD6M+02TPyOO7+p0fjhd3/W7DndPd1lpaU2NMIqJDBGBCjBxwgsmyUBLyLg44uvuWBfjb+Zz+CA1ilEYAC75robRNdarfavf/5je7tF3+XXPbgwfUrMvDUZUKg1pa1OGfwYdbrk0gmYGhoPDgs4uaeqvblnjDpisyQwSgJpk6PX3Dp94tyEzJy44mP1fT39VjV45MihRYuXaDQa1Jo8ZWpHR0dFeZlVLbAwCYwdAZ+pOQvGrnW2TAIk4A0EJq/+ccKUteZnemjjfe11p8yXsfvZ6TNybv/GN0WzQn/XWPYyOuf8VJjA5Xhggfvg6UMt9V0yx30TGj/fu59YBUM4ptBQ1f7yL79237moRj51YdJF38hRZYrD3i7t0z/aYvIUM12WgI+vz3d/vyIo1F+McGBgcNd7hbmfl1g14Ni4uAce/LG/f4Co9fqrLx0+dNCqFliYBMaIgAstx4QZzd8/CB8fHytGhVqhodFxcenx8RkxManh4bFWVR8jrGyWBLyKgK9fkAvONyk5+bY77hID6+/vh/3bQv2NKn3d/T1dBrN9XGrYN365bOllE8bpnFnc+2f+2gyhvzGNLf/Od+/JDB09ni58fX1MfgKC/YaW5ZEbENBofOoq2uRAcWXhlILfxJikUJk5YqKhvv7PT/yhr0/vbXXTLbdjZfaItViABBxAwCUcUeCnBQGdkTErNjYNHz+/wLa2BvOT9/XVQHaPH5+TkJAZFZUYFhYdGhoVHh4TGZkQFzfez8+/vaPJfAs8SwIeT8DH1y84MjUsflJ3a9WYTjZuwoqQmAzzXVSf+Li3c4Tfa/MtWHUWWuz+H/w4MDBQ1HrhuX+WlZZY3kJDZTuMba313QkZEYFn1Rv+TKVNis5ZlnZkWzmscZY35VIlIWKuvG+ur0Zn5miu69y20dHvJcaURlRCSPaseFwd+YE9R6wBGBwct+fjojHtnY3bnQCuY97uquNfV4ZGBsYmh4pLCaP47JXpXe19lruHdXV2lhQXwydNjDBn1qwd27cO4p7gDwk4lYDzDQMhIZFpadP8/fXflKABt1LzTIKCwjIzZ2k0+pdTqsL4LYU5HGVKS48ODFjnN6Zqiock4I4EZmz4dWhstl9QuK9G/+71yLs/aK0+7o5zsXnMV159bXh4uKh+6OABW6KgDI47sbsSn4xpscuvmQxDOFrDkk6t1o1XZ85ZNd4vQP8HduubY2sCT8yIuOiOGRBP/gGal36xywFuPAUHavBR3jMX35EzbUmyModptyPQ1tj9ybNHN72WhzUMsy5Iw7sOTKG7o8+qiRQXnd63Z/fCxUtQKyQk9Lobbn7jtZetaoGFScDuBJwpweFDkpw8CXZrq2YF+3d29jzxNIyK/f3azs6Wrq5WvGiG7IZFXJyCsp84cWFh4T6qcKvwsrAHEIhKmwv7t3IiWC6pPLR7uiz3pdpTQ8KMTF/3C7v3YnmD4RERixYvFeW7urre+vdrltc1Llma11D6/76GBF925aR9nxWPc1/bmc+4xRuyxQRbG7uxuM14snbMCY8Jik3WPbfgB+s+HSDBRV/81yMJwDFs61v52985NXd1Rnx6eH6u1REG333nrWkzcsLCdPfknLnzPv/048ZGx72X88iLwkmNksCQ7+lRtmVV9ehoOGpOssFvG5K6qrowJXkSumtoqKipKVK+TqqtLcrImB0UpHMUg2U9Nja1rq7MqoGxsF0IpMRN9dcY/INrm4u7elrs0jIbcUECnY2l+CgHNjjQP9a6X9mdKr1u/aUy57VXXsTzuTy0OYEVme896d6ruGaenyacagBh+9se5YJi82VlRfciMNA/uP+LEtvGPDAw8NIL/7rnvgdE9XUbLnv15Rdsa4q1SMAuBJwjwdPTZ0RExMkJ9PX1VFTkqdxR5FnjRFNjJdZEdXd3wP6tOqvV9pWWHpk8eYmwhcPETgmuQuSYw9su+ktQgN4Ahh4/2v147sl3RtN1QEhMbyf8+62zQGr8g/Hp7WwcTdfOresfHDmg7evv63TuMJzYu19QxLjBQW2PYVWW+cEEBAbOmTtflOnp6Sk4NbbuFuYH41Jnl10xUYyno7VX5bDhUuPkYEhgjAggLnhnZwccUdB+zsxZISEhnZ3e+6d1jCCzWcsJOEeCd3Q0CQkOA3ZtbXF9QwW+Yi0fNEo2NlYOV16r7YU0x+pMFAgICB6uGPNdikDWed/z9TM49zcU72ou3w/1mbHozsjkmUGRKcKk2tfVUr7/lcqj75kZvCYgJH3+LYlT1voFhktD7IC2p6XqWHnuKyqX6LD4iYnT1ilbqzr2vsqgqzzr6xeYdd53lDkVB17vaa9X5owyjTGnzLo6afr6gJBoDSKNnA0QhKDavR0NXa1V7TUnyw++0d+r/trIXHyXJlAfJcD45VLG4rs6Gk4rB1ae+6p8MolKmxebvUx5Fr+PRTv+PjiodnpOm3djYFi8smRdwebWqmPKHLukccUzF38zKn2en3+wIDBOh6Czvmh7xf7XutuG+PuqeszJmYm1mCLzCKOPnaMzbXGyDO62892Cc9nm/kfciamLkrHGMTw6sF872NnWU1fRXlvaWlXc0tttCBejbAL7GaVN1kUcx09WjsHOMmFOQuxZZ3pxCv+2N3bDw0ceikRCenj8+AikB7QDeXvMrSGeMDs+KCwAJVvru7B9kqodOx6io6yZ8dEJIf39INB7pqAJ3TXXqn8BTfaIxa/AnpQVGRkX7KPxgQEB71IQ4qOmpBXhIE1WGYvMwBC/WRekx6WEYRiI3d9Y3VFb1lZd0oK5jNgd6uLlSUxyaGRcCKzI2p5+3T1Q3lpd0treZNHWqlhKkTEjNio+BIsQsCqgsaq97kxbTSk+LTBpjzgAuxc4sD/3/OUr0CzsdLPmzN29a6fdu2CDJGAhAedIcAhorJjs7e2qrDwFxWzhWC0vJv2/YRS3vBZLOpFA6qwr9Urr7CAQxwMqc+blv4fkVY4Kojz7/Hujxy88/tEjynyZTp19TdbSbyubEqfQTnT6fHxaq08c++B/8E0i8gPDEpJnXCarI9HVfMaMBA8KT1SVb6vOU7lBK1uzNp00fUP2MjyNDJk1GoFvd2B4Ij5RqXNS51xXfeLDkt3PK03jqXOuVfl/K7uOSJqOjzIHTzh4zhE5WLipmhTy6wq3qLQ1hgChr2wE6fbaU6piqgLWHuL5YepFj8Rmn6+uqEMQljRtHT5nDr9dvOsf6gLnjqdNzzmXHIe4BzLt5Ynzr54sCGAdG9aYmqcRnxa+9rbpCWfVsLLk5LNvF2A6OfF11ba383s61UL8wv/P3nWAR3VcXfXee+8SEkI00bspBhtsbNwxbuCauMQttuMkTuzYSdxb/jhxi7txL2CMMb2LjoQQTR313jv/EbO6O3rvbdXuaiVG335w352ZOzPnbTlz3507y0dGJasoON9w4sIY/hJyWV69nIJj2ys7MwgVqkvBFBskrdilk4vDZXePZTLsfP58hmK1ASpjUgOwndTN04m3g9TjuDy28+yGT7K1P5ObtjRh/Dx1/kdmhGaHWPwtq3Nyj1byxk0uAyhMAasI2j2FLnBzR0zonUVjbdv697OKNRBxkO8FK1Ljx/Zri1ZYkLBxnj1dt/GTbBB6din/F2evzr46Cftx+aLQOG922dXRvXtN7sGNBecsm19o5/ZtjIJjGCkpqYKC83dHyBZGQOUrsnCv6A4bJQsLs8zBv2EcOQrZjJqb6yw/NdHjwBEA0Ryz7DU5E2WWfaMm4SXvJX7WfbHT7pLzb74mmOjEFR87OKkcxk1V/XzDqAnfM6sPzgvGTy9GcJ3c1Y49Vq252mSZzuD5Tpj9gKZZ0yzgJg8dtXT8dRo5KNXUIjRX51Npde5O+Jjpkgl+0ZMlGixgJBq0ghdcqhzANeY+9pp/K/Dv/jax0Bp12T/669RXcfHx7KKtrU3/RODq9sNRShwf7O6lopI7vz+tfYqhcT43PDFZzr+pFfhc6rSwu1+cI0/PjIwxev5VlSi4gY9sLaLmyH1BskSAa5k0R7cXk2xCYeTUMGRvlPBvsp86PfzWv06npwqkJ2HZA+mTFsVS/nXSk+Dl53L5PWOX3DWGNCYXPHycb3tmesLYIJ5/8714+rpc/dAEcHReyWRMDRPEmZSa2qJaeILPzU9NS5upfJvSF8RcuipNwr/5juAUn7ksESfv8EoLyLW1NXQ+bnRMrAV6FF0IBDQhMDhecE2jMYkeIS70IL6pyYwPKE0yWmFEGQFdxzPFTL6ttrCf6ys4+WK5K1fROFh18qKnsn74PUrbEdIA9sl1h6Bz6PEWmrLya755/p53ig994eTuzysht9SaZr8vYtYTZt0vMa7lMnfnv7WU6iziM4UjxKOxIsczuJ+bHIQ7f8+7vB3/uJn8JeSG8pyeblM+xRox7zF3f71+FBE8Ez5m2dkj30iGhEt3d9UmhMZGZR+qvMmw18C7zOaItBKZO3Rw1sV3jEYEBasPZ+3hzYW15z2d8J4GRHhGj/Rnezoba9vlHtCj24orihpZW6RDiUlVfV5OHihDfR7nk0oZLc4cqezu6mFZ58D/fv04m29CMvgxk+GPP7HP4MwYZEeTgNCRi29WE1NEj5w6VN7W1Okb7JY6LdzRuTe/ECIr5t6Q8tM7R+VGsOChRwEY4cn95fB2I4jFK8A1MNwzONoTixzWCkmv5c1NorGzt13xp6kuburovuKTtXB4tzZ2INonYoQfglJYRwXHpOFA0M+5dgSS2LAKOBMeufBLztR3tnf5hXrgbRCe6IPpoxR5uxUd+Vi6zLgygTXHv/CX48FLY3Wrs5sjemfvIvYewx2nahYTGhrqWV4UFxcXnF1vku3aFhu86Gg4ITDMKLhtQEBEcHAcu0ONjVX19RXD6W5dgHNBBHR3exMCMCRzd/bqfZBKf/BqJ8z+HV0yAcHTBRnv93R3IUlfcPJCvhRednh5awr2QtnV3tS74a/vz/E8BXf1jexTqP53842GJKHgCGgBf5XUNO4yNHUJvxJgRlrrihG83t3Z6u4f7+YbhcUD02PkFEbCNFgJuHipXINg85IxgCgjRQkpz0eBn6NLCOU5GyQU3M1PSoXBevkmva2Or5NoBnLpHTZG7v+uL8ksy16LFVHoqMs9g5N5+7FT7yw/vh7vEF7p6qqee2ODoOC92CAmGz5XhtLetbnawycQzA3vKasM6vnx33YzGf+qkhja2oydEzlxYez3bx6iIhL4zNzg0ETBD/5aiOBjqqZJQExCQXY1jtdBBdBHkHh5zDRcy0FRnsxC0YlaUHZN1ozU29pcxjmnt3198uCvBWRq949nrn10Eo6JgSYpPXjHt64N1a1UyoQxs9XfHl+/ckAd6XFCVbGXvi9PaW/pPHPEXL9Qc65NJv6NkI/v3jykHsb5USDM5qLrkxHWr5jdD75zNtauzp53n9xOSbgLc1ReLawx5lyXfGRLUXN9v5UVa4Vc7OQ+R6gJfwIU2weMCJnpVyQgTHzTZ8dVoFjwv95vhrBw1qGnp1ddXa0FOxddCQTUCAwHCo5jMl1cPJ2dXZ2dVadnYX7YkVlUpOxBUc9eSNaNABy9JUe/xRhjpqyKGHcdP9jeXXrcnzwSGhs397XUJtUAAEAASURBVH18E+PHlac2tTdVRE24iWthEz7makbBsbfPg6PgTudprkeA2oXDWrn69P6sMh852QHLJ3mAgkeQyk9JdhDqfeCzfrHXIKnYDIqtiic2PEfVmHDoi7tJM/2unyRx4cfW/KG+RMFdR00QT4IYGLqEgHAXnO9DYTZY5FCIjqqaqaNQJPtc0UtN/u7sdU+x7hBwP+aqNzyDRqh6x3+2dsEpixAXrtYgCK3vOB4oGwQFPw/N7GtUoMGdeWizjoc2vkG95JL9FeYovb3P2RzeXIRXXy0T/w+nO6PgsItYlM2rcyQdIMKY6B0ooKR04JdgnxQ+ARcvz79hHI8Rvn39wKrnZrIxgMXKU1V6+KrWMHCBS4gvGx7OJf3mtQMDH6omC/DTp81UUUzU+ewfGfKVTP6xqvf/tEOTBTq/CdnciX/zlcHFcdwSr+Fl5iNnGkU/N7bzbv5cemd5C2aV6+vUEapwhwsKbla0hXEtCAwHCn7+THvVIzM21dLSU1pSpmiBQxQZigDckw9c9ZVzX2g1NeczEkK5cOL988bfRaVMOHrm53V7X5Eo6TJ/99uMf0MDj6+EgkscxkFJ86khE7Bdj/dPFx9cHTl+OSVIQR3vsDTwVNRpqS3AEe7UHCHgkN0D1BpWxDzxTm79AlFa689SwwEKPd3SrcP2jm5YexRkfEATqS85cvir3w6wI8XmoPvN1XmSIBC/mClEwf1ip0kamjYKBZ57j4B4SRentrzKa/J3v5O29AVeE5JyqYSCw6dFFcQvK6DA/j+kNGGY7Ps5T+fWN/7Qb2za27MmV1PyE8LZtAK4Hby2jAImTQiWU/DUvigU+L/PHDW9F3nUdDV5/eXDY/LZNdW15x6twh5HFIXGessr4OkB46Cg6aNmhGftMNm3hLwvRQ3y2NAqBXjK+bdiK17Z2tTBAlH8QtwQ8S+POOIry2U41ylGPH1+9NnTtdqfvcgtmFXDfzPwi3azdiqMCwTkCNjJVUNO4+DQj39j/Dj0Jzl5mqtrL5cSf2ZFABTc2yPExclT8pJ06mDvJKmAS28PVeCEpDK7rC3aT/rONm2PsEFV5ZEq1fn9PDSIxIAjnAz2CrZ2rt69EaWgnrze3rk3ktjdP4ZXQnY87yl3clMFcbJS0HdJNaMvkVlF3hYLj2l3/Djq8ucR6a5zm6a8uUGaylMbJfWReYY0/jIKbtooFL+YqZJlVWdrXWdrLQ0AgtyR7+wVzFeA7OjoSBqddJNqDmOBXOCIKNi/IV/nTMG9EP/NqsEZfOfzs9MXRCNsQGdDE1Y4fVj1UQULRDZA3jJCnMMSVJ/B3sCYfuFUfEXj5YjEvt389e2KDmCYLj6pisdA2hB5T8e5hDPzbxx5zUMTEFwur2Y+Db9dded3p4zoKC+zirUClceey3k3plAskz7WTh4op2p4pnH7c7MQH2/bt8GAigZLwNMJ6trRUcofqEgIAgFzI6Dw9WHuLk1u/9SpDJxaj+PukQUcezE9PPzQhb29Y2zsuPz8wy0tIh7U5JBb3CAXxyzv26V/XDirMHbZG5KaFCpNehB3hFA390+K0puKG+dpe6s9Yaw+POhIiufo0o+CS+g7WTZCqCnMiO+/MZT6ReQ6XolzHqo7e7j48JfIJ2iEfZ1NynN+iZlyO1+Nj8ZBDAxfZPJcKHLA8Tgi/fp3+3Uqu7Czl/58Njep82xYz0++bOAWUsBHG9CXjRsBFXqmYUZN7MZjQ0Tg9cxlSXjBD4oNlIe3FGlipSac0qFNhfDjMoNpsyL4SOL4MeocHeaIQkGnFIOBKGd5yhc2KkISDBVbD7HVkp8++CtQonwp4Ym+1/9+EqKA4JA+urVInoqRb2sS2bMv9B/W4JI3wibCgZInh9KuXKQGxwsnOuUerTi0sVCnUxzPMbBAosTw2F2APb7Yu1meX5+1qyRnb6npI/gNmSQ9IkCj5mZj8DGkN1FXIKARgeFAwZFfnM0PKQhra0txOn1cXDo+Y/iLiRl7/PgO+QkjGvEQBUMQAUUKLt9PKZ8ZkoJDKTmzhgWr0LbLrrYG2qzp5heDFNq8nZb+HnS+yFAZuVkQ+46s5xob2tphQyReiH458vV92EWqsaZRBfA6Ywz88wT43YFtW0MZIuCx/OCtmjYKBZb5fllHuBH63ERHVx+MnMbWwGVBcT9/Bh4VXYACNsyxWYPxZKzTN3sm6BeOnkG+PD6nHsjolCXxeCHhCUydPtT/mZJJwUUwTFtLJ9tNiGAYnoIjroN1BUZrjhN53PpSN6IXpGWEA1jnzHxD3CUUHFzznSe2AUBseaTmiM9G7ApeGDmyuOz47pT5FjO0ERP33Tiyi7v8wVM7kbIQiQtpCshrybg4QnGwlshYn6flKQRC5KcsjsMbhpqD0CMVDF7zlqdg0+2u70/jlCIqtaTg5q7e8CDyJlkSedGXBIHhEIgimRIOri8pUe08BwsX4SgSfKznEketmWQwCEQxzg5j29i4yWcLgSl4ZGk7Y13JETLu7hcrSTbSXJNPpQMXcOrnqc0v6kzzh+FNWPERNmUOvEeJhYpTmySa3vgQGxt5ohLTRqGgCwmwkmFouUQoFF/Ke8Ev8ChPZH8LjlZFxiPfNgJReKC0y9irBxK596dceboPmF1y55gFK0ZqtzDA0hMZZcwCgmG8/Pv2XtvaUJSImdYARF71H7+tUlWgjSQkeMEZLCHB4OJYSKx6diY9oFAyMCAdjsBk7Ts7uo02hI2Y7/9xx8ZPj2NFxEduwCC82jh46KY/TdUeobRnbe5HT+/GMUZYUPHDABeHg3z5HybzATN8BXPL/I6RpsbBWQaYe47C/pBAYDh4weVANzZWkxJxKciOQpdCMC0CoNF//Z+Co+ix5b/wOzLX7nlxf843pu2arHU0q8IWSaOn0N2Xzw5uVHJ7o61v9CSyUJO3K6AvH7abX5SdvTrU2IQZCak7RINUndmOo2eCUy6RHAVPdSAgP0nctLsoWwhfNBAZxDpy/A28Bd/IidgUKw0EN3UuFPTY0aL+zPID0ClLkhIixS/+EJeGhuHhyoeG6LQ5PCqQCxxOWaTSM3RS8NGiFV4gwTiIB7G8SAhNRnA2jZu3szwZCFUYoABP/Jg5kcwINvaxgOaYkQEsZTj0OlO7GDcAPsUeaDS/OVWTQfkqhWpiJYOXja0NRj5yaiic4sRZQcRvfHLKJ8/uMS5QhLpQFBAHwjqi7hSr6VTinZO5vRgvBOeMmBiCJxIRSb4UnYKUkSufnfGfR7dq2XSBnaAbPs7GC28evIvixgRRTDkcZAtvHYUR8ucx6RySSSpERKjeWlhatLaqnqKbxLIwIhAwCIHhScG7u7vw0cInHFi4u1t0H4xB6IvKJkGAP2WGDGateaL32B2tf+1Nlay8raGkHwWPnEDtagoySO5Nk8L5XE2YkZC6gIAs4IX7P8bLxTM4MGleUOI8xXgMr9A0vpVJZMScYDWC0A6y5hmSAtkrJJU0EHCOj05XPV9fH7m9UeX1pMp4NHFw9R10qUnAQkhSVFpawn5ivby97ezsenoM8P5KTA3dS8SNhMWr7iMyciD4wei5gJVmrMvDC5sjL1mVRofOIOc32BhYmtGWtTSsrWhBvyw5IMgfo+AUhQKvqqaz67XY1KcIOQepWk1p05cv7aNL44VzNioubmODXOmX3q46+Qi/UIjrkKd8Mb6jvpZtLV2MfOMGgT2DkfeVGPk/LMCZjReWQJMXx+HgT2YIDw0ik3wR467TLmJOtnxxAi/4/q+8P53Oah03N8ryFNzPX5XYqrJCx2+EznmJCgKBgSDQ7xnuQAxZVVs8m2b8G6MCHbeqsYnBmByBXiYtO18deQZxro32F7E3yQmXnsG9vBN/YIFd7Y3gxOxSkrOvtb6E6c30LxKWFx349MDnqw59eY+c7vfuDe07qUcyAPnmB0kkt6Q+f1l1Zht/CXc7+LckGUtZ9jq+jgZZyszsHdVBpfImTZXSvA3nw4Rstd9BlMpNncg5Tsq4+ASSrUFAZAhOdgyJ0eoXsLVBvCyq8V5nQwdPLnA4I3Z+L8XWUGusPpKlIJv12VO17BLfsVEpKipjnEHtrY7tVn2+4DdlpwVRaHXOXumCTbspg0opaoKSORrUXHtlxM988rc9VCdmlDpYnJRyAUH5OMUGW1TpSEt5HV7TUKX27CqmTeQrGyQjqAYx3Nu/Ub+jEtODDbIAr////ryDljo4CoqebBhkx+jKkVHRRA9OnlTFrBptTTQUCAwEgeFJwd3cVBGQgKa9vWUgAIm21o8AGGd9aaZknNETb3H2UPh5CxqxICBhtqRyc1W/nWpEWMG/UbOzRcU5JPHKEuIusWnEJeI9Jt/6peQgT9hBzpb8ve/JDbIU5nI9DZiK/KKnkAwB0fMSVk2lZbIDL+Nn3kulvYJ+USj8FknWPGTk4n52+l/gFExaEVHJqCXPSUK9UYSRR01YIVkOURMImUfV4ftzLprHFw2iDGck9vbd8PhknHx+/WOTbv3rdMUgAaTRWPm3mdc9OhHVEKiw/A9TjCAooDXkq8YR6O0tpnRDnOI2Ykal9Kaf0vTHr4udXHpDgwz64xOewFuMKHDaHnp4S6FBpgyqnI9ch+f/cIOI9BtkQXtlxGZQqnUvf23rUmYHwfd3vTDnyvvHL7pt1G3PzFh4yyjt9lHKZ0WkxZjOVvpXyMkopcr0sIU0OgU8k0FqFFYNbJh2LOhsaJIKF82dT3b47wpSCkEgYDEEhiQF9/MLT06e7ump7IDBb3Z4eDIhKM6oJyiGsVCa+YNkdvChpt/wftjoZQirwN5KnG2OHNtTbvsqae6jyfOfkBC4pqrTkubskqUSb5PFSLDSlpp+xF3Rgv5KuN5TFv4Zju3Eix6ecOMHYaOv9AhMwJsZjBMZCUE65aZa65SP/GipLZJUximS4679T9TEm6Mm3jTqsn9MXfVNysI/SeqwS9B9HNPDF7n3PzFHzygUuPB5I5ADE2anLv4bwtxxCmb68vflM6rK3S5pgjQp2HiKlQkWP/DH+0Smx834zdRV32IiaUtf0riKKC2pqlKFGMUnJPJH1kvsW/Jy3g0pfIY7eFhBsuUDWHRbGgXLohT0a9bVSfJq2jWzr1alFIQLnHdYam9FpTOXJWphRbxvvrEvgzi15YXqkia6NCIxNgJRkJiFWUCCvFEzI5iMdBykJ/uahNZmVbpAhGQg/FpTNV5/dJv60QoCbzQtgXA3kaScb0gyHM/IBKKpFMyeRtLVoTtKaum946k+usDZ74jJpr4UBZw5j1vPivxD3RHHr1gNuQv59IV8HcT6U15IXs9k/u3RXK9CmK+GdOlzb0hBukZeycs+we502VirykNPGvMJTs7OKSNVnzuckVmQn2e+voRlgYBOBBx01rC2Cjh2x8+vNxdEVNQoHIFZXp7bwyWNdnZ2A/92dHRmw25tbWxrU/8MWNtcxHhMhQDYW3PVaff+p8qDosVNvxsvaS+2dmmXv5Dx4XIKaG6pyZfWOX/NOC6iHZAKUF6BTo6UFxmqQZKT0Ve8RIHmSGEeN/0e7UbO9y4N9mBN6ooP+EZNkDTHqoNfePhGTXL1iVAM5KjO2x2UNE/SnC71i0KxqSs+KIkgx+zQKV7MVOiopYh3J7MQcrf/CztfJcQae1JTFv2Fr8ZkPKnAKuLY2j/Ki6D5+ae1K26+FQJ8bJctvfKLzz9VrGZJpdxhHJms4EIO7zt3hsYWmxZo0FHeHr4udMD7qYPliB4hU/oISHUC+pW+IAZns//6cTafbg/xfYjcxaY6skNBKaThBRzDTntyED2ck1HG71xEZAVKtYcRZ+08O+PKRNhEAAaRxey+ABW+L01yaW69Td97GdnNN32mDlJCoDncseSQJgslZ+pKc+sQCwSNs6sDzqL/4d+Hy/LUe/qxDXH+ipGhcd5wBv/8fhY1ZALytyCXH4j7+HlRGz85DjbMV+gtfbA3Zy5T6jy3EnydwqbJDmI/JGapiAnYSLpvfT5FbCMnN9YVCDqnfZPIvTjn2uSk9GBsukXqG0m2HFB2lvFm8qWx697LkoTd47xVGKQeARfJTMDaA097cD5o2sxwDGPPmjOURh0VMKOLb0mldSYiW7Qv5CTGB3h5yaVLCPxf1q8boDXRXCAwQAQGjYInJEx0cFAnl8A0cJgOm4y3V6BH8jSaGDh0fv5RuuzsVO++AhfHC5qW1gZUcHZyQ1JwqglqXlSkcLwwVRDCcEIAbGziTR9TMkHtU0Oq74TZD5zc9AKrhmhv0HH5OS/s8MvWuiJFay01JnsanjTvMT1HTiM58evfSZYIyGESMe56TZHiVDlh9oOZ3z9MlyQgL4pGCq5fFApMFR34DI8d5JBSLxge3PxNlernD8htkrPhuZGX/JXqaBfA5uEgr87bJa+WlXmkoaHey6s35Hp8+sRdO7YXFyvfRHlbM2n6nJJq8300TK2BRM5L0ipWo1K5MOsqtdd865cn5RW0aECLwb9ZBfB4HI0Jkgom3drU6ehkHxjpSaEgqAOeiuzRWqyh6Pje0pFTeik74nBW/m0G9uQxNuYb7AYqBub31iNbtGwWzNxRzCg4LFAiDoN27yF3ODaMsrajZ0VgQ2dVcWN7W5dfMDbqO4OY8qSc5rLmv0cxWub/hisXB+vgVJrasmYnVwcsBsDLWU34iRHnIzlqZ9n941lDTBBO9EUrR8FP3FjT2tHejbbs4HrqaNOn6iUBKXUKBIWWmrt+OJ08MYTyOWLuIMQYCdBw83DE7WBtEfi0aGXamv+oY7dwiy+9XbXV2zfYffkTkxlLbqxrs7Wx9Q9zZwfXs+Z4e+xHdvD+f3gIw6YJsotlAF4g+nhwgdWOq6cTtmMSCUa7vWtN+Syx/0CkV8HBIVOnzWDalpbmgwf2SWuIa4GAZREYtEAUOKrBufkXP3Fe79h/F1dVVWFJyUn+hwqmwNrx4vk3eHlu7iGer/P2hWxuBNbtfXn9vtdVr4zXjp4xu7+ho6XmwGcr5SHIijNtLM8p3P8JXySPn0Ypi/ZuqSngazIZlJ2c6PJSQzWZ3z9SmvW9fFOpoh0kMs/64feKo2L1ERx/YsOzOq15h6XxyU+oL5wDr2lqekahwNS5nq68Xf8hm4pC+JirJfqa/N1YSknStEvq0CUSONYVH6JLifC/d98mzS0r72BpCkljeYF3o7LeS86oHas0nspi6VO74hOqrQhUR4sAvpg4PohVOHOkkk+xp6UVFYFN4hwcPo81vqcReYLIcjh9ef6NbH3f/99haqhJkPjRYQoxDHiBnqIJDE5fmqCpLfSIYpec3gImZ9CkQP54kg3yigN3IpP8WK6V5EnKER3o4uNndvMOcriikY8PcUHEvzE8+LDlQRTfvnGQT2UIuom9pPCpY3nD82+A/Osn2TrXMBgDbQ8loHIzK0nWKJyz+eiZ3bwDm40E7mfi32iLbZF8YDc0WBd9+/pB/uEJVhSImwJoQIDn33hC8vWrByQedFjY/u2p7D0l/MBA9BGJhM27eAPw/BspVnrP97HIH5Ij3brqTurqf++9zbMI0gtBIGBJBOwDgtRPFS3ZcUBABE6V16dH0GicecnXhF+8trYEnyjG1PkiyF1dHVVVRcXFxyFIisSlxRAorz1dXJnV9zrWresUnt7I4P7uvrJja4hP29o7Roy9RjL4wv0fSTQ4MLI083t7Jzc3v2g+gTdfDalFcjY8m7/nXbbVkop6AzNkh90U7vsAp2OCj4aPlZJFhImXZH5HzQconDvXXVu4D5zSIzDeBWd29oeCjIObFh345Pi6PyvmYaRqEBC/jnN2fMLHKZJsVGgoO5bzy7OKgSgo9QxKRpgKb5DJhfs+RLC4XK+oaao4CcoeEDdD0cEPYCtO/tpUIc1I0FZ/tvLkr86eIbgd8r2YrKOmypNYtJTnrAfRV+waysbGRnt7h9i4OMjOzs4JCYn79+3VVNkCerDb1GnhFNQLigOiIz85BYEZqEZkFwzvu38d4p/jax8qAnDhq2Z1cC4M5Z3Q3oovLc2rxz5I+GvdfZwdHBW+ohFMsvbtozu/Oy3nXrwdJsP3D2tuns4gvpJSuGORHmT/+nywZElRv8tzNhRXAz0CG+B971dB10VFYSOIO/gfc07z1RGtfmxXifwBBepgVJk7zoJww2sr9zo31LT9/F4mHjLg+QBvEDKWDcgCiaVUcJQXbre8Lcg3YmlAXuWrMokpdlmWX49QeGKueIds/VL6qVFsiLdN5s6zGA+IL1vz8NVA7vf9nId1VE1pM6+HjEN5Dm4sxBMZeMExBeqaquF9hTSReBsgLp+UJKBfLP9OHazAigVZC+Wwg/uWnK77+rUD2Xv6/bKTBXMIK2+/KzxC9Z22c8e2fXv3mKMXYVMgYBACtsmjJhjUwNoq49vB2dkdIeAYGPIPdna2iRQo1naPBmU8vlETkZcQQdUIJgbbbqw42VSRg3/laTcGZXjaO0UuF4/AJLxcfcJ7ujuRrhuR7uCd7U2qXA3am/OlMOIZNMI9IK43nYutHaLem6vz8BCgs1WHb9XJPWDSTR9TeDpsYimy+50rtLBevl+SkX0Fge690wlIwOZSZHIEyW4oO47pUB1FAUEsAfEzXX0icRMd3XzbG8oaK06A02MKerrJYfY39z4QFR3D7IOCf/XF54p9WUYJNhY/Nsg/zAPM78yRCk3EGvw7YVwwAj/gZTxztELLGeCSYWMP3N0vzmGECYwfFF9SwdBLDBiEHikUXT0cq0ubEcJRW9mi/3j47sDkAsI9AyM83LycQYiRcruqpEkTAnxDyJfdPRbnukMAa3/r4S28c1pSU8slm0tQpBd80g21bRgDPMSIo9DShBUhshnrBwSueAW4Nte1gxBj5BRUrbM5nkvgAQJIMHJ1w6PfGwbDpR7X2ZxVgO85YWxQz7lz9RUtxX1JIfVsy6rBAY8YEjizsWZoqm0ry2/QH0a0xRTQFguPyqJGvHv55yQ6h4Fbj7cQ28GJtnD8G/QcQ6d9fSpgQ8j0GbNYzZKSs2+8+pJwgeuDm6hjbgSGPAU3N0DCvkBAJwLYQQh+qbOapAK4tU4aKmlisUv4rcde9bpke2vxodV4emCxMZikI8Sf/O6hRwODgpm1fRl7vv5ytUksW6GRectTcJAkG9gHT+3E6TZWOEhDhwQKe8c/Z7F1BeIWcM6ioRZE/QscAZ5/11RXv/ziP7q6ND49u8CxEtO3MAKqbSUW7lV0JxAYTgi4+UaPvvIVI2Z05Jv74ZA2oqFZmyAHYvLCP1NydNbX+RiYT83arzmM47D61199+aFHH/f19YX9iZOmICjl048/NEdfg26TQlCQqGR48G88ELjqwQmMf8NtueO704MOshjA0ELgqmuuw6eejRlbtF979UXBv4fWHRzeoxUUfHjfXzE7q0bAzl6VPdMaRhmcfDHSqGM5cf5YSumIEHlPp4RKy6z7urOz4+UX/n73b+4Lj4jESJNGpIDSDcvH0J//MwMJ46YsjjPHmeeWv8nwf1/3+0mISmdd40RMfo+g5ccjehyKCIxMVZ1kVFFe9uYbr3a0KwSvD8V5iTEPDwQEBR8e91HMQiAwUAR8ItLd/Xs3L8r/sPGx6MDQc4HTRDo7O998/ZWbblmZkJj46kvPD0v+zSaLHHx40cSHooCNg2PmRMalBbDM3Kp5naxZ/2HWUJyOGPPgIvDqyy88/OgTRYUF77/7354e3QchDe5oRe8XGgKCgl9od1zMVyCgjAAC0wMTL5KXIfH2qc0vyfVDSwPa/eH/3kUaJfEzbOU3Dls/JZkKi0/WIn+IcdtArXyyYnjmRqCxoeHpp54Un3pz4yzsG4eAoODG4SZaCQTUCCBB4fmzKlUn3qkLdEmdbYalV9Nlb0DlTZWnJO2RwPHUlpeRLVGiH7qX4pfY+u8dMuLRYTpIiY3Tc3DKjODf1n/jrHaE4lNvtbdGDExQcPEeEAgMFAHkLz/0xd0DtTLY7dlBlcg52FJbVH/2cE3BXhwyP9iDEv1fiAgglTg2YiJruOTgyQsRCzFngYBAYPgiIJISDt97K2YmEBAICAQEAgIBgYBAQCBglQgM2gH1VomGGJRAQCAgEBAICAQEAgIBgYBAwOwICApudohFBwIBgYBAQCAgEBAICAQEAgIBHgFBwXk0hCwQEAgIBAQCAgGBgEBAICAQMDsCgoKbHWLRgUBAICAQEAgIBAQCAgGBgECAR0BQcB4NIQsEBAICAYGAQEAgIBAQCAgEzI6AoOBmh1h0IBAQCAgEBAICAYGAQEAgIBDgERAUnEdDyAIBgYBAQCAgEBAICAQEAgIBsyMgKLjZIRYdCAQEAgIBgYBAQCAgEBAICAR4BAQF59EQskBAICAQEAgIBAQCAgGBgEDA7AgICm52iEUHAgGBgEBAICAQEAgIBAQCAgEeAUHBeTSELBAQCAgEBAICAYGAQEAgIBAwOwKCgpsdYtGBQEAgIBAQCAgEBAICAYGAQIBHQFBwHg0hCwQEAgIBgYBAQCAgEBAICATMjoCg4GaHWHQgEBAICAQEAgIBgYBAQCAgEOAREBScR0PIAgGBgDICTs7O3t4+ymVCa/UIBAQGWv0YxQAFAgIBgcCFhYDDhTVdc87W1dU1KDjEzs4uL/eMOfuxXtuOjk5BQUEurq5nTp8arFF6enm5ubqVl5cN1gCGZb9Lr7xqytTptra2NdXVr7/6Yltb27Cc5rCcVHxC4s23rnJ2du7s7Pji888yjx4eltMUkxIICAQEAkMOAUHBTXPLblt154jkFNgCO/nLn54wyOi11y8fOy5dscmpkyfef/e/ikXWprxo7vyFlyxmo3ry8Ue6u7stPMJJk6cuu/pa1ukzf/lTc3OThQcwkO7Gjht/7fU3Klpoa2t9+qk/KhZZRunm5j512gzWl5+//8zZF21Yv84yXYteBo7AZZdfAf4NO1ghL7lsqaDgA4dUWBAICAQEAiZBwIoouL29g51d73i6ujrOnesxcHq2gYGRdXUVnZ2D45+zt7c3cMDq6s7OLvCdq685CT5d7sqqRXsH9XsJ7lLLj9XJyYk6tbNXxpMqWJvg4IA3v/KYXVxcB3e07h7u/AB8fX35SyFbOQLuHp40Qle3QX4v0UiEIBAQCAgEBAJq2jSIWICxBQREBQXFsDHU1paVlJwwaDxeXv5BQbF4NTfXFRRkGs7gDerNxJVbmpu7urp4oyBk/KWQhz0C7e0dkvcAFnWDspKRQ11ZUVFbW0vMe+vmTfI6QmO1COzetePihZew4R08sN9qxykGJhAQCAgELjQEBp/qubl5R0SkODr2Piplf3aGe5TB4FlbJyfXocW/Meyvv1qNl2ry5/974smnvH3E1jceEovKERGR11y/3MvLG571l57/e01Ntbm7R3iAJEIA4Unj0yeau1897b/4z2cnTp7i5+u3c8f2+vo6PVuJataAwKZff8HejPHpE44eOWzhTRqW/xxZA+BiDAIBgYBAQE8EBpOCI/IkNDTR2ztIz7Fqqubs7O7qqnrYWlVVpKma0AsE9ETAx9cvODiEVXZ3d7cABddzYINVDZH9e3btHKzeRb8DRKAgPw+vARoxorn4HBkBmmgiEBAIXDgIDBoF9/UNAf+2tVWOfzXoBgQGqlzg586dq6sTqTAMAk9UFggIBAQCAgGBgEBAICAQsDQCJmDARgw5MjI1LGwE8e/Ozva8vMP41whTcKWTHx38u6fH0ok4jBizaCIQEAgIBAQCAgGBgEBAIHAhIzA4XvDm5lovrwDgDr91RUVeVXUxJONug59fGDWshh2r+QsKCk5NS0sakeLk6FhdXV1YmL975w7LpOrzDwiYPHlqYFCwh4dHZ2dnYUF+fl5eXn5uuyHpnBMx9JGpAQGBiEpvamoqPYu/IiRJhGw0xqPSRru6urHmpSVni4vNGzWEHCMxsXHJySnBIaHI2o5k4adOnjx65JDi+P39A+LiE1hRcspIqpOaNjokVP0eg76urhY4UAUmjBk7zsnJubq6KvfMaeSxmThxcuqotPr6+uPZxw7sz+jp6cH2SqStRPJBHHCDkezcvs06k5cjdR0GKZmd5PLggX3a38mRkVGYvp9/gJe3t5ura3t7e1kp3kHFhw8d0JJTfGTqKHd3D/RVVVWpJbk+dqlOmDiZDQnvbUUYjRuAZJr4CIwYkYI8jNgSgD90VFpSglkUFxVqnz5vx9DPkYuLS9rosbyFnJzsxoYGpoE1vNMCA4PcPTzwccZoNmz4uaG+nq8POX3CRDs75RxNeP/jdkjq85eOjo4sRyp7M6MIWSlHpqamjByF833qsFm+tGT79q1NjY18K5IH+DkiO0IQCAgEBALDHoHBoeA1NSV+fuEdHa0lJSeRgnAAKNv6+0ew5q2tDe3tLQMwZbKmIDH33Ht/WFg4WQyPiBw9ZuyiS5Z89cVnhw8dJL3JBfxY3nzbqpiYWN4yY5ZY7Xz+6UdHDisTUL7+qLQxOIrF01Odyyw42Cb+PD2Fkb17dq398Qcc88E30UeGTUovjfqffvyhWSk4aDROJOEz/UVFx0ycNGXORXPf+e+/W1qkb5Urr7omITFJPpE5F82TKIsKCyQUHIHjN9x4M6pVVpRv27rlqmuuY01w30ErJ0+d9vZb/3r40SfAR5k+OiYWWy1fefGfYDkS44N+6eXlRePXNJjy8tLCggLFUmQ3B0fEekNSGhkVjb2ll1+xbMMv67Zs2og3kqQCLpevuIXlAuroaP/zk4/LKzANVjI0wi2bN/780xq+5kAGQHZGjxm35PKl2I9LGgh4/7BLvPk3/LJ+x7YtWFnxFSSycZ+j2XPmXTRvPm/q+2+/RlYTrOvuuPMeHP7FF+ENlpl5RE7Br772Bk3pdBAUXlFRzhuRyJOmTL3s8iuhrKyswF5kybZgvNWB/6w5c7dv3fzT2h8lbXE5kM+R3JrQCAQEAgKBYYzA4ASiANDTp/cVFmYNjH/bIBehvb0juz1WshET3rJHH/8Dz7/p3QN6cf3ym8DJSGNaAe7VRx9/UsK/qQv8JIMmXrHsatIoCvMWLFxx8608/+arwQhOSXzq6WfhHef1OuUll13B828sBjR5o3Wa0qfCggWLbl15B8+/qVVYeASd4ENKCJooC1+HyXDoSpS2dqo86HjyQOyQ6iAvxJ/+8jfi30yPN8Otq+6gOkNLoBAy+bDB4OX8m6rhjixctHjxZUtJwwvZxzLZJZ4nYJXCF/EyljR0uXPHNpKZMJABMAvgl8tX3Czh33wvWGNfuviyPz71NK+UyEZ/juQp9QODgvAM53cPPSrh36zHgTyVkoyZXdraqN7MHh6et995j2JaHnxYgBLmKLcwkM+R3JrQCAQEAgKBYYzA4HjBTQUo5SLs7u5qaDB75jh9hg2SwX68QdR2bN/S3NwM3+rkKdMo1TdcfU/98XH9H2Tr0ymrc/dv78dPNZPhqDt88CAem6NfeK3IvwsCDWXGnt2KZqdMm77g4kVU1NLSfDw7G8/6QWsiIqPwEJyR2uamJoOShCy6ZPGMWbPJLPi3WR8FoCN48vAvQM7Yu/tEzvHW1la4ZrEGYPwA7kkPT0/Jk/Q9u3chNIYNEoErSSOSmYylQn1dvzR8Op8kwCu5aeOGhob6m25ZyXpkdx+m9mXsxZsBATkwjnAC6CXpwFmng/gvbvq+jD3yAWDRFRsXL9dLNHt278SbDW8/RD+dOXMKOcUREQESOWHCJF8/P1Z5xszZhw8ekD8D2b51C9zPrM606TMVk3gAz6Qk1a3BMweK0KBhDGQAMILYrUsuXULW8vJyD+7fV1tbgwCq8PDw0LBw+hRkH8uiahJhIJ+j7GyVWazVGecG8ivvuJuF6KAj3KCqykpyyTc1KQSEAAT6wkGTkJBQPIWQDFLnJb5M2PcGPj6bN25AbviQkBBMjUaC7wp8viS3wISfI50jFBUEAgIBgcCQRmAIU3A+F+H5KHDVo21EhwcGxuCuVFTkInBxUG7Phl9+3rhhPesa0cCIAn/goUfgPIMGP42gIFu3bDLtwMCt6fAUOMZee+UF+mncvm0LKOmyq1SHt4MQK1Jw/LJevnQZjSor8+hnn3zILxWcXVwWL758zLjx/33rX9ofwZMRCPMXLJwzV/1g3QL8m/WOiNV33n6LeDb4XEdHB0WVwDOdczybHyefmRscnSg4eGFRUSFfU7sM5v3iC3/vOB9uW1Ndjbh8Vp/eEo2NjYyCQ48HF9YWiwK+9fWX/bLUs/GDEepDwUFMX3z+OXBECUr4OCy5/Aq885l++sxZqz/7RFIHOINfIpgKegQfS0rZJdaT5GXftXOHvM5ABgBrcPqSHxcfnLU/fk9dsMTtOOx90aVLQMS//fpLKuKFAX6OEOHDgnxc3dwYBUdfbEj40KFTLJCwTvjjU8+wTrEe5ntnMmJXeGX6hElGUHBmAR+ct/7vDRY4lHnUZsf2rQ///g8YACvFoT+Sd4upPkf8+IUsEBAICASGJQKDFogycDQpFyFMIbicDOJ0HgcHR7wcHV1IaUkBv1LEv1m/2F724w/f0RgQF06yqYS58xeQqbf+73Xi30wJzp2VeYTJoDj4SabKJFyyeAlFbmBP4ccfvs/zb1TD9q9vvv4CLnz9WeNFc+fP59zqFuPf8I++/upLxL/ZHPdn7KXJws9NsmmFf7/5GuPfMNvcrKJHePJAbwk+ctfNvZduDqc/0EQ5/2YTXPPDd7SFAOFAirOm4xuxXqXdsXxNCmcCKdy/T31Dqc4AB0BLJhhU9HNjLyMI7ov/fE7y6aABmPxzREuCN19/RfKAAiBoGgaNZyACHuX9599vMv7N7GCF9tEH75FNbFclWQgCAYGAQEAgYBACQ5WC87kIGxoqu7s7adp2doPp2scvNKgGDYYEPM6mXzIfX1/Sm0RAWAWFroJ9KnKgTb9uoL6mcNG0pITrl2RQbZKNFhB8svCSxdTcYvwbPb73zn/lfno+eIYidmh4phLAUcgUBZnAAU9KoqHQ0JqHSoe3UF2l2n7q46P8Edi5fSshQGybNCCjFFKVm3sG2X6oSE9B5wD4baYzZ80h+qunfVQz+eeIdf3Lzz9RoBQNxqz8G728/67C5wh+ccqpgsQsNBghCAQEAgIBgYBBCAxVCs7nIpRsxAQ7NwgC01Ymni0xCzaGNHxMyR61SyoM5DI1NY2aHzy4n2RegCOW8sEhzyBfBBnRusiGxpT4pVck8ZIm2i/Bn7AFk+pYkn+j067uLuqaBDkppyIzCarQKDNZH4Jmae+gfNMhmw0CjoklIyemZIrIckNRKDxZl1TTcqlzADjFnZoj9uaJJ59CikD9V0om/xyxweCTi90FNLD29g48AcBr29bNpDSH0HNOOeXL6VMnWXe4HXzQuTnGIGwKBAQCAoHhisBgstUBYIpchJGsOTIbtrb225BEP9IDsG+WpvUN9ez5O1xr8u2AA+nSr2+jG4xUV2ncltrS3Mx4Nm2ook7pPHZoKioqSG+cgNx/SEFIbS3Mv6lfIQwWAvgMYg2GSBJvb288oXF1c2VJVPT5bO7duxv5RjBycDuEQfP5H7Hhgc0IC1pssdAyO6MHgGcU2L+LiHNmHHlsbrzpFizekIly/74MnQnRTfs5ognu3b2TZAgY5FdffM5rLCwjNT71GBAYhH0XdCkEgYBAQCAgENATgSFJwc/nIlSNvLJSulWO0hTqCYHFqvHx2aGhYacaT5iqa08ugXFdXY0ms42NDThnBKUgKIiU55/j87ExVZUDpeA8/8YZK+bOf6JpvkJveQSwWxGJL8eMHa+/51gySCSeZxQcevB4ouAwSFEo2Cus6XHTwAeA6AvsIeb3MKBrJEnEC0mvMZ7169bimZJk2OzStJ8j6mLrFvN6u6kjPYWGvqOCUD84OFhQcD1xE9UEAgIBgQCPwJCk4JSL8Ny5nvp6KV/UdCwcP+1BkTva1QHBSPNnwjFQDAlsyg+doY74iGQ4wnlXFh8b09CoOoqPGhoq/Pj9t5ctvZK1QhoNECmcLWKoEVF/yCHg5ub2u4d/T9sSMH64q7HyxNqPhchTRj8tU8OuX7icWQYPeKPxyIixbT4KRVMAhkkGgLH9umF95tEj2MyAwG5+2wC4OIaEbDlfrv6Udo7yczHt54hZxvSRKIbvZdBl2nCMkcgfqQ368MQABAICAYHAkEBg6FFwBwcnV1dPBi6ebicmSpN7ODo6s9LAwGgfn97D5Orqyioq8plyEP/18lbTbopJNcl4kLeY7IAAaYrkdufyb0jSCfOpzTRtlaMudApwZCLXx7z5F7OacIpjviynm862osLQRWDZ1dcR/0b48rdffyHJoY6jXsiTrWWau3Zuv+58Hms8rgHlZekjkU+dNUGeGfnGRFZkqgHAGo6jR7o9vHDMVvrESSNT0yjpJ1YFOIPT2dlFvrA07edIC0SDW4Td3zQAAEWyEAQCAgGBgEBAfwSG3nZMycl8INySFz95VuTmpv7B4EstLPPhInxQysCHUVFeTkaIKJCGBBx3x2T41ShZB9PwJN7Qky/JPi9sWL8OgbOkwXGD8QmJdCmE4YcAQpso3zmCp9947SUJ/9Z/ymhIe2fxCAUN4X6GB51Z4JNL8jZNOADeLGJO8FTnn889/erLzyOnOxUhtTnJJJj8c0SWrUpAPnsaz9niIpKFIBAQCAgEBAL6IzD0KLiNjcF5Js4Z3EJ/AA2oyVPbqmpVdjYD2muuWlGhpuAhoWGKFeG6owxi8ufavCsrNEzZgqJZLcovPv/0zOlTrAJ6X3XH3XAoaqkvioY0AkFBwTR+bACgxCak1F8A/6aDk1jsCqJQwMKZhR2yQ+mZ3oQDUBwqkmS/8M9nKa2Qv3+AfHepOT5HioMZXGVQsOpeIysiATK4QxK9CwQEAgKBIYfA0AtE6exsP3ZMnTxYjviIETgN3hH6ysoCa4g/YSPEcYyenionNA4854Mp5VMwVMNvh5owcTJ/pB+ZwgntxBhOnsghPRNAmOhgQhycHhcXj7zLkjpGXL779lsPPPQoSxMBCvWb+3738gv/4PNzG2HTAk2wx4B6wZmgJAtBCwLIfEKl+h/eRE0kAs63Qk5AKPG2QXbCSZOnsgqKh9KzItMOQDIedomPLeLUmT8eq8qIyCgkyeZrmulzxHcx6DJ2nkRGRrFh8OdMyQcmPkdyTIRGICAQEAgQAkPRC06Dt0YBv09IJCwfGQ61JmV2dhbJikJ7exvT86xCsSZTYq8b+Zuxe4xxF0l9isyGHunVJKW45DMiX3P9jcTXJTWRF0Ki0XIJd+abr72CM9tZHaSZu//BR6x//1ZZWSlNKup8UDJdWkxoaW5hfYGDOjmrtjdYrHcjOirlMtNhFSe3EBOLlV1C36Ts5RV4Te6Z03T+C2JRKApl965+6fn4JiYZAD4+yOhCB7Dz9pmMHHykxFqaZBLM8Tki4xYWcP68vEcceUtKHnNSkmANnyMajBAEAgIBgYC1ISAouOnvCBIJT5jYb5MoIqFpFxrisDes/1l7ryUlqjy7cJxL+HRAYKBi2+++/Yr0N92ykm8FMn3Pb+8P7IsTwPN04uvUBMK6n9ZQgDgCyp/881/DuVPE4fMbPWbcn/7yDEyx8Fy+rRYZOYxff+VFolNYojzw0CNWzinhy2RZODCvi+bN9/X14ycIOkh3k9ebVi4oyCeDlKSPabAZDqn3qNQyAt4A2juqr6+jAG6kwcFjH74+IknuuudeLCeYEosxfksfX5PkI4cOMhlos4a4Kfsy9lIFiTDwAeCTcu/9DyH7+JN/fnrhosWSVSgwX3HzbbTXAjEYfE4hGoyZPkdk35ICEvzjywRB9tTp7DlzZ180jy6Rn5FkuWANnyP5qIRGICAQEAhYCQKDFoiSkDCRhYsQEJTP29sr0CNZlf0ApW1tTfn5R6nakBCuvvaGK5Zdg8fxOA0nPCLCyUlNmLZv3SwPxZZM6sjhg2PHjWfKm29d1dHRXlxUBEKAOG/wAER3ULJkalhZUYHwEqRLgwZsCa2QhAQBKshMgjgQIhMgMZ998iG14gUkg1v92SdYPzAl0qvd97uHQaCbGpscnZyQTYVI2OVXLENf+gcbYCSvv/riQ488zoaBpBn33f/gqy+/YO7jtfnZGSoj5Vz6hIlo5ejo9Ngf/oQ9eYxfwr+LW4C1yl///CTAMdSs/vWxTEKPjHqCFCISA6ertrW3BwYGAsA9u3d+94160aW/WaNr8hmvJel0yCbOa6SIkXsfeOhYViZoMR56JCQmyh993HnXb959+z+KLJYZ3LZt86QpqvgTpkGIuXbMBziAxZct9Q8IQF94q2PphRc+quCRCHfGPgrk8qePAOr8ukF5IT3AzxFW7xfNXQD7lEAJnT762JMMgdzc00jSwmRN/2LFeO8DD/KlTk5OdIlgsG7u7NhtWzZv3bKJSuVC6qi0Z557HqeWNjU2BAWH8Gs/fAvxse/yttAM+udIcVRCKRAQCAgErAGBQfOCI1cJODf/4uHg9Y6OhgbjDubuS9BlxtXg5wP3hTuQ5984UuSntT/yM1WUcfIff/gfLOAJPiJA2O/fzFlzFFv97723+UNw8DAd7kPsgCT+jYG9/da/tPxqIm/gJx99QA5g9AIC6uvnB1M8+cg+loXEcIpj0KQEj3nrX6+TZbjk77j7t7xNTQ0HS//NV6uxcqDeASPcunixW4Cbu+jSxVRqDgHkjyfZ4OLhEZHx8Qks69+48RPM0akWm/xmx9qaGsWa33/7Nf/GAHubNn0mNiEw/o27/9UXn1X05bDDe4DCSxStIbemJNIDAeKKNUk5wAGsW7vmwH51Gh+YxUIUGcoxTrwB+Lfrvow9WzZtpH4lwkA+R9i0jWUAXvjokVmmwb/80y0qlQhwWgNw/sWbwmMovsjbR53bRGIHl/xjMeDA8++qqkp84cibSDSD/jmSjEdcCgQEAgIB60Fg0Cg4v1NHOxw9Pd3aK1hVaVZm5ssv/kO+Swneu5/W/PDxh+/rOdqPPnhv6+aNxFmpFTzHlRpOrwTDxlHw33z1hWKOAvitsRVS5yZLsAeMHyRb3jU0SED2yov/xNgUu6BBKgpFRYUfvP8OFcXExF7CxceT3jICRdtr6g44/+PZv2bs3S2vAJxxbos8JzSrybv2dW661T4M9I4bSjE8/EhwgikFdfB688kpKanMON7JbJEp7+s8aE/zySipTk119asvPY9NCG//999sbwDeTocPHaAKigKYLulBB/l1Kel5YYADwNRw5g7e4dhkibU0b5nJGDM88S/841m4ouUfEL6++T5HfC+KMn8Cl2IFXqn9LQooTp86ydeHjIln7Nn92ssv8m91SR26PH9HjPkckQUhCAQEAgKB4YqAbfIoS7vThiuUknnBYxQbG+/l7W1ja4OAEESSaCIukob8JYwg6wI8cAgFqYEnubLy7Nli7b/9rDn8XtExMT4+Pi4urnB7ny0u1hn9wvcLGRbg+EXcBagenlzn5+dpOvFH0nCYXSJsHREIeHl4elZXVZbjr6xUH/JhKhyAP94AYRER3l7edXV1eBPgPaCdOZmqa7KDhN8Ig2aXWH588tH/qEhRQBoZbCTAsPGuQ4gUBix58yOkCn+KB0wqGjRUaZIB4NYj9Qc+gOi9vLT0bEmxEen8h9znaMbM2Usuv4IB/uwzT2HKeIwGFzgeg9jZ2+FLAGtpBNsYekcG/XNk6IBFfYGAQEAgYG4EBAU3N8LCvkBgaCMAunzfAw9ROBNyY2MxOLSnJEavGQE5BddcV5QIBAQCAgGBgPEIDNp2TOOHLFoKBAQClkIAe1Jx6jvxb2w2EPzbUtiLfgQCAgGBgEBgOCMgKPhwvrtibhcIAoh3WnKZKnjAoCn//NMaxZOSsAF3zNjx2EyJLYBkEMFIiE2nSyEIBAQCAgGBgEBAIGA0AoKCGw2daCgQsBYEvDy9Ro8Za8RokNyQp+A4PQdJ8UYkj6STXMkmNlnqTIdHlYUgEBAICAQEAgIBgYB2BAQF146PKBUIXEAIXHPtDbzbm80ckSfIJV9cXHQBASGmKhAQCAgEBAICATMjICi4mQEW5gUC5kcAeSr5lPD6dyjJ8F1YmE8UvLW19UTO8c0bN2hJJK9/R6KmQEAgIBAQCAgEBAI8AoKC82gIWSAwJBFA7nCTRGkjb7ednX3O8ewTOdktLS1DEgsx6IEhUFZWimMBkH+zoqICh/sOzJhoLRAQCAgEBAIaERBJCTVCIwoEAgIBgYBAQCAgEBAICAQEAuZAYNBOxzTHZIRNgYBAQCAgEBAICAQEAgIBgYD1IyAouPXfIzFCgYBAQCAgEBAICAQEAgKBYYWAoODD6naKyQgEBAICAYGAQEAgIBAQCFg/AoKCW/89EiMUCAgEBAICAYGAQEAgIBAYVggICj6sbqeYjEBAICAQEAgIBAQCAgGBgPUjICi49d8jMUKBgEBAICAQEAgIBAQCAoFhhYCg4MPqdorJCAQEAgIBgYBAQCAgEBAIWD8CgoJb/z0SIxQICAQEAgIBgYBAQCAgEBhWCAgKPqxup5iMQEAgIBAQCAgEBAICAYGA9SMgKLj13yMxQoGAQEAgIBAQCAgEBAICgWGFgKDgw+p2iskIBAQCAgGBgEBAICAQEAhYPwKCglv/PRIjFAgIBAQCAgGBgEBAICAQGFYICAo+rG6nmIxAQCBgJgRsbW0XX7Y0ICDQTPaFWYGAQMAKEfD19b1s6ZV2doIsWeHNGfJDsg8IChvykxATEAgIBKwSAVfv8OCURT5hYxxdfVpri6xyjHoNyt7e/p57H0gbPWbi5MmHDx5oa2vTq9mwrpS+IKalob29pWtYz1JM7oJGwNPL66FHn4iNi09JHXXwwL6enp4LGg4xeVMjICi4qREV9gQCAoHzCESMu3bkJU/7Rqb7RIwLTJgdnHxxWfZP53q6hxw8rq6uDz78WHBICEYOLt7S0pKXe0afWcy4MtHNy7nqbJM+lYdWnbB4n0tXpY2bGxUS63P6cEVP97mhNX5DR+vi7ujo7NDVMfTevYbO1Nz1HZ3t8aHoaLPcys070HX+jSOLTtR0dRpMoCdNmjIydRQw8fT0mjBh0sED+zs7O8wNkbB/4SAgKPiFc6/FTAUClkPA2SMgdfGzfH8Ozh6Obr41+Xt4pfXLjo5ODz3yuI+vLxvqoYP71/zwnT7Djkjynb9iZMK4oJhRAXlZVZ3tw4q9XXb3GHdvZ+Dg6eeyf31eT89wpuBX3DsOt3LCxTExqQFZO8/qc/dFHUUELro+ecldY9LnR6dMCTu+p6S7y2BOrGhWu/KahyZGjvAbPz+6tamjvKBBe2VJaWFhgZeXd3hEJPTOLi7j0ydm7N3d3WW59YNkPOJymCEgwpuG2Q0V0xEIWAUCPhHp8nH4hI+VK61ZA5/3fQ886O3jwwYJ/r36s0/0GbCtne2SO8ewmiEx3quemwkCp0/DIVEnKMoLLzbUI1uLjHAuDolpskGGxnqDeTM5JNY7fkzQEBq8VQ0VTxLGzI7EngqMyjvAFZzYAsMbNSM8INwDHdnZ2c69IWXFH6eia4P6/ebrLzL27GZNPD09H/jdIw4ODgZZEJUFApoQsCIKbm/v4Ojogpetre5R4WPMKuv8V9PMhV4gIBAwHwI93Z1y4+fOWcLpJe/XaM0tt90eFNwbf4K/w4cO6sm/Udne3rayuPF8u95/8POPoJRbn57uF+JOyqErXHTdCDZ4OL93/6hXTM7QnayXfz/GZiiBG7oTN/nI3TydeJtefv2A5YtMKHe2dbe3qp3WoOP4GE69LN6mdyGg7x/Pwv38/Vfdcbe+LUU9gYBWBKwiEAV8OjAwOjp6tL9/BF4ODs6NjdVah43ALP+4uPGsvvZ/6+rKe3rUn0DtZkWpQEAgYBIEOlv7XKXXAABAAElEQVRrI8ZcZXPe40UGK078Wle0ny4tItg6ewR5Bid3tTUorgq0jGF8+oRZc+ayCpWVFW+/9S8tlSVF4KbH95Qe212CaA3/UHfm+ev1As6JbG3qNPRpuMT44F76h3pMvyKRjSFz+9kzhysGdzzm7r22rDn94hg7+17Kdu7cuZ/eybRM+IS552V5+3jnj5wW7uyqciH//F4WIkPMPYzqkqb9v+Q3VLUFRXuxrvFhjEj0HTU94ui2Iv0DqI4fPzZyVBoiwjFgX1+/pqam4uIhvL/c3LAL+3oiMPgU3M3NOzZ2rJeX6kkfxt3R2drQUKl9Ai4u7t7euh8I4huzvHyYO2m0AyVKBQKDgkBPV1t7U4V/zBRi4U2Vp05seBYsxgLjiZ50S9JFj8RMXhk9+dbwMcuCkubb2jvWFR3Qv2tkQrjrnnsZdcbXyJuvvWxEFpSO1q7ThyoObyp0cLQPivSELxwDyNlbClqg/0isrealt6cxTzBg+faNg92Gb3GzthlpHw/esIc3F3W0d589Xbv27aO8S1V7Q5OUps2MAODTLk8YOzf64K8FJrE5iEaObituaeioKW366d3M+soWi40Ej6QObSwsza0PjPB08+p1xmNvxv4N+QYNIDs7a8bM2ew7IWlEMhKkGPGdYFCPovKwR2AwQ5oQeRIamqgPk9Z+G5qb6zRV6Oho1VQk9AIBgYBZESjP+aWmIMMnYryji1djRU5jeY5Zu+ONIweLs2cwr2E/nLxGu7z0imWUCfjH77+tra3VXl9LKUjb1i9PbP/m5Li50YGRnif2l2mpbOVFPoFu2NnGBgk3/wWSkRDpO/b9nDcotwaZZ4A5unZwssTa1dxzxAMEbB4wdy+a7Bccry74227EouAxzr71eTYGItrY0PD1l6uvue4G2MeXw5VXXfveO//R1JfQCwT0QWDQKLivbwj4tz5h3zqnkZ9/RGcdUcHCCIQFJDvau1CnFXV5re31dCmECwSBzta6ylObhtxk3dzcUkeNZsOuqqrctXP7wKeAtH0HDPS6DbxTk1uYfa0qChwu8O3fnDK5fWFQIGBuBJAk9Pt/HTKulwP7M2bOmh0S2nuaChzheFYGXm6cKdFKIAAEBoeCR0am8pEnnZ3txcXHIyJSkHlV3JXhgcBNF7/u4tS7D539rd3z4v6cb/qujPnfyc2vowWeSMMcF/aOrnh1tNQY06V1tHF09e7p6uzuHMhDW1snN9/OtoZzJtoUYWvngMVzT7fZ4zj5O2Bn72RrZ9/daYnnWvMvXkRe8107TMC/+YkMXRn5B2NHqSIGTx0st0Ag79DFSox8uCKwY/vWq6/tdYTjb9ElS75c/SmTxb8CASMQGBwK3txcyyg4XCkVFXlV1cWWiRA1AiDRxDIIxE67287BkfqqztuFyF2wz+hJt3mHprl4h4F+obSztb7owMclmd9TTblg7+QWmX5j8IgFDs6erBXq9HS115dmFe3/uKHsGN/EIzAhOOUSXlOa9UNLjcaYSzsH59hpd/L1iw9+1t5UxWsGKGPMYaOXhYy8FLzZ3sHF5nyCILDnjubq1obSpvKcokOfd3foYOQwEpy8MHz0Vc5ewSCvbEjgr4jPbq7KLch4v61BGg4RPvYaFy9V9g+aQl3xoercHezSL3py7NQ7XbxDQcGhwSE7LTX5x9Y+SSscj8Ck4JSF1FYutDeUFR/+Uq5nmtDUy9z8Y6iUVXbxCouZusorZBTQ6C0619PeVJm/593K01uoJhMwX4+gJCa7+kRJSgMT5yEcnFdWnd5SX5LJa0geM3Yck/EFtX9/BukvcGHWVSp4gcO2r07qRAOx7ymTQ5HID7HjttjOeM4GDkhE5ZbnN1SX6hsN32tkalhYrLdPkJuLh2N9ZWtlUWN5YUPh8WpNyRCRdiY0XpVHkg3yGCXztrVJmx4RmezrE+Tu5Gzf0thx9nTdzu+k7nzEKgTHeCtOsL6ipfiUjqgkRI/4nk99c+pAee8ZNLY2oTHe8WODopL9urvO1VW05GZWYg2jaB9Kag45PEE1EWxsTp0eLmlSnl+v8+Cn6BT/6FR/RLM4ONk7OtkjDrvybGN5AV71Zj1QCd2NmCj9PpGMH6nBdY7B2c0hbUaEX6i7d4AbDqfsau+uLG6qKGooy29oqm2TGLTA5aGDB6665nq2RE8dlfblagv0KboYtggMDgWvqSnx8wtHoHZJycmuLov60obtnRziEwsffQXjmmweONgcLDPt8udBefmZgZTHzfitb9TEY2v/yOtJDh9zVezUO3hTrAh2cEwjXg1l2Vk/PoYvcqZHugwwP2oOobXurBYK7uIZLKnfWHa84uSvvIWByCEjF8dNx2qk36xhEKwXwc14IbU2uHJZ9pr8Pe9rco0HxM0cseAJRpT5weCBgJtvNF6BiReVH//5zI5/EQ6oFj76Sid39a5o1tA3Ip1R8NTFz/lGTeCtgeW7B8Tb2qlTiMKsBBy+PmR0p42Cp12OsVETVO5sb0yc/bt+d9PWDiCMWPAHnHuf9ePjVBkCoEPmE17Dy3jnSMaG5Y0iBcdZmO7uqgc4hQX5He2qtwpv7QKUsYkNxwyxiZ85UtlUpwOWaUsTxs+LdnBUvz3QluLIG2ratqzOyT2qY9s9kselL4jhjSAfS9zoQJjCQZWIhFEMLF60Mg2bX/l7lJ9V1Vzfjt4X3znaxU29EgOtB9+VU/DUaeE4+JO3QHJpbt3qF/bRpaJw5X3jcQYkihqqWvGs4PrfTwIfpZqhcd4pU0IB4Fev7AcdJz0J1Jw0EMD5FqwYyWsg715zRgsFT5oQMvvqJHaCEjVE70wGgLvX5B7cWHDOPMcquXs7yQdMw2BCTUlTaZ7GAEWQ7wUrUuPHBtIjKdYqNq33DYA/LJ82fpJdU9bMLi3zb3d395nTpxISe5ejLi4uIhbFMrAP1176fT9acpKnT+8rLMwS/NuSmA+hvkA0xyx7Tc5E2RR8oybhJZ9O/Kz7Yqfd1Y+xySp5hYycuOJjByd3VtJUJU2Yo/K2IkjL2RO8jV6M0cpJanN1rqwTIxXwfCfMfkDTrMkouG/oqKXjr/sPaXgBTvrkhX+S82++DmRQ2PQb3pMo5Zfwi6O75AVPSvg31TTtEwAyCwE4JM55SNPdxC7P+Jn38vUNlZtr8hWbpIxMJT08XiRf4AJc4MSEsLtUOxrLHkiftCiWp86S+l5+LpffMxYHJUr0dIkkgFc9mD750jhNRkBqcdTiymdnUhMS+mfC7FXDLw5n/LIHxvP8m9XXPy0d2ddfANVe/ocpPP+mth4+zjc8Phl5KkljhFCh+axHLF0uXZUm4d98FxjVzGWJdz0/m1daWpbfqr4RAJlb/zodqz561/WVqP/HI4Kbn5qGpDFqlUWkA/vVa7DU1DSL9Ck6GZ4IDI4XfHhiKWZlQgR0Hc8UM/m22sJ+EQLByRdL3JyahgNWnbzoqawffo8K7Y3liG3geR6CzqFHrPOUlV/zFvL3vFN86Asnd39eCbmltlCiMe4SLuqEWffr3zZ357/llUGsw8dcLdcragr26qbgQCZi7LUBCcq/0wiOUbRsGWVo6pKCfR8i4bdx3WlaO8XExpFBpAMn+UIWwIcoqABpJRqqtUXkJ44PRsQFgwuRPCf3l8PbjZAPrwDXwHDP4GjP0DhVcAVyqmhCFQQ9MkllBHWqS5sReYLwFXjB4cfFgaOsYckZhXRYB37J9w/rfY6BLOxOLr2/cTjLc+qSOCJz8MH3dPewTCNwBjNT/L/wmiNMhdckTw61dzDYYzVyShgzcvpwxYl9ZVgARI/0p4cJSFM9/8aRa/57hO8I8t6fcl37TrGJHxPIxgkkD26UftWU5CpMHxZwCM6MKxPILLzF2XtKGqtbnd0c8XwgIMITw2ApMvFAg6qZVmhr7lTH/3Cm8eQhPPF8UBmnlItzrh3h6qGKoEMCQeTwLjlT39ne5RfqgcSC4YmqRDFYQel8liI3PkBNFfe1gK+LPbt3DtCgaH7BIjAcKDiO6fHzC3Nx8bA/H+vZ3t6Mh3/V1UXt7QrP+C7YOz1EJw6S193eJEkwh7k4949ahlc7AREL/f8QPI2g557uLqSoQ6AwXwgvOyKbawr2QtnV3uTg4kWljucpuKtvJGmYwGIkJBQcwRKm2uMIQsmvBFinrXXFCF5HDLe7f7ybbxQWD0yPkSNcXjJCBNUkzHpAomSXvTy1N5ZFFV8BZU3+7oqTG/nKDWXH3QPigKSjq4ohsdLoybfx1Xi5o7mq32VLDcAkjZ29o06PPlXWIiDepq2+1N0/VoqPrV1U+vLcnW+xtk2VJ938VHEs9ojk6b+KQ+S6ZP8oYuIVO/XwUMcw1A0gF6Gi8SGqnHEFslf1JjXH35bPc5ig6V8cQk5FX79yQB053ec6B6ecuzylvaXzzBHlFQ4OhKcz4WFq29cnJSmxQeNAXrE99Jf/ZVFfJOTsU+1zSEwPZhQcfJSNH7zwuzcPleXXw3U6b3kKmoDeUUMSerPXHa+mSwhxYwKJEfJ6nTKoMw9C5o5ihLjMvmYEa4goCxBxSa5xHCVDZkGm+yi4zfavdcffs4bwvtP9QqgJH7jPYtABy/QrEhAmvumz49SXaQUkrNzwcbbcJhYV+lDwhLFBrC0i/t99cjtuHLsszFHtrccyb851yUe2FCHESN6LWTW1dbVk38ND/aVKSiEIBPREYDhQ8KioUfxswcXxQtLD0tLTNTVn+SIhDy0E4OgtOfotxhwzZVXEuOv4wTs4uvKX4WOvloReYOPmvo9vYvwYefGwDTFqwk39moy5mlHwtsZyD46CO52nuR4Bah8Sa+Xq00ssmI+c7IDlkzxAgbYSkh1QzwOfraRLCN5hYxBngs2pJzY8x+uZjGNoEDQi0TdXnc784bGu9t7D0uHaDx11OSg1+GjOL89Kaub88gw0/rHTUhb9RVJEl0CVlgFQttWXUBGEs4e/xIs0PpHpo5b8nS6NE4oPrcbmS7TF9oD05e9LjPhGT7bpo+Bntr+JF6swZtmrnsH9AmdLs74nsi4xIrl0c3cnTR33W0vKC00AXRs5TeXNPXuqtlYpfJnHxMPXmV2Cfar5N1ejrrLlm9cOcAqpCIJOKuRTl/BvFCGEGoHUVEenwPgomO47f9gucXtL6K9OU4ZW+PGtIxIQDm0qRKw5dnzCFAYWleKvZWumod2x+oy1M1nRz41Nopt1LaWM69pUrSh6p76qlfg3bxxc/MO/St0QfAXzyU2NvV+n7A8JTPtE8b9AwGAEhgMFZ5M+h3CC3i80lasGytBQsKhz2PppMCqigd4IgNU9cNVXzn2h1dSOz0gI5cKJ988bfxeVMuHomZ/X7X1FoqTL/N1vM/4NDTy+Egou8XHi+ENqyIS8Xf/h/dPFB1dHjl/OM1TvsDSwdtRpqS3wCEyk5ggBh+weoNawIuaJd3LrF4jSWm+yNZ78+HR7RzesPQoyPqCJ1JccOfzVb2mo/QXbgPhZ/TVIIFN36MvfkBKfkZLM70qP/YidiBKXMNXRIpQc/QYsdtodP5Jv21RBOJo6rSs+yPg3KgBqbAz1j5vBV3bxDOEvTSK79/2mIv0Ctl6ZxOaQNoI9kSxoAbPYvFqHCxx1sEGQUUB8G4+aEZ61w7DPCIKkESnOEANTlEdfGA3mt68flPBvmIIz3miDOhsieEYxTCJzezEC2Vlz5PrQacfQCtjjSBHS6fOjca6ngdlcDe3Q9PWxjZU9dvALcUMov4X3XOqcT1dXl4NDL31ydRUUXCdaooJGBAwObtNoybIFSCXe2FiFV319BXKKHz++Izt7e3b2tlOnMqChsYSE4MdD6hekUiEMHAFQcG+PEBcnT8lLYtnB3klSAZfeHqGSavxlbZHay9XZpnHXPJqAqsojVarz+zlIwDjhCOftg8S7evf69pqr83i9/floDXf/GF4JGUc84l8nt35BGqDvkmpGXyKzirwtFh6gvKMufx6R7kR85dWg8QpNpeSDVCFfKdobLnAjYrirzmyVe5HNTcEbSvuFGVTITvnBmkryXILmbrSAU3uNbjv8GsIZiYhqNi/Eb2jJv0FzR6Y5khEucs1DE7AVkjQ6hZS++GnUPLylyFT5OvKPVWH81Ht5QcOxXSV4HdlaTEqTC5r2euZklFJfvsGmp+AnD5STfSSQuf25WQjQt7VT+6eo1GqFvMwqNjYs5LDnct6NKbQws6ox29sLgmFVN2SIDWao/ti0tjYWFh6Tg41Eh2Dk0LNz70EQAwIiKyry5TWFZigh0KPNGSnPZo2pjV32hmSCLl5Sxg/iDhLZ3D8pSm8q7vNhD5LmYHuIpXZ06UfBJfRd0sSgy5rCjPj+G0NZc/SLyHW8kB6k7uxhJPVDxnS5ZUSKy5XyeHF5Hb0053ooxqOrowUh3qxVS//Vi16mBlBJsTtErlNi8gHYVjdtbcUekn7POtRlF540+ZJYcoFvWd0Xza0VB5AnRA5Qrg8E/iIrH0KuETlwdGuRJMZabsmPo6RIAS6vYJxm79p+of8VhQ0bPlL4BTHOuKGtEP2CKB32zNYnsF9MnaGmFOvD2Z+XVUXnKOHBwuI7RmM9gDziWbtKcvaW4qB4xYbWozy8uRBbYOm9h9TgeDU3dOQerTi0sdB6nOLt7W3WA5oYyZBDYKhScO1Anz17wstLlUzU1VW90057K1E6RBFQpODy/ZTy2WH/IpTN1Wf4IhasQtsusZGRNmu6+cU4uPSGqdCfIimkUoME5GZB7DuynmtsZWuHTHx4ISTjyNf38Rsf0US+wECmF6OzhUjGUHb8Z0SBM2XGB/2C8iU1zXrZ1aHe60kdsacTdDlwoaUFFLz3z45Lec40F9q/yAEybp5qhyuO1OG9yFqgANV754ltSDjIb6lEnmzsw8MLXBy5QXZ8d0oxwBdmKZQccm25aVLuIKpBS/5pLXMxXxHO6HFw7HVLe/qZnoLDLM5gn7I4bsqSeJoC6Cxy0eCFfagF2dW7vj+Ne0ql1iZUFDV+8NTOqx+a4OmrikrCCN29nBgXR1Z1LOcy1ucNVoANOb+b+74urA1AMZ4hgcBQDUTRDi5iXtvaVF8uzs4iVEs7WoNWipPOTNI3AlGMs8PYNsglYjN4C9j5R5s760qOUJG7XyxSB9IlBE25pfk6+ss49fPU5hd1RmljeBNWfIRNmbxlWieQ0lTwgsrn7f4vmR1EAY5Dee+SMy/lFQzVNDeraZ+bm+mDBAwdzyDWn7BQfSzOli/0coGz0SKLBRKP4AVfrMThCi6OAPFVz85k+xHls0OGEFI213eQPBChtcmMAd/GDQwZelhDRydz/QrvWZv70dO7kRmwrX+8O7g4HOTL/zAZZ5caN3jLtMJGzPf/uGPjp8cRNST57MOvj7OfbvrTVJbxxjLjoV4cHR1p11kL93VBFYQgENATAfWXnZ4Nhkq1zs4O1/NkycHBaaiMeSiOEzzvr/+bJh/5Y8t/4Xdkrt3z4v6cb+TVTKKRpMbT32Z3X1prbFsktzea+0ZPIiM1ebtw2CS7dPOLQqI9KjJhRkKyWZ7zS9WZ7TjjMzjlEmePQNJLBKQOjJt2V/a6p0gvB8GuL1yE6hgndHe14aRS49qathWdmsSb7WxRJwjj9UbLVVWV1DYuPiErU70GI/2FIICoTbw4hs0Uz/2RC8XQWSP8Gi8czx4zMmDk1FA4xYkwgYjf+OSUT57dIw8u573jXv4ucGAb2u+QqE8ZP3SeMzqQ6SCTOjID4oVc2qnTwuLGBFFENUjkwltH4Y4onjA6kE5N2BZPVLB1FS/Ahcz0IyaERCT5UnQKksSvfHbGfx7daqoNA3qOnD86oJr7utCzuagmECAEhi0Fpz1VtFqlOQthmCHQ1qDe20RTy1rzRO+xO1r/2ptUZKutoaQfBY+cQO1qCjJI7k2TwmWbNmFGQuoCArKAF+7/GC8Xz+DApHlBifMUg2q8QtP4Vm0NZfxlr2xrhxAdBb203pC5lh9NiqG3my4vJAMi+1jW/AULmZyYlHTBUvBx86KIJm41xAUufT+ds1FxcRsbnEpz6e2jGYXCNzOCCuQpVnhKiq2K8IBKDQ79a+yMJB5pmbBmxJzgOQZeePhw5f3piOhgKCJJuTVTcLrViG6HOx8vBEdNXhyHs1dZEU47ikzypWThVN+sQlLSCLKfnT1oOwpoDEIYugiY6xHYoCPi5KQKGOjqsrpHkIMOzjAbQC+T7k1J2e8PeQZxro32F9zYrI0ks4dncArT9yYPaW8EJ2aXvafDcH+t/bNicyWmEZGwvOjApwc+X3Xoy3vkdL93b2jfST3oD/m/5b2Gj71Grhy6Gv+YqdLBn+vBEwypErlI+0cWoYK9U28aZn3+Ss4WIx0hqxmfIM1NqY8F89XBHkewWLxos6NiX25eTsiAgVQYfFCHYk1NSnBEHA7PShEPoHMPpSY7Ev3pQxWf/G0PKWNGBZBMAhy3JNMpmKQZHoI/l4jQwgHZeOzwvz/voGzo3oGu+pz66eBoh3N8kieFegeoflgH60YgrglR7Nu/OUUDwAFMJFtGiE9MYh0hPKYgv19CLcsMQPQybBAYnl5wR0dnvNhN6rCOZ+jD5h1jhRNB6H99aSaOreHHFj3xlsqTv7Y3qTJbUVHQiAUItq46vZU0ECQHJdIpkuxEG4Q62Hv3/vBIAsElxJ03aJyMY3ESZj+Yv+ed8pz1vAXkbEF6waS5j/JKyEhhTrskkZtFcm4OKoSmXoZchxUnf6WGOGBoxPzHQVuPrX2SlFYreIWNprEhOh/PBOiSCc01BeDbEiUuW+qKJU8JfML7vT2QKwk7awk9iYWzxUWRUdFQBgQE+vsHVFdL30WS+pa5HDk1bMFNI9ljPfz2b/osBw/o5V2Pnxc962oVRcBz/HXvZhpx8svomREUNLLtqxPyXozWgGEj2zczjjgTuR2cWj9zmWr8o2dH7PrhNOrLqw1pTfqCGBp/hVY3P8VAk9ecGhotYEcsUqPgSCBYwNspONqr5IzCOpbs40z7ax6eiNghpsENWv9BFpUOioCsjjOXqZbHYfH9slSZezxe3t5hYeGsl/KyMlqum7tfYX9YIjBUKTgOv3T38CstOdndrfDtHBqq9l3V1ipEKQzLe3khT6o08wcJBcdWy/Qb3s/f+z6OxkTyEI/ABFSIGHtN77bFcz2HkIuQS6jXpORCBp4slXhbY5lk7yODuqUm14SYw/WesvDPiB5JvOjhyPTlOEOnoTQTawNsN/QKTomasELeV2vdWV5ZnvOz9AAjG5ukeb/HiZiNFTmYtVfoKI9AFbkJGXlpWfZPfHMUgZX6RIzjlZBtbe1xziVTdjRVall4YAos1Tqr7C47YRSpzYM4Gg3XPtIsSrrjL5GKceSlzxTsfR9KTAQR8Hwp5Oq8nRINu5QkmoQSCSgn3fwpsjTimYl7QDxWOz1dHXveu0qRwf+yft2qO+5mpuYtuPiLzz9V7MWSShxUTvwb/YI5zb0hGQEejTX9cqLh5Hbi36gG3nbJqjQcEENeTz3HPPVyVSYNhIUoHq+oxU5orHd0akDGutyeboXVEcg3kbmuDunDK5htaezA8ZnscB+MH9P8+X0FwocgGd8gNwu7kLXMWrEoItFXfqwMEEjiHLfaI22qS5rJMkKf+UcEpJcLzm4O05cm7llzBmDKS6Hx4TI/Ntb2ewvJ6y+9dzzdMpSmTAnFG+/Eflnkm7zlADSp08O7O3v4BOq8MSwb6NJUe3bJoHZh7rwFVOHXDT+TLASBgBEIDEkK7ucXfv7kSxtPD7+iomNNTep9QjiIB/zb07N3fY8/HG9XX6/eXMWU4t/hh0BV7nZEYkg4Hwhf3PS78ZLO19Yu7fIXMj5cTrlHWmrypXXOXzOOi2gWpAKUV2iuNhkFR5KT0Ve8RIHmyDAYN/0eeY+85nzv/ShO4b6PQlIukadG8QxOxotvCzl+5n21RQf4cPmRl/xFMdgaMNI582DMWT/8XmKKLmOm3I4zR+lSUUia9xjpkV3xwKe30aWi4Bc9GS/FIkSbnD38lWJRXfEhuR6zw2qE9DjVJ2z0FXQCK+khnDp5oqG+Hu4uyOPGT1j305rGhkGOSEZ2beb/pnHiEhscJY5wSgVN1cBi0VbxjEaqIxHgbkeILVPu+OakpFT7pZe/KxLJIbZh/LyojZ8clxC13tIH02kimgjlLx8eu/bhiawjBD9gXYHkKrRNE8YnLoqduDDGzt5WcUOn9hFashTrBOw6/eb1g7SZFTFCNz45lWI/oNfEktk4S3PV/mmspj5/PoMO+MT0AQ5OvqyvVEXKsSbQ3/D4ZKxh0maG71ufDyLOr4WwALj4llTalIm4DskqToIP6lPgOBUh9kNyZ6lID8FWZx2EUS1YMRLVJl8au+69LCRx55tEjvBDmnPSaHfhUzWTCEiRNGmyKhyuubkpK/OoScwKIxcsAoNGwRMSJjo4qL7lGfr2fbkmvL0CPZLVSTba2pry8/u90b29A1kTEO7o6NHnUxA2tbe3Ojm5uLp64hEz3c6CgkyU0qUQhjECx9b+ceJNH1MyQe0zBU9NmP3AyU0vsGqI9gYdl58uyQ6/bK0rUrTWUlOoqDdCCWKq58jJ+Ilf/04yEzCFrDWPj73qTaLykgr8JZ4SpF76t4Or7+CVQ0s+e/jL7k7lVC24ZfLT7OWzi550a2nWD/LAcdRcu+b7G268GQL44k033/Z/b74mbz7oGnlwglLaRhtwMoOGOuPKRFYf2Uhy9hnm7Fx2/3jGL0HdQBkXrRwFJ2VjTWtHezfCiJlvmwaz6dPjJPNCyem67N0lWAkwJSLC735xDjLrtbd0IQieD3C/+sEJbz2yhW8Lef6KkcibAYECl+GKvvXp6awaWCl29UmaSC5BUiWLGXZYOqrhpM+7XphN9ZHeG0nQ6VIuAA2cD4osjVXFja6eToi9oRUIiyaSN+E1Jbl1DTVtjDFjJ+U9L82pKGy0d8CzMTvsVcUbAM8BsA7hm8y+egTDGR1h2yJeWL3UVbQgngcDgBEaAFpJTizi7WiR5W88LZUlRXz0UauSkx5x55ferlrJY47Ln5jM1gmNdW22Nrb+Ye50L2AZQTX7kR3cUn/LV9xMxwX8/NNaS3Ur+hm2CKjZqoWniFhtcG7+xQ+A1zs6uvBFkPPyDpeVqY9TAefG+Ts+PsFubt7Ev/HtBgd5S0u9pK24tAwC6/a+vH7f66pXxmtHz6wzd784IvHAZysVN+fJu24szync/wmvV8xtx4IuWnoDjqV/4LvkRJeWGX6d+f0jpVnfyzeVKlpCBDNc0Yqjaqo8feSbB2j/qGJzpsRW1LNHlF3IWlpZTxGOJ0J8vJbxnNr8kk4cENwflDRf0ciRw4dyz5xmRVHRMRMmTlKsZjEl7w2lTnHACslMKD5ZI9Hgm7D4pPo5oaRUfpk0IQRBL0y/4zsVAvJqmjTfvnGQj6wA20MKZxwHg818PP8Gqfr1k2wcv6LJDhzhOB+RL4VjHpSa59+IdD+6rZivw2REKaAvvHiuyTT4NzZVYQ+oxAhCXMDz+BdVgE1ej9lRkVygSG7QSnB3jJ8f0k/vZGp6DqA2dc7muzcOkh0Q+tA476AoLwSlMB6MbIPwCqvr29hs//ZU9p4SXoN1C3pH8Dcq8wPAUqT3dButfyDukrTiqJ6bafyzZSyHqMP66n7+e6bHcuXb1w/yySgxazwJifz/9s4CPI7jfOMWMzNalmVbtsxshxM70DA2DTZp0zRJw0nblOFfDjVtmjRpGkaHGo4dsGNmRlkWWpbFzPB/5ZHnRnun1eq0R/Kr5x57duCb2d+udO/OfvPN+Gg8Wan6Gy8Q3nl8M+pLgw5NTJk6Pev4Qszi4qKNG/o9+Ti0axofqQRcNgt+bHK6b3mHPlw4k1hXqKoqaWysTkwcC/Et4w+KavhrVV9fcfRofkfHIC5u1maZYxaBHXlmOskhLomRgSEA38aXr8tY8P2E7HM0Sydlc/gf5y5/tKZoo8wRCSzgg7uwNvOYg4pN72frECWatkM6hJrPW/lkydYl4896MALRBpU3OaodzNcWb3mteNOrOu92Gsr3b3z52syTb4/LOt32zHpPN3a7xE6cMiCM6AK+0WpfTkh3D/YbWrb306jUmdrr0tN9dP8XB5c/qj/CzvamDS9ePe6M+2LHWuYs1SZwwinc8EL5ga/UTDX90gvP/fxXv/Xz69Wjl195dUVFhQujH8AnG1Eg5BI0DGntR3nwmVYHjDTiXWxeVqCu9sOu8tKFQ1PZ5qHsAsJr0NliawsIn/L6n9ePnRYPO2HRgWJGXK0G8b13/ZEVS/Zj/lLNt04jgl7B7qqFF42F4tSUwgg81L96fe+QTk1jROdw0LHJtngMkGnrBJ6R8JDwre9NkeEdRZ36qpZlL+8p3q99XrK2gBxELXzu56vO//4UPMloKkAf71p9WOOnAU+VpS/u3ry0cNF1E2NTwlQ3btEcX5F4z7D05d0aDxaNcXn40b+3X3b3LDnzjQiAu1YN8hpBtrVOjJnS9xIb4xwonje6eOYn38w7b8yUU1LhuqM+NgiDWNsAB5uteEjTw2/duf05KSmpmAIX7bu6ul547ln7bbElCRwn4JU9efbxtKf+jylz+J+IDWPb29vguKIjUDz1JDnuIRKISp+DuIRwqsYGNwhs0lB+oLF8H/7V6M4hWnVS9YDQWCyOxCcoMqW7qwOPFvB0b6w4YB3gRWdAcDWJyVgYEpsJCH7B0a11pViUWX9kN1zbba5B1DHlnKKZVz8bHDVa7ato40sIyxiROiMieSpo4DpinWVF7tdimaxaUyeN4OjhiTlYghkQmoAYhm0N5djTFDCPcdBp11uUmTn2lh/eIRQAvncf/dufXRsdBbOzY6b2KpiCXZU68aThbJCSFQWJU2LlKKx/wohjeNFt00Wd5W/t2/a1bRcsfSNqKSbUMWuLydfW5k64TMAZY6gLQ2ENRmAB86DwaW5paj9yqK6pztAzuToSZ6bvePxMIXyxbBFe7Og6NCoQSzP9/H062rsqihsGn/y2NVxMACM4SWwqvuy8qo40wQjcS2xV7JeHkcCTR6xfrCptxJsHO+ih66zp8d09PXXlzSVD36RJDgjxNC/4wTRxiEA9Hz/bz8VUVtMk8O4CdxFuAPjk9NIrbcQzmKaOQw8jIiIf+MlD4mkcHT337NNYLuLQHmn8BCEwEiT4CXKpeJpuSwALFkOton8MOlpoawjBQaudOBVsSnBsUeRaAjmTp1x/481iDNhz94nHH6koL3ftkBzXOxymIXdgH9OrT92/fKBJSscNYGRYtpbgI+O8hnkWeDLEOlH5YuSFX622fo0zzC4c0Tw6Ouae+x/09+/zOHrjtZe3bd3iiI5o8wQk4DJHlBOQNU95pBLA3O3USx+z4+y2v3sXvNLtaMgmTiOwe9fOd5a8efmV30aPmAa7+94H//nEY2VH+vnaOm0wDu0IzhKhEX06Y/0n+dTfDqV9ohmfND/5rGsnSv29f2OZR+jvuPj4u+65X85//++9d6i/T7Rb16HnSwnuULw0TgJ6BLx99NZy6bVkmRMJYN1VS0vztdd/Fx4pvr6+Y8ZkjkgJDseVJ+/9evLClOy5iVu/tLEE2YnI2dUIIQAnIizwnX5Gmni7Is4KYQQ//e9OjzjD9PQMob/hQP/m669Qf3vEVfOgQVKCe9DF4lBJgARcQwABgJ968u+33nbnmtUr165Z5ZpBOL5XzHzvXFWCj+O7Yg8jmUByVmTOgpSMybHWMcWxueayV3Z7yslv3rQhOjr6jLMW/+eZp2SIJE8ZPMfp/gQowd3/GnGEJEACridQVFj4y5/9mPtRu/5KcARuT+DsG3LUaW8xXniefPrcTjVmpdufR+8Aly397MsvlvIX3yMulscNkhLc4y4ZB+x2BBCg49helUPbAAWn0dFq2frO7c6KA7IiwK9hKyTMIAEbBMry66QER3TLwt1VGz7Nty8OjA3rTs/iL77TkZ8oHVKCnyhXmufpOALYD2jrWz90nP0TxDLiRSI+emdrQ0dLTVtjRWvD0aqCtSfIufM0RxKBg1vL4TqMqJGIbz2Szsv4uexeU+rl7ZW/sxJhGR0Uu934YFiTBNyWAIMSuu2l4cBIgARIgARIgARIgARGJgGXbVA/MnHyrEiABEiABEiABEiABEhgMAKU4IMRYjkJkAAJkAAJkAAJkAAJmEqAEtxUnDRGAiRAAiRAAiRAAiRAAoMRoAQfjBDLSYAESIAESIAESIAESMBUApTgpuKkMRIgARIgARIgARIgARIYjAAl+GCEWE4CJEACJEACJEACJEACphKgBDcVJ42RAAmQAAmQAAmQAAmQwGAEKMEHI8RyEiABEiABEiABEiABEjCVACW4qThpjARIgARIgARIgARIgAQGI0AJPhghlpMACZAACZAACZAACZCAqQQowU3FSWMkQAIkQAIkQAIkQAIkMBgBSvDBCLGcBEiABEiABEiABEiABEwlQAluKk4aIwESIAESIAESIAESIIHBCFCCD0aI5SRAAiRAAiRAAiRAAiRgKgFKcFNx0hgJkAAJ9Cfg4+MTHR3TP49HJEACJEACJzoB3xMdgHnnHxQUFJ+Q6O3tnX8ozzyrnmTJz88/Pj4+MCgo72CuJ42bYyUBhxE446xFi88+D38W6uvrnn7yH9XVVcPsKjAwMHNsVnn50eqqqu7u7mFaY3MSIAESIAFXEaAEN4f8Td/7wYTsibDV2tr6m18+NCSjV119zfQZs2w2yT2w//nnnrFZ5G6ZZ5y56Jzzzhej+vlPH+jq6nK3EXI8JOBkAlDeixafi3/Rb3h4xFmLz1ny5mvDHMOknMlXXX2tMPLI3/5UUV4+TINsTgIkQAIk4BICbiTBfXx8vb17x9PZ2d7TM7TZHW9vn8DA0MDAEB8fv+7urra25tbWRthxGlO8a7a7r4CAQPElbW0hLDzcOtM9c3x8LfeSl5eXew6SoyIBZxLAL4L6qx0ZGWlu795e9CQ0lyitkQAJkIDzCFhkk/P6tOoJX1Sxsenx8RmipKamrLR0v1Ut2xkQ37GxaWhuLfvq6isqygsgx223dJvc5qamzs5OdTi+ipxV85kmARLwIAJ4F1RcVJg+OkOM+ZsVX3vQ4DlUEiABEiABhxJwvQQPDo5ITZ3o5xcgz9Pb8Iyyr6//2LGzfX39ZFs1EREe19HeevToITXTDdPvvP0mPurAHvr5ryPMnjBT7TNNAm5OAE/UP7rr3vCIyODg4P+9/86GdWvdfMADDe/pf/1j2vQZqWnpa9esqqyoGKga80mABEiABE40Aq6U4PA8SUoaFxERbx90zH9nZs6U+hu+K42NNc3NdfBFgawPDg5HTkVFoX3G2YoESMC1BFJS08QAoqOiXTuS4fSOFZNbt2zGZzhG2JYESIAESGDkEXCZBI+KSoT+hquk3UyTUybIufOmppqCwp2jenqktYCAYGh0+IXLHCZIwH0IxMXHQ5xVVVa6z5A4EhIgARIgARIgAacRcI0ET0vLCQ+PlSfZ0dFWUrJX444iS20m/P2D4GciilpaGgoLd6n6G/nu7wJu87yYOYIJYGVeWvro8eMnzJg5Ozompvxo2aMP/2UEny9PjQRIgARIgARIYCACrpHgmLQWErynp6e8PL+yqkQjoAcarsyPjx8j00VFu4YaQUW2dVwiPj4hZ8qU8RMm+vv5VVVVFRUVrF29yjmh+mJiY+fNWxAXnxAaGtrR0VFUWFCQn59fcKittdX4+Y7D0CflxMbGwSu9sbHxyGH8FCNIItLGjWhqTp4yNSgoWGQeKT1cUlKsqTCcQz8/PxHbsaqq8lDeQZgKDg6ZlJMzcdLk2Li4WizyPVK6cuWKxoaGgXoZPyE7IqI3ZkVxcWHZkSPW1VCKOshvb2/bvm2rdQWRAz/mCRMmTp85KyoqKiQ0FA5X+AkI8Pf3tyx4QE1EkUcs+ZaWloHsDDMfin/W7Lnpo0fjIgaHhCCMNJAfPlxyYP8+zfJfmx3ZdxdNmTodgatVPgkJidkTJyGUtX9AQEN9fUlx0ZrVK20OAHHlp8+YKQajrq6GI/WcufPVQeLt1uZNG9Ucm+nk5JRZc+biNxHLS9rb2np/DQ4dLCrUc07DHjpjs8bBWn5+nnDdxrDHjRufnT0pKjoaVxIMd2zfVliQb7NHZOKuy5k8xWZpW1vbju0D3jaaJrh8CxaePDpjDO5e/OYWFhbgrsa101TTP8S5TJk6DTdAQGAg7nwQKMg/hEvgnD9E+mNjKQmQAAmc4ARcI8Grq0ujo1Pa21tKSw/YFzpQTqI3NdXaZ8FxFx5K4rYf3YWvf9kFvFqnTpt+7nkXvP3W69u2bpH5pifw9X/DTd/LyLA8n6ALqB/8i6edN157WUc4ysFMnjLt4ksvDwsLkzkJCaPGHjeyft2ajz/8oKNjyAEfYROSQtp87ZWXzJXgc+cvuPCiS2EfcXAe+eufEG195qw5sjsIQQRuP/X0M1eu+PqTjz+U+Wriuhu+K1Ty/n17bYZjP//Ci3Ed0QQKZiCS8DC54857IUNVywOlgXrjhnUDlQ4nf/E55512+plqaB0QwDMVbOLaffzRB+vWrB7Ivt13UWRk1LXX3wizuNnAJzEp+dbbfoTHDLUjADxz0dn/+fe/rK/+vPkLLrjoErWySGeNG4+Pmg/++hI8Kir6+htvSk5JVVuJ08eT2DNPP9ncbDtQ0mVXXCX6Wr3qm48+eP+Sy66YN3+hamTMmMyTTj4VvQ8U4RsOdpdf+W21iUzjwcOgBMeTzJXfvlp9ZhuTOfb0M846erRs04b10qBOAu9brrnuRjwEqnUEATz1Pf3kEzClFjFNAiRAAiTgZAKukeA4yYMHB5/EGogFQoDLSbLq6sMDVXNJPqY6H/zpz7ANh3Xv0ENXX3N9e3v7nt27rEuHn4M52nvu/7FG8UizIPada2/AF/n7774tM60T2D1k8dnnWueLHBiZv+Ck2XPmPf7IXysrhxDe4YILL1H1Nx4GDGqRgUZine81yktkhoaGff8Ht2lEmxw/VHhbe/uXyz63tjBojrzrBqqJpx10jfnLgSogH88wmI/ELoklxcWOkEEIUX/zLT8Uj0w2h4FHxEsuveK008/6yx9/Z11hOHeRDAcPUCefchqeWGwSw/PJTd//wf/99ldQ6v0G0HcB++XZPKivq7OZLzIhgn90133q44daGQ8GD/3i18889WRxcZGar0knJibde/+P8aZCky8OZ82egwn1TRs32CwdZib0t3iSsbaD5yhQtc7X5OAV1s3fv9UmfNTEnwj8oXjrjVe5SFTDjYckQAIk4EwCLpPgwznJ0FDL1A7EjDCFpZkhIVEBAUHwLG9tbUJolOF0YXdbyC+hv+HJsGrl8qamJmhBTKRJQYCpqV//4qeOeBH8wzvukvobM53btmwpLT2MfjH7K/UoBDQyBwrxNn/hSar+bm5u2rtnD/xYwsPD4QyA73UhLpsaG4e0z/a5551/8qmnSaTQ3w59FQAI4nwx2/f1l8tqamoSExNxaiEhoWIMOMcN69fCKUIOyZRExpjMW269XeoeTLevWb2qpqYak8ozZ83+1gUXCXqYiXz4r3+CX4QpnVobueG731P1NzzOc3MPHC0ri09IgFdDWlq6aDKQK8Xw7yJhX85n79q5Y8/unfhFwInPnbdAQMC1ABPNTPahvDxA6zsjL69TTj1dpHHH5uUe6Ms/9p/1DLoshd/IHXfeI3/dcA9s2rgey17xVke44KMmHkJuvPmW//vtL2Ur64RwR0E+PK/w1AQnEMhfjB/6XlQ+7/wLbUrwmuoqzZsN/ALafCa37hQ52I3rmutukEX4Hdy4fl1ZWRnerkyaNFn2LitYJ+B+pupvPK5s37aloqIiMioKryDglIImuEu//Z3r4JiD+9PaAnNIgARIgAScQMAjJXhgYJ+PBFxCMZEWFzc6JiYVHrcqr66uDni51Ne7JuLEsqWfyXnWvXt2wwv87vsewBc/RghxgAnCFcu/Ukc7/DS0tXzpDNHw98f+JiXmym+Ww0njssuvEr1AENuU4FBFF118mRwJlNPrr76kPirAnfT88y+aNmMm3uMjmoesqZ9YtPic089cJOs4Wn/LjiAxEZJZzLPu3DFq1coV9//4Z1AnosLZ55z3zpJ+sdhlQ7sTF150idTfL73wnHzXARWF3rEY4PYf3QPjUGNXXPlt+OHY3ZFOQ6g9fGSFjz/8H66+PEQCCgy+FvAYwSSomi/Sw7+LVJutra3PPfs09qYRmXDvQQ68KcQhnlg0Ehxu1viIUpCUEvzAvr2fffqxalknjftc/KKhzt69u1958Xl5D3+x7HO4iOAdDopwJ0BP40lMxxSKIKbfe2eJuNvzDuZu3LD+N7//I94zoAi/L3icsP5FwCOf5ta67oabsApCvyNZivHLu6ii/Og/nnhMPq0t/eyTRWefi18oWdlm4spvXyMtYMy4BHKQyz7/FK/ChDMV2l548aW4UW0aYSYJkAAJkICjCei9MXd033bbl1Nc8ALPyJiKbTU1+huWER0ccVfkjpt292VHQ+gtqb9Fc/hsfPjB+9KU/AqUOcNPnLlosTTy9L+ekPpbZEJz79q5XaQxKYtVerKyTJx3/gVihhI5mPN75SWLdhF18HLh3XfewhQ+1jvKVvqJM85cBNEg6zhNf+MVxL+f+qfq54DZ0Jdf/K8cCZZLyrRZCRnHGspJ6m9pHKsA5RJPuIDLfHMTl1x2pTT4yUcfaPQ3inAr4gnqr3/+PynLZH0khn8XSWvwe37s4b9I/S3yv1j6mawQG2fnhgDSgnUCT4lyQSeefF5+4b9Sf6My7oe333pDrifGewlrC2rOmtUrIaZVUHi5tHXLJlkHYW1k2pQEHh6EuzasYbT//MfjUn8L+wAIJ3WdvkBAPoNhtP955il1/LD52isvNjX1raielDNZrD/WMcgiEiABEiABBxHwSAkOeS1wIDRhSEikSGPCu6qqBJ/WVkvIDkyQh4Y6dV8PBD3AKi7rq7Vl00apCPFG2LrCcHJCw/D6us/7HPrP5iZ8X32xTHYxf0G/FWYiX9WFkNqyst0JOJ+cc975srnT9Dd6xGJKVXmIMWBeHFdHpBGoRA7MlIQqZfLzD9m0WVdXK/LxqCPn423WtC8zPCJCvgnBmeJRcEh2TLmLZI+fffqRPF+ZCV0uNXFAQL/4MLLOcBIzZs6Szd97523rewClnx+fUIdLunTckq1kAkFdPnj/XXkoE5jklmkZ3kfmDDMxKad3vaz4QfATPPQeP7L8f1g3jtC0aTNk1Q3r18m/OTITCbyUk4ez5/a+E+APCZAACZCA8wl4tgQXvKC59+9fW1y8u6wsD5+8vM2HD++XKJOSsmTaCQmb33noF+IDYfjEADAPbe5IcnIsQdC2KLN0ai9wqIUbgMhBnEG1CGl4msogHnAGsCniNU30D7H4EkswZR1n6m902t1j20/m4HGXYvgSyHcpcpDDSXR1dcrmNpUfSjErKet46S7ZlNWGlJilRIBZs2rlQMMYyObw7yLVMm549VCmESVTpk1PqAJ03949Nu0fzLX8cUhI7HPstq7Z3d1/qejxGlgIcTxp/v+TlF9kOKDb0YEaD3H9WtsW1ivuN3EOeBdhx7DZhARIgAROQAK+nnjO0tMRg29vb83P36bZBbO2tgxRC8PCel8TY6YcO2W6w049dfV1Ikoaxo8ZR50A1UO9KNHRlpn+qsqqgZo3NzUJnQ03Vk0dLDWTOeXl5TJtXwJRnBGCULZ1sv6W/VonamstU5hwhEB8Ous69uXAvQG+LmJWVS551JgSK+GQiZlgjaeQpqZ9h3iOkg3xxCXTBhPDv4uMdATPCvmwZ6T+kOrIdxF4AIiM0j5nWpvCbY842db5OjlYV6pTOsyiSOXZ2L6dUyMi+t6GYSQDOYyp9x6ivw9zzGxOAiRAAiRgHwGPlOBScGPqMT9/qzxUEcAjRUhwZAYFhbmDBFe/+ZKSknMbLLNx6sjtSIcd90JB29raAUMcNDTUC+9VzAFjIxt1PlL1jamsGK4EV/V3/qE8h8Y/GRKueiUKSkJCgokSHMPAmcK5Fgk4hSP2iCbkSGpqGsLhidEOKZ6j8ROUAhRNEBzdeENRc/h3kZEeB3pNZKTtoHWwA5Gog1cc9z/40KD17ZgDduguYKp/VHX1gL/IOucl37CBs/T5sa6PRxTxFggLc61LmUMCJEACJOAEAh7piIJoJwINhPVA+/Jg3x+Jz88vUKZdmGhvs/ghIMyfiSNRpxUH2nME3SEkuexUMxEuv7lRob5huNH6Pvzfe7IjRCJXI4LLfJck1MVtGgLDHw+i3Eh9iS1pEHBDvq7BGrtbb/+R7OJ/770j0yYm1NtAfd4z2IXa3L67yGBHjqs2ZOciw5HIHTdm1bKfb98qF2SqbktqHf20r1/frIqO/oYFWYpNW/UNspQESIAESMBBBDxyFlz63SIW+EBcVGluHS9loFYOzQ+PsMhuGZbBlB7V4L5YlzmQJ3fI8TlCdNrY2KB2rXq4Dn9iDG6smI88a9HZogtMiuN8d+7YpvbokjRWrcp+Td8WB9PeTz7xGOJqQwhiwSVi/+GDZZHYrUlqcfQugkzLYZiYUHUz1mXKwBcGuxj+XWSwI8dVwxpKqcIHWhSr9j5ULxS1rSPSNbU1cp0GYpvYXI6p3y9+kcXjtIicOFBlvAQTRW3KvMBAlZlPAiRAAiTgCAIeKcGx846Ic+KrTBpp6MioKciXs+aaOk4+VF/02zFJqTPa8qNHZamMiSFzZALbRoo0Jms1q+VU+SVdlmVDOxKIQIyRyC3isdvIf55pQpRiO0yZ2ER11dCPLGFfpyUlxYjnOH5Ctmyuxv0A8/ffXWJzPxdZfziJ+vo62Rx+4RiMPDSSGP5dZKQXh9bBQ4gQoFiK+u9//cOhfTnCeHlZWUbGGGE5MiLyaGvZUHuB+0pcfAJa4akP954MAaTawfMhfkQOQjeqRUyTAAmQAAk4jYBHOqI0N/d5Snh5eWO1pU1YqvMJ9su0WcfJmaq0rTQcWtvIIMvLLRJcOhxrGuIrWXqaWn/vqlPCScl9LssaC0M9fOuN16TmRu/fu+WHyckpQzVibn3sECkM4kW8jA9jYhfYd1Pob0hAbGoI73AI/dwD+1d9swJb4fzuN79wnP7GWWALTHkuaemjZdpgYvh3kcGOHFdNesBDYqpvPBzXo7mW1UW0RjbCtO69QllLnTTAr5v6J0Ktb22NOSRAAiRAAo4j4JESvKXF4qwcFWU7rFhERJyk1tLiwDhishf9BFbjYYtsUaeutlZ1StZvaKRUXVYoNv+zbjVt+gz5bhohhzUVEH5B6nKsUcvMHKupYN8hduaT4h6q6PY774mO7g1T45If+DrLWCXYtVtnDKpXtFoNcWzUQ+v0qaefITK/+mLpO2+/ie2B/vH3RwHhow/f37J5k7kX3br3LZs3ykzsc6lOwMt8ncTw7yId48Mpwp7zBptv2bRJ1jzzrMUy7SmJ0tISOVRcQZlWE9gDQD3UpA8ftrz6OPW0vrtRU+f0M86UOdu3bZVpJkiABEiABJxJwCMlOPy85UQ4JLi3d+9+0eoPcqKj+6ZyEbWwrc15L1uh3qZMna4ORqTP/dYFMnPPnl0ybTPR1tYXwFv/61a2RTg8Od+MuHgiLocsFQnpmY1Dm3OxO7ZbfLWvvPpaqdc1dhDrQ5Ojc4jJ4H/+/THpIAE/3bvufcD0dZDWA8D+89aZ2KpTZh6xFY6wpblvCW+UEuRRNrnoksvGjMmUh9YJnJ3cGn1IlKxN2ZcDh3sZyQ4PPJdcdoVNOxikzdcRptxFNnu0IxO+UnI9YkpKqkELe3bvxC0nKmMRsBpqU7WANxBHfgAAQABJREFUCXJHbI2kdmFf+kjpEdkwY0ym9W8KMtW/JLKyTEBSS+cTLAJWl1mLOvgDJTfhAmQQk22ZIAESIAEScCYBj5TgAFRRUSgwYanl2LGzVM9vCKExY2bAR0VUqKwsciZQ9HXt9TfOntNvB3h4QmeNGy+Gga+9ZZ9/pj+k0tK+eNWYONfo6dg4y+y+auT9996Wh9ffeLPaCmL6tjvuEh6iqINt0qVel02Q+PSTj6SDONy4f/6r36rSB54kU6fN+OVvfg9TQ4pwAiH1xGMPS1kABXD3fQ8Yn9dUR2g8jcDkgCDXnKHhaaefedoZZ0kLcotEmYOEjKOMJa3ZEyfJImjrq66+duFJp8gcmwnQk4Emxo2f8Ls//PnBn/z8vgd+Ij633n4nxBPcVBx67kveel2ObcbM2Xfcda8qwnAnLDr73N/8/o933nO/TT+H4d9FsvfhJ2SEezzPqJcDluHprvkVE92BP7Zwl13jeQ93gjxEIjg4+Kqrr/nZL35z5933S39otYJr0/hlycs7KMaA37j7HvyJ+qiAd1M/+OEdyNcZJJ5AJAHU/PFDv4iJsUT+xu81cuSJr/pmubxjdWyyiARIgARIwBEEXLYcMytrjmYxpZTREeFxodkL5dli88uCgh3yUCQaG6sbG2tCQ3uD2sIdfMKEBfBOQU1/f4TiiJD6u6kJ+0lbJpY0Rhx3eMVV37nksish6bAbTkpqqr+/5U36yhVfS5ePgQawfduW6TNmitIbvvs9xHkoKS6GfoITJ7wL4NgA92JNW/h0wr1EOCLjqxetMCcK1wLgwFwg2or6eAB4/dWXNG3FIcIvvPn6q3h+EIeQbhBq0ASNDY1+/v6IpiK/+zEfjL6kYLVpTc3ESJ54/OH7HvipGAYE7p133fv4o39z6Nc/tgn8/R//isvf2FAfn5CoemWAnnSPUceJ9wCZY7NEzndvvgULK+FbjPgweHySANX61mlEO5FKHRc9JtZy3VEZk+inn3EWLsGSN1+DX4p18+HnIMTH5k0bZs3uewKE482vfvt/mN5uwTrFkBDVwQZi7ne//oWmx+HfRRqDwzn8Ytln191wk7CAy1FdVYXTwHNOdAx23er1CKrAg3hBvqaLr75chtMXO87gql1+5bfPv/DiivKj0KZ4fJXzygg8gnw1eqbGjt2HeDY47/wL1eZyH3s8y+EhVi164blni4v7zRH8792373vwp6IORvuzX/4Wv8V4gsUvIG5jte1A6dWrvjlr8TniWuPfB37ys5rqatzJWIuCbQHkbzH+Cn326ccDGWE+CZAACZCAown0TRU7uhtr+4gnCM2tftQ6ar66sFKtgx3p5YY7+F4JDo6Ijk6BKJf6u7m5rqhot9rECWnIZfEqHF+30L6Iiq3q7107d3zy8YeDDmPvnt34yGqwAGmIuUChI0859XRZpCZe+O+z6iY4mD+DdoTLgZSPGNizTz9pU30KO4gb+OrLL0IjSrNwWoBXBkzJb24U7dm9a6gB7+Ag8fSTT0jLmJK/ZbD5PDkGOxIQaqIVpv2wMFHV39gWB6Bs2ly3djXc9GURmM+bv3BC9kQBsPxo2ZI3LXPMspqagKTbtHG9mmOdBknMqeNjXWRKDgYJEaaagm8StJeqv3EnrBtg9/Lh30Vq18NJ45cFd5q0gFMQex7JNRVXXPltWaom8HSnrmvEieMewK+P1N+ojKcSPGKprcxKw8sFHakfOeuMLtR8pBF5UNMvFsW++forMhNtsaUu/oxI/f3N8q9kqc0ELu7f/vwHuTIV9xvQ4TbGY4n8Lcbv76MP/8Whz8A2x8ZMEiABEiABScAnNt6c8BfSosFEbGyqtQ+3zbaIZ2JzJht6rqamDFtjHpv27vdyFlEIy8sLSksPSM1n07KJmYi+h+85GNy+bdtrr744efJUzZcrppPh/PDhB5Y9a/R7hxqGiIdukN+aoj6+NTEDbb2eEqU4WagWbACJL2y01dhHE6irw4dLNPmaQwjNHdu3YuoXU4aarmG/9HDJc888vWb1SqlxZXMIVjmFjJlI8RwiS5GARzjCg0yfMUtkogt/P7/c3ANqneGk00dnyGiAj/z1T3j+EVdE2sT4EaXkpRf+az14WQcrGqF41Hf3KMIcJKaWQa+7p1sskoMpLLiUrdQEVOOK5V9jNrqwsADT7eJiHS074uPrixcLUo0h7ExtbY2qFFUjw0yj06Kiwvj4BLxw0JjC/YOb5Jmn/7lv7x5NkTgczl0ErX/yKacJO/v27cGrG+su5i88SfjGYFZ70McVeDY3NjXCq0dykwaLiwrxNAsjMkcm8Ddhw/q1WPyanJKCoOwyXyQQCWfp55++8uJ/1SCMso78RcZNsvzrL2W+TIRHRMhQm6tXrrB+Fk1JSYXelfX1E2tXr5IrJWRNuIrh8mVmZqlPTShFTTwh49kJ3kSi8ro1q60HgCL8tUERtruHcNegO/b0tfrFF57DixHZIxMkQAIkQALOJ+CVPXm283s1t8djoQkD4YKCmfWuLnzztsAjxdwu7LCGmdcxY8biC3uUF9yvSyFHrFXpoGZhJDUtHTPZcAWpxkxyRQU0NETSoA0xez06IwPfwYGBQZj2PlxSMqj3i8YmLMCFBtFR8BWOvZAKCvIH2vFH09BVhxB/F1x0iej9D7//NSKvY/Ya059Qot4+3hg83vgb3OsE4cNx7nD7gZG9e3c3NjSYdVIIUvGtCy4S1qC/4SVvlmWbdvD6ApHp4IHQ1d0Fnyg8FQwpIP3w7yKboxpqJu5ARJPEbwEejerq6xB7sazsiMFLiScxyNDYuNjOjk7cAHgI7OjoGOoAXFUf/vpJSSmYvYYozz2wTy6oGNJ4cA9kjBkbHBI8qmfUsT8FxTqPoEOyzMokQAIkQALDITASJPhwzp9tRwwBawnuzFObNXsOolWgR8QC1/fzhjcwPBBQEw9F1t7Yzhwz+yIBEiABEiABEnAVAa27gqvGwX5JwKMJYLpdBN+AE4K+BJeuEep+8h597hw8CZAACZAACZDAUAlQgg+VGOuTgA0CcK0WbuJwv4YW37hhnXUl+NYfC5XY550M7yBZ5+RTT0tPz5CHBhPwSlphy1/ZYHNWIwESIAESIAEScBUBSnBXkWe/I4qAGmodgfBOOvlUrEesrq7qaO9ALOqQ0FDEB8RyVRmdBg79n31iiY0zY8YshPsYKhF4ClOCDxUa65MACZAACZCAOxCgBHeHq8AxeDwBLPLbvGkjPMLFmWAhnc29b0Qp9DdCWyBmucefNk+ABEiABEiABEjALgKU4HZhYyMSsCKADXdqaqrPOHORnOq2qjIKwSgQaA8BDTUbG61dsypr3ATr+vo5iBGpX4GlJEACJEACJEAC7kmAEVHc87pwVEMmgH2IsDNlVSV2eCxHeG9XbTuCCHqI5o5Q1ohsiDjZCA/f0txUi5+aGgRGPHBgnx2xKYfMgg1IgARIgARIgATcmwAluHtfH46OBEiABEiABEiABEhgxBFw2Qb1I44kT4gESIAESIAESIAESIAEDBGgBDeEiZVIgARIgARIgARIgARIwCwClOBmkaQdEiABEiABEiABEiABEjBEgBLcECZWIgESIAESIAESIAESIAGzCFCCm0WSdkiABEiABEiABEiABEjAEAFKcEOYWIkESIAESIAESIAESIAEzCJACW4WSdohARIgARIgARIgARIgAUMEKMENYWIlEiABEiABEiABEiABEjCLACW4WSRphwRIgARIgARIgARIgAQMEaAEN4SJlUiABEiABEiABEiABEjALAKU4GaRpB0SIAESIAESIAESIAESMESAEtwQJlYiARIgARIgARIgARIgAbMIUIKbRZJ2SIAESECPQGpq2qLF5+jVYNnIIuDj43PJZVeEhoaOrNPi2ZAACZhDwCc2PtkcS7RCAiRAAiOUQGB4YkL22ZGpM/xDoltqikeN6hnqiU6clHPLrbePzRoXFBx8YP++oTZnfY8j4O3tffud90zKmTxvwUm7dm5vbm72uFPggEmABBxKgBLcoXhpnARIwOMJJE2+cPIFf45Kmx2ZMj127KmJE88r2/tpT1eH8RObN3/h1ddc7+XlhSbJySlff/WF8bZuVNNrVFR8cGvTEE7cjQbv9KHExyecc+630K2vry9ugLyDuXW1tU4fBTskARJwXwJe2ZNnu+/oOLIThoB/SGxgWALmGgPCEgJC430DwnK/friro8UjAHj7+Ht5++oOFYLNM85F9yz0Cr28vAPDkwLCE4PCk/FvYFh8d1fngS//otfGE8pwK86/ackor34+e5V5K/Yt/YPB4c+eM/eKq74jKnd2dv7j8UeOHi0z2NZ9qmXPTVp03SRfP++2ls4Pn9pWklvjPmNz25FMmTr92utvFMPr7u5+8onHDh8ucdvRcmAkQAJOJqCvG5w8GHZ34hKYe/0rGpVTvPmVpqp8jyAy65rnA0LjdIba0921+t/n6VQYAUXhSTlTLn5EPZGe7pEgwSOSp2juTJxjeNJU9Ux10vBDsEN/j54Yc/GPZgizmHV+5scrUsdFXXbPLJHT1tzx7wdX6HTqiKJTLh8P/Q3LAUG+p14x/rU/rXdEL+5j0y/A59a/nubt2/fo9fwvVzXXt9/2yOky58Vfr66rHOS5eueOba++PEqocPil3Pajux9/5K+VlRXuc5ocCQmQgAsJuJEE9/Hx9T42ldjZ2d7T060DBfNtvr7+OhXUou7uzq6uTjWHaRIwlwBmwc01SGvuQwBz+TYG09NlI9MqKzEp6fobbxbZXV1dxue/A0P8vL17vVbwIxIBwfjz2JfjdTwhKjjnXyhv2VFQmPNu+NiU0DFT4kIjA+B+31TXVri36mhhvRyJfgIyOjEjIjkrMjjMv7O9q76q9eC2chjRbyVKu7t6fP19ZM32FnyPdKs5eBsgS3USqgqHR8qd99z/h9//ur3N0Bh0zLKIBEhgBBCw/FV14cnARTI2Nj0+PkOMoaamrLR0v854AgNDMjNn6lRQi9rbW3JzN6g5TJ8gBPCk1usaERZfW7z5BDllnqbpBOrLduElhpe3RY2hi5qiTYN2hFnP791ym/D/RuUXn/+Pcf+TlsZ2ab+9rVfutyge2B3HcmQF5yQObCqbtKBv7f725ViQ6vAfiO+Lbp8RHh2o9rTw4ixo6A+e2qYnxL1GTT0ldcGFY4NCtY8KZ1ydXXm48b1/bBlUiHd19psGEoK7p6dHXtDWZqM+8VDhy79KOf3MRTiRgICAa6+78fnnnlFPimkSIIETk4DrJXhwcERq6kQ/vwB5Abx9+n3byXz7Et79vzvtM8JWHkQg5/w/hMRk+gaGycnpHe/dW1+224NOgUN1HwJd7c37v/jThEUPSRXeXFOYt/Kfg44Q0ejCwsJEtW1btwwpCoq65BHzrzDS1mSZc21vtaQHHYZZFZa+tPvA5qOZU+P2rC0tK6gzy+xAdjJyYi++Y7rUu2q1kIiA7/x03kfPbD+4tVzNF+ngcP+rHpgTGRdsXSRyoOxv+t1Jbz28sby4YaA6Ir+7u0e8eYDyFjldnT2+fr3vInpzhhIU5/PPPpk6bUZ0TAzaTsieOG36jO3btgqb/JcESOCEJeBKCQ7Pk6SkcRER8UOlj3Ut7e2t+q38/fvmTrq7Db0y1rfGUg8igMhxmsWRUjw56Cz2Lf2dj78l9G9Y/IS0Wdc4qC+adT6Byrxvaku2RqbN9A+ObqzIrT+ya9AxhIWHz523QFRraWlZ8uZrgzZRKzQ3WmZYxfxrS5MyL27MBUI1aEq6YHclPqaY0jcSGhV40e0W/Y1HjqJ91W3NnYljImKSQkTbb31/6ou/WV1XofXGvvrHc8NjgkQdCOXqsuajBXW1FS3RicFZMxKEOzv8Sb7z0Lwlj2wqzdMLUQLfFf/A3q9IKG9hEFPjwoLMEfmD/ouRPPefpx/48c/EQ8Wll19FCT4oNFYggRFPwGUSPCoKfpLj4NVtB+K2tqbcXL3FQH5+gePHzxOW4dZiRxdsMkwCybHZfj6WN8jltfktbQ6fORvmmO1uXle6U23b0VJDCa4CGQHpzraGyoNDWAF53rcukGf92isvwhFcHhpJtCqOKFh8iSbqvLiaNmLN4+osvGisdHyH38grf1grp5xPujhrzrljcEaocPIl4z5+dofm7D5/cfcV986C0q060vju3/s5nPi+suf8H0wbMzkWTVABAV5e+u0aTXP1sKO9W8zkdHb0XT6IcuETL3PU+vrpqsrKb5Z/ddoZZ6FaYGDgzFmzt2we3J1J3yZLSYAEPJqAayR4WlpOeHjv30Hx09HRVlKyV+OOcrzQnv9jY9NEs95ZkOrD9phgm+ERuP7sJwKVieGP1z28ad+7wzGJCciOllr9dbrDsW/dFnPnPn7B0F79i7x8/IPgnNA/032PfPyC8GlvrrZjiOYS8AuKwhW0Y1MbO0auNsErEb+gSDwXwaVbzXdc2j8gYPqMWcJ+W1tb7gG9lS02h9HZYXFExuwv6mB1oKzZqjilyMyRk/AaNX5Wojgd+Fu/+bcNUn8js0vhMHZ6vLePl0oGFQ7n1nz07+3RSaEbP8vXMAFVOJF/7w+n9C7uHDUqOjEEU9oqak39Djj8hPd6k0vne8zHww1GzdE00T9cuXKFkOCods6551OC6+NiKQmMeAKukeBNTTVCgkMil5fnV1aVwLfOLNZw/o6KShLWamuP0hHFLLDOtwPtOGbhrREp0wLDEoUzSWdrfcn2t0u2vKEZTMa8m30C+t5QW79aGT3v5qaqPLVJ8aZXpSqNzpgflT5Hlhaufz44anTmybeHxo5FNDqoxrxv/lF5aCW2ZRk9/3uhsVkYCcRcXen2PZ/+uruzTTZ0n4SPf3DarGsTJixGTGvBDWPDUOuO7Cre9Iq1W7xDCcSMWZg89fKwhAm9rvk93a0NR+vL9uSveQaa2HHEcA8kTDw3dfpV/qGxckkAgiQ21xQf3vZWRe7XOs9yqdOvRFzzQcdWsPY/A8V6nzx5CtZiCgs77HX5lY7IctmfzFGdUvTHGZcahjWU0UkhkKodrV3wu4BCPZI/+PuocTMT/JUQKNa9lB2qwzSzdf7wc6C/hbMHTG37qkjKXxwiaNbsszNkF5gInzg/efdq7SRL3vYKfGQ1NdHT3ZO75eiMM9NFJpR6edGA8VWkz317a9/Dm3VCNT5ourGhofxoWXxC790VERkJb6WG+gF7H9QaK5AACXg6AddI8Orq0ujoFMQqKS09gBCE5kKMjk6Wi3iqqpyxct/c8dOaIBCWMHHqpY9hHloFghAnUNvRo+dhhaWanzL9Co3/t1oanjgJHzUHMVKq8vveQcdmnhI/YbEsxSY6SZMvlsoVE6gTFj8UuCEpY/73ZR2URqbOnHrJo9vevkNmukkiZdrlYxbcYh3K2ts3ICptFj5QwLs+/In68OA4AulzbkiffZ2FzLHtexCmBqJ/61s/bGs4aikyLxWeNHnyBX/C+WpM4g4JiRkz/qyfZJ502/b37mmpLdFUEIfJ067wD46yWaRmlu9b2lBue3p74qTJsuaqlUNwX5GtkOjq6PYO6F2YLqOjyBwjjijwh77g1mnxaX3rQYVlLKZEAq4dbz+2Sd/IOTfmqAH4RHP1383LCla+m6vmmJWeeVafPobB3WtLVbOzz8mQ6lzkzzgj3VqCq02s02owQf24KK3H3j/AQntLn2u+bCtzrO3r56xfv/bCiy4VdXImT1m3ZrV+fZaSAAmMYAL2uGKbguPgwY1FRbtM199w8UN8QzHC5ua6tjaPcRgwhepIMpJ12j0a/S3PLjwxB6pRHtqRaKoqGKhV8tTLpP4WdSDdVP0tG4bGjQuKTJWH7pAYe+qdeG9grb/VseFpZM51r/j69700UItE2iwC4NZPfys9ofdZV/8HzkVKnjlJbCA/9eKHrfW3ah0PcjO//azmqUytMMx05tixwkJra6vxQISaTjHHDMGHj1xxWF3WJHKwuFBTWXOIoB83/HqhRn/LOij9/h9PQcBsmeNWCfiHiPE0N7Q3VFuW3WMif845vV7ggCAn4CPj+z2iGzmRzCl9PpCY5NaX4JWHGwTwytK++f6q0r6LgscYI31Z19m0wbKKaeLEHOsKzCEBEjhxCLhmFtxxfCPC4xBoRdivqChyXEe07FoCabOvg3OI3WNorT9id1u1YfTouYcHmExVqzknnZB9dlLOhUb68guKyD7317s++LGRyvp17CYAlZw2+1o4+ejbH1JpYHhi9uKf6T+BCIN4ypp0/h82vPDt7i6T38LBfkhIqOilocF+N4M3/rJBc+6v/9mi3jRF6iH2o0FUEDlbDD8WhBGsLW8OCQ/InpcUERuEypjhRsgRbLqpNlTTW78qwnY2ao5I55yUYp1pbg7GLwxWH2lSLc8+e4w4qbUfHkwYjdAovZDlaao1ddJR8cFxx98M6IdDgZFv3j6Aj2ptxZL9+Kg5Q01jbQAiegk/paTk5KE2Z30SIIGRRGCkSfC4uL4pcMyvNzbaswRtJF3dEXAucLeF/3dAWILmXLDhjprTXFME9waRAw9ytQhpyCx1Kd4xL/BB1h7Ab9jas8V6i5aA0H7D0PTrzEPMK+O9gabH9qaqwg3PY39HBGpMyD5HLYVrO/x5qgsHVHUmEkAgbb/ASOh+dQBIJ0w421wJPvHc32r0N86icMMLrXVHgqLS0mdfr77fALHMU+44uPwxzagaynZHpEzXZPoG9KlqTb71YVCQ5fZziafvomsnSR+S/J0VHz2zQ+4ys/bjvMXX5eQs7FV+UNiTT07ZtUrrSC3OaPX/DlqfGnIcLcEhqaUboeoqgynwuedmYACYut6+omT++ZbHA+wkqta0OWyRmTUjHqEMhX3Y+ez5XTqVHVfU3t6OiCiwL/51XEe0TAIk4OYERpQEDw4ODzi+Jq+yklPgbn7vDT684s2vFm54EfVGz7spbeZ31AYaPwo4FsvSk279RKOed3/0s7rSHbLCoIlDq58q3fHevO8uUVXj/mV/rDi4YuEPPpTL+2DHPyRmUGvOqWDtDd/RUrfxleuhQTGAityv2hrLoUHVwaRMu2IgCW4WATxBbX7tJrHyFVsmqcteMRJMhGOxpnTKV8dmRzo0Lguu3v0a9nRvfv3m1voykYktLadf8U+1Qvy4M60l+N7Pf6fWEemTbv1Ule/WFWRO6PHteJBT7/TFdohjPWHO8XAiTR0fPL0dCxDl2BBaZNnLu8dMiRUz3KdcNn4gCW5p4twUIoLLDqUTPHKwClM8V6z76BDOSC6URBG83nUkePbcpJyTkvEGAC4rMtAhYgu+9qf1Oq3kGByRaG5qEuLb19fPEfZpkwRIwFMIjCgJHhc3WnBHoJUahgN3yj2I0BN3X/52gJVjsRqREAM5Z85dZ828VTOiHXmffbpeOwcp65TufF/ob+RUF6zTSHBZzfQEVCP0N8xCs0oJ3tZYUXFwOTKhawNCe9e09f3YFdj+eGMz/48fv0hjLn/Nv4X+FvklW95Mm3mNqiMjkqfgWUWtI2qaSGDHe/fIyDMHvnp43o2va2apMd9slgRPyrlIQ6Dy0Gqpv1HUWHGgpaYY0+GyGp4BIpKnIbiNzBl+IiwsXBqpra2RaeckJs7rexeE7r58bW8//X18BJjhXnxd7+pkhLgOCPYVQQ+PF7r4f3U7+ub6djGaY1PgvQ9XiI6y9eveuZX2lr4QJUiHRQXqRDWZND8pbXy/JQf5uyo/fma7TixC0anj/oV7ktgmU4bNcVxftEwCJODOBEaOBMd2PKGhfX9qa2qOMBahc247SPCI0MEjuPn6+OOjGVJEqEUuaIpweHTvpzKzo7VOpp2WUH1XZKfWglUWuTCBdavWvjpVBWvUIcEbBw8V0l2nt8jLOygiGT48ajU1PUwCYNVUlS8NIgphS+1hVQGjyERPnqjRfbtxyR6r+xNAft2RnZoBYFGmuRLcz88ytWlTAcvhOSIxfpbFZQta02YXxXurZH5McmjpQb0dImVN44nbHztD+nPrt8Iek/+860u1TlCo5a8ElkKKotmLj0+Bf9w7BY7Mrq5u2Sow1AJcZspE+DHfd3mIBLbmuePvZ675IM86cLhazXFp5a0ENhjyhmu44/qiZRIgAXcmMHIkuNyOB7grK4vdGTrHNmQCztpUZcgDc48GWIZoPZDpl2lXOvbT38caQLjrSHBrm8PMaa4t0ijgfq8UhmfdL7BfAD4Yy5j/PUz8q1YDI3rdoNUf60cXtdSOdFOjJVaGl7eXHRaG00Q6cmCWV51RHsgmFjWaLsG9fSz+3AP1K/K9+xZeWmo11bfJA7HUEt4jc8/rnQKH98jWLwtFKfy/ZbWWhr7JcpmjJt55fDM8Vfz8faISglPHR2dOjYUvOH6wyybsr/0wT63snLS8J/C2lvrbOczZCwm4J4ERIsHV7Xiw709HhyWUlXty56hIwEQCNiW4Ruza7M7ESWib9jWZnW39Ylyg1EgEbo0Rm4d4G6NZANBrPCR21IChF/vMBITG2jRod2a9EgUlJHiw7u3uZoCGUptCXyIu4QC1LNkQppYDs1KG91mzfkugRiH0C+z9epq5aLTwAt/waT42JxJjVKO11Fe16AwcBoXNgt2jEOYFfL7725MEpXnfysTjR6HyTkDHjolFcsFuV5fFncZE+zRFAiTgKQRGiARXt+NhLEJPufm6j60U9JTRuvM4BwqgPuiYVdfwQSubUUF9Cd9rz8vbMp05HPv6gcB1LXvrlg65UJ0FV5dmDtmQXQ2wf+SQ2mE+eEj1jVR+9qFvfP2s5rdttZShWmRhQ41l9sQ/0AdT4PPPz0QppsA3LSuQ1fpLcEsTWWGgBJZgLnlk0/W/WiAqjJuV4AIJfvzBrL3dMuU/0ICZTwIkMIIJjAgJrmzH09HR1tRksmvjCL78wz81yOjfvmBjsu0n1yxVV2R+vO7hTfveHX53tGCTQHuTba9fm5XVzK527bS0Wmp6GluNamyaNQAsIR3V061Z66npy+ZhV4fJBDC1iR8fn14NmpKSarNTx2VCqgr/DXRx2ICT9+GD5i8YxfrOtlF9btxDPdPuLvhm9IjQJRGxwXIKfOPSAhRJa0HH/b/hy6FGR5EVdBJizyMsRUWd9Ox+KzV1WplVBOfvsOMxc+rr6s0ySzskQAKeSGAkSPD+2/H0OQt64sXgmEnAPgI2dxra9dFDg+4Aj0gv9vVoXytrt5OOtgb7TFm36ups04SEP7Lrf6U7/2ddU83paDVfBh05UpqamoZewiMinLzeDrO8wssCQnbJIxvVM/WUNMKeCH0clxqaktX7zAa/9k2fF6jjj0/vCzvT1WHPWka4pgSk9AZ6D4u2xEBU7TsunZY+Who/mHtAppkgARI4AQmMBAkut+PB4pba2qMn4FXkKasEcBtoXq4b31dFtWN3undGtv/Psdf9GJRlGq9/+XCPepW01RxwaNy42uLNwzVtXnu4a4fE9DoVqD8ttaatnEa8l+Aoi75BLyGxWS2u2Lt0/769QoJjDJljs5yptGqONok92zGRHBIRoL8Bu3oh3CddXlwvwghi/GJUm5cWqC4ryJdFcuv4IY0/6PjGn+rM+pAs2F154qQc2XbP7p0yzQQJkMAJSGBojoNuCEjdjqe6uhTyyw0HySE5k0BHs/bdevTo+eoA4Dk9DNdh1ZLtNELvaQu8vGOzTtVmmneM2x7h9jT2Rs+50eZaw/gJi2OzTtNUdsQh1keqe+WgX+sVk1WHVpnV9dF9SzWmwhNzYjJP1mTiMCxhYtqsa6zzdXKsfaZtRmwUFnbusAQaP/2Ms3TMml60Z90RaVMEEpGHnpLYvLTfm0yI742f56uDz1mQLA83L+tXWebrJDDFHhzWtwKhpbFDp6YjiubNXyjMIhZKQUG/83JEd7RJAiTgzgQ8fhZcbscDyoxF6M63mtPG1lxTrIk0lzDx3ND4CVX5qzEPDVmGvdlrijft/vgXDhoS4mEjCLe6iSY6Gn/GA9Hpc5uq8oKjMhDBet/nv60v22PiAI7s/AC7zKgGsdRy1neeL1j/PLbG7GxrxOaRqJA6/UrfwHBMmW+tKVKDdqsNTUxPu/wfB778KybjozMWjDv9Xq3lnu7qwg3aTHuPEUh+zPzvadzBJ579i7K9n5VsfautoSwoMjUscVLylEvFgwHc0Ad1UxFj6b2UVnswtTaWDzTSsiOllZUVsbG9WziNzRqHCBgtLdoXIwO1HWZ+3vZy6Us97bS0HStK4PpsbROzyIhG0qwbzs+6lXNyCnZXwr0b23yK7rZ8UahuowM3m9nnZIgi5Odu1b72zMiJveAHU3etLl2+ZJ/N104X3DpNPlAd2Ny3c6pzTm3c+AkyHMq2rZsZkdA52NkLCbgtAc+W4Op2PA0NVZ2d7W4LmgNzGoHaks1R6bM13UF1qTOyUelzIcgc56UAdRsWP0EdA+bdMQ08ahQ+vT/YHL6+7Hcibcq/lYdWNlUehOuFag2dZp70Q3zUzN60l/eUi/624aVr8KigLTL1GOI1++wBH3XKD3xp4lZHeMwo3oodQL/T7wy8vBMnfQuffpnHDjJPuq328Lbm6sGnUTVPdMJUp64T+WeffHzdDd9FTai9Cy++9K03XhOtHP0vPCvWfZS38KK+2+Can8376o19u1cflv1Cwp52xYTseYmNtW3//cUq67CAsqYLE3vWHpl+Rq8zPX4SRocj4KQYJ7bJvPonc6U6P7CpTCOy8dRxxtXZaIXmGZNj3ntiS12l5eEHcVTOvnFy2oS+JZhYyrn+k0PHOnHSPxdferns6dNPPpJpJkiABE5MAi6T4FlZc3x9/VToPj59h1heGZrd97YOFVpbGwsKdqg1ZVrdjoexCCWWEzyB7eVTZ1wt95YfiEbWaffu/N/9A5UOMz/vm79Pv+JfOkaiM+bDN9pcvynM68+5/hVrZw+bw8BceNZpdx/46m82S52QCUeOQ6ufMrejwvUvxI49NSgixZBZL++c8/+48eVrB60cO/YUTZ1uxPzQ/dm1c3t9fV14eARqzZw1Z82qlSUlpnm96/Y8CvGzJy1IjozrDfiNGIXYi/7Uy8fXlDVBccJNXG4/iX3dT7ti/PK39utbU0vVxYvNDQ504Vj3cV7OwmSxxWb6xJjbHjm9rKAeMQqxClMES8GoMAW+6v1cdXhII6YhTlNMcoPATb8/GSFiqsuaWpo6ImKD8JHz36j8yX92IniLxoLjDk8+5TTxYgRd7Nm9q6He/HXAjhs8LZMACTiCgMt8wf3w99XHT/2op6fmY6pbLZJpdTuetrbmlhb+RZNsXJ/4dP2jn298ou+z4e878j512piga/cv+0Pv8kTdn4jkKdYx8nRbDKGwseJgdcE6nQYQyjbdlHWaDFrU3ly9+fWbO1oMBeVsOLqvaNOrg9p0VIWe7p0fPIh5a7Pt92x989a6wxZXbB37AJW7/FGdCrIoKedCmRaJljrLvLKmSB6+8NyzMn3jzbeIMIUyx6GJV/5vXUVJg+wC3s+JYyKSMiOl/kZRa3NH8X7tqgnZxGYCW2nKfKz7lGnTE4jr8vZjm+QSTEx7I3pgYgbCy2BNc+8PnG3efWJzc732Hc6hHRWY+YbsFtXwL7b1gXAfPTEGilzqbzT/4tU9uVu0TiyylemJqKjob11wkTDb0dH+5uuvmN4FDZIACXgcAZdJcOPzf90DbE6OSfSWlr6vmcrKIo9DP7IHvCPvs3W73+j77Hmz3SpIyJBOH/HmhlQfDgabXr9Zx8egvmz39nfvNqhW1a6Ne27s+fRXhRteUNuqaWi4jpahCSC1+UDp1vqyjS9fV7rzfeuoLLJJe1PV7o9/vv3du1rrS2Wm8YRxAgdXPF6R+7W1ZYRK3PH+ffVHdlkXDT8Hw4O4z1v5D514i5jDLlj77PoXvm0kYszoeTf5h8RoBoY3LZoc68PS0sNff/mFyEco6B/88A7rOg7KgQZ99Y/rVr57oKVRK1LRY1tL58p3c//94Ao4jg9pANlzE2V9TC3LtCMSRwvrn//lqrL8Omvj5UX1L/xyFTa2tC5CTtG+6qfuX75paUF9de+MuKYOxDdkOizvWjX4Q5Smrd2HAQEBd95zH8JTCgsvvfDftrah/UGzu2s2JAEScGcCXtmTtV6z7jxc67FhLjwkJKqxscr6r611ZeacaARC48bDJzskNrM3YrSXd3N1Aby0MQHsCPlrky32SI9InhoWPz44OqOzvam1rhTiu7Zk66ARu21aG1JmVPocxCUMDE8KCI3rbGtoKD/QWL4P/w7qRDGkXgatDLcQuOZjJSgm/ptrCutKd9QUOSledUjsWCy9BYHA8ET8fWisyG0s399QjqtvQ9jZPBGsXs1YcIumCC40a5690KAX++0/ujt9dIawsGnj+rffekNjzdGHmLqOTgqJig/u7OwuK6grL6xXVzca7x0z6D/466liIhnKHgreeNvh1IQDd+qE6LCogPaWLizTLMmtGVKkxejEkJRxUbj6PV098AsvzauFCh/OeIbaFsr77vseTEjoe3pZ8fWX9AIfKkPWJ4GRSsDjJfhIvTA8rxOKANaG+gVGDPWUj02l254LHKopl9f3C4oKikge6jDwHsOIT8hQzaJ+WEI2VguoS3ilkZJtSzCJLg/1E/A/uee+B+PiE0S1jRvWvbPkTf0mblgKV5Drfrkg/PhGNiuW7N/6FV88Dn6hcPXvvPu+xKS+G3vL5o1OW5g7+OBYgwRIwNUEXLYc09Unzv5JwI0ITFj0EGashzqgpsq8rUtuG2or96yfPOXiocbqxolgQnr1v88z8YzwLBQ37szEiefi9YVNsw3l+43rb1jAZvVPPP7ofQ/+NCoqCodz5s6HW8Jrr7xk07h7ZiImyUW3zwgJ9xfDw5LH7SuctLTUPYEYHJWfn/9d994fFxcv6u/ds5v62yA6ViOBE4QAJfgJcqF5miOQgCb0+Ag8w8FOSS6wG6yiofIpF/9NE1td06y9uWbXBz/WZA56iOV3j/7tTz+8/c6UY7vWj58wEcN2f8c5Xz/vzGnxk09KwVJIeY7wI3/1D+ucv6mkHIAHJcIjwmUIlA3r17779lseNHgOlQRIwAkEKMGdAJldkAAJeACBjmY9r57yA1/kfv2oQRdwzdl2dHT884nHrr/x5qxx4x5/5K/urL8j4oImn5Q6dlocvKg1Z1Fe3PDBv7YiXIkmn4c2CVRVVv7nmae+/4Pbln72yddf9S3MtVmTmSRAAicmAUrwE/O686xJgAS0BBBIJzbrNG0uQohgIefyR42ET7FuK3Mgu1964TksznPzPRFnL86YckqqHLZIYPJ7xVv796yzJ4SOxtQJdZh3MPfnP33Aza/4CXVFeLIk4FYEKMHd6nJwMCcogZqiDQa31FEBNRw1c4t71bLz0whUgmA1Q+3X3OgutYe3qgPAhHfdkV1FG18yMX6i+6sxBPWTEhzBDY8U1G1eWohN41UyTBsn4P5X3Pi5sCYJkIC5BBgRxVyetEYCJODBBBZ8/3+Im15duA7z3o0VBzz4TOwdekCw77nfnQwhfmhnRV2FZXd3e+2xHQmQAAmQgG0ClOC2uTCXBEiABEiABEiABEiABBxEoG+/LgdZp1kSIAESIAESIAESIAESIAENAUpwDRAekgAJkAAJkAAJkAAJkIBjCVCCO5YvrZMACZAACZAACZAACZCAhgAluAYID0mABEiABEiABEiABEjAsQQowR3Ll9ZJgARIgARIgARIgARIQEOAElwDhIckQAIkQAIkQAIkQAIk4FgClOCO5UvrJEACJEACJEACJEACJKAhQAmuAcJDEiABEiABEiABEiABEnAsAUpwx/KldRIgARIgARIgARIgARLQEKAE1wDhIQmQAAmQAAmQAAmQAAk4lgAluGP50joJkAAJkAAJkAAJkAAJaAhQgmuA8JAESIAESIAESIAESIAEHEuAEtyxfGmdBEiABEiABEiABEiABDQEKME1QHhIAiRAAiRAAiRAAiRAAo4lQAnuWL60TgIkQAIkQAIkQAIkQAIaApTgGiA8JAESIAESIAESIAESIAHHEqAEdyxfWicBEiABEiABEiABEiABDQFfzbELD318fL29e8fT2dne09NtfCR+fgGBgaEBAcGw0Nra1NLS0N7eYrw5a5IACZAACZAACZAACZCAMwm4hQT38vKKjU2Pj88QZ15TU1Zaut8IBShvtAoLi9FU7unpqawsKi8vHDWqR1PEQxIgARIgARIgARIgARJwLQHXS/Dg4IjU1ImYyZYgvH18ZFonERERl5o6yWYFaPq4uNGQ5oWFOzGnbrMOM0mABEiABEiABEiABEjAJQRcKcHhN5KUNC4iIt6OMw8JiVT1d11deVNTTVdXp79/UHR0ihD0mCMfN27u/v1ru7u77OiCTUiABEiABEiABEiABEjAEQRcJsGjohKhv7287FwPirYSR17e5tbWRnlYWVWSkjw+MjIROd7ePjExqRUV8EjhDwmQAAmQAAmQAAmQAAm4BQE7FfAwx56WlpOcPEHq746Otvz8bfjXoFk0xOJLUbm8PF/V372ZPT2lpbmYERcVQkOjRYL/kgAJkAAJkAAJkAAJkIA7EHDNLDicRsLDY3H+WDcJDY15a6SM4wgODpeVGxqqZVomEFClublOLNNUvcxlBSZIgARIgARIgARIgARIwFUEXCPBq6tL4bGN0IGlpQfsWC7p6+snecHVRKbVBP2/VRpMkwAJkAAJkAAJkAAJuA8B10hwnP/BgxvtptDe3irbhoVFY8JbHspEUFDfTHlbW5PMZIIESIAESIAESIAESIAEXE7ANb7gwzxt7L8j9+7BaktER9EYxFpPf/9AkVlZWawp5SEJkAAJkAAJkAAJkAAJuJCAR0pw6O9j2+70csPSzIyMacnJ4xGOUHCEiwvWeop0dfXhpqZakea/JEACJEACJEACJEACJOAOBFzmiDLMk8fml9DcmO0WdqKikvBpa2uGOkc4cJFZXl7AcITD5MzmJEACJEACJEACJEACphPwVAkOENjEHpFVsLOmhCIjFYpSbHQvi5ggARIgARIgARIgARIgATch4JGOKIIdZruxC/1AHOGLkp6eM1C8lIFaMZ8ESIAESIAESIAESIAEHE3AUyU4Yn6PHTtLTHvD+aSoaNfBg5sQ61Au0wS4sLBY1PH19Xc0RNonARIgARIgARIgARIgAeMEPFKCBwWFpadPFieJ6Ci5uRsaGqoQfPDIkdy9e1eVleXJ84e/+OjRU+QhEyRAAiRAAiRAAiRAAiTgcgIeKcFTUvoCnmBzzcLC7erO9sipqipB0HGZCX+ViIh4l4PmAEiABEiABEiABEiABEhAEPA8CY4N5wMCQsToa2pKOzs7rK8lQqMUFu6Q+ZTgEgUTJEACJEACJEACJEACLifgeRJc6m+wa21tHIggVLg6ET5QNeaTAAmQAAmQAAmQAAmQgJMJeJ4E9/GxBFLs7u7W4YVde0Spt7fnnabOebGIBEiABEiABEiABEjAowl4njbt6GiVxNUZcZkpEtDfvr5+It3ebmmiqcZDEiABEiABEiABEiABEnAyAc+T4AiBIhnFxKSok+IyH4nExEx52NxcJ9NMkAAJkAAJkAAJkAAJkIBrCXieBO/u7qqtPSqoYeed0aOn+vsHqhAx/x0fPyY6OkVmVlYWyzQTJEACJEACJEACJEACJOBaAl7Zk2e7ZARZWXOko4gYgI9Pn98IDru6LHFOsOayoMAS3gSlqDlu3By1flNTbXt7C9Q5AoGHhESqm2IeOXKwuvqwS86RnZIACZAACZAACZAACZCANQHL0kbrMofmILagKpQ1fany2s+v3yQ3akKgHzq0NSNjGoyIhpDd+GiM4PDo0UPU39ZYmEMCJEACJEACJEACJOBCAi6T4Md2kvcxcuaY27auhjnv3Nz1sbHp0dHJ1lvQY4Me7JdZXp6P0ITWbZlDAiRAAiRAAiRAAiRAAi4k4DJHFBPPGc4n+Pj5+Xt5+XR2tnd2trW0NB6T+CZ2QlMkQAIkQAIkQAIkQAIkYA4Bl82CmzP8Y1YwI46PiQZpigRIgARIgARIgARIgAQcR8DzIqI4jgUtkwAJkAAJkAAJkAAJkIATCFCCOwEyuyABEiABEiABEiABEiABCwFKcAsLpkiABEiABEiABEiABEjACQQowZ0AmV2QAAmQAAmQAAmQAAmQgIUAJbiFBVMkQAIkQAIkQAIkQAIk4AQClOBOgMwuSIAESIAESIAESIAESMBCgBLcwoIpEiABEiABEiABEiABEnACAUpwJ0BmFyRAAiRAAiRAAiRAAiRgIUAJbmHBFAmQAAmQAAmQAAmQAAk4gQAluBMgswsSIAESIAESIAESIAESsBCgBLewYIoESIAESIAESIAESIAEnECAEtwJkNkFCZAACZAACZAACZAACVgIUIJbWDBFAiRAAiRAAiRAAiRAAk4gQAnuBMjsggRIgARIgARIgARIgAQsBCjBLSyYIgESIAESIAESIAESIAEnEKAEdwJkdkECJEACJEACJEACJEACFgKU4BYWTJEACZAACZAACZAACZCAEwhQgjsBMrsgARIgARIgARIgARIgAQsBSnALC6ZIgARIgARIgARIgARIwAkEKMGdAJldkAAJkAAJkAAJkAAJkICFACW4hYVrUz4+fskp2V7eQ7sifn6BScnjvbyG1sq1Z8reSYAESIAESIAESOAEJ+ATG598giNwk9PPmXJmanpOcsrExsbq1pYGg6OaMn1xSuokaPf6+oq21iaDrViNBEiABEiABEiABEjAhQQ4e+pC+Jauk1ImxMSm4djPL8DHx9dSoJtKGz0lMjKxt5V/oLe3j25dFpIACZAACZAACZAACbgLAUpw11+J4JDI8RMWinGUHcmtrCg0MqawsNjMsbNFzZLi3TXVpUZasQ4JkAAJkAAJkAAJkIDLCRidcHXCQDH76+3dO57Ozvaenm7jPQYFhQUEBMMruqurs6WlobW1cUjNjXfkiJqYvZ46/WxhGf4nufvXGukFjuNTpi0WNZuaag8d3GikFeuQAAmQAAmQAAmQAAm4AwG3kOBeXl6xsenx8RmCSE1NWWnpfiN0YmPT8IEe1VRub28pKtrV1tasyXfDw/HZCwMCQjCwnp6enduXdXd3GRlk9qRT4XxyvNVStDXSinVIgARIgARIgARIgATcgYDrJXhwcERq6kT4QEsc3j6DuzVj8njMmOmBgaGylZrw9w8aO3Z2cfHuhoYqNd/d0vEJYxISs8SoDuxb3dxcZ2SECIESG5cuau7dvZyrMI1AYx0SIAESIAESIAEScB8CrpTg8DxJShoXERFvB4709MlSf2MOuLGxqrW1CQaDgyMDA3snlTGzjjoFBdvhp2GHfSc0wfizJ50mOoL/N7zAjXQKx/FxiuN4RXmBkVasQwIkQAIkQAIkQAIk4D4EXCbBo6ISob/tC2iNtiEhkQIivE0KC3d2dLRKpjExKYnHp5YTEjIPHdoii9wngROfMv1sPCdgSB3trfv2rDQytl7H8Wl9rTD5bdBx3Ihl1iEBEiABEiABEiABEnAaAddERElLy0lOniD1d0dHW37+Nvxr8LRjYlJlzcLCHar+Rn5V1eHq6sOiAlZq4iMru08iM2s2PHDEeHZsX9rV1WFkbOMmLAg4NsePif8d2z436DhuxDLrkAAJkAAJkAAJkAAJOI2AayR4U1ONOENIyaNHDx3IXW/QDRqtsPhSrF9Euq6uwqZwr1Yi9GG9ptNoGuwoOiYlNS1HVM47uKHRmMN6XHxGYtI40Sp3/xrjxAyOitVIgARIgARIgARIgAScQ8A1jiiQyNHRKYhbUlp6ACEIh3Sq6sLNlpZ6m23hnQLjWJSJUukybrOm8zMxqpwpZ4l+a2qOlBTtNjIGTH5PzDld1ITj+JHSA0ZasQ4JkAAJkAAJkAAJkIAbEnCNBAeIg/aGskb8b8lRR75DhQsJ7uvrL+u7QyJn6lliJ0sMfs+ur40MCS7jU467gBt3HDdimXVIgARIgARIgARIgAScT8A1jijDOc/+2+4MGA9bqnPoXel0Ppx+TWk7esz08PA4YWrXji87jbm/Z46dI5efIna4QcdxUwZMIyRAAiRAAiRAAiRAAqYT8DwJ3tlpWbWpzohr0EgJjnzVd0VTzZmH4RHxGWNmiB4LC7bX1ZYZ6T0qOiU1vc9xHLtgNjRUGmnFOiRAAiRAAiRAAiRAAm5LwPMkeHu7Jf5gaGi0TbKQ5vA1t1nkqkz4w8gt5bFhUEH+ViMjwRaYk6f2OY7X1pYVF+0y0op1SIAESIAESIAESIAE3JmA50lwROKTAVXgniFD+0nK0N9jx87CNj0yp6urU6ZdlZg0+XThlY7x79r+BfajNzKSyVP6HMfhfLJn51dGmrAOCZAACZAACZAACZCAmxOw6FQ3H6g6vIqKopCQKJGDberLyvLq6o52dnbA7TsiMiExIVOsd5RNurtdLMFTUifCn0SMZ8/Or9vbm+XYdBKjM6bBd0VUgGq3GX7Runn2pFPiE8Za59vM2bLxg8bGaptFzCQBEiABEiABEiABEnAQAY+U4Nhz/lhYw2QBJTFxLD4IMS42m9SQQj5+NJnOPAwJjcoaP1/0eLhkb1VVsZHeex3HM2eKmkUFO+CFYqQV6kTHpNnkYLN5S2uDzXxmkgAJkAAJkAAJkAAJOI6A5zmiCBZHjuRWVvbTslJ3QnAXFGxHXHBR0+CUs4MQwx9m6vSzhfGW5vq83A1GOvLx9Zs8dZGoiY178vO3GGmFOr5+AcbXniKqelenoV05DfbOaiRAAiRAAiRAAiRAAkYIeOQsuDgxbKtZW3sUm9WHhERAd0J5IwpKfX0ldqeH87cICo6azc2unOgdn32yv38whoHh7dy+tH9ExQEv0KSc04WShuP4zh1GHcdhDlEO16x8bdQorwFNKwXc316BwSQJkAAJkAAJkAAJOI+AB0twQGprayot3W9NS92UXq7dtK7m6JyExKz4hDGil317vmlpMfQwkJw6MTomVbTC3j3tbYYcx+W5GHQZl/WZIAESIAESIAESIAEScDIBT3VE0cGEtZixsemiAmad6+srdCo7rigoKGzCxJOF/aNleeVHDxnpC47j4447jpce3lfV39nGiAXWIQESIAESIAESIAEScHMCI1CCp6dPlhEJsWrTJWsxsR/nlOlnC/d0TNUf2L/GyH3g7eMrY4fDUfvggfVGWrEOCZAACZAACZAACZCAZxHwbEcUDWsI35TUbLmXO8IUlpcXaOo45zBr/LygoHDR185ty7qNBSYfP2FhQEAIWvU6jm8z6jjunDNiLyRAAiRAAiRAAiRAAmYRGDkSPDAwFPPfajyQoqKdLllxGBOblpySLa5Q7oF1Bp3R4xMyExL74nnv37vSoOO4WfcB7ZAACZAACZAACZAACTiNwEiQ4MHB4fHxY+TkN9jBBTw/f5tLVKx/QPCkyWeI61ddVVJastfItYTjePakU0VNeI3Dd9xIK9YhARIgARIgARIgARLwRAIuk+BZWXN8ff1UZD4+fYcR4XGh2QtlUWtrY0HBDnkoEwEBwRERCZGRCerMN0qbm+tLSvZ2dLTKms5LeHlNmbpI7M2JyCR7di830nWv4/i0PsdxRDHfv2+1kVasQwIkQAIkQAIkQAIk4KEEXCbBoZs128irBKUcR6afX6BaJNKQ7xDxmvz29lZsVt/QUKnJd9rhmDEzQ8NiRHe7ti8zuPHN2HFzg4L7HMd3bFtq0HHcaSfFjkiABEiABEiABEiABMwl4DIJfmyTGh8jJ2PTnxtLLTHNLOa/sXgRsruqqgTz30YMOqhOZGRiesZUYTz/0BaDwRBjYtJSUieKVhyk3wgAAAV6SURBVAfhON5Y46Dh0SwJkAAJkAAJkAAJkICbEHCZBN+3z1CcPh1MVVXFiDpSV1fe2FhjcNdJHWvDLMLDwORpi4SR+rryooLtRgxi48xJU6Tj+OHDxhzHjVhmHRIgARIgARIgARIgAbcl4DIJPnwiVVWHR43Cxy1+Jk05UzjPdHV17NrxpaExeXlBtUvH8b3GHMcNWWYlEiABEiABEiABEiABNyYwArfmcT5txDPBwlDR7+6dXxlcCRoSHBkaGi1a7drxRWdnu/NHzh5JgARIgARIgARIgAScT8AnNj7Z+b2OsB6hnkuKd8MZprq6xHg8QSj1wyV7vEZ5VZTnV1YUjjAmPB0SIAESIAESIAESIIGBCHhlT549UBnzSYAESIAESIAESIAESIAETCdARxTTkdIgCZAACZAACZAACZAACegRoATXo8MyEiABEiABEiABEiABEjCdACW46UhpkARIgARIgARIgARIgAT0CFCC69FhGQmQAAmQAAmQAAmQAAmYToAS3HSkNEgCJEACJEACJEACJEACegQowfXosIwESIAESIAESIAESIAETCdACW46UhokARIgARIgARIgARIgAT0ClOB6dFhGAiRAAiRAAiRAAiRAAqYToAQ3HSkNkgAJkAAJkAAJkAAJkIAeAUpwPTosIwESIAESIAESIAESIAHTCVCCm46UBkmABEiABEiABEiABEhAjwAluB4dlpEACZAACZAACZAACZCA6QQowU1HSoMkQAIkQAIkQAIkQAIkoEeAElyPDstIgARIgARIgARIgARIwHQClOCmI6VBEiABEiABEiABEiABEtAjQAmuR4dlJEACJEACJEACJEACJGA6AUpw05HSIAmQAAmQAAmQAAmQAAnoEaAE16PDMhIgARIgARIgARIgARIwnQAluOlIaZAESIAESIAESIAESIAE9AhQguvRYRkJkAAJkAAJkAAJkAAJmE6AEtx0pDRIAiRAAiRAAiRAAiRAAnoEKMH16LCMBEiABEiABEiABEiABEwnQAluOlIaJAESIAESIAESIAESIAE9ApTgenRYRgIkQAIkQAIkQAIkQAKmE6AENx0pDZIACZAACZAACZAACZCAHgFKcD06LCMBEiABEiABEiABEiAB0wlQgpuOlAZJgARIgARIgARIgARIQI8AJbgeHZaRAAmQAAmQAAmQAAmQgOkEKMFNR0qDJEACJEACJEACJEACJKBHgBJcjw7LSIAESIAESIAESIAESMB0ApTgpiOlQRIgARIgARIgARIgARLQI0AJrkeHZSRAAiRAAiRAAiRAAiRgOgFKcNOR0iAJkAAJkAAJkAAJkAAJ6BGgBNejwzISIAESIAESIAESIAESMJ0AJbjpSGmQBEiABEiABEiABEiABPQIUILr0WEZCZAACZAACZAACZAACZhOgBLcdKQ0SAIkQAIkQAIkQAIkQAJ6BCjB9eiwjARIgARIgARIgARIgARMJ0AJbjpSGiQBEiABEiABEiABEiABPQLe+NErZxkJkAAJkAAJkAAJkAAJkIB5BHr1d1RMjHkGaYkESIAESIAESIAESIAESECPAOS3d2bWOL0qLCMBEiABEiABEiABEiABEjCPAOS394zZc8wzSEskQAIkQAIkQAIkQAIkQAJ6BCC/vdNGZ8xZsFCvFstIgARIgARIgARIgARIgATMIADhDfnduxbzosuvzJqQbYZN2iABEiABEiABEiABEiABErBNAJIbwhtlfeFQbrzlVs6F20bFXBIgARIgARIgARIgARIYNgGIbUhuYcZryWcrpcHiwoKtmzYeOphbU1XV3d0t85kgARIgARIgARIgARIgARIYKgERfhDrL+H/Df8T2fz/AXpa3T4I+cf6AAAAAElFTkSuQmCC;" vertex="1" parent="1">
                    <mxGeometry x="20" y="20" width="361.7" height="414" as="geometry"/>
                </mxCell>
                <mxCell id="27" value="" style="rounded=0;whiteSpace=wrap;html=1;fontSize=26;fontColor=#ffffff;labelBackgroundColor=none;fillColor=none;strokeColor=#2D7600;strokeWidth=3;" vertex="1" parent="1">
                    <mxGeometry x="54.7" y="55" width="310.3" height="19" as="geometry"/>
                </mxCell>
                <mxCell id="28" value="" style="rounded=0;whiteSpace=wrap;html=1;labelBackgroundColor=none;fontSize=26;fontColor=#0D0D0D;strokeWidth=1;fillColor=none;" vertex="1" parent="1">
                    <mxGeometry x="54.7" y="75" width="310.3" height="190" as="geometry"/>
                </mxCell>
                <mxCell id="30" value="" style="curved=1;endArrow=classic;html=1;fontSize=26;fontColor=#0D0D0D;exitX=1;exitY=0.25;exitDx=0;exitDy=0;" edge="1" parent="1" source="27">
                    <mxGeometry width="50" height="50" relative="1" as="geometry">
                        <mxPoint x="410" y="89.5" as="sourcePoint"/>
                        <mxPoint x="485" y="80" as="targetPoint"/>
                        <Array as="points">
                            <mxPoint x="460" y="89.5"/>
                            <mxPoint x="410" y="39.5"/>
                        </Array>
                    </mxGeometry>
                </mxCell>
                <mxCell id="31" value="&lt;h1 style=&quot;font-size: 20px&quot;&gt;Resultado&lt;/h1&gt;&lt;p style=&quot;font-size: 20px&quot;&gt;Necesita tener las partes separadas para notar un mejor encapsulamiento&lt;/p&gt;" style="text;html=1;strokeColor=none;fillColor=none;spacing=5;spacingTop=-20;whiteSpace=wrap;overflow=hidden;rounded=0;labelBackgroundColor=none;fontSize=20;fontColor=#0D0D0D;labelBorderColor=none;" vertex="1" parent="1">
                    <mxGeometry x="430" y="75" width="270" height="285" as="geometry"/>
                </mxCell>
            </root>
        </mxGraphModel>
    </diagram>
</mxfile>